<?xml version="1.0" encoding="UTF-8"?>
<svg id="_レイヤー_2" data-name="レイヤー 2" xmlns="http://www.w3.org/2000/svg" viewBox="0 0 82 56">
  <defs>
    <style>
      .cls-1 {
        fill: none;
      }

      .cls-2 {
        fill: #f29600;
      }

      .cls-3 {
        fill: #fff;
      }

      .cls-4 {
        fill: #1b2951;
      }

      .cls-5 {
        fill: #d8231d;
      }
    </style>
  </defs>
  <g id="_レイヤー_1-2" data-name="レイヤー 1">
    <g>
      <rect class="cls-1" width="82" height="56"/>
      <g>
        <rect class="cls-4" x=".37" y=".8" width="81.25" height="13.83"/>
        <rect class="cls-5" x=".37" y="14.63" width="81.25" height="26.88"/>
        <rect class="cls-4" x=".37" y="41.37" width="81.25" height="13.83"/>
        <g>
          <g>
            <path class="cls-3" d="M41.47,15.91s-.12-.26-.34-.3c-.21.04-.34.3-.34.3-.14.29.04.57.04.57h.6s.18-.28.04-.57Z"/>
            <path class="cls-2" d="M41.47,16.53h-.66l-.02-.03s-.2-.31-.04-.63c0-.01.14-.28.38-.33h.01s.01,0,.01,0c.24.05.37.32.38.34.16.32-.04.61-.04.63l-.02.03ZM40.87,16.41h.53c.04-.07.12-.27.02-.48,0,0-.11-.22-.28-.27-.18.05-.28.26-.28.27-.1.21-.02.41.02.48Z"/>
          </g>
          <g>
            <rect class="cls-3" x="40.65" y="16.52" width=".98" height=".47"/>
            <path class="cls-2" d="M41.69,17.04h-1.1v-.59h1.1v.59ZM40.71,16.92h.86v-.34h-.86v.34Z"/>
          </g>
          <g>
            <rect class="cls-3" x="40.49" y="17.05" width="1.29" height=".47"/>
            <path class="cls-2" d="M41.84,17.58h-1.41v-.59h1.41v.59ZM40.55,17.45h1.16v-.34h-1.16v.34Z"/>
          </g>
          <g>
            <rect class="cls-3" x="40.34" y="17.59" width="1.59" height=".47"/>
            <path class="cls-2" d="M41.99,18.11h-1.71v-.59h1.71v.59ZM40.4,17.99h1.46v-.34h-1.46v.34Z"/>
          </g>
          <g>
            <path class="cls-3" d="M42.34,17.9c-.15.05-.3.19-.38.28h-1.65c-.08-.09-.22-.23-.38-.28,0,0,.06.18.31.31v.44h.58c.06-.05.23-.18.32-.18,0,0,.16.05.31.18h.57v-.44c.25-.13.32-.31.32-.31Z"/>
            <path class="cls-2" d="M42.03,18.71h-.57s-.03,0-.04-.02c-.11-.11-.24-.16-.27-.17-.05,0-.16.08-.28.17-.01,0-.02.01-.04.01h-.58s-.06-.03-.06-.06v-.4c-.24-.13-.31-.32-.31-.33,0-.02,0-.05.01-.06.02-.02.04-.02.06-.01.16.06.3.19.38.28h1.6c.08-.09.22-.22.38-.28.02,0,.05,0,.06.01.02.02.02.04.01.06,0,0-.07.19-.31.33v.4s-.03.06-.06.06ZM41.48,18.59h.48v-.34h-1.65s0,0,0,0v.34h.5c.08-.06.24-.18.35-.18,0,0,.01,0,.02,0,0,0,.17.05.31.18Z"/>
          </g>
          <g>
            <path class="cls-3" d="M40.52,19.43l-.24-.28s.16.04.27.14c0,0,.14-.51.49-.65,0,0,.09-.05.19,0,0,0,.37.14.51.62,0,0,.19-.14.26-.11l-.23.27s-.33-.23-.59-.3c0,0-.05-.02-.08,0,0,0-.29.1-.57.31Z"/>
            <path class="cls-2" d="M40.52,19.49s-.03,0-.05-.02l-.24-.28s-.02-.05,0-.07c.01-.02.04-.03.07-.03,0,0,.12.03.22.1.06-.16.21-.49.5-.6h0s.05-.03.12-.03c.04,0,.08.01.12.03,0,0,.35.14.51.58.08-.05.19-.1.25-.08.02,0,.03.02.04.04,0,.02,0,.04-.01.05l-.23.27s-.06.03-.08.01c0,0-.33-.22-.58-.29,0,0-.02,0-.03,0-.02,0-.3.11-.57.3-.01,0-.02.01-.04.01ZM41.12,19.05s.06,0,.07,0c.17.05.37.16.5.24,0,0,0-.01-.01-.02-.13-.44-.46-.58-.47-.59-.07-.04-.13,0-.13,0-.3.12-.43.52-.46.6.24-.15.44-.22.45-.23.01,0,.03-.01.06-.01Z"/>
          </g>
          <g>
            <path class="cls-3" d="M40.14,18.76c-.15-.15-.33-.24-.33-.24-.18-.06-.07.07-.07.07.1.09.22.16.31.2v.62h.32l-.28-.32s.15-.15.37.01c0,0,.09-.24.22-.34h-.55Z"/>
            <path class="cls-2" d="M40.38,19.48h-.33s-.06-.03-.06-.06v-.58c-.12-.06-.21-.12-.29-.19-.04-.04-.07-.1-.05-.15.01-.02.05-.07.17-.03.01,0,.18.09.33.23h.53s.05.02.06.04c0,.02,0,.05-.02.07-.1.08-.18.26-.2.32,0,.02-.02.03-.04.04-.02,0-.04,0-.05,0-.09-.07-.19-.07-.25-.05l.22.26s.03.03.03.05c0,.03-.03.06-.06.06ZM40.27,18.97c.06,0,.12.02.18.05.02-.05.06-.13.11-.19h-.42s-.02,0-.03,0v.19s.09-.04.15-.04Z"/>
          </g>
          <g>
            <path class="cls-3" d="M42.47,18.53s-.17.08-.33.24h-.56c.13.11.22.34.22.34.23-.16.37-.01.37-.01l-.28.32h.32v-.62c.09-.04.21-.11.31-.2,0,0,.11-.13-.07-.07Z"/>
            <path class="cls-2" d="M42.23,19.48h-.32s-.05-.01-.06-.04c-.01-.02,0-.05,0-.06l.23-.27c-.06-.02-.15-.02-.25.05-.01.01-.03.01-.05,0-.02,0-.03-.02-.04-.04,0,0-.09-.22-.2-.32-.02-.02-.03-.04-.02-.07,0-.02.03-.04.06-.04h.53c.16-.15.32-.23.32-.23.05-.02.08-.02.1-.02.05,0,.08.03.08.05.02.05-.02.11-.04.14-.08.08-.18.14-.29.2v.58s-.03.06-.06.06ZM41.72,18.83c.05.07.09.14.11.19.13-.07.26-.05.33,0v-.19s-.02,0-.02,0h-.42Z"/>
          </g>
          <g>
            <path class="cls-3" d="M40.29,20.11l-.33-.3s.25.05.33.12c0,0,.21-.53.77-.64,0,0,.1-.03.16,0,0,0,.53.13.76.63,0,0,.21-.12.34-.1l-.34.28h-.49s-.21-.12-.33-.16c0,0-.05-.02-.07,0,0,0-.17.06-.33.16h-.48Z"/>
            <path class="cls-2" d="M41.99,20.17h-.49s-.02,0-.03,0c0,0-.2-.12-.32-.16-.01,0-.02,0-.02,0-.01,0-.17.06-.32.16-.01,0-.02.01-.03.01h-.48s-.03,0-.04-.02l-.33-.3s-.03-.05-.01-.07c.01-.02.04-.04.07-.03.02,0,.18.04.29.09.08-.15.31-.52.79-.62,0,0,.13-.03.2,0,.01,0,.51.13.76.61.08-.04.22-.09.33-.07.02,0,.04.02.05.04s0,.05-.02.06l-.34.28s-.02.01-.04.01ZM41.52,20.05h.45l.14-.12s-.07.03-.09.04c-.02,0-.03.01-.05,0-.02,0-.03-.02-.04-.03-.21-.47-.71-.6-.72-.6-.07-.03-.13,0-.13,0-.53.11-.73.6-.74.61,0,.02-.02.03-.04.04-.02,0-.04,0-.05-.01-.01,0-.02-.02-.04-.03l.1.09h.44c.14-.09.28-.15.32-.16.04-.02.12,0,.12,0,.11.03.27.13.32.16Z"/>
          </g>
          <g>
            <path class="cls-3" d="M39.97,19.57c-.03-.14-.41-.36-.41-.36-.08-.07-.12-.02-.12-.02-.01.14.27.31.41.38v.1c.17,0,.39.06.39.06.01-.03.14-.17.14-.17h-.41Z"/>
            <path class="cls-2" d="M40.24,19.8s0,0-.01,0c0,0-.22-.06-.38-.06-.03,0-.06-.03-.06-.06v-.07c-.28-.15-.42-.29-.41-.42,0-.01,0-.03.01-.04.03-.03.12-.05.21.01.05.03.34.2.42.35h.37s.05.01.06.04c0,.02,0,.05-.01.07-.06.06-.12.14-.13.15-.01.02-.03.03-.06.03ZM39.52,19.26c.05.07.16.16.36.26,0,0,0,0,0,0-.07-.08-.21-.18-.35-.26,0,0,0,0-.01,0Z"/>
          </g>
          <g>
            <polygon class="cls-3" points="39.84 19.9 39.84 20.13 40.13 20.13 39.84 19.9"/>
            <path class="cls-2" d="M40.13,20.19h-.28s-.06-.03-.06-.06v-.23s.01-.04.03-.05c.02-.01.05,0,.06,0l.28.23s.03.04.02.07c0,.02-.03.04-.06.04Z"/>
          </g>
          <g>
            <path class="cls-3" d="M42.3,19.57c.03-.14.42-.36.42-.36.08-.07.12-.02.12-.02.01.14-.27.31-.41.38v.1c-.17,0-.39.06-.39.06-.02-.03-.14-.17-.14-.17h.41Z"/>
            <path class="cls-2" d="M42.04,19.8s-.04-.01-.05-.03c-.01-.02-.08-.09-.13-.16-.02-.02-.02-.04-.01-.07.01-.02.03-.04.06-.04h.37c.08-.15.36-.32.43-.35.06-.06.17-.04.2,0,0,0,.01.02.01.03.01.13-.13.27-.41.42v.07s-.03.06-.06.06c-.16,0-.38.06-.38.06,0,0-.01,0-.02,0ZM42.76,19.26c-.14.08-.29.18-.36.26h0c.19-.1.31-.2.35-.26Z"/>
          </g>
          <g>
            <polygon class="cls-3" points="42.43 19.9 42.43 20.13 42.15 20.13 42.43 19.9"/>
            <path class="cls-2" d="M42.43,20.19h-.28s-.05-.02-.06-.04c0-.02,0-.05.02-.07l.28-.23s.04-.02.06,0c.02.01.03.03.03.05v.23s-.03.06-.06.06Z"/>
          </g>
          <g>
            <path class="cls-3" d="M45.97,26.62v.59h-.14s-.16.51-.63.58h6.21v-1.17h-5.45Z"/>
            <path class="cls-2" d="M51.41,27.86h-6.21s-.06-.02-.06-.06c0-.03.02-.06.05-.06.42-.06.57-.53.58-.54,0-.03.03-.04.06-.04h.08v-.53s.03-.06.06-.06h5.45s.06.03.06.06v1.17s-.03.06-.06.06ZM45.52,27.73h5.83v-1.05h-5.32v.53s-.03.06-.06.06h-.1c-.04.09-.14.32-.35.46Z"/>
          </g>
          <g>
            <path class="cls-3" d="M36.29,26.62v.59h.14s.16.51.62.58h-6.24v-1.17h5.47Z"/>
            <path class="cls-2" d="M37.06,27.86h-6.24s-.06-.03-.06-.06v-1.17s.03-.06.06-.06h5.47s.06.03.06.06v.53h.08s.05.02.06.04c0,0,.15.47.57.54.03,0,.06.03.06.06s-.03.06-.06.06ZM30.88,27.73h5.86c-.21-.14-.31-.37-.35-.46h-.1s-.06-.03-.06-.06v-.53h-5.35v1.05Z"/>
          </g>
          <g>
            <path class="cls-3" d="M43.01,27.66l.46-.45h2.21s-.15.43-.52.45h-2.15Z"/>
            <path class="cls-2" d="M45.16,27.72h-2.15s-.05-.02-.06-.04,0-.05.01-.07l.46-.45s.03-.02.04-.02h2.21s.04,0,.05.03c.01.02.01.04,0,.06,0,.02-.17.47-.57.49,0,0,0,0,0,0ZM43.16,27.6h2c.23,0,.36-.21.42-.32h-2.09l-.33.32Z"/>
          </g>
          <g>
            <rect class="cls-3" x="42.04" y="38.72" width="11.58" height="1.5"/>
            <path class="cls-2" d="M53.62,40.28h-11.58s-.06-.03-.06-.06v-1.5s.03-.06.06-.06h11.58s.06.03.06.06v1.5s-.03.06-.06.06ZM42.11,40.16h11.46v-1.37h-11.46v1.37Z"/>
          </g>
          <g>
            <rect class="cls-3" x="42.04" y="36.99" width="11.58" height="1.57"/>
            <path class="cls-2" d="M53.62,38.62h-11.58s-.06-.03-.06-.06v-1.57s.03-.06.06-.06h11.58s.06.03.06.06v1.57s-.03.06-.06.06ZM42.11,38.5h11.46v-1.44h-11.46v1.44Z"/>
          </g>
          <g>
            <rect class="cls-3" x="55.7" y="38.72" width="8.54" height="1.5"/>
            <path class="cls-2" d="M64.24,40.28h-8.54s-.06-.03-.06-.06v-1.5s.03-.06.06-.06h8.54s.06.03.06.06v1.5s-.03.06-.06.06ZM55.76,40.16h8.42v-1.37h-8.42v1.37Z"/>
          </g>
          <g>
            <rect class="cls-3" x="55.7" y="36.99" width="7.13" height="1.57"/>
            <path class="cls-2" d="M62.83,38.62h-7.13s-.06-.03-.06-.06v-1.57s.03-.06.06-.06h7.13s.06.03.06.06v1.57s-.03.06-.06.06ZM55.76,38.5h7.01v-1.44h-7.01v1.44Z"/>
          </g>
          <g>
            <rect class="cls-3" x="42.04" y="35.8" width="11.58" height="1.08"/>
            <path class="cls-2" d="M53.62,36.94h-11.58s-.06-.03-.06-.06v-1.08s.03-.06.06-.06h11.58s.06.03.06.06v1.08s-.03.06-.06.06ZM42.11,36.82h11.46v-.96h-11.46v.96Z"/>
          </g>
          <g>
            <rect class="cls-3" x="42.04" y="34.84" width="11.58" height=".83"/>
            <path class="cls-2" d="M53.62,35.73h-11.58s-.06-.03-.06-.06v-.83s.03-.06.06-.06h11.58s.06.03.06.06v.83s-.03.06-.06.06ZM42.11,35.61h11.46v-.71h-11.46v.71Z"/>
          </g>
          <g>
            <rect class="cls-3" x="55.69" y="35.8" width="5.7" height="1.08"/>
            <path class="cls-2" d="M61.4,36.94h-5.7s-.06-.03-.06-.06v-1.08s.03-.06.06-.06h5.7s.06.03.06.06v1.08s-.03.06-.06.06ZM55.76,36.82h5.58v-.96h-5.58v.96Z"/>
          </g>
          <g>
            <rect class="cls-3" x="55.69" y="34.84" width="4.58" height=".83"/>
            <path class="cls-2" d="M60.27,35.73h-4.58s-.06-.03-.06-.06v-.83s.03-.06.06-.06h4.58s.06.03.06.06v.83s-.03.06-.06.06ZM55.75,35.61h4.46v-.71h-4.46v.71Z"/>
          </g>
          <g>
            <polygon class="cls-3" points="42.34 34.34 42.06 34.34 42.06 33.49 42.22 33.49 42.34 34.34"/>
            <path class="cls-2" d="M42.35,34.4h-.28s-.06-.03-.06-.06v-.85s.03-.06.06-.06h.15s.06.02.06.05l.13.83s0,.02,0,.03c0,.03-.03.06-.06.06ZM42.12,34.28h.15l-.11-.73h-.04v.73Z"/>
          </g>
          <g>
            <polygon class="cls-3" points="43.08 34.34 42.47 34.34 42.33 33.49 42.84 33.49 43.08 34.34"/>
            <path class="cls-2" d="M43.08,34.4h-.61s-.06-.02-.06-.05l-.14-.85s0-.04.01-.05c.01-.01.03-.02.05-.02h.51s.05.02.06.04l.24.83s.01.02.01.03c0,.03-.03.06-.06.06ZM42.53,34.28h.47l-.21-.73h-.39l.12.73Z"/>
          </g>
          <g>
            <polygon class="cls-3" points="45.1 34.34 43.2 34.34 42.98 33.49 44.66 33.49 45.1 34.34"/>
            <path class="cls-2" d="M45.1,34.4h-1.9s-.05-.02-.06-.05l-.23-.85s0-.04.01-.05c.01-.01.03-.02.05-.02h1.68s.04.01.05.03l.43.83s.02.03.02.04c0,.03-.03.06-.06.06ZM43.25,34.28h1.75l-.37-.73h-1.57l.19.73Z"/>
          </g>
          <g>
            <polygon class="cls-3" points="50.55 34.34 45.24 34.34 44.79 33.49 50.99 33.49 50.55 34.34"/>
            <path class="cls-2" d="M50.55,34.4h-5.31s-.04-.01-.05-.03l-.45-.85s0-.04,0-.06c.01-.02.03-.03.05-.03h6.2s.04.01.05.03c.01.02.01.04,0,.06l-.44.85s-.03.03-.05.03ZM45.28,34.28h5.23l.38-.73h-6l.39.73Z"/>
          </g>
          <g>
            <polygon class="cls-3" points="52.73 34.34 50.69 34.34 51.13 33.49 52.96 33.49 52.73 34.34"/>
            <path class="cls-2" d="M52.73,34.4h-2.04s-.04-.01-.05-.03c-.01-.02-.01-.04,0-.06l.44-.85s.03-.03.05-.03h1.82s.04,0,.05.02c.01.02.02.03.01.05l-.23.85s-.03.05-.06.05ZM50.79,34.28h1.89l.19-.73h-1.71l-.38.73Z"/>
          </g>
          <g>
            <polygon class="cls-3" points="53.44 34.34 52.86 34.34 53.09 33.49 53.58 33.49 53.44 34.34"/>
            <path class="cls-2" d="M53.44,34.4h-.57s-.04,0-.05-.02c-.01-.02-.02-.03-.01-.05l.23-.85s.03-.05.06-.05h.49s.03,0,.05.02c.01.01.02.03.01.05l-.14.85s-.03.05-.06.05ZM52.94,34.28h.44l.12-.73h-.37l-.19.73Z"/>
          </g>
          <g>
            <polygon class="cls-3" points="58.24 34.34 56.74 34.34 56.53 33.49 57.8 33.49 58.24 34.34"/>
            <path class="cls-2" d="M58.24,34.4h-1.5s-.05-.02-.06-.05l-.21-.85s0-.04.01-.05c.01-.01.03-.02.05-.02h1.28s.04.01.05.03l.43.83s.02.03.02.04c0,.03-.03.06-.06.06ZM56.78,34.28h1.35l-.37-.73h-1.16l.18.73Z"/>
          </g>
          <g>
            <polygon class="cls-3" points="58.69 34.34 58.37 34.34 57.95 33.49 58.31 33.49 58.69 34.34"/>
            <path class="cls-2" d="M58.69,34.4h-.32s-.04-.01-.05-.03l-.42-.85s0-.04,0-.06c.01-.02.03-.03.05-.03h.36s.05.01.06.04l.37.83s.02.02.02.04c0,.03-.03.06-.06.06ZM58.41,34.28h.19l-.32-.73h-.23l.36.73Z"/>
          </g>
          <g>
            <polygon class="cls-3" points="56.61 34.34 56.06 34.34 55.92 33.49 56.38 33.49 56.61 34.34"/>
            <path class="cls-2" d="M56.62,34.4h-.56s-.06-.02-.06-.05l-.14-.85s0-.04.01-.05c.01-.01.03-.02.05-.02h.46s.05.02.06.04l.23.83s.01.02.01.03c0,.03-.03.06-.06.06ZM56.11,34.28h.43l-.2-.73h-.35l.12.73Z"/>
          </g>
          <g>
            <polygon class="cls-3" points="55.94 34.34 55.73 34.34 55.73 33.49 55.8 33.49 55.94 34.34"/>
            <path class="cls-2" d="M55.94,34.4h-.21s-.06-.03-.06-.06v-.85s.03-.06.06-.06h.07s.06.02.06.05l.14.83s0,.02,0,.03c0,.03-.03.06-.06.06Z"/>
          </g>
          <g>
            <polygon class="cls-3" points="53.69 34.34 53.57 34.34 53.69 33.58 53.69 34.34"/>
            <path class="cls-2" d="M53.69,34.4h-.12s-.03,0-.05-.02c-.01-.01-.02-.03-.01-.05l.12-.76s.03-.06.06-.05c.03,0,.06.03.06.06v.76s-.03.06-.06.06Z"/>
          </g>
          <g>
            <rect class="cls-3" x="42.04" y="34.47" width="11.58" height=".25"/>
            <path class="cls-2" d="M53.62,34.78h-11.58s-.06-.03-.06-.06v-.25s.03-.06.06-.06h11.58s.06.03.06.06v.25s-.03.06-.06.06ZM42.11,34.66h11.46v-.13h-11.46v.13Z"/>
          </g>
          <g>
            <rect class="cls-3" x="28.67" y="38.72" width="11.66" height="1.5"/>
            <path class="cls-2" d="M40.33,40.28h-11.66s-.06-.03-.06-.06v-1.5s.03-.06.06-.06h11.66s.06.03.06.06v1.5s-.03.06-.06.06ZM28.73,40.16h11.54v-1.37h-11.54v1.37Z"/>
          </g>
          <g>
            <rect class="cls-3" x="28.67" y="36.99" width="11.66" height="1.57"/>
            <path class="cls-2" d="M40.33,38.62h-11.66s-.06-.03-.06-.06v-1.57s.03-.06.06-.06h11.66s.06.03.06.06v1.57s-.03.06-.06.06ZM28.73,38.5h11.54v-1.44h-11.54v1.44Z"/>
          </g>
          <g>
            <rect class="cls-3" x="28.67" y="35.8" width="11.66" height="1.08"/>
            <path class="cls-2" d="M40.33,36.94h-11.66s-.06-.03-.06-.06v-1.08s.03-.06.06-.06h11.66s.06.03.06.06v1.08s-.03.06-.06.06ZM28.73,36.82h11.54v-.96h-11.54v.96Z"/>
          </g>
          <g>
            <rect class="cls-3" x="28.67" y="34.84" width="11.66" height=".83"/>
            <path class="cls-2" d="M40.33,35.73h-11.66s-.06-.03-.06-.06v-.83s.03-.06.06-.06h11.66s.06.03.06.06v.83s-.03.06-.06.06ZM28.73,35.61h11.54v-.71h-11.54v.71Z"/>
          </g>
          <g>
            <rect class="cls-3" x="28.67" y="34.47" width="11.66" height=".25"/>
            <path class="cls-2" d="M40.33,34.78h-11.66s-.06-.03-.06-.06v-.25s.03-.06.06-.06h11.66s.06.03.06.06v.25s-.03.06-.06.06ZM28.73,34.66h11.54v-.13h-11.54v.13Z"/>
          </g>
          <g>
            <rect class="cls-3" x="55.68" y="34.47" width="4.01" height=".25"/>
            <path class="cls-2" d="M59.7,34.78h-4.01s-.06-.03-.06-.06v-.25s.03-.06.06-.06h4.01s.06.03.06.06v.25s-.03.06-.06.06ZM55.74,34.66h3.89v-.13h-3.89v.13Z"/>
          </g>
          <g>
            <rect class="cls-3" x="40.49" y="27.94" width="1.42" height="12.27"/>
            <path class="cls-2" d="M41.91,40.28h-1.42s-.06-.03-.06-.06v-12.27s.03-.06.06-.06h1.42s.06.03.06.06v12.27s-.03.06-.06.06ZM40.55,40.16h1.3v-12.15h-1.3v12.15Z"/>
          </g>
          <g>
            <rect class="cls-3" x="54.09" y="34.48" width="1.15" height="5.74"/>
            <path class="cls-2" d="M55.24,40.28h-1.15s-.06-.03-.06-.06v-5.74s.03-.06.06-.06h1.15s.06.03.06.06v5.74s-.03.06-.06.06ZM54.15,40.16h1.03v-5.62h-1.03v5.62Z"/>
          </g>
          <g>
            <rect class="cls-3" x="53.76" y="34.48" width=".21" height="5.74"/>
            <path class="cls-2" d="M53.97,40.28h-.21s-.06-.03-.06-.06v-5.74s.03-.06.06-.06h.21s.06.03.06.06v5.74s-.03.06-.06.06ZM53.82,40.16h.08v-5.62h-.08v5.62Z"/>
          </g>
          <g>
            <rect class="cls-3" x="55.36" y="34.48" width=".21" height="5.74"/>
            <path class="cls-2" d="M55.57,40.28h-.21s-.06-.03-.06-.06v-5.74s.03-.06.06-.06h.21s.06.03.06.06v5.74s-.03.06-.06.06ZM55.42,40.16h.08v-5.62h-.08v5.62Z"/>
          </g>
          <g>
            <rect class="cls-3" x="18.02" y="38.72" width="8.54" height="1.5"/>
            <path class="cls-2" d="M26.56,40.28h-8.54s-.06-.03-.06-.06v-1.5s.03-.06.06-.06h8.54s.06.03.06.06v1.5s-.03.06-.06.06ZM18.08,40.16h8.42v-1.37h-8.42v1.37Z"/>
          </g>
          <g>
            <rect class="cls-3" x="19.43" y="36.99" width="7.13" height="1.57"/>
            <path class="cls-2" d="M26.56,38.62h-7.13s-.06-.03-.06-.06v-1.57s.03-.06.06-.06h7.13s.06.03.06.06v1.57s-.03.06-.06.06ZM19.49,38.5h7.01v-1.44h-7.01v1.44Z"/>
          </g>
          <g>
            <rect class="cls-3" x="20.87" y="35.8" width="5.7" height="1.08"/>
            <path class="cls-2" d="M26.57,36.94h-5.7s-.06-.03-.06-.06v-1.08s.03-.06.06-.06h5.7s.06.03.06.06v1.08s-.03.06-.06.06ZM20.93,36.82h5.58v-.96h-5.58v.96Z"/>
          </g>
          <g>
            <rect class="cls-3" x="21.87" y="34.84" width="4.7" height=".83"/>
            <path class="cls-2" d="M26.57,35.73h-4.7s-.06-.03-.06-.06v-.83s.03-.06.06-.06h4.7s.06.03.06.06v.83s-.03.06-.06.06ZM21.93,35.61h4.58v-.71h-4.58v.71Z"/>
          </g>
          <g>
            <rect class="cls-3" x="22.42" y="34.47" width="4.16" height=".25"/>
            <path class="cls-2" d="M26.58,34.78h-4.16s-.06-.03-.06-.06v-.25s.03-.06.06-.06h4.16s.06.03.06.06v.25s-.03.06-.06.06ZM22.48,34.66h4.04v-.13h-4.04v.13Z"/>
          </g>
          <g>
            <rect class="cls-3" x="27.02" y="34.48" width="1.15" height="5.74"/>
            <path class="cls-2" d="M28.17,40.28h-1.15s-.06-.03-.06-.06v-5.74s.03-.06.06-.06h1.15s.06.03.06.06v5.74s-.03.06-.06.06ZM27.08,40.16h1.03v-5.62h-1.03v5.62Z"/>
          </g>
          <g>
            <rect class="cls-3" x="28.3" y="34.48" width=".21" height="5.74"/>
            <path class="cls-2" d="M28.5,40.28h-.21s-.06-.03-.06-.06v-5.74s.03-.06.06-.06h.21s.06.03.06.06v5.74s-.03.06-.06.06ZM28.36,40.16h.08v-5.62h-.08v5.62Z"/>
          </g>
          <g>
            <rect class="cls-3" x="26.69" y="34.48" width=".21" height="5.74"/>
            <path class="cls-2" d="M26.9,40.28h-.21s-.06-.03-.06-.06v-5.74s.03-.06.06-.06h.21s.06.03.06.06v5.74s-.03.06-.06.06ZM26.75,40.16h.08v-5.62h-.08v5.62Z"/>
          </g>
          <g>
            <rect class="cls-3" x="42.08" y="30.55" width=".56" height="2.82"/>
            <path class="cls-2" d="M42.63,33.43h-.56s-.06-.03-.06-.06v-2.82s.03-.06.06-.06h.56s.06.03.06.06v2.82s-.03.06-.06.06ZM42.14,33.31h.44v-2.7h-.44v2.7Z"/>
          </g>
          <g>
            <rect class="cls-3" x="43.3" y="30.55" width=".56" height="2.82"/>
            <path class="cls-2" d="M43.86,33.43h-.56s-.06-.03-.06-.06v-2.82s.03-.06.06-.06h.56s.06.03.06.06v2.82s-.03.06-.06.06ZM43.36,33.31h.44v-2.7h-.44v2.7Z"/>
          </g>
          <g>
            <rect class="cls-3" x="45.37" y="30.55" width=".56" height="2.82"/>
            <path class="cls-2" d="M45.93,33.43h-.56s-.06-.03-.06-.06v-2.82s.03-.06.06-.06h.56s.06.03.06.06v2.82s-.03.06-.06.06ZM45.43,33.31h.44v-2.7h-.44v2.7Z"/>
          </g>
          <g>
            <rect class="cls-3" x="46.59" y="30.55" width=".56" height="2.82"/>
            <path class="cls-2" d="M47.15,33.43h-.56s-.06-.03-.06-.06v-2.82s.03-.06.06-.06h.56s.06.03.06.06v2.82s-.03.06-.06.06ZM46.65,33.31h.44v-2.7h-.44v2.7Z"/>
          </g>
          <g>
            <rect class="cls-3" x="47.69" y="30.55" width=".56" height="2.82"/>
            <path class="cls-2" d="M48.24,33.43h-.56s-.06-.03-.06-.06v-2.82s.03-.06.06-.06h.56s.06.03.06.06v2.82s-.03.06-.06.06ZM47.75,33.31h.44v-2.7h-.44v2.7Z"/>
          </g>
          <g>
            <rect class="cls-3" x="48.77" y="30.55" width=".56" height="2.82"/>
            <path class="cls-2" d="M49.33,33.43h-.56s-.06-.03-.06-.06v-2.82s.03-.06.06-.06h.56s.06.03.06.06v2.82s-.03.06-.06.06ZM48.84,33.31h.44v-2.7h-.44v2.7Z"/>
          </g>
          <g>
            <rect class="cls-3" x="50" y="30.55" width=".56" height="2.82"/>
            <path class="cls-2" d="M50.55,33.43h-.56s-.06-.03-.06-.06v-2.82s.03-.06.06-.06h.56s.06.03.06.06v2.82s-.03.06-.06.06ZM50.06,33.31h.44v-2.7h-.44v2.7Z"/>
          </g>
          <g>
            <rect class="cls-3" x="53" y="30.55" width=".56" height="2.82"/>
            <path class="cls-2" d="M53.56,33.43h-.56s-.06-.03-.06-.06v-2.82s.03-.06.06-.06h.56s.06.03.06.06v2.82s-.03.06-.06.06ZM53.06,33.31h.44v-2.7h-.44v2.7Z"/>
          </g>
          <g>
            <g>
              <polygon class="cls-3" points="42.04 27.94 42.04 28.31 42.32 27.94 42.04 27.94"/>
              <path class="cls-2" d="M42.04,28.37s-.01,0-.02,0c-.02,0-.04-.03-.04-.06v-.37s.03-.06.06-.06h.28s.04.01.05.03,0,.05,0,.06l-.28.37s-.03.02-.05.02Z"/>
            </g>
            <g>
              <polygon class="cls-3" points="42.5 27.94 42.04 28.54 42.04 30.4 42.74 30.4 42.74 33.37 42.82 33.37 42.82 30.4 42.82 30.34 42.82 27.94 42.5 27.94"/>
              <path class="cls-2" d="M42.82,33.43h-.08s-.06-.03-.06-.06v-2.91h-.64s-.06-.03-.06-.06v-1.86s0-.03.01-.04l.46-.6s.03-.02.05-.02h.32s.06.03.06.06v5.42s-.03.06-.06.06ZM42.1,30.34h.64s.01,0,.02,0v-2.34h-.23l-.43.56v1.78Z"/>
            </g>
          </g>
          <g>
            <polygon class="cls-3" points="42.92 27.94 42.92 30.33 42.92 30.37 42.92 33.37 43.16 33.37 43.16 30.4 43.97 30.4 43.97 33.37 44.61 33.37 44.61 30.37 44.61 30.33 44.61 27.94 42.92 27.94"/>
            <path class="cls-2" d="M44.61,33.43h-.63s-.06-.03-.06-.06v-2.91h-.69v2.91s-.03.06-.06.06h-.24s-.06-.03-.06-.06v-5.43s.03-.06.06-.06h1.69s.06.03.06.06v5.43s-.03.06-.06.06ZM44.04,33.31h.51v-5.3h-1.57v5.3h.12v-2.91s.03-.06.06-.06h.81s.06.03.06.06v2.91Z"/>
          </g>
          <g>
            <polygon class="cls-3" points="44.76 29.15 44.76 30.31 44.76 30.35 44.76 33.37 45.21 33.37 45.21 30.4 46.02 30.4 46.02 33.37 46.48 33.37 46.48 30.4 47.27 30.4 47.27 33.37 47.54 33.37 47.54 30.4 48.37 30.4 48.37 33.37 48.64 33.37 48.64 30.4 49.45 30.4 49.45 33.37 49.86 33.37 49.86 30.4 50.69 30.4 50.69 33.37 50.96 33.37 50.96 30.35 50.96 30.31 50.96 29.15 44.76 29.15"/>
            <path class="cls-2" d="M50.96,33.43h-.27s-.06-.03-.06-.06v-2.9h-.71v2.9s-.03.06-.06.06h-.41s-.06-.03-.06-.06v-2.9h-.69v2.9s-.03.06-.06.06h-.27s-.06-.03-.06-.06v-2.9h-.71v2.9s-.03.06-.06.06h-.27s-.06-.03-.06-.06v-2.9h-.67v2.9s-.03.06-.06.06h-.46s-.06-.03-.06-.06v-2.9h-.68v2.9s-.03.06-.06.06h-.46s-.06-.03-.06-.06v-4.21s.03-.06.06-.06h6.2s.06.03.06.06v4.21s-.03.06-.06.06ZM50.75,33.31h.15v-4.09h-6.08v4.09h.34v-2.9s.03-.06.06-.06h.8s.06.03.06.06v2.9h.34v-2.9s.03-.06.06-.06h.79s.06.03.06.06v2.9h.15v-2.9s.03-.06.06-.06h.83s.06.03.06.06v2.9h.15v-2.9s.03-.06.06-.06h.81s.06.03.06.06v2.9h.29v-2.9s.03-.06.06-.06h.83s.06.03.06.06v2.9Z"/>
          </g>
          <g>
            <rect class="cls-3" x="44.75" y="27.93" width="6.22" height="1.09"/>
            <path class="cls-2" d="M50.96,29.08h-6.22s-.06-.03-.06-.06v-1.09s.03-.06.06-.06h6.22s.06.03.06.06v1.09s-.03.06-.06.06ZM44.81,28.96h6.1v-.97h-6.1v.97Z"/>
          </g>
          <g>
            <polygon class="cls-3" points="51.4 27.99 51.4 27.93 51.1 27.93 51.1 27.99 51.1 33.37 52.88 33.37 52.88 30.43 53.62 30.43 53.62 33.37 53.67 33.37 53.67 30.43 53.67 30.33 53.67 27.99 51.4 27.99"/>
            <path class="cls-2" d="M53.67,33.43h-.05s-.06-.03-.06-.06v-2.89h-.62v2.88s-.03.06-.06.06h-1.78s-.03,0-.04-.02c-.01-.01-.02-.03-.02-.04v-5.44s.03-.06.07-.06h.3s.06.03.06.06h0s2.21,0,2.21,0c.03,0,.06.03.06.06v5.38s-.03.06-.06.06ZM51.16,33.31h1.66v-2.88s.03-.06.06-.06h.74v-2.31h-2.21s-.06-.03-.06-.06h0s-.18,0-.18,0v5.31Z"/>
          </g>
          <g>
            <rect class="cls-3" x="55.98" y="30.55" width=".56" height="2.82"/>
            <path class="cls-2" d="M56.54,33.43h-.56s-.06-.03-.06-.06v-2.82s.03-.06.06-.06h.56s.06.03.06.06v2.82s-.03.06-.06.06ZM56.04,33.31h.44v-2.7h-.44v2.7Z"/>
          </g>
          <g>
            <polygon class="cls-3" points="57.59 27.99 57.59 27.93 57.78 27.93 57.78 27.99 57.79 33.37 56.65 33.37 56.65 30.43 55.87 30.43 55.87 33.37 55.76 33.37 55.76 30.43 55.76 30.33 55.76 27.99 57.59 27.99"/>
            <path class="cls-2" d="M55.87,33.43h-.11s-.06-.03-.06-.06v-5.38s.03-.06.06-.06h1.77s.03-.06.06-.06h.19s.06.03.06.06v5.44s0,.03-.01.04c-.01.01-.03.02-.04.02h-1.13s-.06-.03-.06-.06v-2.88h-.67v2.89s-.03.06-.06.06ZM56.72,33.31h1.01v-5.32s-.08,0-.08,0c0,.03-.03.06-.06.06h-1.77v2.33s.03-.02.05-.02h.79s.06.03.06.06v2.88Z"/>
          </g>
          <g>
            <rect class="cls-3" x="53.83" y="28" width=".17" height="6.32"/>
            <path class="cls-2" d="M54,34.38h-.17s-.06-.03-.06-.06v-6.32s.03-.06.06-.06h.17s.06.03.06.06v6.32s-.03.06-.06.06ZM53.89,34.26h.05v-6.2h-.05v6.2Z"/>
          </g>
          <g>
            <rect class="cls-3" x="55.42" y="28" width=".19" height="6.32"/>
            <path class="cls-2" d="M55.61,34.38h-.19s-.06-.03-.06-.06v-6.32s.03-.06.06-.06h.19s.06.03.06.06v6.32s-.03.06-.06.06ZM55.48,34.26h.07v-6.2h-.07v6.2Z"/>
          </g>
          <g>
            <rect class="cls-3" x="54.16" y="28" width="1.11" height="6.32"/>
            <path class="cls-2" d="M55.27,34.38h-1.11s-.06-.03-.06-.06v-6.32s.03-.06.06-.06h1.11s.06.03.06.06v6.32s-.03.06-.06.06ZM54.22,34.26h.99v-6.2h-.99v6.2Z"/>
          </g>
          <g>
            <rect class="cls-3" x="57.93" y="27.93" width=".54" height="1.09"/>
            <path class="cls-2" d="M58.46,29.08h-.54s-.06-.03-.06-.06v-1.09s.03-.06.06-.06h.54s.06.03.06.06v1.09s-.03.06-.06.06ZM57.99,28.96h.42v-.97h-.42v.97Z"/>
          </g>
          <g>
            <rect class="cls-3" x="57.62" y="26.62" width="1.22" height="1.17"/>
            <path class="cls-2" d="M58.84,27.85h-1.22s-.06-.03-.06-.06v-1.17s.03-.06.06-.06h1.22s.06.03.06.06v1.17s-.03.06-.06.06ZM57.68,27.73h1.1v-1.05h-1.1v1.05Z"/>
          </g>
          <g>
            <rect class="cls-3" x="57.92" y="29.16" width=".36" height="4.2"/>
            <path class="cls-2" d="M58.28,33.42h-.36s-.06-.03-.06-.06v-4.2s.03-.06.06-.06h.36s.06.03.06.06v4.2s-.03.06-.06.06ZM57.98,33.3h.24v-4.08h-.24v4.08Z"/>
          </g>
          <g>
            <polygon class="cls-3" points="39.95 34.34 40.35 34.34 40.35 33.49 40.09 33.49 39.95 34.34"/>
            <path class="cls-2" d="M40.35,34.4h-.4s-.03,0-.05-.02c-.01-.01-.02-.03-.01-.05l.14-.85s.03-.05.06-.05h.26s.06.03.06.06v.85s-.03.06-.06.06ZM40.02,34.28h.26v-.73h-.15l-.12.73Z"/>
          </g>
          <g>
            <polygon class="cls-3" points="39.18 34.34 39.82 34.34 39.96 33.49 39.42 33.49 39.18 34.34"/>
            <path class="cls-2" d="M39.82,34.4h-.64s-.04,0-.05-.02c-.01-.02-.01-.03,0-.05l.24-.85s.03-.04.06-.04h.55s.03,0,.05.02c.01.01.02.03.01.05l-.14.85s-.03.05-.06.05ZM39.26,34.28h.51l.12-.73h-.43l-.21.73Z"/>
          </g>
          <g>
            <polygon class="cls-3" points="37.21 34.34 39.02 34.34 39.25 33.49 37.64 33.49 37.21 34.34"/>
            <path class="cls-2" d="M39.02,34.4h-1.81s-.04-.01-.05-.03c-.01-.02-.01-.04,0-.06l.44-.85s.03-.03.05-.03h1.6s.04,0,.05.02c.01.02.02.03.01.05l-.23.85s-.03.05-.06.05ZM37.31,34.28h1.67l.19-.73h-1.49l-.37.73Z"/>
          </g>
          <g>
            <polygon class="cls-3" points="31.66 34.34 37.03 34.34 37.48 33.49 31.22 33.49 31.66 34.34"/>
            <path class="cls-2" d="M37.03,34.4h-5.37s-.04-.01-.05-.03l-.44-.85s0-.04,0-.06c.01-.02.03-.03.05-.03h6.26s.04.01.05.03c.01.02.01.04,0,.06l-.45.85s-.03.03-.05.03ZM31.7,34.28h5.29l.39-.73h-6.06l.38.73Z"/>
          </g>
          <g>
            <polygon class="cls-3" points="29.46 34.34 31.52 34.34 31.08 33.49 29.24 33.49 29.46 34.34"/>
            <path class="cls-2" d="M31.52,34.4h-2.06s-.05-.02-.06-.05l-.23-.85s0-.04.01-.05c.01-.01.03-.02.05-.02h1.84s.04.01.05.03l.44.85s0,.04,0,.06c-.01.02-.03.03-.05.03ZM29.51,34.28h1.91l-.38-.73h-1.72l.19.73Z"/>
          </g>
          <g>
            <polygon class="cls-3" points="28.81 34.34 29.33 34.34 29.1 33.49 28.67 33.49 28.81 34.34"/>
            <path class="cls-2" d="M29.33,34.4h-.52s-.06-.02-.06-.05l-.14-.85s0-.04.01-.05c.01-.01.03-.02.05-.02h.44s.05.02.06.05l.23.85s0,.04-.01.05c-.01.01-.03.02-.05.02ZM28.86,34.28h.39l-.19-.73h-.32l.12.73Z"/>
          </g>
          <g>
            <polygon class="cls-3" points="23.98 34.34 25.68 34.34 25.89 33.49 24.42 33.49 23.98 34.34"/>
            <path class="cls-2" d="M25.68,34.4h-1.7s-.04-.01-.05-.03c-.01-.02-.01-.04,0-.06l.44-.85s.03-.03.05-.03h1.47s.04,0,.05.02c.01.01.02.03.01.05l-.21.85s-.03.05-.06.05ZM24.08,34.28h1.55l.18-.73h-1.36l-.37.73Z"/>
          </g>
          <g>
            <polygon class="cls-3" points="23.59 34.34 23.83 34.34 24.25 33.49 23.96 33.49 23.59 34.34"/>
            <path class="cls-2" d="M23.83,34.4h-.24s-.04-.01-.05-.03c-.01-.02-.01-.04,0-.06l.37-.85s.03-.04.06-.04h.29s.04.01.05.03c.01.02.01.04,0,.06l-.42.85s-.03.03-.05.03ZM23.68,34.28h.11l.36-.73h-.15l-.32.73Z"/>
          </g>
          <g>
            <polygon class="cls-3" points="25.83 34.34 26.34 34.34 26.48 33.49 26.06 33.49 25.83 34.34"/>
            <path class="cls-2" d="M26.34,34.4h-.51s-.04,0-.05-.02c-.01-.01-.02-.03-.01-.05l.23-.85s.03-.04.06-.04h.42s.03,0,.05.02c.01.01.02.03.01.05l-.14.85s-.03.05-.06.05ZM25.91,34.28h.38l.12-.73h-.3l-.2.73Z"/>
          </g>
          <g>
            <polygon class="cls-3" points="26.46 34.34 26.56 34.34 26.55 33.78 26.46 34.34"/>
            <path class="cls-2" d="M26.56,34.4h-.1s-.03,0-.05-.02c-.01-.01-.02-.03-.01-.05l.09-.56s.03-.06.06-.05c.03,0,.06.03.06.06v.56s0,.03,0,.04c-.01.01-.03.02-.04.02Z"/>
          </g>
          <g>
            <rect class="cls-3" x="39.76" y="30.55" width=".57" height="2.82"/>
            <path class="cls-2" d="M40.33,33.43h-.57s-.06-.03-.06-.06v-2.82s.03-.06.06-.06h.57s.06.03.06.06v2.82s-.03.06-.06.06ZM39.82,33.31h.45v-2.7h-.45v2.7Z"/>
          </g>
          <g>
            <rect class="cls-3" x="38.55" y="30.55" width=".56" height="2.82"/>
            <path class="cls-2" d="M39.11,33.43h-.56s-.06-.03-.06-.06v-2.82s.03-.06.06-.06h.56s.06.03.06.06v2.82s-.03.06-.06.06ZM38.61,33.31h.44v-2.7h-.44v2.7Z"/>
          </g>
          <g>
            <rect class="cls-3" x="36.38" y="30.55" width=".54" height="2.82"/>
            <path class="cls-2" d="M36.92,33.43h-.54s-.06-.03-.06-.06v-2.82s.03-.06.06-.06h.54s.06.03.06.06v2.82s-.03.06-.06.06ZM36.44,33.31h.42v-2.7h-.42v2.7Z"/>
          </g>
          <g>
            <rect class="cls-3" x="35.15" y="30.55" width=".56" height="2.82"/>
            <path class="cls-2" d="M35.7,33.43h-.56s-.06-.03-.06-.06v-2.82s.03-.06.06-.06h.56s.06.03.06.06v2.82s-.03.06-.06.06ZM35.21,33.31h.44v-2.7h-.44v2.7Z"/>
          </g>
          <g>
            <rect class="cls-3" x="34.08" y="30.55" width=".56" height="2.82"/>
            <path class="cls-2" d="M34.64,33.43h-.56s-.06-.03-.06-.06v-2.82s.03-.06.06-.06h.56s.06.03.06.06v2.82s-.03.06-.06.06ZM34.14,33.31h.44v-2.7h-.44v2.7Z"/>
          </g>
          <g>
            <rect class="cls-3" x="32.97" y="30.55" width=".56" height="2.82"/>
            <path class="cls-2" d="M33.53,33.43h-.56s-.06-.03-.06-.06v-2.82s.03-.06.06-.06h.56s.06.03.06.06v2.82s-.03.06-.06.06ZM33.03,33.31h.44v-2.7h-.44v2.7Z"/>
          </g>
          <g>
            <rect class="cls-3" x="31.77" y="30.55" width=".56" height="2.82"/>
            <path class="cls-2" d="M32.32,33.43h-.56s-.06-.03-.06-.06v-2.82s.03-.06.06-.06h.56s.06.03.06.06v2.82s-.03.06-.06.06ZM31.83,33.31h.44v-2.7h-.44v2.7Z"/>
          </g>
          <g>
            <rect class="cls-3" x="28.84" y="30.55" width=".56" height="2.82"/>
            <path class="cls-2" d="M29.4,33.43h-.56s-.06-.03-.06-.06v-2.82s.03-.06.06-.06h.56s.06.03.06.06v2.82s-.03.06-.06.06ZM28.9,33.31h.44v-2.7h-.44v2.7Z"/>
          </g>
          <g>
            <g>
              <polygon class="cls-3" points="40.36 27.94 40.36 28.56 39.92 27.94 40.36 27.94"/>
              <path class="cls-2" d="M40.36,28.62s-.04,0-.05-.03l-.44-.62s-.01-.04,0-.06c.01-.02.03-.03.05-.03h.44s.06.03.06.06v.62s-.02.05-.04.06c0,0-.01,0-.02,0ZM40.04,28l.26.37v-.37h-.26Z"/>
            </g>
            <g>
              <polygon class="cls-3" points="39.76 27.94 40.36 28.81 40.36 30.4 39.65 30.4 39.65 33.37 39.46 33.37 39.46 30.4 39.46 30.34 39.46 27.94 39.76 27.94"/>
              <path class="cls-2" d="M39.65,33.43h-.2s-.06-.03-.06-.06v-5.42s.03-.06.06-.06h.31s.04,0,.05.03l.59.87s.01.02.01.03v1.59s-.03.06-.06.06h-.65v2.91s-.03.06-.06.06ZM39.52,33.31h.07v-2.91s.03-.06.06-.06h.65v-1.51l-.57-.82h-.21v5.3Z"/>
            </g>
          </g>
          <g>
            <polygon class="cls-3" points="39.35 27.94 39.35 30.33 39.35 30.37 39.35 33.37 39.25 33.37 39.25 30.4 38.41 30.4 38.41 33.37 37.61 33.37 37.61 30.37 37.61 30.33 37.61 27.94 39.35 27.94"/>
            <path class="cls-2" d="M39.35,33.43h-.09s-.06-.03-.06-.06v-2.91h-.73v2.91s-.03.06-.06.06h-.8s-.06-.03-.06-.06v-5.43s.03-.06.06-.06h1.74s.06.03.06.06v5.43s-.03.06-.06.06ZM37.67,33.31h.68v-2.91s.03-.06.06-.06h.85s.02,0,.03,0v-2.34h-1.61v5.3Z"/>
          </g>
          <g>
            <polygon class="cls-3" points="37.42 29.15 37.42 30.31 37.42 30.35 37.42 33.37 37.07 33.37 37.07 30.4 36.25 30.4 36.25 33.37 35.83 33.37 35.83 30.4 35 30.4 35 33.37 34.74 33.37 34.74 30.4 33.94 30.4 33.94 33.37 33.68 33.37 33.68 30.4 32.82 30.4 32.82 33.37 32.43 33.37 32.43 30.4 31.64 30.4 31.64 33.37 31.14 33.37 31.14 30.35 31.14 30.31 31.14 29.15 37.42 29.15"/>
            <path class="cls-2" d="M37.42,33.43h-.36s-.06-.03-.06-.06v-2.9h-.7v2.9s-.03.06-.06.06h-.42s-.06-.03-.06-.06v-2.9h-.71v2.9s-.03.06-.06.06h-.26s-.06-.03-.06-.06v-2.9h-.68v2.9s-.03.06-.06.06h-.26s-.06-.03-.06-.06v-2.9h-.73v2.9s-.03.06-.06.06h-.4s-.06-.03-.06-.06v-2.9h-.67v2.9s-.03.06-.06.06h-.5s-.06-.03-.06-.06v-4.21s.03-.06.06-.06h6.29s.06.03.06.06v4.21s-.03.06-.06.06ZM37.13,33.31h.24v-4.09h-6.17v4.09h.38v-2.9s.03-.06.06-.06h.79s.06.03.06.06v2.9h.27v-2.9s.03-.06.06-.06h.85s.06.03.06.06v2.9h.14v-2.9s.03-.06.06-.06h.8s.06.03.06.06v2.9h.14v-2.9s.03-.06.06-.06h.83s.06.03.06.06v2.9h.3v-2.9s.03-.06.06-.06h.82s.06.03.06.06v2.9Z"/>
          </g>
          <g>
            <rect class="cls-3" x="31.15" y="27.93" width="6.28" height="1.09"/>
            <path class="cls-2" d="M37.43,29.08h-6.28s-.06-.03-.06-.06v-1.09s.03-.06.06-.06h6.28s.06.03.06.06v1.09s-.03.06-.06.06ZM31.21,28.96h6.16v-.97h-6.16v.97Z"/>
          </g>
          <g>
            <polygon class="cls-3" points="30.79 27.99 30.79 27.93 31.02 27.93 31.02 27.99 31.02 33.37 29.52 33.37 29.52 30.43 28.74 30.43 28.74 33.37 28.63 33.37 28.63 30.43 28.63 30.33 28.63 27.99 30.79 27.99"/>
            <path class="cls-2" d="M28.74,33.43h-.1s-.06-.03-.06-.06v-5.38s.03-.06.06-.06h2.1s.03-.06.06-.06h.23s.06.03.06.06v5.44s0,.03-.01.04c-.01.01-.03.02-.04.02h-1.5s-.06-.03-.06-.06v-2.88h-.66v2.89s-.03.06-.06.06ZM29.58,33.31h1.38v-5.32s-.11,0-.11,0c0,.03-.03.06-.06.06h-2.1v2.33s.03-.02.04-.02h.78s.06.03.06.06v2.88Z"/>
          </g>
          <g>
            <rect class="cls-3" x="25.71" y="30.55" width=".56" height="2.82"/>
            <path class="cls-2" d="M26.26,33.43h-.56s-.06-.03-.06-.06v-2.82s.03-.06.06-.06h.56s.06.03.06.06v2.82s-.03.06-.06.06ZM25.77,33.31h.44v-2.7h-.44v2.7Z"/>
          </g>
          <g>
            <polygon class="cls-3" points="24.65 27.99 24.65 27.93 24.41 27.93 24.41 27.99 24.4 33.37 25.59 33.37 25.59 30.43 26.38 30.43 26.38 33.37 26.57 33.37 26.57 30.43 26.57 30.33 26.57 27.99 24.65 27.99"/>
            <path class="cls-2" d="M26.57,33.43h-.2s-.06-.03-.06-.06v-2.89h-.67v2.88s-.03.06-.06.06h-1.19s-.03,0-.04-.02c-.01-.01-.02-.03-.02-.04v-5.44s.03-.06.07-.06h.24s.06.03.06.06h0s1.87,0,1.87,0c.03,0,.06.03.06.06v5.38s-.03.06-.06.06ZM26.44,33.31h.08v-5.26h-1.87s-.06-.03-.06-.06h0s-.12,0-.12,0v5.31s1.06,0,1.06,0v-2.88s.03-.06.06-.06h.79s.06.03.06.06v2.89Z"/>
          </g>
          <g>
            <rect class="cls-3" x="28.33" y="28" width=".17" height="6.32"/>
            <path class="cls-2" d="M28.5,34.38h-.17s-.06-.03-.06-.06v-6.32s.03-.06.06-.06h.17s.06.03.06.06v6.32s-.03.06-.06.06ZM28.39,34.26h.05v-6.2h-.05v6.2Z"/>
          </g>
          <g>
            <rect class="cls-3" x="26.71" y="28" width=".19" height="6.32"/>
            <path class="cls-2" d="M26.9,34.38h-.19s-.06-.03-.06-.06v-6.32s.03-.06.06-.06h.19s.06.03.06.06v6.32s-.03.06-.06.06ZM26.77,34.26h.07v-6.2h-.07v6.2Z"/>
          </g>
          <g>
            <rect class="cls-3" x="27.04" y="28" width="1.12" height="6.32"/>
            <path class="cls-2" d="M28.16,34.38h-1.12s-.06-.03-.06-.06v-6.32s.03-.06.06-.06h1.12s.06.03.06.06v6.32s-.03.06-.06.06ZM27.1,34.26h1v-6.2h-1v6.2Z"/>
          </g>
          <g>
            <rect class="cls-3" x="23.8" y="27.93" width=".45" height="1.09"/>
            <path class="cls-2" d="M24.26,29.08h-.45s-.06-.03-.06-.06v-1.09s.03-.06.06-.06h.45s.06.03.06.06v1.09s-.03.06-.06.06ZM23.86,28.96h.33v-.97h-.33v.97Z"/>
          </g>
          <g>
            <rect class="cls-3" x="23.42" y="26.64" width="1.17" height="1.15"/>
            <path class="cls-2" d="M24.59,27.85h-1.17s-.06-.03-.06-.06v-1.15s.03-.06.06-.06h1.17s.06.03.06.06v1.15s-.03.06-.06.06ZM23.48,27.73h1.05v-1.03h-1.05v1.03Z"/>
          </g>
          <g>
            <rect class="cls-3" x="24" y="29.16" width=".22" height="4.2"/>
            <path class="cls-2" d="M24.21,33.42h-.22s-.06-.03-.06-.06v-4.2s.03-.06.06-.06h.22s.06.03.06.06v4.2s-.03.06-.06.06ZM24.06,33.3h.1v-4.08h-.1v4.08Z"/>
          </g>
          <g>
            <path class="cls-3" d="M39.76,20.25c-.29-.24-.59-.33-.59-.33-.15-.04-.09.06-.09.06.1.13.36.25.48.3v.41s.21-.07.35,0c0,0,.15.07.19.1,0,0,.19-.38.41-.54h-.75Z"/>
            <path class="cls-2" d="M40.11,20.85s-.02,0-.03,0c-.03-.02-.14-.07-.18-.09-.03-.02-.08-.02-.13-.02-.09,0-.18.03-.18.03-.02,0-.04,0-.05,0-.02-.01-.02-.03-.02-.05v-.37c-.17-.07-.38-.18-.47-.3-.01-.02-.04-.08-.01-.12.01-.02.06-.07.17-.03.01,0,.3.09.59.33h.73s.05.02.06.04c0,.02,0,.05-.02.07-.2.15-.39.51-.39.52,0,.02-.02.03-.04.03,0,0-.01,0-.02,0ZM39.77,20.6c.07,0,.13.01.18.04.01,0,.08.04.14.07.05-.09.15-.26.28-.39h-.6s-.03,0-.04-.01c-.25-.21-.5-.3-.55-.32.08.08.23.17.43.24.02,0,.04.03.04.06v.33s.08-.01.13-.01Z"/>
          </g>
          <g>
            <path class="cls-3" d="M42.53,20.25c.29-.24.59-.33.59-.33.15-.04.09.06.09.06-.1.13-.36.25-.49.3v.41s-.21-.07-.35,0c0,0-.15.07-.19.1,0,0-.2-.38-.4-.54h.75Z"/>
            <path class="cls-2" d="M42.18,20.85s-.01,0-.02,0c-.02,0-.03-.02-.04-.03,0,0-.19-.37-.39-.52-.02-.02-.03-.04-.02-.07,0-.02.03-.04.06-.04h.73c.29-.24.58-.33.59-.33.11-.03.15,0,.17.03.03.05,0,.11-.01.12-.09.13-.3.24-.48.31v.37s0,.04-.02.05c-.02.01-.04.01-.05,0,0,0-.21-.05-.3,0-.04.02-.15.07-.18.09,0,0-.02,0-.03,0ZM41.93,20.32c.12.13.23.31.28.39.06-.03.13-.06.14-.07.05-.02.11-.04.18-.04.05,0,.1,0,.13.01v-.33s.01-.05.04-.06c.2-.08.36-.17.43-.25-.04.01-.3.1-.56.32-.01,0-.02.01-.04.01h-.6Z"/>
          </g>
          <g>
            <path class="cls-3" d="M40.16,20.95s.33-.76.98-.86c0,0,.69.17.95.88,0,0,.33-.22.45-.17l-.44.43h-.47s-.3-.19-.51-.23c0,0-.25.05-.49.23h-.47l-.48-.44s.17-.03.46.15Z"/>
            <path class="cls-2" d="M42.12,21.3h-.47s-.02,0-.03,0c0,0-.28-.17-.47-.22-.05.01-.26.07-.46.22-.01,0-.02.01-.04.01h-.47s-.03,0-.04-.02l-.48-.44s-.02-.04-.02-.06c0-.02.02-.04.05-.04,0,0,.17-.03.45.13.1-.19.42-.75,1-.84,0,0,.02,0,.02,0,.03,0,.68.17.97.85.11-.07.33-.18.45-.13.02,0,.03.02.04.04,0,.02,0,.04-.02.06l-.44.43s-.03.02-.04.02ZM41.66,21.18h.43l.29-.29c-.09.03-.19.09-.25.13-.02.01-.03.01-.05,0-.02,0-.03-.02-.04-.04-.23-.63-.81-.82-.9-.84-.61.1-.92.82-.92.82,0,.02-.02.03-.04.03-.02,0-.04,0-.05,0-.1-.06-.18-.1-.25-.12l.32.29h.43c.25-.18.49-.23.5-.23,0,0,.02,0,.03,0,.19.04.44.19.51.23Z"/>
          </g>
          <g>
            <polygon class="cls-3" points="39.58 20.85 39.58 21.05 39.78 21.05 39.58 20.85"/>
            <path class="cls-2" d="M39.78,21.11h-.2s-.06-.03-.06-.06v-.2s.01-.05.04-.06c.02-.01.05,0,.07.01l.2.2s.02.04.01.07c0,.02-.03.04-.06.04Z"/>
          </g>
          <g>
            <polygon class="cls-3" points="42.67 20.85 42.67 21.05 42.48 21.05 42.67 20.85"/>
            <path class="cls-2" d="M42.67,21.11h-.2s-.05-.01-.06-.04c0-.02,0-.05.01-.07l.2-.2s.04-.02.07-.01c.02,0,.04.03.04.06v.2s-.03.06-.06.06Z"/>
          </g>
          <g>
            <path class="cls-3" d="M40.13,21.38l-.2-.19h-.48v-.16h-.1c-.35-.33-.74-.49-.74-.49-.19-.07-.12.12-.12.12.12.23.49.37.63.42v.88h.14s0-.04,0-.04h.31v.04h.34c.15-.28.51-.57.51-.57h-.29Z"/>
            <path class="cls-2" d="M39.25,22.02h-.14s-.06-.03-.06-.07v-.84c-.18-.06-.51-.21-.62-.43,0-.02-.04-.11,0-.17.02-.03.08-.07.19-.03.02,0,.4.17.75.48h.08s.06.03.06.06v.1h.42s.03,0,.04.02l.18.17h.26s.05.02.06.04c0,.02,0,.05-.02.07,0,0-.35.29-.49.56-.01.02-.03.03-.05.03h-.34s-.05-.01-.06-.04h-.2s0,.02-.02.03c-.01.01-.03.02-.04.02ZM39.18,21.9h.02s.03-.04.06-.04h.31s.05.01.06.04h.25c.1-.17.27-.35.38-.45h-.13s-.03,0-.04-.02l-.18-.17h-.46s-.06-.03-.06-.06v-.1h-.04s-.03,0-.04-.02c-.33-.31-.72-.47-.73-.48-.03-.01-.04-.01-.05-.01,0,0,0,.03.01.05.1.21.48.34.59.38.02,0,.04.03.04.06v.82Z"/>
          </g>
          <g>
            <path class="cls-3" d="M42.14,21.38l.2-.19h.48v-.16h.1c.35-.33.74-.49.74-.49.19-.07.12.12.12.12-.12.23-.49.37-.63.42v.88h-.14s0-.04,0-.04h-.31v.04h-.34c-.15-.28-.51-.57-.51-.57h.29Z"/>
            <path class="cls-2" d="M43.02,22.02s-.03,0-.04-.02c0,0-.01-.02-.02-.03h-.2s-.03.04-.06.04h-.34s-.04-.01-.05-.03c-.14-.27-.49-.55-.49-.56-.02-.02-.03-.04-.02-.07,0-.02.03-.04.06-.04h.26l.18-.17s.03-.02.04-.02h.42v-.1s.03-.06.06-.06h.08c.35-.32.73-.48.74-.48.12-.04.17,0,.19.03.04.06.01.15,0,.17-.12.23-.45.38-.63.44v.84s-.03.06-.06.06h-.14s0,0,0,0ZM42.71,21.85h.31s.05.02.06.04h.02v-.82s.02-.05.04-.06c.11-.04.49-.17.59-.39,0-.01,0-.04,0-.05,0,0-.02,0-.05.02,0,0-.39.16-.72.47-.01.01-.03.02-.04.02h-.04v.1s-.03.06-.06.06h-.46l-.18.17s-.03.02-.04.02h-.13c.11.11.28.28.38.45h.25s.03-.04.06-.04Z"/>
          </g>
          <g>
            <path class="cls-3" d="M39.92,22.25s.26-.8,1.23-1.1c0,0,.88.24,1.22,1.11,0,0,.25-.21.56-.19l-.59.57h-.27s-.4-.33-.94-.5c0,0-.52.12-.95.5h-.25l-.62-.58s.24-.04.59.19Z"/>
            <path class="cls-2" d="M42.35,22.71h-.27s-.03,0-.04-.01c0,0-.39-.32-.91-.49-.09.02-.53.15-.91.48-.01,0-.03.02-.04.02h-.25s-.03,0-.04-.02l-.61-.58s-.02-.04-.02-.06c0-.02.03-.04.05-.04,0,0,.02,0,.05,0,.09,0,.28.02.52.16.09-.21.41-.81,1.25-1.06.01,0,.02,0,.03,0,.04.01.87.25,1.23,1.07.1-.06.3-.17.54-.16.02,0,.04.02.05.04,0,.02,0,.05-.01.06l-.59.57s-.03.02-.04.02ZM42.1,22.59h.23l.46-.44c-.21.04-.36.16-.37.17-.01.01-.03.02-.05.01-.02,0-.03-.02-.04-.04-.3-.76-1.04-1.03-1.16-1.06-.92.29-1.17,1.04-1.18,1.05,0,.02-.02.03-.04.04-.02,0-.04,0-.05,0-.16-.1-.3-.15-.4-.17l.48.45h.2c.43-.38.94-.5.96-.5.01,0,.02,0,.03,0,.49.16.86.43.94.5Z"/>
          </g>
          <g>
            <path class="cls-3" d="M39.67,23.55s.31-.9,1.49-1.24c0,0,1.06.27,1.47,1.25,0,0,.3-.24.68-.21l-.71.65h-.69s-.32-.25-.77-.39c0,0-.25,0-.76.39h-.68l-.74-.66s.29-.04.72.21Z"/>
            <path class="cls-2" d="M42.6,24.06h-.69s-.03,0-.04-.01c0,0-.31-.24-.74-.38-.04,0-.28.05-.72.38-.01,0-.02.01-.04.01h-.68s-.03,0-.04-.02l-.74-.66s-.02-.04-.02-.06c0-.02.03-.04.05-.04,0,0,.02,0,.06,0,.11,0,.34.03.64.19.1-.22.48-.92,1.5-1.21.01,0,.02,0,.03,0,.04.01,1.05.28,1.48,1.22.11-.07.36-.2.66-.18.02,0,.05.02.05.04,0,.02,0,.05-.02.06l-.71.65s-.03.02-.04.02ZM41.93,23.93h.65l.57-.52c-.27.04-.48.19-.48.2-.01.01-.03.01-.05.01-.02,0-.03-.02-.04-.04-.36-.88-1.28-1.17-1.41-1.21-1.12.33-1.43,1.19-1.43,1.2,0,.02-.02.03-.04.04-.02,0-.04,0-.05,0-.22-.13-.4-.18-.52-.2l.6.53h.64c.51-.38.77-.39.78-.39,0,0,.01,0,.02,0,.4.12.7.33.78.39Z"/>
          </g>
          <g>
            <path class="cls-3" d="M39.53,25.34s.35-1.19,1.62-1.57c0,0,1.16.3,1.57,1.58,0,0,.39-.38.79-.27l-.8.82h-.81s-.35-.29-.77-.41c0,0-.29.03-.76.41h-.8l-.82-.84s.33-.13.78.27Z"/>
            <path class="cls-2" d="M42.72,25.96h-.81s-.03,0-.04-.01c0,0-.34-.28-.74-.39-.05,0-.32.07-.72.39-.01,0-.02.01-.04.01h-.8s-.03,0-.04-.02l-.82-.84s-.02-.04-.02-.06c0-.02.02-.04.04-.04.01,0,.34-.12.78.23.11-.28.54-1.2,1.63-1.52.01,0,.02,0,.03,0,.01,0,1.15.31,1.59,1.54.11-.09.35-.25.61-.25.06,0,.11,0,.16.02.02,0,.04.02.04.04,0,.02,0,.04-.02.06l-.8.82s-.03.02-.04.02ZM41.93,25.84h.76l.7-.72s-.01,0-.02,0c-.31,0-.6.27-.6.27-.01.01-.04.02-.06.02-.02,0-.04-.02-.04-.04-.37-1.15-1.38-1.5-1.52-1.54-1.22.37-1.56,1.51-1.57,1.52,0,.02-.02.04-.04.04-.02,0-.04,0-.06-.01-.26-.23-.47-.28-.6-.28h-.01l.72.73h.76c.47-.37.76-.4.77-.4,0,0,.01,0,.02,0,.38.11.7.34.78.4Z"/>
          </g>
          <g>
            <path class="cls-3" d="M39.53,27.21s.35-1.19,1.62-1.57c0,0,1.16.3,1.57,1.58,0,0,.39-.38.79-.27l-.8.82h-3.15l-.82-.84s.33-.13.78.27Z"/>
            <path class="cls-2" d="M42.72,27.84h-3.15s-.03,0-.04-.02l-.82-.84s-.02-.04-.02-.06c0-.02.02-.04.04-.04.01,0,.34-.12.78.23.11-.28.54-1.2,1.63-1.52.01,0,.02,0,.03,0,.01,0,1.15.31,1.59,1.54.11-.09.35-.25.61-.25.06,0,.11,0,.16.02.02,0,.04.02.04.04,0,.02,0,.04-.02.06l-.8.82s-.03.02-.04.02ZM39.6,27.71h3.1l.7-.72c-.31-.01-.62.27-.62.27-.01.01-.04.02-.06.01-.02,0-.04-.02-.04-.04-.37-1.15-1.38-1.5-1.52-1.54-1.21.37-1.56,1.51-1.57,1.52,0,.02-.02.04-.04.04-.02,0-.04,0-.06-.01-.26-.23-.47-.28-.6-.28h-.01l.72.73Z"/>
          </g>
          <g>
            <path class="cls-3" d="M39.89,22.79l-.74-.69h-.15c-.14-.13-.44-.3-.44-.3-.54-.3-.64-.18-.64-.18-.04.31.77.42.77.42v1.3c.15-.18.45-.14.45-.14.15,0,.46.14.46.14.1-.29.42-.55.42-.55h-.14Z"/>
            <path class="cls-2" d="M38.7,23.4s-.01,0-.02,0c-.02,0-.04-.03-.04-.06v-1.24c-.2-.03-.82-.16-.77-.48,0-.01,0-.02.01-.03.01-.01.05-.05.14-.05.13,0,.32.07.58.21.01,0,.28.16.43.29h.13s.03,0,.04.02l.72.67h.12s.05.02.06.04c0,.02,0,.05-.02.07,0,0-.3.26-.4.53,0,.02-.02.03-.03.04-.02,0-.03,0-.05,0-.08-.04-.32-.13-.44-.14-.02,0-.28-.03-.4.12-.01.01-.03.02-.05.02ZM39.08,23.13s.07,0,.07,0c.12,0,.32.08.42.12.07-.17.21-.32.3-.41-.01,0-.02,0-.03-.02l-.72-.67h-.13s-.03,0-.04-.02c-.14-.12-.42-.29-.43-.29-.36-.2-.5-.2-.54-.19.03.17.48.29.72.32.03,0,.05.03.05.06v1.17c.12-.07.25-.08.33-.08Z"/>
          </g>
          <g>
            <path class="cls-3" d="M42.39,22.79l.74-.69h.15c.14-.13.44-.3.44-.3.54-.3.63-.18.63-.18.04.31-.77.42-.77.42v1.3c-.15-.18-.45-.14-.45-.14-.16,0-.46.14-.46.14-.1-.29-.42-.55-.42-.55h.14Z"/>
            <path class="cls-2" d="M43.58,23.4s-.04,0-.05-.02c-.12-.15-.39-.12-.39-.12-.12,0-.36.1-.44.14-.02,0-.03,0-.05,0-.02,0-.03-.02-.03-.04-.1-.27-.4-.52-.4-.53-.02-.02-.03-.04-.02-.07,0-.02.03-.04.06-.04h.12l.72-.67s.03-.02.04-.02h.13c.15-.13.42-.28.43-.29.25-.14.44-.21.58-.21.09,0,.13.03.14.05,0,0,.01.02.01.03.02.16-.12.3-.41.39-.14.05-.28.07-.36.09v1.24s-.02.05-.05.06c0,0-.01,0-.02,0ZM42.4,22.85c.09.1.22.25.3.41.1-.04.3-.12.43-.12,0,0,.23-.02.39.07v-1.17s.03-.06.06-.06c.23-.03.69-.15.72-.32-.04,0-.18-.01-.54.19,0,0-.29.17-.43.29-.01,0-.03.02-.04.02h-.13l-.72.67s-.02.01-.03.02Z"/>
          </g>
          <g>
            <path class="cls-3" d="M38.27,23.5s-.96-.27-.94-.58c0,0,.03-.15.29-.06,0,0,.71.28.94.54v.09h.33l.73.65h.23l.13.16s-.19.23-.21.29h-1.51v-1.09Z"/>
            <path class="cls-2" d="M39.78,24.64h-1.51s-.06-.03-.06-.06v-1.04c-.24-.07-.95-.31-.93-.63,0-.06.06-.15.21-.15.05,0,.1.01.17.03.03.01.73.29.97.55.01.01.02.03.02.04v.03h.27s.03,0,.04.02l.72.64h.2s.04,0,.05.02l.13.16s.02.05,0,.08c-.09.11-.19.24-.21.27,0,.02-.03.04-.06.04ZM38.32,24.52h1.42c.04-.06.12-.17.17-.23l-.08-.1h-.2s-.03,0-.04-.02l-.72-.64h-.31s-.06-.03-.06-.06v-.07c-.23-.24-.9-.5-.91-.5-.05-.02-.09-.02-.12-.02-.07,0-.08.04-.08.04,0,.18.52.41.9.52.03,0,.05.04.04.07v.05s0,.96,0,.96Z"/>
          </g>
          <g>
            <polygon class="cls-3" points="40.03 24.13 40.21 24.13 40.1 24.22 40.03 24.13"/>
            <path class="cls-2" d="M40.1,24.29s0,0,0,0c-.02,0-.03,0-.04-.02l-.08-.09s-.02-.04,0-.06c.01-.02.03-.03.06-.03h.18s.05.02.06.04c0,.02,0,.05-.02.07l-.1.09s-.03.02-.04.02Z"/>
          </g>
          <g>
            <polygon class="cls-3" points="39.91 26.04 40.17 26.04 40.02 26.17 39.91 26.04"/>
            <path class="cls-2" d="M40.02,26.23s0,0,0,0c-.02,0-.03,0-.04-.02l-.11-.13s-.02-.04,0-.06c.01-.02.03-.04.06-.04h.26s.05.02.06.04c0,.02,0,.05-.02.07l-.15.13s-.02.02-.04.02Z"/>
          </g>
          <g>
            <path class="cls-3" d="M44,23.5s.96-.27.94-.58c0,0-.03-.15-.29-.06,0,0-.71.28-.94.54v.09h-.33l-.73.65h-.23l-.13.16s.19.23.22.29h1.51v-1.09Z"/>
            <path class="cls-2" d="M44.01,24.64h-1.51s-.05-.01-.06-.04c-.01-.03-.12-.16-.21-.27-.02-.02-.02-.05,0-.08l.13-.16s.03-.02.05-.02h.2l.72-.64s.03-.02.04-.02h.27v-.03s0-.03.02-.04c.24-.26.93-.54.96-.55.07-.02.12-.03.17-.03.14,0,.2.09.2.14.02.33-.69.57-.93.64v1.04s-.03.06-.06.06ZM42.54,24.52h1.41v-1.01s0-.06.03-.07c.38-.11.91-.34.9-.52h0s-.02-.03-.08-.03c-.04,0-.08,0-.13.02,0,0-.67.27-.9.5v.07s-.03.06-.06.06h-.31l-.72.64s-.03.02-.04.02h-.2l-.08.1c.05.06.13.16.17.23Z"/>
          </g>
          <g>
            <polygon class="cls-3" points="42.25 24.13 42.07 24.13 42.17 24.22 42.25 24.13"/>
            <path class="cls-2" d="M42.17,24.29s-.03,0-.04-.02l-.1-.09s-.03-.04-.02-.07c0-.02.03-.04.06-.04h.18s.05.01.06.03c.01.02,0,.05,0,.06l-.08.09s-.03.02-.04.02c0,0,0,0,0,0Z"/>
          </g>
          <g>
            <path class="cls-3" d="M36.39,22.99s.16.63.6.72h1.12v.84s-.76-.43-1.21-.54c0,0-.38-.08-.45.15,0,0-.05.26.25.41,0,0,.46.18.8.24v1.61h2.31s-.2.22-.34.57c0,0-.3-.18-.5-.2,0,0-.28-.05-.44.11l.15.2h-2.3v-4.11Z"/>
            <path class="cls-2" d="M38.69,27.16h-2.3s-.06-.03-.06-.06v-4.11s.02-.06.05-.06c.03,0,.06.02.07.05,0,0,.16.6.55.68h1.11s.06.03.06.06v.84s-.01.04-.03.05c-.02.01-.04.01-.06,0,0,0-.76-.42-1.19-.53h0s-.33-.06-.38.11c0,0-.03.21.22.34h0s.45.18.78.23c.03,0,.05.03.05.06v1.55h2.25s.05.01.06.04c0,.02,0,.05-.01.07,0,0-.2.22-.33.55,0,.02-.02.03-.04.03-.02,0-.03,0-.05,0,0,0-.29-.17-.47-.19-.01,0-.22-.03-.35.06l.11.14s.02.03.02.05c0,.03-.03.06-.06.06ZM36.45,27.04h2.11l-.08-.1s-.02-.06,0-.08c.11-.11.27-.13.38-.13.06,0,.11,0,.11,0,.15.02.36.12.46.17.08-.19.18-.33.25-.42h-2.18s-.06-.03-.06-.06v-1.56c-.34-.06-.74-.22-.76-.23-.11-.05-.18-.12-.22-.19v2.6ZM36.76,23.94c.08,0,.15.01.15.01.37.09.92.38,1.14.5v-.68h-1.06c-.27-.05-.44-.27-.54-.47v.74c.07-.07.17-.1.31-.1Z"/>
          </g>
          <g>
            <path class="cls-3" d="M36.6,27.21h2.2l.46.47h-2.12s-.42,0-.54-.47Z"/>
            <path class="cls-2" d="M39.26,27.73h-2.12s-.46-.01-.6-.51c0-.02,0-.04.01-.05.01-.01.03-.02.05-.02h2.2s.03,0,.04.02l.45.46s.03.03.03.05c0,.03-.03.06-.06.06ZM36.69,27.27c.13.33.44.34.46.34h1.97l-.34-.34h-2.09Z"/>
          </g>
          <g>
            <path class="cls-3" d="M38.13,24.73s-.69-.43-1.27-.59c0,0-.27-.05-.29.07,0,0-.02.15.21.25,0,0,.63.25.85.24v1.59h2.28l-.17-.25h-.24l-.99-1.02s.24-.19.58-.08c0,0,.23.08.37.17,0,0,.16-.35.22-.38h-1.55Z"/>
            <path class="cls-2" d="M39.92,26.35h-2.28s-.06-.03-.06-.06v-1.53c-.26-.02-.78-.23-.81-.24-.27-.11-.25-.3-.25-.31,0-.06.05-.14.23-.14.06,0,.12,0,.12,0,.55.15,1.17.52,1.27.59h1.53s.05.02.06.04c0,.03,0,.06-.03.07-.02.02-.12.2-.18.35,0,.02-.02.03-.04.03-.02,0-.03,0-.05,0-.14-.08-.36-.16-.36-.16-.06-.02-.13-.03-.19-.03-.12,0-.21.04-.27.06l.92.95h.21s.04.01.05.03l.16.24s.02.03.02.05c0,.03-.03.06-.06.06ZM37.7,26.23h2.1l-.09-.13h-.2s-.03,0-.04-.02l-.99-1.02s-.02-.03-.02-.05c0-.02,0-.03.02-.04,0,0,.16-.13.4-.13.08,0,.16.01.23.04,0,0,.18.07.32.14.05-.1.09-.17.12-.23h-1.43s-.02,0-.03,0c0,0-.69-.42-1.25-.58h0s-.05,0-.1,0c-.08,0-.11.02-.11.03,0,0,0,.11.18.18,0,0,.59.23.81.23.03,0,.07.03.07.06v1.53Z"/>
          </g>
          <g>
            <polygon class="cls-3" points="42.25 24.13 42.08 24.13 42.18 24.22 42.25 24.13"/>
            <path class="cls-2" d="M42.18,24.29s-.03,0-.04-.02l-.1-.09s-.03-.04-.02-.07c0-.02.03-.04.06-.04h.18s.05.01.06.03c.01.02,0,.05,0,.06l-.08.09s-.03.02-.04.02c0,0,0,0,0,0Z"/>
          </g>
          <g>
            <polygon class="cls-3" points="42.37 26.04 42.11 26.04 42.26 26.17 42.37 26.04"/>
            <path class="cls-2" d="M42.26,26.23s-.03,0-.04-.01l-.15-.13s-.03-.04-.02-.07c0-.02.03-.04.06-.04h.26s.05.01.06.04c.01.02,0,.05,0,.06l-.11.13s-.03.02-.04.02c0,0,0,0,0,0Z"/>
          </g>
          <g>
            <path class="cls-3" d="M45.89,22.99s-.16.63-.6.72h-1.12v.84s.76-.43,1.21-.54c0,0,.38-.08.46.15,0,0,.05.26-.25.41,0,0-.46.18-.8.24v1.61h-2.31s.2.22.34.57c0,0,.3-.18.5-.2,0,0,.28-.05.44.11l-.15.2h2.29v-4.11Z"/>
            <path class="cls-2" d="M45.89,27.16h-2.29s-.04-.01-.05-.03c-.01-.02,0-.05,0-.06l.12-.15c-.13-.08-.34-.06-.34-.06-.19.02-.47.19-.48.19-.01,0-.03.01-.05,0-.02,0-.03-.02-.04-.03-.14-.33-.33-.55-.33-.55-.02-.02-.02-.04-.01-.07.01-.02.03-.04.06-.04h2.25v-1.55s.02-.06.05-.06c.33-.05.78-.23.79-.23.25-.13.22-.33.21-.34-.06-.16-.38-.1-.38-.1-.43.11-1.18.53-1.19.53-.02.01-.04.01-.06,0-.02-.01-.03-.03-.03-.05v-.84s.03-.06.06-.06h1.12c.38-.08.54-.67.54-.68,0-.03.04-.05.07-.05.03,0,.05.03.05.06v4.11s-.03.06-.06.06ZM43.72,27.04h2.11v-2.6c-.04.07-.11.14-.22.19-.02,0-.43.17-.77.23v1.56s-.03.06-.06.06h-2.18c.07.09.16.23.25.42.1-.05.31-.16.46-.17,0,0,.04,0,.1,0,.11,0,.27.02.38.13.02.02.02.06,0,.08l-.08.1ZM44.23,23.77v.68c.22-.12.77-.4,1.13-.5,0,0,.07-.01.16-.01.14,0,.24.04.31.1v-.73c-.1.19-.27.41-.53.46h-1.07Z"/>
          </g>
          <g>
            <path class="cls-3" d="M44.15,24.73s.69-.43,1.27-.59c0,0,.27-.05.29.07,0,0,.02.15-.22.25,0,0-.62.25-.84.24v1.59h-2.27l.17-.25h.24l.99-1.02s-.25-.19-.58-.08c0,0-.23.08-.37.17,0,0-.16-.35-.21-.38h1.55Z"/>
            <path class="cls-2" d="M44.64,26.35h-2.27s-.04-.01-.05-.03c-.01-.02,0-.04,0-.06l.17-.25s.03-.03.05-.03h.21l.92-.95c-.06-.03-.15-.06-.27-.06-.06,0-.13.01-.19.03,0,0-.22.08-.36.16-.01,0-.03.01-.05,0-.02,0-.03-.02-.04-.03-.07-.15-.16-.33-.19-.35-.03-.01-.04-.04-.03-.07,0-.03.03-.05.06-.05h1.53c.11-.06.73-.43,1.27-.58,0,0,.06-.01.13-.01.18,0,.23.07.23.13,0,.01.02.2-.25.31-.02,0-.54.21-.81.24v1.53s-.03.06-.06.06ZM42.48,26.23h2.1v-1.53s0-.03.02-.04c.01-.01.03-.01.05-.02h0c.19,0,.66-.17.82-.23.18-.07.18-.18.18-.18,0,0-.03-.02-.11-.02-.05,0-.1,0-.1,0-.56.16-1.24.58-1.24.58,0,0-.02,0-.03,0h-1.43c.03.05.07.13.12.23.14-.08.31-.14.32-.14.08-.03.16-.04.23-.04.24,0,.4.12.4.12.01.01.02.03.02.04s0,.03-.02.05l-.99,1.02s-.03.02-.04.02h-.2l-.09.13Z"/>
          </g>
          <g>
            <g>
              <path class="cls-3" d="M28.04,19.88s-.29-.84-.43-1.01h0s0,0,0,0h0s0,0,0,0c-.14.17-.43,1.01-.43,1.01-.17.56,0,.86,0,.86.19-.1.41-.11.42-.11,0,0,.23,0,.42.11,0,0,.18-.3,0-.86Z"/>
              <path class="cls-2" d="M27.19,20.8s-.04-.01-.05-.03c0-.01-.19-.33-.01-.91.01-.04.29-.83.43-1.02,0-.01.02-.02.03-.03,0,0,0,0,0,0,.02,0,.03,0,.05,0,.02,0,.03.02.03.03.15.2.42.98.43,1.02.18.58,0,.9-.01.91-.02.03-.05.04-.08.02-.16-.09-.34-.1-.39-.1-.06,0-.24.01-.39.1,0,0-.02,0-.03,0ZM27.61,20.58c.08,0,.24.01.4.08.04-.1.1-.37-.02-.76-.07-.2-.25-.71-.37-.92-.12.21-.3.72-.37.92-.12.39-.06.66-.02.76.16-.07.32-.08.39-.08Z"/>
            </g>
            <g>
              <path class="cls-3" d="M28.69,21.36s-.22-.39-1.1-.59h0s0,0,0,0c0,0,0,0,0,0h0c-.88.2-1.1.59-1.1.59-.08-.03-.35-.09-.35-.09.22.1.39.21.39.21h.44c.16-.38.61-.57.63-.58.02,0,.47.19.63.58h.44s.17-.11.39-.21c0,0-.27.06-.35.09Z"/>
              <path class="cls-2" d="M28.66,21.53h-.44s-.05-.01-.06-.04c-.13-.32-.48-.49-.57-.53-.1.05-.44.22-.57.53,0,.02-.03.04-.06.04h-.44s-.02,0-.03,0c0,0-.17-.11-.38-.2-.03-.01-.04-.05-.03-.07,0-.03.04-.05.07-.04.02,0,.21.05.32.08.08-.11.37-.4,1.1-.57,0,0,.02,0,.03,0,0,0,.02,0,.03,0,.72.17,1.01.46,1.09.57.11-.03.29-.08.32-.08.03,0,.06.01.07.04.01.03,0,.06-.03.07-.21.1-.38.2-.38.2,0,0-.02,0-.03,0ZM28.26,21.41h.38s0,0,.01,0c0,0,0,0-.01-.02,0,0-.22-.36-1.03-.55h0s.46.18.65.57ZM26.55,21.41h.38c.18-.37.6-.55.64-.57,0,0,0,0,0,0-.81.19-1.02.55-1.02.55,0,0,0,.01-.01.01,0,0,0,0,.01,0Z"/>
            </g>
            <g>
              <path class="cls-3" d="M28.09,21.65c-.02-.38-.46-.56-.49-.57h0s0,0,0,0h0s0,0,0,0c-.03.01-.47.19-.49.57,0,0,.32-.17.49-.16.17,0,.49.16.49.16Z"/>
              <path class="cls-2" d="M27.1,21.71s-.02,0-.03,0c-.02-.01-.03-.03-.03-.05.02-.39.43-.58.52-.62.01,0,.02-.01.03-.01h0s.03,0,.04.01c.09.04.48.22.51.6,0,0,0,.02,0,.02,0,.03-.03.06-.06.06h0s-.02,0-.03,0c-.08-.04-.32-.15-.45-.15,0,0-.01,0-.02,0,0,0,0,0,0,0-.14,0-.38.11-.46.15,0,0-.02,0-.03,0ZM27.61,21.43c.12,0,.29.07.4.11-.08-.24-.33-.36-.41-.4-.08.03-.34.16-.41.4.11-.05.28-.11.4-.11,0,0,.02,0,.02,0h.01Z"/>
            </g>
            <g>
              <path class="cls-3" d="M27.61,21.65c-.8.13-1.06.67-1.06.67v.29c.41-.43,1.06-.54,1.06-.54,0,0,.65.11,1.06.54v-.29s-.27-.54-1.06-.67Z"/>
              <path class="cls-2" d="M26.55,22.67s-.02,0-.02,0c-.02,0-.04-.03-.04-.06v-.29s0-.02,0-.03c.01-.02.29-.57,1.11-.7,0,0,.01,0,.02,0,.82.13,1.1.68,1.11.7,0,0,0,.02,0,.03v.29s-.01.05-.04.06c-.02,0-.05,0-.07-.01-.37-.38-.93-.5-1.02-.52-.08.02-.65.14-1.02.52-.01.01-.03.02-.04.02ZM26.61,22.33v.13c.42-.35.97-.45.99-.46,0,0,.01,0,.02,0,.03,0,.57.1.99.46v-.13c-.04-.08-.32-.51-1-.62-.68.11-.96.54-1,.62Z"/>
            </g>
            <g>
              <path class="cls-3" d="M28.69,22.88s-.31-.5-1.08-.67h0c-.77.17-1.08.67-1.08.67v.31s.37,0,.37,0c.37-.44.71-.58.71-.58,0,0,.35.14.71.58h.37v-.31Z"/>
              <path class="cls-2" d="M28.69,23.25h-.37s-.03,0-.05-.02c-.3-.36-.59-.51-.67-.55-.08.04-.37.19-.67.55-.01.01-.03.02-.05.02h-.37s-.03,0-.04-.02c-.01-.01-.02-.03-.02-.04v-.31s0-.02.02-.03c.01-.02.33-.53,1.12-.7,0,0,.02,0,.03,0,.79.17,1.1.68,1.12.7,0,0,0,.02,0,.03v.31s0,.03-.01.04c-.01.01-.03.02-.04.02ZM28.35,23.13h.28v-.23c-.06-.08-.36-.48-1.02-.63-.66.15-.97.55-1.02.63v.23s.28,0,.28,0c.36-.43.71-.57.72-.57.01,0,.03,0,.04,0,.01,0,.36.14.72.57Z"/>
            </g>
            <g>
              <path class="cls-3" d="M26.19,23.23s.11-.28.19-.31v.44h.39s-.19.24-.28.24h-.28l-.71-.56s.29-.03.69.19Z"/>
              <path class="cls-2" d="M26.48,23.66h-.28s-.03,0-.04-.01l-.71-.56s-.03-.04-.02-.06c0-.02.03-.04.05-.04,0,0,.27-.03.67.17.04-.11.12-.26.2-.29.02,0,.04,0,.06,0,.02.01.03.03.03.05v.38h.33s.05.01.06.03c.01.02,0,.05,0,.06-.06.08-.22.26-.33.26,0,0,0,0,0,0ZM26.22,23.54h.25s.08-.05.15-.12h-.25s-.06-.03-.06-.06v-.27s-.05.1-.07.16c0,.02-.02.03-.04.04-.02,0-.03,0-.05,0-.19-.1-.35-.15-.47-.17l.54.43Z"/>
            </g>
            <g>
              <path class="cls-3" d="M29.04,23.23s-.11-.28-.19-.31v.44h-.39s.19.24.28.24h.28l.71-.56s-.29-.03-.69.19Z"/>
              <path class="cls-2" d="M29.02,23.66h-.28c-.11,0-.27-.19-.33-.26-.01-.02-.02-.04,0-.06.01-.02.03-.03.06-.03h.33v-.38s0-.04.03-.05c.02-.01.04-.01.06,0,.08.03.15.18.2.29.39-.2.67-.16.67-.17.02,0,.05.02.05.04,0,.02,0,.05-.02.06l-.71.56s-.02.01-.04.01ZM28.6,23.42c.07.07.13.12.15.12h.25s.54-.43.54-.43c-.12.02-.28.07-.47.17-.01,0-.03,0-.05,0-.02,0-.03-.02-.04-.04-.02-.06-.05-.11-.07-.16v.27s-.03.06-.06.06h-.25Z"/>
            </g>
            <g>
              <path class="cls-3" d="M26.26,23.97s.25-.22.31-.25c0,0-.11.3-.12.37l-.19-.12Z"/>
              <path class="cls-2" d="M26.45,24.15s-.02,0-.03,0l-.19-.12s-.03-.03-.03-.05c0-.02,0-.04.02-.05.03-.02.26-.22.32-.26.02-.01.05,0,.07,0,.02.02.03.04.02.07-.03.08-.11.31-.12.37,0,.02-.02.03-.04.04,0,0-.02,0-.02,0Z"/>
            </g>
            <g>
              <path class="cls-3" d="M28.94,23.97s-.25-.22-.31-.25c0,0,.11.3.12.37l.19-.12Z"/>
              <path class="cls-2" d="M28.75,24.15s-.02,0-.02,0c-.02,0-.03-.02-.04-.04-.01-.06-.09-.28-.12-.37,0-.02,0-.05.02-.07.02-.02.05-.02.07,0,.07.04.3.24.32.26.01.01.02.03.02.05,0,.02-.01.04-.03.05l-.19.12s-.02,0-.03,0Z"/>
            </g>
            <g>
              <path class="cls-3" d="M28.71,24.37c-.42-1.36-1.1-1.58-1.1-1.58h0s-.68.23-1.1,1.58c0,0-.25-.32-.53-.3l.57.85s.4-.88,1.06-1.15c.67.27,1.06,1.15,1.06,1.15l.57-.85c-.27-.02-.53.3-.53.3Z"/>
              <path class="cls-2" d="M26.54,24.98s-.04-.01-.05-.03l-.57-.85s-.01-.04,0-.06c0-.02.03-.03.05-.03.21-.02.4.14.51.24.43-1.27,1.08-1.51,1.11-1.52.01,0,.03,0,.04,0,.03.01.68.26,1.11,1.52.1-.1.27-.24.47-.24.01,0,.02,0,.03,0,.02,0,.04.01.05.03,0,.02,0,.04,0,.06l-.57.85s-.04.03-.06.03c-.02,0-.04-.02-.05-.04,0,0-.38-.84-1.01-1.1-.62.26-1,1.1-1.01,1.1,0,.02-.03.03-.05.04,0,0,0,0,0,0ZM26.1,24.14l.44.65c.13-.24.49-.86,1.05-1.08.01,0,.03,0,.05,0,.56.22.92.84,1.05,1.08l.44-.65c-.19.06-.35.26-.36.26-.01.02-.04.03-.06.02-.02,0-.04-.02-.05-.04-.37-1.18-.93-1.48-1.05-1.53-.13.06-.68.37-1.04,1.53,0,.02-.02.04-.05.04-.02,0-.04,0-.06-.02,0,0-.16-.21-.36-.26Z"/>
            </g>
            <g>
              <path class="cls-3" d="M28.68,26.05l.55-.83c-.27-.02-.53.3-.53.3-.42-1.36-1.1-1.58-1.1-1.58h0s-.68.23-1.1,1.58c0,0-.25-.32-.53-.3l.56.81h.11s.35-.83.96-1.14c0,0,.61.35.97,1.16h.11Z"/>
              <path class="cls-2" d="M28.56,26.12s-.05-.01-.06-.04c-.3-.69-.79-1.04-.91-1.12-.56.3-.89,1.08-.9,1.09,0,.02-.03.04-.06.04h-.11s-.04-.01-.05-.03l-.56-.81s-.01-.04,0-.06c0-.02.03-.03.05-.03.21-.02.4.14.51.24.43-1.27,1.08-1.51,1.11-1.52.01,0,.03,0,.04,0,.03.01.68.25,1.11,1.52.1-.1.27-.24.47-.24.01,0,.02,0,.03,0,.02,0,.04.01.05.03,0,.02,0,.04,0,.06l-.55.83s-.03.03-.05.03h-.11s0,0,0,0ZM27.6,24.84s.02,0,.03,0c.02.01.62.36.98,1.15h.04s.47-.7.47-.7c-.19.06-.35.26-.36.26-.01.02-.04.03-.06.02-.02,0-.04-.02-.05-.04-.37-1.19-.93-1.49-1.05-1.53-.13.06-.68.37-1.04,1.53,0,.02-.02.04-.05.04-.02,0-.04,0-.06-.02,0,0-.16-.21-.35-.26l.46.68h.04c.08-.17.41-.85.97-1.13,0,0,.02,0,.03,0Z"/>
            </g>
            <g>
              <path class="cls-3" d="M26.49,25.11s-1.18-.12-1.62-.55c0,0-.09-.08.05-.08,0,0,.47.04.82.28l.21-.42.54.77Z"/>
              <path class="cls-2" d="M26.49,25.17s0,0,0,0c-.05,0-1.21-.13-1.65-.57-.03-.03-.06-.08-.04-.12.03-.06.11-.06.14-.06.02,0,.44.04.8.26l.18-.36s.03-.03.05-.03c.02,0,.04,0,.05.03l.53.76s.02.03.02.05c0,.03-.03.06-.06.06h0ZM24.94,24.53c.35.31,1.11.45,1.42.5l-.4-.58-.16.33s-.02.03-.04.03c-.02,0-.04,0-.05,0-.3-.2-.68-.26-.77-.27Z"/>
            </g>
            <g>
              <path class="cls-3" d="M26.52,26.97s.14-1.23,1.09-1.88c0,0,.86.5,1.09,1.89,0,0-.43-.71-1.1-.93,0,0-.62.15-1.07.92Z"/>
              <path class="cls-2" d="M28.7,27.04s-.04-.01-.05-.03c0,0-.42-.69-1.05-.9-.1.03-.63.22-1.02.89-.01.02-.05.04-.07.03-.03,0-.04-.04-.04-.06,0-.05.15-1.26,1.12-1.92.02-.01.04-.01.06,0,.04.02.88.53,1.11,1.93,0,.03-.01.06-.04.07,0,0-.01,0-.02,0ZM27.6,25.99s.01,0,.02,0c.44.14.78.49.97.72-.25-1-.83-1.45-.97-1.55-.62.44-.87,1.13-.97,1.52.43-.56.92-.69.94-.69,0,0,0,0,.01,0Z"/>
            </g>
            <g>
              <path class="cls-3" d="M26.52,27.39s.22-.87,1.08-1.16c0,0,.83.3,1.09,1.16,0,0,.33-.27.52-.21l-.54.6h-2.12l-.58-.6s.17-.05.54.21Z"/>
              <path class="cls-2" d="M28.68,27.84h-2.12s-.03,0-.04-.02l-.58-.6s-.02-.04-.01-.06c0-.02.02-.04.04-.04.02,0,.18-.04.52.17.08-.23.36-.87,1.09-1.13.01,0,.03,0,.04,0,.03.01.81.3,1.1,1.12.12-.08.35-.21.51-.17.02,0,.03.02.04.04,0,.02,0,.04-.01.06l-.54.6s-.03.02-.05.02ZM26.58,27.72h2.07l.43-.48c-.13.04-.29.14-.34.19-.02.01-.04.02-.06.01-.02,0-.03-.02-.04-.04-.23-.75-.91-1.06-1.03-1.12-.8.29-1.02,1.11-1.02,1.11,0,.02-.02.03-.04.04-.02,0-.04,0-.06,0-.15-.1-.27-.15-.35-.18l.44.46Z"/>
            </g>
            <g>
              <path class="cls-3" d="M24.77,24.67s.54.38,1.07.45l-.07.08.68,1.02h.14s-.24.48-.21.91c0,0-.39-.22-.61,0l.61.73h-1.61v-3.19Z"/>
              <path class="cls-2" d="M26.38,27.92h-1.61s-.06-.03-.06-.06v-3.19s.01-.04.03-.05c.02-.01.04,0,.06,0,0,0,.53.37,1.04.44.02,0,.04.02.05.04,0,.02,0,.04-.01.06l-.04.05.64.95h.1s.04.01.05.03c.01.02.01.04,0,.06,0,0-.23.47-.2.88,0,.02,0,.04-.03.06-.02.01-.04.01-.06,0,0,0-.16-.09-.32-.09-.07,0-.13.02-.18.05l.57.67s.03.03.03.05c0,.03-.03.06-.06.06ZM24.83,27.8h1.41l-.53-.63s-.02-.06,0-.08c.08-.08.18-.12.31-.12.11,0,.22.03.29.06,0-.31.12-.61.18-.76h-.04s-.04-.01-.05-.03l-.68-1.02s-.01-.05,0-.07h0c-.37-.08-.73-.28-.89-.38v3.02Z"/>
            </g>
            <g>
              <path class="cls-3" d="M30.68,24.8s-.44.37-1.25.42l-.68.99h-.1s.22.48.19.91c0,0,.37-.19.62,0l-.63.73h1.86v-3.06Z"/>
              <path class="cls-2" d="M30.68,27.92h-1.86s-.05-.01-.06-.04c-.01-.02,0-.05,0-.06l.59-.67c-.05-.03-.12-.04-.19-.04-.16,0-.31.08-.32.08-.02,0-.04,0-.06,0-.02-.01-.03-.03-.03-.05.03-.42-.18-.88-.18-.88,0-.02,0-.04,0-.06.01-.02.03-.03.05-.03h.07l.67-.96s.03-.02.05-.03c.78-.06,1.21-.41,1.22-.41.02-.02.04-.02.06,0,.02.01.03.03.03.05v3.06s-.03.06-.06.06ZM28.96,27.8h1.67v-2.88c-.17.11-.57.32-1.16.37l-.67.96s-.03.03-.05.03h0c.06.15.16.45.16.76.07-.02.17-.05.28-.05.12,0,.23.03.31.1.01.01.02.03.02.04,0,.02,0,.03-.01.05l-.54.63Z"/>
            </g>
            <g>
              <path class="cls-3" d="M28.72,25.07l.54-.76.24.43s.52-.35.91-.26l-.62.53s-.15.07-.44.09c0,0-.22-.15-.47.03,0,0-.15.08-.17-.08Z"/>
              <path class="cls-2" d="M28.82,25.23c-.08,0-.14-.06-.15-.15,0-.02,0-.03.01-.04l.54-.76s.03-.03.05-.03c.02,0,.04.01.05.03l.21.38c.13-.08.45-.25.75-.25.06,0,.11,0,.16.02.02,0,.04.02.05.04,0,.02,0,.05-.02.06l-.62.53s0,0-.01,0c0,0-.16.08-.46.1,0,0-.03,0-.04,0,0,0-.07-.05-.17-.05-.08,0-.15.03-.22.08-.01,0-.06.03-.11.03ZM28.79,25.09s.02.02.03.02c.02,0,.04,0,.05-.01.08-.06.18-.1.29-.1s.19.04.22.06c.23-.02.37-.07.4-.08l.5-.43c-.34,0-.73.26-.73.27-.01,0-.03.01-.05,0-.02,0-.03-.01-.04-.03l-.2-.35-.47.66Z"/>
            </g>
          </g>
          <g>
            <path class="cls-3" d="M54.26,19.88s.29-.84.43-1.01h0s0,0,0,0c0,0,0,0,0,0h0c.14.17.43,1.01.43,1.01.17.56,0,.86,0,.86-.19-.1-.41-.11-.42-.11-.01,0-.23,0-.42.11,0,0-.18-.3,0-.86Z"/>
            <path class="cls-2" d="M54.26,20.8s-.04-.01-.05-.03c0-.01-.19-.33-.01-.91.01-.04.29-.83.43-1.02,0-.01.01-.02.02-.02.03-.02.08,0,.09.03.15.2.42.98.43,1.02.18.58,0,.9-.01.91-.02.03-.05.04-.08.02-.16-.09-.34-.1-.39-.1-.06,0-.24.01-.39.1,0,0-.02,0-.03,0ZM54.69,18.98c-.12.21-.3.72-.37.92-.12.39-.06.66-.02.76.16-.07.32-.08.39-.08.08,0,.24.01.4.08.04-.11.1-.37-.02-.76-.07-.2-.25-.71-.37-.92Z"/>
          </g>
          <g>
            <path class="cls-3" d="M53.57,21.36s.22-.39,1.1-.59h0s0,0,0,0t0,0h0c.88.2,1.1.59,1.1.59.08-.03.35-.09.35-.09-.22.1-.39.21-.39.21h-.44c-.16-.38-.61-.57-.63-.58-.02,0-.47.19-.63.58h-.44s-.17-.11-.39-.21c0,0,.27.06.35.09Z"/>
            <path class="cls-2" d="M55.74,21.53h-.44s-.05-.01-.06-.04c-.13-.31-.47-.49-.57-.53-.09.04-.44.22-.57.53,0,.02-.03.04-.06.04h-.44s-.02,0-.03,0c0,0-.17-.11-.38-.2-.03-.01-.04-.05-.03-.07,0-.03.04-.05.07-.04.02,0,.21.05.32.08.09-.11.37-.4,1.1-.57,0,0,.02,0,.03,0,0,0,.02,0,.03,0,.72.17,1.01.46,1.09.57.11-.03.29-.08.32-.08.03,0,.06.01.07.04.01.03,0,.06-.03.07-.21.1-.38.2-.38.2,0,0-.02,0-.03,0ZM55.34,21.41h.38s0,0,.01,0c0,0,0,0-.01-.02,0,0-.22-.36-1.03-.55h0s.47.21.64.57ZM53.63,21.41h.38c.19-.38.63-.56.65-.57h0c-.81.19-1.02.55-1.03.55,0,0,0,.01-.01.01,0,0,0,0,.01,0Z"/>
          </g>
          <g>
            <path class="cls-3" d="M54.18,21.65c.02-.38.46-.56.49-.57h0s0,0,0,0h0s0,0,0,0c.03.01.47.19.49.57,0,0-.32-.17-.49-.16-.17,0-.49.16-.49.16Z"/>
            <path class="cls-2" d="M54.18,21.71s-.02,0-.03,0c-.02-.01-.03-.03-.03-.05.02-.39.43-.58.52-.62.01,0,.03-.01.04,0,0,0,.02,0,.03,0,.08.03.5.23.52.62,0,.02,0,.04-.03.05-.02.01-.04.01-.06,0-.08-.04-.32-.15-.45-.15,0,0-.01,0-.02,0,0,0,0,0,0,0-.14,0-.38.11-.46.15,0,0-.02,0-.03,0ZM54.69,21.43c.12,0,.29.07.4.11-.08-.24-.33-.36-.41-.4-.08.03-.34.16-.41.4.11-.05.28-.11.4-.11,0,0,.02,0,.02,0h.01Z"/>
          </g>
          <g>
            <path class="cls-3" d="M54.69,21.65c.8.13,1.06.67,1.06.67v.29c-.41-.43-1.06-.54-1.06-.54,0,0-.65.11-1.06.54v-.29s.27-.54,1.06-.67Z"/>
            <path class="cls-2" d="M55.75,22.67s-.03,0-.04-.02c-.37-.38-.94-.5-1.02-.52-.08.02-.65.14-1.02.52-.02.02-.04.02-.07.01-.02,0-.04-.03-.04-.06v-.29s0-.02,0-.03c.01-.02.29-.57,1.11-.7,0,0,.01,0,.02,0,.82.13,1.1.68,1.11.7,0,0,0,.02,0,.03v.29s-.01.05-.04.06c0,0-.02,0-.02,0ZM54.69,22.01s0,0,.01,0c.03,0,.58.1.99.46v-.13c-.04-.08-.32-.51-1-.62-.68.11-.96.54-1,.62v.13c.42-.35.97-.45.99-.46,0,0,0,0,.01,0Z"/>
          </g>
          <g>
            <path class="cls-3" d="M53.61,22.88s.31-.5,1.08-.67h0c.77.17,1.08.67,1.08.67v.31s-.37,0-.37,0c-.37-.44-.71-.58-.71-.58,0,0-.35.14-.71.58h-.37v-.31Z"/>
            <path class="cls-2" d="M55.77,23.25h-.37s-.03,0-.05-.02c-.3-.36-.59-.51-.67-.55-.08.04-.37.19-.67.55-.01.01-.03.02-.05.02h-.37s-.03,0-.04-.02c-.01-.01-.02-.03-.02-.04v-.31s0-.02.01-.03c.01-.02.33-.53,1.12-.7,0,0,.02,0,.03,0,.79.17,1.1.68,1.12.7,0,0,0,.02,0,.03v.31s0,.03-.01.04c-.01.01-.03.02-.04.02ZM55.43,23.13h.28v-.23c-.06-.08-.37-.48-1.02-.63-.66.15-.97.55-1.02.63v.23s.28,0,.28,0c.36-.43.71-.57.72-.57.01,0,.03,0,.04,0,.01,0,.36.14.72.57Z"/>
          </g>
          <g>
            <path class="cls-3" d="M53.57,24.37c.42-1.36,1.1-1.58,1.1-1.58h0s.68.23,1.1,1.58c0,0,.25-.32.53-.3l-.57.85s-.4-.88-1.06-1.15c-.67.27-1.06,1.15-1.06,1.15l-.57-.85c.27-.02.53.3.53.3Z"/>
            <path class="cls-2" d="M53.61,24.98s-.04-.01-.05-.03l-.57-.85s-.01-.04,0-.06c0-.02.03-.03.05-.03.2-.02.41.14.51.24.44-1.3,1.11-1.52,1.11-1.52.01,0,.02,0,.03,0,.03,0,.68.24,1.11,1.52.1-.1.29-.26.51-.24.02,0,.04.01.05.03,0,.02,0,.04,0,.06l-.57.85s-.04.03-.06.03c-.02,0-.04-.02-.05-.04,0,0-.38-.84-1.01-1.1-.62.26-1,1.1-1.01,1.1,0,.02-.03.03-.05.04,0,0,0,0,0,0ZM53.17,24.14l.44.65c.13-.24.49-.86,1.05-1.08.01,0,.03,0,.05,0,.56.22.92.84,1.05,1.08l.44-.65c-.19.06-.35.26-.35.26-.01.02-.04.03-.06.02-.02,0-.04-.02-.05-.04-.37-1.18-.94-1.49-1.05-1.53-.1.04-.67.34-1.04,1.53,0,.02-.02.04-.05.04-.02,0-.04,0-.06-.02,0,0-.16-.21-.36-.26Z"/>
          </g>
          <g>
            <path class="cls-3" d="M53.59,26.05l-.55-.83c.27-.02.53.3.53.3.42-1.36,1.1-1.58,1.1-1.58h0s.68.23,1.1,1.58c0,0,.25-.32.52-.3l-.56.81h-.11s-.35-.83-.96-1.14c0,0-.61.35-.97,1.16h-.11Z"/>
            <path class="cls-2" d="M53.7,26.12h-.12s-.04-.02-.05-.03l-.55-.83s-.01-.04,0-.06c0-.02.03-.03.05-.03.21-.02.4.14.51.24.44-1.3,1.11-1.52,1.11-1.52,0,0,.02,0,.03,0,0,0,.68.22,1.11,1.52.1-.1.29-.26.5-.24.02,0,.04.02.05.03,0,.02,0,.04,0,.06l-.56.81s-.03.03-.05.03h-.11s-.05-.01-.06-.04c0,0-.34-.79-.9-1.09-.12.08-.62.43-.92,1.12,0,.02-.03.04-.06.04ZM53.62,25.99h.04c.36-.79.95-1.14.98-1.15.02-.01.04-.01.06,0,.55.28.89.96.97,1.13h.04l.46-.68c-.19.06-.35.26-.35.26-.01.02-.04.03-.06.02-.02,0-.04-.02-.05-.04-.37-1.18-.94-1.49-1.05-1.53-.1.04-.67.34-1.04,1.53,0,.02-.02.04-.05.04-.02,0-.04,0-.06-.02,0,0-.16-.21-.36-.26l.47.7Z"/>
          </g>
          <g>
            <path class="cls-3" d="M55.76,26.97s-.14-1.23-1.09-1.88c0,0-.86.5-1.09,1.89,0,0,.43-.71,1.1-.93,0,0,.62.15,1.07.92Z"/>
            <path class="cls-2" d="M53.58,27.04s-.01,0-.02,0c-.03-.01-.04-.04-.04-.07.23-1.41,1.08-1.91,1.12-1.93.02-.01.04-.01.06,0,.97.66,1.11,1.87,1.12,1.92,0,.03-.01.06-.04.06-.03,0-.06,0-.07-.03-.4-.67-.92-.86-1.02-.89-.63.22-1.05.89-1.05.9-.01.02-.03.03-.05.03ZM54.67,25.17c-.14.1-.72.55-.97,1.55.19-.23.53-.58.97-.72.01,0,.02,0,.03,0,.02,0,.51.13.94.69-.1-.39-.36-1.08-.97-1.52Z"/>
          </g>
          <g>
            <path class="cls-3" d="M55.76,27.39s-.22-.87-1.08-1.16c0,0-.83.3-1.09,1.16,0,0-.33-.27-.52-.21l.54.6h2.12l.58-.6s-.17-.05-.54.21Z"/>
            <path class="cls-2" d="M55.72,27.84h-2.12s-.03,0-.05-.02l-.54-.6s-.02-.04-.01-.06c0-.02.02-.04.04-.04.15-.05.39.09.51.17.29-.82,1.07-1.11,1.1-1.12.01,0,.03,0,.04,0,.73.25,1.02.9,1.09,1.13.35-.22.51-.17.53-.17.02,0,.04.02.04.04,0,.02,0,.04-.01.06l-.58.6s-.03.02-.04.02ZM53.63,27.72h2.07l.44-.46c-.08.02-.2.07-.35.18-.02.01-.04.01-.06,0-.02,0-.03-.02-.04-.04,0,0-.22-.83-1.02-1.11-.12.05-.8.37-1.03,1.12,0,.02-.02.03-.04.04-.02,0-.04,0-.06-.01-.06-.05-.21-.15-.34-.19l.43.48Z"/>
          </g>
          <g>
            <path class="cls-3" d="M53.21,23.46s.17-.31.25-.37v.27h.36l-.2.4s-.08.09-.15.09h-.22l-.72-.58s.45.04.68.18Z"/>
            <path class="cls-2" d="M53.47,23.91h-.22s-.03,0-.04-.01l-.72-.58s-.03-.04-.02-.07c0-.02.04-.04.06-.04.02,0,.41.03.65.16.06-.09.17-.28.23-.34.02-.02.04-.02.07-.01.02,0,.04.03.04.06v.21h.3s.04.01.05.03c.01.02.01.04,0,.06l-.2.4s-.11.13-.21.13ZM53.27,23.79h.2s.09-.05.11-.07l.15-.3h-.27s-.06-.03-.06-.06v-.09c-.05.07-.1.16-.13.22,0,.01-.02.03-.04.03-.02,0-.03,0-.05,0-.11-.08-.29-.12-.43-.15l.53.43Z"/>
          </g>
          <g>
            <polygon class="cls-3" points="53.54 24.02 53.45 24.02 53.5 24.1 53.54 24.02"/>
            <path class="cls-2" d="M53.5,24.16s-.04-.01-.05-.03l-.05-.08s-.01-.04,0-.06c.01-.02.03-.03.05-.03h.09s.04.01.05.03c.01.02.01.04,0,.06l-.04.08s-.03.03-.05.03h0Z"/>
          </g>
          <g>
            <path class="cls-3" d="M56.11,23.46s-.17-.31-.25-.37v.27h-.36l.19.4s.08.09.15.09h.22l.72-.58s-.45.04-.68.18Z"/>
            <path class="cls-2" d="M56.07,23.91h-.22c-.1,0-.19-.1-.2-.11l-.2-.42s0-.04,0-.06c.01-.02.03-.03.05-.03h.3v-.21s.01-.05.04-.06c.02,0,.05,0,.07.01.06.06.17.24.23.34.24-.13.63-.16.65-.16.03,0,.05.01.06.04.01.02,0,.05-.02.07l-.72.58s-.02.01-.04.01ZM55.59,23.42l.15.32s.07.06.1.06h.2l.53-.43c-.14.03-.32.07-.44.15-.01,0-.03.01-.05,0-.02,0-.03-.01-.04-.03-.03-.06-.09-.15-.13-.22v.09s-.03.06-.06.06h-.27Z"/>
          </g>
          <g>
            <polygon class="cls-3" points="55.77 24.02 55.87 24.02 55.81 24.1 55.77 24.02"/>
            <path class="cls-2" d="M55.81,24.16h0s-.04-.01-.05-.03l-.04-.08s0-.04,0-.06c.01-.02.03-.03.05-.03h.09s.04.01.05.03c.01.02,0,.04,0,.06l-.05.08s-.03.03-.05.03Z"/>
          </g>
          <g>
            <path class="cls-3" d="M53.09,24.44l.46.64-.08.14s-.24-.19-.4-.19c0,0-.09.03-.14.06l-.11.08.27.41h-.27l-.98-.86s.51-.05.91.25c0,0,.16-.31.35-.54Z"/>
            <path class="cls-2" d="M53.09,25.65h-.27s-.03,0-.04-.02l-.98-.86s-.03-.04-.02-.06c0-.02.03-.04.05-.04,0,0,.03,0,.09,0,.18,0,.51.03.8.23.06-.1.18-.32.32-.49.01-.01.02-.02.05-.02.02,0,.04.01.05.03l.46.64s.02.04,0,.06l-.08.14s-.02.03-.04.03c-.01,0-.04,0-.05-.01-.06-.05-.24-.18-.36-.18-.02,0-.08.03-.11.05l-.06.05.24.37s.01.04,0,.06c-.01.02-.03.03-.05.03ZM52.85,25.53h.13l-.21-.32s-.01-.06.02-.08l.11-.08c.06-.04.15-.06.16-.07,0,0,.02,0,.02,0,.13,0,.29.1.38.16l.03-.05-.39-.55c-.16.22-.29.47-.29.47,0,.02-.02.03-.04.03-.02,0-.04,0-.05-.01-.25-.19-.54-.23-.71-.24l.85.74Z"/>
          </g>
          <g>
            <path class="cls-3" d="M51.55,24.66l1.22,1.07h.43l.33.49h.11s-.18.38-.2.92c0,0-.36-.25-.61.02l.64.7h-1.92v-3.19Z"/>
            <path class="cls-2" d="M53.47,27.91h-1.92s-.03,0-.04-.02c-.01-.01-.02-.03-.02-.04v-3.19s.02-.05.04-.06c.02-.01.05,0,.07,0l1.2,1.06h.4s.04.01.05.03l.31.46h.08s.04.01.05.03c.01.02.01.04,0,.06,0,0-.18.38-.19.89,0,.02-.01.04-.03.05-.02,0-.04,0-.06,0,0,0-.14-.09-.3-.09-.07,0-.14.02-.19.06l.59.65s.03.03.03.05c0,.03-.03.06-.06.06ZM51.61,27.79h1.72l-.55-.6s-.02-.06,0-.08c.09-.09.2-.14.32-.14.11,0,.21.03.28.07.02-.35.11-.62.16-.76h-.02s-.04-.01-.05-.03l-.31-.46h-.39s-.03,0-.04-.02l-1.12-.98v3Z"/>
          </g>
          <g>
            <path class="cls-3" d="M56.23,24.44l-.46.64.08.14s.24-.19.41-.19c0,0,.09.03.14.06l.11.08-.27.41h.27l.98-.86s-.51-.05-.91.25c0,0-.16-.31-.35-.54Z"/>
            <path class="cls-2" d="M56.5,25.65h-.27s-.04-.01-.05-.03,0-.04,0-.06l.24-.37-.07-.05s-.1-.04-.12-.05c-.11,0-.29.13-.35.18-.01.01-.03.02-.05.01-.02,0-.03-.01-.04-.03l-.08-.14s0-.04,0-.06l.46-.64s.03-.02.05-.03c.01,0,.04,0,.05.02.14.18.26.39.32.49.29-.2.62-.23.8-.23.06,0,.09,0,.09,0,.02,0,.04.02.05.04,0,.02,0,.05-.02.06l-.98.86s-.02.02-.04.02ZM56.35,25.53h.13l.85-.74c-.17,0-.46.05-.71.24-.01.01-.03.01-.05.01-.02,0-.03-.02-.04-.03,0,0-.13-.25-.29-.47l-.39.55.03.05c.09-.06.25-.16.38-.16,0,0,.02,0,.02,0,.01,0,.1.03.16.06l.11.08s.03.05.02.08l-.21.32Z"/>
          </g>
          <g>
            <path class="cls-3" d="M57.47,24.94l-.92.79h-.42l-.33.49h-.11s.18.38.2.92c0,0,.36-.25.61.02l-.64.7h1.62v-2.91Z"/>
            <path class="cls-2" d="M57.48,27.91h-1.62s-.05-.01-.06-.04c0-.02,0-.05.01-.07l.6-.66c-.06-.04-.12-.06-.19-.06-.15,0-.3.09-.3.09-.02.01-.04.01-.06,0-.02-.01-.03-.03-.03-.05-.02-.51-.19-.89-.19-.89,0-.02,0-.04,0-.06.01-.02.03-.03.05-.03h.08l.31-.46s.03-.03.05-.03h.4l.91-.78s.04-.02.07,0c.02,0,.03.03.03.06v2.91s0,.03-.01.04c-.01.01-.03.02-.04.02ZM56,27.79h1.42v-2.72s-.83.71-.83.71c-.01,0-.02.01-.04.01h-.39l-.31.46s-.03.03-.05.03h-.02c.05.13.14.41.16.76.07-.03.17-.07.28-.07.13,0,.24.05.32.14.02.02.02.06,0,.08l-.55.6Z"/>
          </g>
        </g>
      </g>
    </g>
  </g>
</svg>