<?xml version="1.0" encoding="UTF-8"?>
<svg xmlns="http://www.w3.org/2000/svg" viewBox="0 0 1458.5 96.85">
  <defs>
    <style>
      .cls-1 {
        mix-blend-mode: hard-light;
        opacity: .6;
      }

      .cls-2 {
        isolation: isolate;
      }

      .cls-3 {
        fill: #12a497;
      }
    </style>
  </defs>
  <g class="cls-2">
    <g id="_レイヤー_2" data-name="レイヤー 2">
      <g id="_レイヤー_1-2" data-name="レイヤー 1">
        <g class="cls-1">
          <path class="cls-3" d="M76.5,94.78l-15.69-63.01h-.26l-15.43,63.01h-20.62L0,2.2h20.36l14.65,63.01h.26L51.34,2.2h19.06l15.82,63.79h.26L101.65,2.2h19.97l-24.89,92.58h-20.23Z"/>
          <path class="cls-3" d="M213.15,2.2v17.12h-48.88v19.84h44.86v15.82h-44.86v22.69h49.92v17.11h-70.27V2.2h69.24Z"/>
          <path class="cls-3" d="M336.07,2.2l34.62,92.58h-21.13l-7-20.62h-34.62l-7.26,20.62h-20.49L315.19,2.2h20.87ZM337.23,58.99l-11.67-33.97h-.26l-12.06,33.97h23.99Z"/>
          <path class="cls-3" d="M441.61,2.2c4.15,0,7.89.67,11.22,2.01,3.33,1.34,6.18,3.18,8.56,5.51,2.38,2.33,4.19,5.04,5.45,8.1,1.25,3.07,1.88,6.38,1.88,9.92,0,5.45-1.15,10.16-3.44,14.13-2.29,3.98-6.03,7-11.21,9.08v.26c2.51.69,4.58,1.75,6.22,3.18,1.64,1.43,2.98,3.11,4.02,5.06,1.04,1.94,1.79,4.08,2.27,6.42.47,2.33.8,4.67.97,7,.08,1.47.17,3.2.26,5.19.08,1.99.24,4.02.45,6.09.21,2.07.56,4.04,1.04,5.9.47,1.86,1.19,3.44,2.14,4.73h-20.36c-1.12-2.94-1.81-6.44-2.07-10.5-.26-4.06-.65-7.95-1.17-11.67-.69-4.84-2.16-8.38-4.41-10.63-2.25-2.25-5.92-3.37-11.02-3.37h-20.36v36.17h-20.36V2.2h49.92ZM434.35,44.08c4.67,0,8.17-1.04,10.5-3.11,2.33-2.07,3.5-5.45,3.5-10.11s-1.17-7.76-3.5-9.79c-2.33-2.03-5.83-3.05-10.5-3.05h-22.3v26.06h22.3Z"/>
          <path class="cls-3" d="M567.5,2.2v17.12h-48.88v19.84h44.86v15.82h-44.86v22.69h49.92v17.11h-70.27V2.2h69.24Z"/>
          <path class="cls-3" d="M664.61,2.2v38.38l36.17-38.38h25.41l-36.17,36.56,39.67,56.01h-25.54l-27.88-41.62-11.67,11.8v29.82h-20.36V2.2h20.36Z"/>
          <path class="cls-3" d="M818.9,87.71c-7,6.09-16.68,9.14-29.04,9.14s-22.24-3.02-29.11-9.08c-6.87-6.05-10.31-15.38-10.31-28.01V2.2h20.36v57.57c0,2.51.21,4.97.65,7.39.43,2.42,1.34,4.56,2.72,6.42,1.38,1.86,3.31,3.37,5.77,4.54,2.46,1.17,5.77,1.75,9.92,1.75,7.26,0,12.27-1.62,15.04-4.86,2.77-3.24,4.15-8.32,4.15-15.23V2.2h20.36v57.57c0,12.53-3.5,21.85-10.5,27.94Z"/>
          <path class="cls-3" d="M909.79,2.2c4.15,0,7.89.67,11.21,2.01,3.33,1.34,6.18,3.18,8.56,5.51,2.38,2.33,4.19,5.04,5.45,8.1,1.25,3.07,1.88,6.38,1.88,9.92,0,5.45-1.15,10.16-3.44,14.13-2.29,3.98-6.03,7-11.21,9.08v.26c2.51.69,4.58,1.75,6.22,3.18,1.64,1.43,2.98,3.11,4.02,5.06,1.04,1.94,1.79,4.08,2.27,6.42.47,2.33.8,4.67.97,7,.08,1.47.17,3.2.26,5.19.08,1.99.24,4.02.45,6.09.21,2.07.56,4.04,1.04,5.9.47,1.86,1.19,3.44,2.14,4.73h-20.36c-1.12-2.94-1.82-6.44-2.07-10.5-.26-4.06-.65-7.95-1.17-11.67-.69-4.84-2.16-8.38-4.41-10.63-2.25-2.25-5.92-3.37-11.02-3.37h-20.36v36.17h-20.36V2.2h49.92ZM902.53,44.08c4.67,0,8.17-1.04,10.5-3.11s3.5-5.45,3.5-10.11-1.17-7.76-3.5-9.79c-2.33-2.03-5.83-3.05-10.5-3.05h-22.3v26.06h22.3Z"/>
          <path class="cls-3" d="M965.54,29.63c2.07-5.92,5.06-11.09,8.95-15.49s8.67-7.86,14.33-10.37c5.66-2.51,12.04-3.76,19.12-3.76s13.57,1.25,19.19,3.76c5.62,2.51,10.37,5.96,14.26,10.37,3.89,4.41,6.87,9.57,8.95,15.49,2.08,5.92,3.11,12.34,3.11,19.25s-1.04,13.03-3.11,18.87c-2.07,5.83-5.06,10.91-8.95,15.23-3.89,4.32-8.64,7.71-14.26,10.18-5.62,2.46-12.02,3.7-19.19,3.7s-13.46-1.23-19.12-3.7c-5.66-2.46-10.44-5.85-14.33-10.18-3.89-4.32-6.87-9.4-8.95-15.23-2.07-5.83-3.11-12.12-3.11-18.87s1.04-13.33,3.11-19.25ZM984.15,60.23c.91,3.67,2.35,6.98,4.34,9.92,1.99,2.94,4.58,5.3,7.78,7.07,3.2,1.77,7.09,2.66,11.67,2.66s8.47-.89,11.67-2.66c3.2-1.77,5.79-4.13,7.78-7.07,1.99-2.94,3.44-6.24,4.34-9.92.91-3.67,1.36-7.46,1.36-11.34s-.45-7.99-1.36-11.8c-.91-3.8-2.36-7.2-4.34-10.18-1.99-2.98-4.58-5.36-7.78-7.13-3.2-1.77-7.09-2.66-11.67-2.66s-8.47.89-11.67,2.66c-3.2,1.77-5.79,4.15-7.78,7.13-1.99,2.98-3.44,6.38-4.34,10.18-.91,3.8-1.36,7.74-1.36,11.8s.45,7.67,1.36,11.34Z"/>
          <path class="cls-3" d="M1145.38,2.2v17.12h-44.73v21.39h38.77v15.82h-38.77v38.25h-20.36V2.2h65.09Z"/>
          <path class="cls-3" d="M1238.21,87.71c-7,6.09-16.68,9.14-29.04,9.14s-22.24-3.02-29.11-9.08c-6.87-6.05-10.31-15.38-10.31-28.01V2.2h20.36v57.57c0,2.51.21,4.97.65,7.39.43,2.42,1.34,4.56,2.72,6.42,1.38,1.86,3.31,3.37,5.77,4.54,2.46,1.17,5.77,1.75,9.92,1.75,7.26,0,12.27-1.62,15.04-4.86,2.76-3.24,4.15-8.32,4.15-15.23V2.2h20.36v57.57c0,12.53-3.5,21.85-10.5,27.94Z"/>
          <path class="cls-3" d="M1299.41,2.2l38.64,62.11h.26V2.2h19.06v92.58h-20.36l-38.51-61.98h-.26v61.98h-19.06V2.2h20.23Z"/>
          <path class="cls-3" d="M1457.46,2.2v17.12h-48.88v19.84h44.86v15.82h-44.86v22.69h49.92v17.11h-70.27V2.2h69.24Z"/>
        </g>
      </g>
    </g>
  </g>
</svg>