<?xml version="1.0" encoding="UTF-8"?>
<svg id="_レイヤー_2" data-name="レイヤー 2" xmlns="http://www.w3.org/2000/svg" viewBox="0 0 103.04 15.29">
  <defs>
    <style>
      .cls-1 {
        fill: #12a497;
      }
    </style>
  </defs>
  <g id="_レイヤー_1-2" data-name="レイヤー 1">
    <g>
      <path class="cls-1" d="M0,0h11.23v3.23H3.57v2.79h6.45v3.11H3.57v5.86H0V0ZM.48,14.53h2.6v-5.86h6.45v-2.18H3.09v-3.72h7.66V.46H.48v14.07Z"/>
      <path class="cls-1" d="M23.54,14.99h-3.25v-.97c-.88.82-1.93,1.26-3.13,1.26-2.46,0-3.88-1.47-3.88-3.86V3.99h3.25v6.28c0,.78,0,2.16,1.64,2.16,1.74,0,2.12-1.36,2.12-2.79V3.99h3.25v11ZM23.06,4.45h-2.29v5.19c0,1.95-.65,3.25-2.6,3.25-2.12,0-2.12-1.78-2.12-2.33v-6.11h-2.29v6.97c0,2.14,1.22,3.4,3.4,3.4,1.53,0,2.62-.76,3.61-1.87v1.57h2.29V4.45Z"/>
      <path class="cls-1" d="M25.73,3.99h1.81V.76h3.25v3.23h2.21v2.39h-2.21v5.02c0,.88.25.99.8.99h1.41v2.6c-.65.08-1.28.13-1.93.13-2.12,0-3.53-.4-3.53-2.75v-5.98h-1.81v-2.39ZM26.21,5.92h1.8v6.26c0,1.85.65,2.48,2.96,2.48.5,0,1.03-.06,1.53-.1v-1.7h-.97c-1.24,0-1.24-.84-1.24-1.45v-5.48h2.21v-1.47h-2.21V1.22h-2.29v3.23h-1.8v1.47Z"/>
      <path class="cls-1" d="M45.86,14.99h-3.25v-.97c-.88.82-1.93,1.26-3.13,1.26-2.46,0-3.88-1.47-3.88-3.86V3.99h3.25v6.28c0,.78,0,2.16,1.64,2.16,1.74,0,2.12-1.36,2.12-2.79V3.99h3.25v11ZM45.38,4.45h-2.29v5.19c0,1.95-.65,3.25-2.6,3.25-2.12,0-2.12-1.78-2.12-2.33v-6.11h-2.29v6.97c0,2.14,1.22,3.4,3.4,3.4,1.53,0,2.62-.76,3.61-1.87v1.57h2.29V4.45Z"/>
      <path class="cls-1" d="M49.1,3.99h3.17v1.07c.61-.65,1.34-1.36,3.06-1.36.21,0,.4.02.67.08v3.17c-.38-.08-.61-.15-.96-.15-2.48,0-2.69,2.14-2.69,3.53v4.66h-3.25V3.99ZM49.58,14.53h2.29v-4.2c0-.92,0-3.99,3.04-3.99.21,0,.38.02.61.04v-2.16c-.17-.06-.31-.06-.5-.06-1.57,0-2.5,1.22-3.23,2.16v-1.87h-2.2v10.08Z"/>
      <path class="cls-1" d="M68.9,11.48c-.5,1.97-2.25,3.8-5.31,3.8-4.58,0-5.75-3.46-5.75-5.61,0-3.59,2.44-5.98,5.75-5.98,4.05,0,5.48,3.17,5.48,6.7v.1h-7.87c.11.61.34,2.18,2.39,2.18,1.45,0,1.72-.71,1.95-1.2h3.36ZM65.88,11.95c-.42.73-1.22,1.2-2.29,1.2-2.71,0-2.83-2.35-2.88-3.11h7.87c-.1-3.17-1.43-5.88-5-5.88-3.13,0-5.27,2.31-5.27,5.44,0,2.5,1.41,5.23,5.27,5.23.88,0,3.57-.19,4.66-2.88h-2.37ZM60.71,8.57c.15-1.76,1.22-2.73,2.88-2.73,2.22,0,2.52,2.04,2.6,2.73h-5.48ZM65.71,8.1c-.32-1.05-.88-1.81-2.12-1.81-1.81,0-2.16,1.11-2.39,1.81h4.51Z"/>
      <path class="cls-1" d="M72.26,11.42h3.57v3.57h-3.57v-3.57ZM72.74,14.53h2.6v-2.65h-2.6v2.65Z"/>
      <path class="cls-1" d="M85.05.13c3.51,0,5.65,2.71,5.65,7.54s-2.14,7.54-5.65,7.54-5.65-2.71-5.65-7.54S81.54.13,85.05.13ZM85.05,14.74c3.07,0,5.17-2.37,5.17-7.08s-2.1-7.08-5.17-7.08-5.17,2.37-5.17,7.08,2.1,7.08,5.17,7.08ZM85.05,2.39c2.02,0,2.88,1.72,2.88,5.27s-.86,5.27-2.88,5.27-2.88-1.72-2.88-5.27.86-5.27,2.88-5.27ZM85.05,12.47c1.89,0,2.39-1.76,2.39-4.81s-.5-4.81-2.39-4.81c-1.89.04-2.39,1.76-2.39,4.81s.5,4.81,2.39,4.81Z"/>
      <path class="cls-1" d="M91.5,8.63L97.98.13h3.19v8.69h1.87v2.98h-1.87v3.19h-3.36v-3.19h-6.32v-3.17ZM91.98,11.34h6.32v3.19h2.39v-3.19h1.87v-2.06h-1.87V.59h-2.46l-6.26,8.19v2.56ZM93.79,9.28l4.51-6.05v6.05h-4.51ZM97.82,8.82v-4.12h-.04l-3.02,4.12h3.07Z"/>
    </g>
  </g>
</svg>