<?xml version="1.0" encoding="UTF-8"?>
<svg xmlns="http://www.w3.org/2000/svg" viewBox="0 0 134.25 74.24">
  <defs>
    <style>
      .cls-1 {
        fill: #06061d;
      }

      .cls-2 {
        fill: #071f38;
      }

      .cls-3 {
        fill: #efe4dd;
      }

      .cls-4 {
        isolation: isolate;
      }

      .cls-5 {
        fill: #fff;
      }

      .cls-6 {
        fill: #387ba8;
      }

      .cls-7 {
        fill: #4c7f95;
        opacity: .7;
      }

      .cls-8 {
        fill: #12a497;
        mix-blend-mode: multiply;
      }

      .cls-9 {
        fill: #d74b35;
      }
    </style>
  </defs>
  <g class="cls-4">
    <g id="_レイヤー_2" data-name="レイヤー 2">
      <g id="_レイヤー_1-2" data-name="レイヤー 1">
        <g>
          <path class="cls-8" d="M.19,54.42c.01.21.03.44.15.61.21.3.67.33.98.15.32-.18.52-.5.67-.84.67-1.5.52-3.27,1.22-4.76.13-.27.43-.57.68-.39.14.1.15.31.15.48,0,.39-.02.78-.02,1.17,0,.18,0,.36.08.51s.28.26.44.18c.13-.07.18-.22.21-.36.24-.92.48-1.84.72-2.76.27-1.04.55-1.32,1.37-2,1.3-1.08,2.63-2.13,4.11-2.96,2.42-1.36,4.31-3.09,6.33-4.97,1.15-1.07,2.34-2.09,3.53-3.12,1.51-1.3,3.03-2.6,4.54-3.9.67-.57,1.33-1.14,2-1.72.98-.84,2.13-1.52,3.45-1.57,1.45-.05,2.05.61,3.17,1.39.87.6,1.8,1.11,2.77,1.53,0,0,0,0,0,.01.44.85,1.55,1.02,2.5,1.17,2.16.35,4.24,1.18,6.07,2.37,1.63,1.06,2.7,2.38,3.59,4.06.63,1.18,1.26,2.36,1.89,3.53,0-.02,0-.04.01-.05.72,1.33,1.69,2.47,2.71,3.18.72.5,1.49.91,2.29,1.26.04.02.07.03.11.05.14.06.29.12.44.18,0,0,0,0,0,0,.15.06.3.12.45.17.04.01.07.03.11.04.6.22,1.21.41,1.83.59.83.24,1.67.44,2.5.65,1.35.34,2.65.75,3.95,1.17-.65-.21-1.31-.42-1.97-.62.66.2,1.32.41,1.97.62.31.1.62.2.94.3,0,0,0,0,0,0,.97.31,1.95.6,2.95.85,2.95.73,5.87,1.6,8.74,2.6,3.35,1.17,5.36,1.86,8.2,4.03,2.84,2.18,5.58,3.77,8.86,5.22,2.8,1.24,5.6,2.48,8.4,3.72,1.85.82,3.65,1.76,5.23,3.01,1.22.96,1.58,2.77,2.94,3.55.06.04.13.07.2.1.02,0,.04.02.06.03.05.02.09.04.14.06.02,0,.05.02.07.02.05.02.1.03.15.04.02,0,.04.01.06.02.14.03.28.06.43.08.02,0,.05,0,.07,0,.05,0,.1.01.15.02.03,0,.05,0,.08,0,.05,0,.1,0,.16,0,.01,0,.03,0,.04,0-.01,0-.03,0-.04,0,.48.02.98,0,1.46.04,1.52.1,2.96.72,4.46.95,1.62.25,3.31.03,4.82-.63.38-.17.79-.41.85-.82.11-.68-.75-1.06-1.41-1.23-2.66-.69-5.02-2.23-7.48-3.41-2.67-1.29-5.24-2.76-7.8-4.27-1.76-1.04-3.52-2.09-5.12-3.36-1.67-1.33-3.16-2.87-4.79-4.24-.55-.46-1.12-.9-1.7-1.33-4.49-3.28-8.62-4.85-13.49-7.46-1.6-.86-3.05-1.88-4.52-2.87,2.28.46,4.55.99,6.79,1.61,3.42.94,6.56,1.99,9.54,3.96,2.99,1.98,5.82,3.38,9.19,4.61,2.88,1.05,5.75,2.1,8.63,3.15,1.91.7,3.76,1.51,5.43,2.65,1.28.88,1.76,2.66,3.17,3.34.93.45,2.02.22,3.05.22,1.52,0,3,.52,4.52.65,1.64.14,3.31-.2,4.76-.96.37-.19.76-.47.8-.88.07-.69-.82-1-1.49-1.13-2.7-.51-5.16-1.88-7.69-2.9-2.75-1.11-5.42-2.4-8.07-3.73-1.83-.91-3.66-1.85-5.34-3.01-1.76-1.21-3.34-2.65-5.07-3.91-.58-.42-1.18-.83-1.78-1.21-4.7-2.97-10.01-4.75-15.05-7.03-2.46-1.11-4.61-2.6-6.97-3.82-4.01-2.05-8.11-3.88-12.22-5.72-1.66-.74-4.1-1.9-6.53-2.5,0,0,0,0,0,0,0-.19-1.21-.6-1.42-.67-.52-.17-1.07-.27-1.61-.36-1.1-.18-2.23-.3-3.28-.7-2.85-1.1-5.42-2.79-7.21-5.3-.38-.53-.71-1.09-1.12-1.6.43-.12,1.38-.03,1.69-.04,1.23-.05,2.46-.08,3.68-.27,2.61-.42,5.2-1,7.79-1.57,2.14-.48,4.29-.95,6.43-1.43,1.81-.4,3.57-.99,5.36-1.41,1.45-.34,2.43.61,3.7,1.12.61.25,1.91,1.05,2.56.81.09-.04.17-.12.17-.22,0-.08-.07-.15-.13-.2-.39-.34-.91-.52-1.26-.9-.04-.04-.08-.1-.07-.15.02-.1.16-.11.26-.1,1.24.2,2.32.66,3.28,1.49.31.27,1.85,1.57,1.79.55-.03-.48-.56-1.13-.83-1.52-.45-.62-.99-1.14-1.64-1.54-1.34-.83-2.73-1.66-4.28-2.04-1.66-.41-3.46-.26-5.15-.21-2.39.06-4.78.26-7.15.58-1.77.24-3.53.56-5.27.95-1.49.33-2.98.96-4.47,1.19-.79.12-1.6.07-2.4.02-2.65-.13-5.2-.37-7.89-.37-.57,0-1.14,0-1.71.03.12-.34.12-.7-.08-1.08-.36-.7-1.23-1.06-2.02-.95-.96.14-1.83.86-2.79.7-.76-.13-1.31-.77-1.93-1.22-.64-.46-1.42-.72-2.2-.76-.6-.03-1.22.08-1.77-.14-.28-.11-.52-.3-.75-.5-.54-1.28-1.29-2.02-2.43-3.09-.71-.68-1.34-1.39-2.08-1.98-.14-.11-.29-.22-.43-.32.24-.11.06-.3-.15-.46-1.71-1.19-4.15-1.84-6.2-1.26-.86.24-1.63.71-2.38,1.2-.5.33-1,.68-1.41,1.12-.53.56-.9,1.25-1.16,1.97-.45,1.25-.55,2.6-.35,3.91.02.66.22,1.37.32,1.9.01.05.02.11.03.17.08.44.14.91.14,1.37,0,0,0,0,0,0,0,.06,0,.12,0,.18,0,.01,0,.02,0,.03,0,.05,0,.11,0,.16,0,.02,0,.03,0,.05,0,.05,0,.1-.01.14,0,.02,0,.05,0,.07,0,.04,0,.09-.02.13,0,.03,0,.05-.01.08,0,.04-.01.08-.02.11,0,.03-.01.06-.02.09,0,.03-.01.07-.02.1,0,.04-.02.07-.03.11,0,.03-.02.06-.02.09-.01.04-.03.08-.04.12,0,.02-.01.05-.02.07-.02.06-.05.12-.08.19-.04.09-.08.17-.13.25-.27.43-.7.73-1.07,1.07-.91.82-1.51,1.99-1.08,3.18.39,1.08,1.41,2.18,1.06,3.41-.32,1.1-1.71,1.61-2.05,2.7-.65,2.09,3,3.55,4.55,3.83.49.09,1,.11,1.51.07-.42.5-.85.99-1.27,1.49-1.15,1.32-2.68,2.23-4.11,3.21-3.4,2.35-5.95,5.6-9.02,8.32-1.09.96-2.31,2.06-3.05,3.33C-.16,49.53.02,51.91.19,54.42ZM112.79,73.14s.05,0,.08,0c-.03,0-.05,0-.08,0ZM112.57,73.11s.04,0,.07,0c-.02,0-.04,0-.07,0ZM112.08,73.02s.04.01.06.02c-.02,0-.04-.01-.06-.02ZM111.86,72.95s.05.02.07.02c-.02,0-.05-.02-.07-.02ZM111.66,72.87s.04.02.06.03c-.02,0-.04-.02-.06-.03ZM22.29,9.73s0,0,0,0c.01-.17.02-.34.02-.49,0,.15,0,.32-.01.49ZM56.8,47.04s.07.03.11.04c-.04-.01-.07-.03-.11-.04ZM55.8,46.63s.07.03.11.05c-.04-.02-.07-.03-.11-.05Z"/>
          <g>
            <path class="cls-1" d="M31.4,6.53c.16.16.32.31.46.44.34.33.68.68,1.12.85.56.22,1.18.12,1.77.14.79.03,1.56.3,2.2.76.63.45,1.17,1.09,1.93,1.22.96.16,1.83-.57,2.79-.7.78-.11,1.65.24,2.02.95.66,1.28-.9,2.39-1.76,3.08-1.19.95-2.73,1.34-4.24,1.55-1.55.22-3.12.29-4.68.2-.72-.04-1.45-.12-2.1-.44-.66-.33-1.18-.88-1.67-1.44-.47-.55-.93-1.12-1.38-1.69-.2-.25-.41-.51-.54-.8-.15-.33-.22-.7-.24-1.06-.09-1.15.03-3.28.9-4.17,1.04-1.07,2.39.11,3.43,1.11Z"/>
            <path class="cls-2" d="M12.54,24.2c.34-1.09,1.73-1.6,2.05-2.7.35-1.23-.67-2.33-1.06-3.41-.43-1.19.17-2.35,1.08-3.18.38-.34.8-.64,1.07-1.07.05-.08.1-.16.13-.25.45-1,.35-2.22.14-3.27-.1-.52-.3-1.24-.32-1.9-.2-1.31-.1-2.66.35-3.91.26-.72.63-1.42,1.16-1.97.41-.44.91-.79,1.41-1.12.74-.49,1.52-.96,2.38-1.2,2.04-.57,4.48.07,6.2,1.26.22.15.39.34.15.46-.02,0-.03.02-.05.02-.21.07-.69-.16-.88-.22-.53-.18-1.06-.41-1.23-.46-.5-.16-1.02-.28-1.54-.27-.22,0-.52,0-.71.11-.17.1-.25.33-.43.42-.09.04-.19.02-.28.02-.49-.02-.9.42-1,.9-.26,1.29,1.08,2.66,1.13,4,0,.15,0,.32-.02.49.07,0,.14.01.22.03,2.51.56,4.5,2.47,6.09,4.5.53.68,1.05,1.42,1.21,2.27.31,1.74-.96,3.32-2.15,4.63-.95,1.05-1.9,2.1-2.85,3.14-.76.84-1.47,1.38-1.82,2.46-.35,1.09-.77,2.17-1.62,2.97-1.11,1.04-2.77,1.38-4.27,1.11-1.55-.28-5.2-1.74-4.55-3.83Z"/>
            <g>
              <path class="cls-2" d="M27.19,13.56c-.88.48-1.91.56-2.91.59-3.11.09-6.76-.61-8.28-3.67,0-.05-.02-.11-.03-.17-.1-.52-.3-1.24-.32-1.9-.2-1.31-.1-2.66.35-3.91.26-.72.63-1.42,1.16-1.97.41-.44.91-.79,1.41-1.12.74-.49,1.52-.96,2.38-1.2,2.04-.57,4.48.07,6.2,1.26.22.15.39.34.15.46-.02,0-.03.02-.05.02-.21.07-.69-.16-.88-.22-.53-.18-1.06-.41-1.23-.46-.5-.16-1.02-.28-1.54-.27-.22,0-.52,0-.71.11-.17.1-.25.33-.43.42-.09.04-.19.02-.28.02-.49-.02-.9.42-1,.9-.26,1.29,1.08,2.66,1.13,4,0,.15,0,.32-.02.49.07,0,.14.01.22.03,2.51.56,4.5,2.47,6.09,4.5.1.13.2.25.29.38-.39.69-.92,1.29-1.7,1.73Z"/>
              <path class="cls-2" d="M27.65,18.35c-.95,1.05-1.9,2.1-2.85,3.14-.76.84-1.47,1.38-1.82,2.46-.35,1.09-.77,2.17-1.62,2.97-1.11,1.04-2.77,1.38-4.27,1.11-1.55-.28-5.2-1.74-4.55-3.83.34-1.09,1.73-1.6,2.05-2.7.35-1.23-.67-2.33-1.06-3.41-.43-1.19.17-2.35,1.08-3.18.38-.34.8-.64,1.07-1.07.05-.08.1-.16.13-.25.43-.95.36-2.09.17-3.11,1.52,3.06,5.17,3.75,8.28,3.67,1-.03,2.04-.11,2.91-.59.79-.43,1.31-1.04,1.7-1.73.42.57.79,1.19.91,1.88.31,1.74-.96,3.32-2.15,4.63Z"/>
              <path class="cls-1" d="M27.65,18.35c-.95,1.05-1.9,2.1-2.85,3.14-.76.84-1.47,1.38-1.82,2.46-.35,1.09-.77,2.17-1.62,2.97-1.11,1.04-2.77,1.38-4.27,1.11-1.55-.28-5.2-1.74-4.55-3.83.34-1.09,1.73-1.6,2.05-2.7.35-1.23-.67-2.33-1.06-3.41-.43-1.19.17-2.35,1.08-3.18.38-.34.8-.64,1.07-1.07.05-.08.1-.16.13-.25.43-.95.36-2.09.17-3.11,1.52,3.06,5.17,3.75,8.28,3.67,1-.03,2.04-.11,2.91-.59.79-.43,1.31-1.04,1.7-1.73.42.57.79,1.19.91,1.88.31,1.74-.96,3.32-2.15,4.63Z"/>
            </g>
            <path class="cls-5" d="M65.67,39.05c-1.88-.4-3.73-.95-5.38-1.93-3.3-1.97-6.42-8.15-2.68-11.27,3.32-2.77,9.6.31,12.88,1.77,4.11,1.84,8.21,3.66,12.22,5.72,2.36,1.21,4.51,2.7,6.97,3.82,5.04,2.28,10.35,4.06,15.05,7.03.61.38,1.2.79,1.78,1.21,1.72,1.26,3.31,2.7,5.07,3.91,1.68,1.16,3.51,2.09,5.34,3.01,2.65,1.33,5.32,2.62,8.07,3.73,2.53,1.02,4.99,2.39,7.69,2.9.68.13,1.56.44,1.49,1.13-.04.41-.43.69-.8.88-1.46.76-3.13,1.09-4.76.96-1.52-.13-2.99-.65-4.52-.65-1.03,0-2.12.23-3.05-.22-1.41-.69-1.89-2.46-3.17-3.34-1.67-1.15-3.52-1.96-5.43-2.65-2.88-1.05-5.75-2.1-8.63-3.15-3.37-1.23-6.2-2.63-9.19-4.61-2.98-1.97-6.12-3.02-9.54-3.96-2.93-.8-5.9-1.47-8.9-2-2.72-.48-5.26-1.3-7.99-1.78-.84-.15-1.69-.3-2.53-.48Z"/>
            <path class="cls-5" d="M63.89,29.3c-.47,1.06-1.68,1.29-2.82,2.23-.75.62-.82,1.85-.83,2.78,0,1.07.21,1.94.53,2.91.31.96-.38,1.58-1.24,1.94-1.62.67-3.49.69-5.13.08-1.64-.61-3.04-1.84-3.87-3.39-.25-.46-.44-.94-.73-1.38-.41-.63-.98-1.13-1.55-1.62-.65-.55-1.31-1.1-1.98-1.62-.81-.63-1.66-1.26-2.65-1.52-.62-.16-1.26-.16-1.9-.21-2.77-.19-5.48-1.16-7.76-2.74-1.12-.78-1.72-1.44-3.17-1.39-1.32.04-2.47.73-3.45,1.57-.67.57-1.33,1.14-2,1.72-1.51,1.3-3.03,2.6-4.54,3.9-1.19,1.02-2.38,2.05-3.53,3.12-2.02,1.88-3.91,3.62-6.33,4.97-1.48.83-2.81,1.88-4.11,2.96-.82.68-1.1.96-1.37,2-.24.92-.48,1.84-.72,2.76-.04.14-.09.3-.21.36-.16.08-.36-.03-.44-.18s-.08-.34-.08-.51c0-.39.02-.78.02-1.17,0-.18,0-.38-.15-.48-.24-.18-.55.12-.68.39-.7,1.49-.54,3.26-1.22,4.76-.15.33-.35.66-.67.84-.32.18-.77.14-.98-.15-.12-.17-.14-.4-.15-.61-.17-2.51-.35-4.89.97-7.17.74-1.27,1.96-2.37,3.05-3.33,3.07-2.72,5.62-5.96,9.02-8.32,1.43-.99,2.96-1.89,4.11-3.21,1.12-1.3,2.25-2.62,3.31-3.97,2.22-2.81,4.24-5.83,6.98-8.18.98-.84,1.21-1.94.09-2.94-.44-.39-.91-.76-1.4-1.1-.33-.23-1.18-.53-1.37-.86-.44-.77.45-1.55,1.07-1.86,1.21-.59,3.7-1.2,4.81-.05.4.42.51,1.14.86,1.63.48.66,1.11,1.24,1.94,1.42,1.59.33,3.77-.89,5.26-1.37,1.04-.34,2.09-.67,3.17-.85,1.13-.18,2.28-.19,3.42-.19,2.68,0,5.23.23,7.89.37.8.04,1.61.1,2.4-.02,1.49-.23,2.98-.86,4.47-1.19,1.74-.39,3.5-.7,5.27-.95,2.37-.33,4.76-.52,7.15-.58,1.69-.04,3.5-.19,5.15.21,1.55.38,2.94,1.21,4.28,2.04.65.4,1.19.92,1.64,1.54.28.38.81,1.03.83,1.52.06,1.02-1.48-.28-1.79-.55-.96-.83-2.03-1.29-3.28-1.49-.1-.02-.25,0-.26.1,0,.06.03.11.07.15.35.38.87.56,1.26.9.06.05.13.12.13.2,0,.1-.07.19-.17.22-.66.25-1.95-.56-2.56-.81-1.27-.51-2.25-1.46-3.7-1.12-1.78.41-3.55,1-5.36,1.41-2.14.48-4.29.95-6.43,1.43-2.59.57-5.17,1.15-7.79,1.57-1.22.2-2.45.22-3.68.27-.36.02-1.6-.11-1.86.12-.38.35.26,1.19.5,1.52,1.14,1.56,2.4,3.08,4,4.18,1.83,1.26,3.99,1.88,6.16,2.22,2.14.34,3.96.42,4.27,3.09.09.76.01,1.3-.17,1.71Z"/>
            <path class="cls-7" d="M64.78,34.54c.12-.21.42-.43,1.14-.24,2.08.53,4.04,1.53,5.95,2.51l.18.09c2.87,1.47,6.28,3.09,9.8,3.92l.17.04c3.44.82,7,1.67,10.19,3.35,1.81.95,3.65,1.49,5.6,2.07,1.83.54,3.41.78,5.19.23,1.35-.42,1.87-1.18,1.61-2.34,0-.03,0-.06.03-.07s.06-.02.08,0l.06.03c.62.39,1.22.8,1.79,1.21.77.56,1.52,1.16,2.24,1.75.91.73,1.85,1.49,2.82,2.16,1.65,1.13,3.39,2.03,5.33,3,1.1.55,2.54,1.26,4,1.95.71.33,1.37.63,2.02.92.7.31,1.39.6,2.05.86.29.12.6.25.95.4.4.17.79.35,1.19.52.23.1.47.21.7.31.9.4,1.87.81,2.87,1.14.7.23,1.34.4,1.98.52.3.06.58.14.8.24.19.08.34.18.46.28.22.19.31.43.29.69,0,.05-.02.11-.03.16-.05.14-.13.28-.26.4-.11.11-.26.21-.45.32-.03.02-.06.03-.09.05-.18.1-.37.18-.56.27-.95.41-1.96.65-3,.71-.17,0-.34.01-.51.01-.24,0-.49-.01-.73-.03-.19-.02-.4-.04-.66-.08-.28-.04-.57-.09-.93-.16l-.31-.06c-.28-.05-.56-.11-.83-.16l-.18-.03c-.63-.11-1.12-.16-1.59-.16h-.01c-.26,0-.53.02-.78.03-.12,0-.24.01-.37.02-.14,0-.28.01-.41.01-.14,0-.27,0-.39-.01-.44-.03-.81-.12-1.13-.27-.17-.08-.34-.19-.5-.31-.15-.11-.29-.24-.43-.39-.31-.33-.58-.71-.85-1.08-.41-.57-.83-1.17-1.4-1.56-.4-.28-.83-.54-1.28-.8-1.15-.65-2.46-1.24-4.13-1.85l-8.63-3.15c-.86-.31-1.66-.63-2.44-.96-1.81-.77-3.53-1.65-5.23-2.69-.58-.35-1.07-.66-1.53-.97-.85-.57-1.77-1.08-2.81-1.58-.96-.46-1.93-.86-2.98-1.23-.39-.14-.8-.28-1.22-.41-.75-.24-1.55-.47-2.51-.74-.73-.2-1.47-.39-2.2-.58-.74-.18-1.49-.36-2.22-.53-1.48-.33-2.98-.64-4.47-.9-.53-.09-1.07-.21-1.56-.32,0,0-.02,0-.02,0-1.1-.4-2.01-.75-2.86-1.1-2.65-1.08-4.75-2.13-6.42-3.79-.46-.45-.78-1.18-.53-1.63Z"/>
            <path class="cls-5" d="M58.74,44.86c-1.85-.53-3.66-1.2-5.23-2.29-3.16-2.19-5.85-8.56-1.91-11.42,2.37-1.72,5.64-.92,8.05.15,2.87,1.27,5.56,2.91,8.32,4.38,2.76,1.47,5.48,3.02,8.16,4.63,2.27,1.37,4.32,3,6.7,4.28,4.88,2.62,9,4.18,13.49,7.46.58.42,1.15.86,1.7,1.33,1.64,1.37,3.12,2.92,4.79,4.24,1.6,1.27,3.36,2.32,5.12,3.36,2.55,1.5,5.13,2.98,7.8,4.27,2.46,1.19,4.82,2.72,7.48,3.41.67.17,1.53.55,1.41,1.23-.07.41-.48.66-.85.82-1.5.66-3.19.88-4.82.63-1.51-.23-2.94-.85-4.46-.95-1.03-.07-2.13.09-3.03-.42-1.36-.78-1.72-2.58-2.94-3.55-1.59-1.26-3.38-2.19-5.23-3.01-2.8-1.24-5.6-2.48-8.4-3.72-3.28-1.45-6.01-3.05-8.86-5.22-2.84-2.17-4.85-2.86-8.2-4.03-2.87-1-5.79-1.87-8.74-2.6-2.68-.66-5.16-1.65-7.85-2.32-.83-.21-1.67-.41-2.5-.65Z"/>
            <path class="cls-9" d="M36.45,12.82s.04-.02.06-.04c1.33-.71,2.97-.35,4.36-.09,1.47.28,3,.83,4.41,1.33,1.43.51,2.92,1.18,3.93,2.35.46.53.82,1.14,1.22,1.72,1.79,2.51,4.36,4.2,7.21,5.3,1.05.4,2.18.52,3.28.7.54.09,1.08.19,1.61.36.21.07,1.43.47,1.42.67-.03,1.46-.06,2.25.2,3.68.25,1.4.56,2.84,1.07,4.18.21.54.45,1.1.66,1.53-1.31-.19-2.16-.22-3.48-.28-1.47-.07-2.79.04-4.14.21-2.2.28-4.34.99-5.99,2.51-.72.67-1.31,1.52-1.49,2.48-.63-1.18-1.26-2.36-1.89-3.53-.9-1.68-1.96-3-3.59-4.06-1.83-1.19-3.91-2.02-6.07-2.37-.94-.15-2.06-.32-2.5-1.17-.19-.37-.21-.8-.26-1.22-.3-2.37-1.91-4.44-3.93-5.74-.55-.35-1.11-.67-1.7-.96-.94-.46-1.94-.85-2.98-1.03-.47-.08-.96-.11-1.44-.04-.22.03-.44.08-.65.16-.1.04-.2.08-.3.14-.09.05-.19.09-.26.18,0,0-.02.02-.03.02,0,0-.01-.02-.01-.03,0-.23.08-.35.2-.54.09-.13.19-.25.31-.36.23-.22.51-.38.81-.49.69-.25,1.46-.25,2.19-.17.86.1,1.7.31,2.53.56.81.25,1.6.54,2.39.84.59.23,1.17.47,1.77.67,2.62.89,5.64,1.49,8.06.14,1.08-.61,2.01-1.72,1.93-2.96-.18-2.97-4.57-3.61-6.76-4.06-.49-.1-.97-.23-1.47-.25-.49-.03-.92.16-1.39.27-.01-.02,0-.06.01-.08.07-.09.13-.17.22-.24.15-.12.31-.21.47-.31Z"/>
            <g>
              <path class="cls-5" d="M28.79,10.43c-.93.05-1.85.12-2.78.24,1.14-.55,3.4-1.12,4.59-.24-.62-.07-1.27-.03-1.82,0Z"/>
              <path class="cls-3" d="M26.78,13.73c-.15-.11-.31-.23-.46-.34-.33-.23-1.18-.53-1.37-.86-.44-.77.45-1.55,1.07-1.86,0,0,0,0,0,0,.92-.11,1.85-.19,2.78-.24.55-.03,1.2-.07,1.82,0,.08.06.15.12.21.19.4.42.51,1.14.86,1.63.3.41.65.79,1.08,1.06-1.63.57-2.83.98-5.98.43Z"/>
            </g>
            <path class="cls-5" d="M25.91,13.27c-.43-.19-.86-.39-1.27-.62-.65-.35-1.35-.7-2.1-.72-.41,0-.83-.03-1.22-.15-.39-.12-.77-.35-.98-.7-.21-.35-.23-.84.03-1.16.2-.26.53-.37.8-.56.83-.56,1.18-1.99,1.14-2.93-.05-1.34-1.39-2.71-1.13-4,.09-.48.51-.92,1-.9.1,0,.2.02.28-.02.17-.08.25-.32.43-.42.2-.11.49-.11.71-.11.52,0,1.04.12,1.54.27.16.05.7.28,1.23.46.19.07.67.3.88.22.02,0,.03-.01.05-.02.15.1.29.21.43.32.73.59,1.37,1.3,2.08,1.98,1.34,1.28,2.16,2.07,2.71,3.87.37,1.21.39,2.61-.37,3.62-.63.85-1.68,1.27-2.7,1.54-.87.24-1.77.4-2.67.46-.24-.22-.58-.33-.86-.46Z"/>
            <path class="cls-7" d="M48.11,15.6h.46c1.52,0,3.11.01,4.63-.23,1.95-.31,3.92-.66,5.87-1.03,2.94-.56,5.92-1.2,8.83-1.9.33-.08.68-.14,1.05-.2.93-.16,1.9-.33,2.64-.83.5-.33.85-.91.91-1.47.03-.28-.01-.68-.33-.99-.02-.02-.03-.05-.02-.08.01-.03.04-.04.06-.05.06,0,.12,0,.19,0,.08,0,.16,0,.24,0,.26,0,.53-.02.8-.03,1.46-.05,2.96-.1,4.37.24,1.51.37,2.84,1.15,4.3,2.05.64.4,1.2.92,1.66,1.55.03.05.07.1.11.15.3.4.71.96.74,1.4.01.22-.04.36-.17.43-.37.18-1.25-.5-1.74-.92-.9-.78-1.97-1.27-3.24-1.47-.08-.01-.17,0-.18.04,0,.03.04.08.05.09.19.21.43.35.69.51.19.12.39.24.57.39.07.06.15.14.16.25.01.14-.1.26-.21.3-.53.2-1.44-.24-2.1-.57-.2-.1-.37-.18-.51-.24-.35-.14-.68-.32-1-.49-.84-.45-1.63-.87-2.65-.63-.84.2-1.7.44-2.53.67-.92.26-1.88.53-2.83.74l-6.43,1.43c-2.53.56-5.15,1.14-7.79,1.57-1.04.17-2.11.21-3.15.25-.18,0-.36.01-.54.02-.1,0-.24,0-.42,0-.36-.01-.84-.03-1.15.02.05.06.09.13.14.19.03.04.06.08.09.12.02.03.02.07,0,.09-.01.01-.03.02-.05.02-.01,0-.03,0-.04-.01-.05-.03-.1-.06-.14-.1-.08-.05-.17-.11-.25-.17-.38-.29-.75-.61-1.11-.96-.02-.02-.03-.05-.02-.08.01-.03.04-.04.07-.04Z"/>
            <path class="cls-6" d="M111.46,69.96c.56.32,1.2.38,1.85.39-.65-.02-1.29-.07-1.85-.39Z"/>
            <path class="cls-6" d="M51.68,40.76c-.32-.43-.62-.89-.89-1.38h0c.26.49.56.95.89,1.38Z"/>
            <path class="cls-6" d="M55.37,43.63c.65.31,1.31.57,2,.8-.68-.23-1.35-.49-2-.8Z"/>
            <path class="cls-6" d="M78.74,50.74c.88.31,1.66.59,2.41.9-.75-.31-1.53-.59-2.41-.9Z"/>
            <path class="cls-6" d="M63.22,46.06c1.31.39,2.58.83,3.89,1.22-1.3-.39-2.58-.83-3.89-1.22Z"/>
            <path class="cls-7" d="M.11,51.46v.15c.02.2.04.45.18.65.24.34.75.36,1.08.18.28-.16.5-.43.7-.87.33-.74.47-1.57.6-2.36.13-.81.27-1.65.62-2.4.08-.17.24-.36.4-.4.07-.02.12,0,.17.03.11.08.12.25.12.42l-.03,1.16c0,.18,0,.38.09.55.1.18.34.31.53.21.15-.08.21-.25.25-.41l.72-2.76c.27-1.03.54-1.29,1.35-1.96,1.46-1.21,2.71-2.18,4.1-2.95,2.5-1.41,4.46-3.22,6.34-4.98,1.14-1.07,2.35-2.1,3.52-3.11l6.54-5.62c1.17-1,2.28-1.51,3.41-1.55,1.18-.04,1.78.4,2.61,1,.16.12.34.25.52.37.86.59,1.79,1.11,2.76,1.52.46.86,1.54,1.04,2.5,1.19h.04c2.11.35,4.2,1.16,6.05,2.36,1.5.97,2.6,2.22,3.57,4.03l1.89,3.53s.04.04.06.04c.25.45.53.89.84,1.3l.04.05c.1.13.2.26.31.38l.02.02c.11.13.23.26.34.38h.01c.11.13.21.23.32.33.02.02.05.04.07.07l.02.02c.08.08.17.15.26.22l.03.02s.05.04.07.06c.12.1.24.18.34.26.39.27.8.52,1.23.75.21.11.42.22.64.32.61.29,1.26.55,2,.8.42.14.88.28,1.38.43.86.25,1.77.47,2.5.65.61.15,1.26.33,1.98.55.65.2,1.31.41,1.94.61.64.2,1.29.41,1.95.61.73.22,1.38.4,1.98.55.74.18,1.48.38,2.21.57,1.46.4,2.93.84,4.37,1.3.73.24,1.46.48,2.16.73h.04c1.23.44,2.3.81,3.28,1.22.17.07.33.14.49.21,1.58.69,2.89,1.47,4.37,2.6.35.27.71.53,1.06.79.7.51,1.42.99,2.13,1.44,1.76,1.11,3.56,2.06,5.68,3l8.4,3.72c.5.22.95.43,1.38.64.48.24.92.47,1.34.7.94.53,1.76,1.07,2.51,1.66.27.21.51.48.77.84.19.26.36.54.53.82.14.22.28.45.42.67.27.4.66.9,1.23,1.23.54.31,1.15.39,1.89.4.13,0,.26,0,.39,0,.13,0,.26,0,.39,0,.13,0,.26,0,.39.02.35.02.71.07,1.12.16.19.04.4.09.67.16.26.07.53.14.79.21l.2.05c.53.14,1.1.29,1.68.38.2.03.41.05.63.07.23.02.46.03.69.03,1.22,0,2.43-.25,3.53-.74.35-.15.82-.41.9-.88.13-.78-.86-1.15-1.47-1.31-1.89-.49-3.67-1.43-5.38-2.34-.68-.36-1.38-.73-2.08-1.07-2.52-1.22-4.94-2.59-7.79-4.26-1.87-1.1-3.55-2.11-5.12-3.35-.93-.74-1.81-1.55-2.67-2.35-.68-.63-1.39-1.29-2.12-1.9-.5-.42-1.03-.83-1.63-1.28-.03-.02-.06-.02-.09,0-.03.02-.03.05-.02.08.02.05.04.1.06.16.05.12.1.24.14.35.19.58.13,1.07-.17,1.44-.72.9-2.7.98-3.76.88-1.83-.16-3.71-.88-5.92-2.26-3.24-2.02-6.68-3.12-10.02-4.18-3.61-1.15-7.31-2.2-10.89-3.21l-3.25-.92c-1.39-.39-2.83-.8-4.2-1.35-1.63-.66-3.48-1.47-4.77-2.5-2.06-1.64-3.15-3.98-3.34-7.17,0-.13-.02-.27-.04-.42-.16-1.37-.68-2.27-1.5-2.61-.49-.2-1.03-.18-1.55-.16-.13,0-.26.01-.39.01-.04,0-.07,0-.11,0-1.34,0-2.7-.44-4.01-.87-.42-.14-.85-.28-1.26-.4-.44-.13-.86-.19-1.28-.26-.8-.13-1.57-.24-2.24-.78-1.26-.99-2.56-2.01-4.05-2.69-1.66-.76-3.36-.95-4.78-.53-1.54.45-2.78,1.6-3.88,2.6l-11.54,10.62c-1.81,1.67-3.94,3.42-6.34,3.13-.54-.06-.89-.22-1.07-.47-.18-.25-.21-.62-.1-1.16,0-.03,0-.06-.04-.08-.03-.01-.06-.01-.08.01-.52.51-1.14,1.12-1.81,1.71-1.03.91-2.3,2.04-3.06,3.35C-.21,46.66-.06,48.99.11,51.46ZM111.46,69.96c.56.32,1.2.38,1.85.39-.65-.02-1.29-.07-1.85-.39ZM63.22,46.06c1.31.39,2.58.83,3.89,1.22-1.3-.39-2.58-.83-3.89-1.22ZM55.37,43.63c.65.31,1.31.57,2,.8-.68-.23-1.35-.49-2-.8ZM50.8,39.38h0c.26.49.56.95.89,1.38-.32-.43-.62-.89-.89-1.38Z"/>
          </g>
        </g>
      </g>
    </g>
  </g>
</svg>