<?xml version="1.0" encoding="UTF-8"?>
<svg xmlns="http://www.w3.org/2000/svg" xmlns:xlink="http://www.w3.org/1999/xlink" viewBox="0 0 106.12 111.09">
  <defs>
    <style>
      .cls-1 {
        fill: #bac1c5;
      }

      .cls-2 {
        fill: #c6cdd2;
      }

      .cls-3 {
        opacity: .04;
      }

      .cls-3, .cls-4, .cls-5, .cls-6, .cls-7, .cls-8, .cls-9 {
        mix-blend-mode: multiply;
      }

      .cls-4 {
        opacity: .15;
      }

      .cls-5 {
        opacity: .08;
      }

      .cls-6 {
        opacity: .25;
      }

      .cls-7 {
        opacity: .1;
      }

      .cls-8 {
        opacity: .17;
      }

      .cls-9 {
        opacity: .2;
      }

      .cls-10 {
        fill: url(#linear-gradient);
      }

      .cls-11 {
        isolation: isolate;
      }

      .cls-12 {
        fill: #414e51;
      }

      .cls-13 {
        fill: #d4dade;
      }

      .cls-14 {
        fill: #edf4f9;
      }
    </style>
    <linearGradient id="linear-gradient" x1="40.93" y1="67.85" x2="43.49" y2="66.32" gradientUnits="userSpaceOnUse">
      <stop offset="0" stop-color="#adbbc3"/>
      <stop offset="1" stop-color="#d4dade"/>
    </linearGradient>
  </defs>
  <g class="cls-11">
    <g id="_レイヤー_2" data-name="レイヤー 2">
      <g id="_レイヤー_1-2" data-name="レイヤー 1">
        <g>
          <path class="cls-7" d="M24.23,89.07c19.04-12.86,37.35-20.6,47.15-24.33.42-.16.85-.32,1.28-.48l-1.12-4.38,11.43-4.98,6.83,2.84-2.34,1.72c4.97-1.23,9.37-1.73,11.93-.67,1.84,1.48.96,4.02-1.16,6.89l2.98-1.35,4.92,3.94-8.62,6.6-7.59-.64c-.28.25-.56.5-.84.74-6.46,5.66-19.87,16.23-42.14,27.22-22.27,10.99-32.56,9.03-37.02,8.26-1.34-2.57-4.73-8.52,14.31-21.37Z"/>
          <g>
            <path class="cls-10" d="M63.51,53.06l-30.4,15.16s5.31,5,10.2,2.18c4.89-2.82,15.07-8.7,15.07-8.7,0,0,5.5-2.87,5.13-8.64Z"/>
            <g>
              <path class="cls-12" d="M47.18,65.89c0,.26-.19.59-.42.72l-1.4.81c-.23.13-.42.02-.42-.24v-.35c0-.26.19-.59.42-.72l1.4-.81c.23-.13.42-.02.42.24v.35Z"/>
              <path class="cls-12" d="M42.6,67.67l1.4-.81c.23-.13.42-.02.42.24v.35c0,.26-.19.59-.42.72l-1.4.81c-.58.24-1.96.64-3.88.19-1.92-.45-2.81-.72-2.81-.72l1.68-.98s3.11,1.07,5.01.2Z"/>
              <path class="cls-12" d="M49.99,64.26c0,.26-.19.59-.42.72l-1.4.81c-.23.13-.42.02-.42-.24v-.35c0-.26.19-.59.42-.72l1.4-.81c.23-.13.42-.02.42.24v.35Z"/>
              <path class="cls-12" d="M52.81,62.64c0,.26-.19.59-.42.72l-1.4.81c-.23.13-.42.02-.42-.24v-.35c0-.26.19-.59.42-.72l1.4-.81c.23-.13.42-.02.42.24v.35Z"/>
              <path class="cls-12" d="M55.62,61.01c0,.26-.19.59-.42.72l-1.4.81c-.23.13-.42.02-.42-.24v-.35c0-.26.19-.59.42-.72l1.4-.81c.23-.13.42-.02.42.24v.35Z"/>
            </g>
            <g>
              <g>
                <polygon class="cls-14" points="77.42 6.28 63.73 12.24 65.18 17.94 81.99 12.34 85.61 9.68 77.42 6.28"/>
                <polygon class="cls-13" points="65.18 17.94 81.99 12.34 85.61 9.68 85.61 10.23 81.99 12.89 65.18 18.49 63.73 12.79 63.73 12.24 65.18 17.94"/>
              </g>
              <g>
                <polygon class="cls-14" points="94.36 27.37 90.18 29.18 76.93 40.93 76.59 40.68 89.84 28.93 93.96 27.12 94.36 27.37"/>
                <polygon class="cls-1" points="93.15 36.16 81.13 45.04 76.93 40.93 90.18 29.18 94.29 27.37 93.15 36.16"/>
              </g>
              <path class="cls-14" d="M97.55,14.61c-.06-.32-.18-.7-.29-.94-.09-.22-.17-.36-.17-.36-.03-.05-.07-.11-.09-.17-.03-.06-.17-.27-.21-.32-.2-.26-.36-.48-.83-.88-.38-.32-.83-.58-.98-.67-.91-.52-2.11-.88-2.62-.99-.31-.07-.72-.17-1.03-.21-.53-.08-1.23-.19-1.76-.22-.81-.05-1.9-.08-2.71-.09-.54,0-1.26.03-1.8.07-.51.04-1.2.08-1.7.14-1.62.18-2.23.25-3.29.43-.98.16-2.28.39-3.25.59-1.77.36-3.3.75-3.31.75-.93.24-2.18.57-3.1.83-1.22.34-2.92.85-3.27.96-1.64.51-2.46.76-3.77,1.2-1.27.43-2.96,1.02-4.23,1.47-1.34.48-2.25.84-4.68,1.79-.76.3-1.76.72-2.51,1.03-1.43.59-4.29,1.87-5.26,2.33-.84.39-1.95.92-2.78,1.32-.85.41-1.96.98-2.8,1.4-.87.43-2.01,1.05-2.87,1.5-1.84.97-4.27,2.36-5.98,3.36-1.1.64-3.66,2.19-6.26,3.88-3.73,2.43-6.3,4.31-6.33,4.32-1.28.94-2.99,2.2-4.22,3.21-1.48,1.22-3.4,2.92-4.8,4.25-.7.67-1.61,1.58-2.24,2.31-.51.59-1.21,1.36-1.7,1.96-.54.66-1.23,1.56-1.72,2.25-.38.52-.86,1.24-1.2,1.79-.4.64-.88,1.52-1.25,2.18-.37.66-.8,1.59-1.06,2.3-.16.42-.38.96-.51,1.39-.21.68-.47,1.59-.61,2.28-.13.62-.23,1.46-.3,2.08-.04.38-.04.9-.04,1.28.02.43.04,1,.1,1.42,0,0,.1.77.24,1.24.14.51.22.77.49,1.38.09.19.31.61.59,1,.3.41.5.62.68.82.26.28.54.52.71.67.63.54,1.35.99,1.73,1.2,1.98,1.14,3.9,1.6,4.62,1.78.75.18,1.76.36,2.53.44,1.07.11,2.5.17,3.58.19.91.01,2.12-.09,3.03-.16.69-.06,1.61-.2,2.3-.29.99-.13,2.28-.41,3.26-.62.82-.18,1.91-.46,2.72-.69,2.57-.73,4.52-1.42,6.65-2.25,1.15-.45,2.67-1.09,3.8-1.6,1.31-.59,3.04-1.42,4.34-2.04.03-.01,2.98-1.43,6.65-3.43.96-.52,2.24-1.22,3.18-1.77,1.76-1.03,4.1-2.41,5.83-3.49.85-.53,1.97-1.24,2.8-1.79,3.24-2.16,3.73-2.5,5.14-3.51,2.72-1.96,2.83-2.04,4.64-3.43,1.66-1.27,3.17-2.48,4.14-3.28,2.05-1.68,3.63-3.07,3.64-3.08.5-.44,1.16-1.02,1.65-1.46.88-.79,2.04-1.86,2.9-2.67.69-.64,1.46-1.4,2.44-2.35.34-.33.79-.79,1.13-1.13.71-.71,1.92-1.99,2.27-2.39.34-.38.8-.88,1.13-1.26.33-.37.76-.88,1.08-1.26.32-.37.73-.89,1.04-1.27.2-.24.93-1.15,1.98-2.61.77-1.08,2.1-3.05,3.11-5.16.77-1.62,1.25-3.05,1.45-4.38.06-.39.11-.91.11-1.3,0-.62-.06-.93-.12-1.26Z"/>
              <g>
                <path class="cls-6" d="M1.63,69.75c-.07-.08-.14-.18-.22-.29-.28-.39-.5-.81-.59-1-.06-.13-.11-.24-.15-.34.15.31.47.48.76.61-.02.33-.01.72.2,1.02Z"/>
                <path class="cls-8" d="M17.54,74.45c-.76.06-1.6.11-2.28.1-1.07-.02-2.51-.08-3.58-.19-.77-.08-1.78-.26-2.53-.44-.67-.16-2.38-.58-4.21-1.55,0,0-.01,0-.02-.01-.09-.05-.18-.1-.27-.15-1.02-.58-1.75-1.3-2.29-2.01h0c-.39-.52-.69-1.03-.93-1.47.46.47.99,1.01,1.64,1.55,1.29,1.1,3.01,2.25,5.32,3.08h0c2.37.85,5.35,1.35,9.15,1.09Z"/>
                <path class="cls-9" d="M4.65,72.21s-.08-.04-.12-.07c-.37-.22-1.09-.66-1.73-1.2-.17-.15-.45-.39-.71-.67-.11-.12-.23-.25-.38-.43t0,0s-.05-.06-.07-.09c0,0,0,0,0,0-.22-.31-.23-.69-.2-1.02.24.45.54.96.93,1.47h0c.54.71,1.27,1.43,2.29,2.01Z"/>
                <path class="cls-8" d="M1.43,68.72c-.29-.12-.61-.3-.76-.61-.01-.03-.02-.05-.03-.09-.13-.34-.2-.57-.31-.95-.13-.47-.24-1.23-.24-1.24-.04-.29-.06-.65-.08-.98.07.97.33,1.79.64,2.49h0c.24.53.51.99.77,1.37Z"/>
                <path class="cls-9" d="M92.45,27.47c-.75,1.02-1.27,1.65-1.43,1.85-.31.38-.72.9-1.04,1.27-.33.38-.75.88-1.08,1.26-.34.38-.79.88-1.13,1.26-.36.39-1.56,1.67-2.27,2.39-.34.34-.79.79-1.13,1.13-.98.96-1.76,1.71-2.44,2.35-.86.81-2.02,1.87-2.9,2.67-.49.44-1.15,1.02-1.65,1.46-.01.01-1.6,1.41-3.64,3.08-.97.8-2.48,2.01-4.14,3.28-1.81,1.39-1.92,1.46-4.64,3.43-1.41,1.02-1.91,1.35-5.14,3.52-.83.55-1.95,1.27-2.8,1.79-1.73,1.08-4.07,2.46-5.83,3.49-.94.55-2.22,1.25-3.18,1.77-3.67,2-6.62,3.41-6.65,3.43-1.3.62-3.03,1.45-4.34,2.04-1.13.5-2.65,1.15-3.8,1.6-2.13.82-4.07,1.52-6.65,2.25-.81.23-1.9.51-2.72.69-.97.21-2.27.5-3.26.62-.03,0-.05,0-.08,0-.5.07-1.1.16-1.65.22,0,0,0,0-.01,0-.09,0-.18.02-.27.03,0,0,0,0-.01,0-.16.01-.32.03-.48.04-.03,0-.07,0-.1,0-.05,0-.09,0-.13.01-.08,0-.16.01-.24.02-.02,0-.05,0-.07,0-9.34.64-13.8-3.34-16.11-5.72,4.74,2.84,15.82,8.39,39.08-2.43,23.26-10.82,37.49-23.59,44.51-30.46,2.56-2.5,5.22-5.4,7.42-8.36Z"/>
                <path class="cls-5" d="M78.87,10.59c-2.63.48-5.26,1.12-7.69,1.81-9.48,2.71-27.68,8.75-48.57,23.6C1.73,50.85,1.23,63.21,1.43,68.72c-.94-3.08-2.2-8.69,2.58-16.2.1-.15.19-.3.29-.44.07-.1.14-.21.21-.31.05-.08.1-.15.16-.23.13-.18.26-.37.39-.55.05-.07.1-.13.15-.2.16-.21.32-.43.49-.65.34-.44.69-.89.99-1.26.49-.6,1.19-1.37,1.7-1.96.63-.73,1.54-1.64,2.24-2.31,1.39-1.33,3.31-3.02,4.8-4.25,1.22-1.01,2.93-2.27,4.22-3.21.02-.02,2.6-1.89,6.33-4.32,2.6-1.69,5.16-3.23,6.26-3.88,1.71-1,4.14-2.4,5.98-3.36.86-.45,2-1.07,2.87-1.5.84-.42,1.96-.99,2.8-1.4.83-.41,1.95-.93,2.78-1.32.98-.46,3.84-1.74,5.26-2.33.75-.31,1.76-.73,2.51-1.03,2.43-.96,3.34-1.31,4.68-1.8,1.27-.45,2.95-1.05,4.23-1.47,1.31-.44,2.13-.69,3.77-1.2.35-.11,2.06-.62,3.27-.96.93-.26,2.17-.59,3.1-.83.01,0,1.54-.39,3.31-.75.61-.13,1.34-.26,2.05-.39Z"/>
                <path class="cls-4" d="M97.67,15.83v.05c0,.39-.05.91-.11,1.3-.2,1.33-.67,2.76-1.45,4.38-.56,1.18-1.23,2.32-1.84,3.28-.02.03-.03.05-.05.08-.09.13-.18.27-.26.41-.12.17-.23.35-.35.52,0,.01-.02.03-.03.04-.09.13-.18.26-.26.38-.28.4-.57.8-.87,1.21-2.2,2.95-4.86,5.86-7.42,8.36-7.02,6.87-21.25,19.64-44.51,30.46-23.26,10.82-34.34,5.27-39.08,2.43,5.2,1.03,17.27,2.7,40.75-9,23.48-11.7,37.34-23.01,44.14-28.98,4.6-4.03,9.48-9.1,10.93-12.92.27-.72.42-1.39.42-2Z"/>
                <path class="cls-5" d="M97.67,15.77v.06c0,.61-.15,1.29-.42,2-1.44,3.82-6.33,8.88-10.93,12.92-6.8,5.97-20.66,17.28-44.14,28.98-23.48,11.7-35.55,10.02-40.75,9,4.68-1.32,15.66-4.7,38.9-17.53,23.24-12.83,37.51-22.25,44.56-27.04,5.19-3.53,10.86-7.69,12.15-9.62h0c.08-.12.15-.23.19-.33.08-.18.11-.34.07-.46.1.24.2.58.25.87.06.31.11.6.12,1.15Z"/>
                <path class="cls-3" d="M97.23,14.21c-.05.1-.11.21-.19.33h0c-1.3,1.93-6.97,6.09-12.15,9.62-7.05,4.8-21.32,14.22-44.56,27.04C17.09,64.03,6.12,67.4,1.43,68.72c3.39-3.51,11.59-11.59,34.21-25.47,22.61-13.88,37.92-21.54,45.62-25.24,5.64-2.72,12.08-5.51,14.48-5.62.16,0,.3,0,.42.01h0c.19.03.34.08.43.17.02.02.04.04.05.06.05.06.1.13.15.19.04.06.18.26.21.32.03.05.06.12.09.17,0,0,.08.14.17.36,0,.01.01.03.02.05,0,0,0,.02,0,.03.04.12.02.28-.07.46Z"/>
                <path class="cls-3" d="M94.93,11.24c-.6-.33-1.34-.54-2.19-.66-4.12-.58-10.84,1.11-16.54,3.05-8.59,2.92-25.35,9.32-47.1,23.96C7.35,52.22,3.02,63.65,1.43,68.72c-.2-5.51.3-17.88,21.18-32.72,20.88-14.85,39.08-20.9,48.57-23.6,2.43-.69,5.06-1.34,7.69-1.81.14-.02.28-.05.42-.07.6-.1,1.2-.2,1.8-.29.1-.01.2-.03.3-.04.12-.02.24-.03.35-.05.1-.01.19-.03.29-.04.28-.03.6-.07.98-.11.06,0,.13-.01.19-.02,0,0,0,0,.01,0,.05,0,.09,0,.14-.01.24-.02.47-.04.71-.06.05,0,.1,0,.15-.01.11,0,.23-.02.34-.02.04,0,.07,0,.1,0,.14-.01.28-.02.41-.03.54-.04,1.26-.07,1.8-.07.81,0,1.9.04,2.71.09.53.03,1.23.14,1.76.22.31.05.72.15,1.03.22.49.11,1.65.45,2.56.96Z"/>
                <path class="cls-4" d="M.92,66.79c.15.72.34,1.37.51,1.93-.25-.39-.53-.84-.77-1.37h0c-.32-.7-.57-1.52-.64-2.49,0,0,0,0,0-.01,0-.09,0-.18-.01-.26H0s0-.01,0-.02c0-.01,0-.03,0-.04,0-.06,0-.12,0-.18s0-.13,0-.2c0-.33.01-.71.04-1.01.06-.63.17-1.47.3-2.08.14-.69.41-1.61.61-2.28.13-.42.36-.97.51-1.39.26-.71.69-1.64,1.06-2.3.23-.41.51-.91.78-1.38-1.52,2.68-2.28,5.1-2.59,7.23-.33,2.31-.13,4.28.21,5.86Z"/>
              </g>
              <g>
                <polygon class="cls-14" points="90.38 0 78.37 4.99 74.16 13.96 74.49 14.21 78.7 5.24 90.71 .25 90.38 0"/>
                <polygon class="cls-2" points="90.71 .25 78.7 5.24 74.49 14.21 87.74 10.66 91.86 7.72 90.71 .25"/>
              </g>
              <path class="cls-9" d="M88.9,26.41l-4.21,2.42,4.48,2.71c.27-.31.57-.66.81-.94.32-.37.73-.89,1.04-1.27.2-.24.93-1.15,1.98-2.61.4-.56.95-1.36,1.53-2.3l-5.64,2Z"/>
              <g>
                <polygon class="cls-14" points="104.88 21.21 94.55 29.12 84.68 28.28 94.38 18.58 98.99 16.49 104.88 21.21"/>
                <polygon class="cls-13" points="94.55 29.12 104.88 21.21 104.88 21.76 94.55 29.66 84.68 28.83 84.68 28.28 94.55 29.12"/>
              </g>
            </g>
          </g>
        </g>
      </g>
    </g>
  </g>
</svg>