<?xml version="1.0" encoding="UTF-8"?>
<svg id="_レイヤー_2" data-name="レイヤー 2" xmlns="http://www.w3.org/2000/svg" viewBox="0 0 775.79 360.9">
  <defs>
    <style>
      .cls-1 {
        stroke: #231815;
      }

      .cls-1, .cls-2 {
        fill: none;
        stroke-miterlimit: 10;
      }

      .cls-2 {
        stroke: #12a497;
        stroke-width: 5px;
      }

      .cls-3 {
        fill: #231815;
      }

      .cls-4 {
        fill: #12a497;
      }
    </style>
  </defs>
  <g id="_レイヤー_1-2" data-name="レイヤー 1">
    <g>
      <g>
        <path class="cls-3" d="M606.84,129.17c-1.7,0-3.3-.34-4.82-1.01-1.52-.67-2.88-1.7-4.08-3.07-1.2-1.38-2.14-3.14-2.83-5.28-.69-2.14-1.03-4.7-1.03-7.68,0-3.33.37-6.18,1.1-8.54.74-2.37,1.76-4.32,3.07-5.86,1.31-1.54,2.79-2.67,4.44-3.41,1.65-.74,3.35-1.1,5.11-1.1,2.18,0,4.07.4,5.69,1.2,1.62.8,2.95,1.74,4.01,2.83l-3.79,4.22c-.61-.7-1.41-1.3-2.4-1.78-.99-.48-2.02-.72-3.07-.72-1.41,0-2.7.41-3.86,1.22-1.17.82-2.1,2.18-2.78,4.08s-1.03,4.52-1.03,7.85c0,2.85.27,5.13.82,6.84.54,1.71,1.28,2.95,2.21,3.72.93.77,1.97,1.15,3.12,1.15.9,0,1.71-.23,2.45-.7.74-.46,1.32-1.15,1.75-2.06.43-.91.65-2.04.65-3.38s-.21-2.43-.62-3.26c-.42-.83-1.01-1.44-1.78-1.82-.77-.38-1.66-.58-2.69-.58-.96,0-1.96.3-3,.89-1.04.59-2.02,1.64-2.95,3.14l-.29-4.8c.67-.9,1.44-1.66,2.3-2.3.86-.64,1.76-1.13,2.69-1.46s1.79-.5,2.59-.5c1.98,0,3.74.38,5.28,1.15,1.54.77,2.74,1.94,3.62,3.53.88,1.58,1.32,3.59,1.32,6.02s-.51,4.36-1.54,6.07c-1.02,1.71-2.38,3.04-4.05,3.98-1.68.94-3.54,1.42-5.59,1.42Z"/>
        <path class="cls-3" d="M628.96,128.5c.16-2.98.44-5.72.84-8.23.4-2.51.96-4.89,1.68-7.13.72-2.24,1.64-4.45,2.76-6.62,1.12-2.18,2.51-4.42,4.18-6.72h-15.98v-5.9h23.62v4.32c-2.02,2.46-3.65,4.8-4.9,7.01s-2.21,4.46-2.88,6.77c-.67,2.3-1.17,4.79-1.49,7.46-.32,2.67-.56,5.69-.72,9.05h-7.1Z"/>
        <path class="cls-3" d="M664.53,128.5v-20.88c0-1.06.03-2.3.1-3.74.06-1.44.13-2.69.19-3.74h-.24c-.42.93-.86,1.86-1.34,2.78-.48.93-.98,1.87-1.49,2.83l-5.52,8.74h19.1v5.42h-25.97v-4.85l13.25-21.17h8.5v34.61h-6.58Z"/>
        <path class="cls-3" d="M691.88,109.43h3.56c-.06,1.59-.14,3.19-.27,4.82s-.34,3.22-.66,4.8c-.32,1.58-.79,3.09-1.4,4.54-.62,1.45-1.45,2.8-2.49,4.06s-2.37,2.37-3.98,3.32c-.24-.45-.6-.93-1.06-1.44-.47-.51-.92-.94-1.37-1.27,1.47-.84,2.68-1.8,3.63-2.88.94-1.08,1.68-2.26,2.23-3.53.54-1.27.93-2.6,1.18-3.99.24-1.39.4-2.79.48-4.21.07-1.42.13-2.82.17-4.2ZM685.33,106.63h24.72v3.28h-24.72v-3.28ZM694.29,114.5h11.2v3.25h-11.2v-3.25ZM704.25,114.5h3.53c-.02.35-.03.65-.03.9s0,.44-.03.59c-.11,2.17-.23,4.02-.35,5.56s-.26,2.83-.41,3.86c-.15,1.04-.33,1.86-.53,2.48-.21.62-.45,1.08-.73,1.4-.41.48-.85.82-1.33,1.01-.48.19-1.03.32-1.67.39-.56.06-1.28.08-2.17.08s-1.8-.02-2.73-.06c-.04-.49-.17-1.04-.39-1.67-.22-.62-.5-1.17-.81-1.64.97.07,1.89.12,2.77.14s1.52.03,1.93.03c.3,0,.55-.02.76-.07.21-.05.39-.14.56-.29.3-.26.55-.84.74-1.75.2-.91.36-2.21.5-3.92.14-1.71.27-3.87.38-6.48v-.56Z"/>
        <path class="cls-3" d="M723.32,105.37h3.86c-.04.78-.1,1.79-.2,3.02-.09,1.23-.27,2.6-.52,4.1s-.63,3.08-1.13,4.72c-.5,1.64-1.19,3.28-2.06,4.91-.87,1.63-1.97,3.19-3.3,4.68s-2.95,2.8-4.86,3.96c-.3-.43-.71-.89-1.22-1.37s-1.05-.92-1.61-1.32c1.87-1.05,3.43-2.24,4.7-3.58,1.27-1.34,2.31-2.76,3.11-4.24.8-1.48,1.42-2.98,1.85-4.48.43-1.5.74-2.93.92-4.27.19-1.34.3-2.55.34-3.61.04-1.06.07-1.9.11-2.52ZM727.05,106.13c.02.35.06.92.11,1.68.06.77.17,1.68.34,2.74s.42,2.22.77,3.46c.34,1.24.81,2.52,1.39,3.82s1.3,2.58,2.16,3.84c.86,1.25,1.9,2.41,3.12,3.47,1.22,1.06,2.66,1.99,4.3,2.77-.54.39-1.04.85-1.5,1.37-.46.52-.83,1.02-1.11,1.48-1.72-.86-3.22-1.88-4.49-3.07-1.28-1.19-2.37-2.47-3.28-3.86s-1.66-2.8-2.25-4.24c-.6-1.44-1.08-2.85-1.44-4.24-.36-1.39-.64-2.68-.83-3.88-.19-1.19-.31-2.23-.38-3.11-.07-.88-.12-1.51-.15-1.9l3.25-.34Z"/>
      </g>
      <g>
        <path class="cls-3" d="M319.94,145.78v-3.57c2.69-2.58,5.04-4.91,7.06-6.99,2.02-2.09,3.58-3.99,4.7-5.71,1.12-1.72,1.68-3.32,1.68-4.81,0-1.04-.18-1.92-.55-2.65-.36-.73-.89-1.29-1.57-1.68-.69-.39-1.53-.59-2.54-.59-1.12,0-2.15.32-3.09.97-.94.64-1.8,1.39-2.58,2.23l-3.44-3.36c1.46-1.54,2.95-2.71,4.47-3.51,1.53-.8,3.34-1.2,5.44-1.2,1.96,0,3.68.39,5.15,1.18,1.47.78,2.61,1.88,3.42,3.3.81,1.41,1.22,3.07,1.22,4.98,0,1.74-.48,3.51-1.45,5.33-.97,1.82-2.24,3.66-3.82,5.52-1.58,1.86-3.31,3.77-5.19,5.73.78-.11,1.65-.2,2.6-.27.95-.07,1.79-.1,2.52-.1h6.8v5.21h-20.83Z"/>
        <path class="cls-3" d="M354.38,146.37c-1.62,0-3.08-.19-4.37-.57-1.29-.38-2.43-.9-3.42-1.55-.99-.66-1.85-1.39-2.58-2.2l2.9-3.91c.95.87,1.99,1.62,3.13,2.25,1.13.63,2.4.94,3.8.94,1.06,0,2-.16,2.79-.48.8-.32,1.41-.79,1.85-1.41.43-.62.65-1.36.65-2.23,0-.98-.25-1.83-.74-2.54-.49-.71-1.35-1.26-2.58-1.64-1.23-.38-2.97-.57-5.21-.57v-4.45c1.9,0,3.4-.2,4.49-.59,1.09-.39,1.87-.92,2.33-1.6.46-.67.69-1.44.69-2.31,0-1.2-.36-2.13-1.09-2.77-.73-.64-1.75-.97-3.07-.97-1.09,0-2.11.25-3.04.73-.94.49-1.87,1.17-2.79,2.04l-3.19-3.78c1.37-1.18,2.81-2.11,4.33-2.81,1.51-.7,3.18-1.05,5-1.05,1.99,0,3.74.31,5.27.95,1.53.63,2.71,1.55,3.55,2.77.84,1.22,1.26,2.69,1.26,4.43,0,1.62-.45,3-1.34,4.14-.9,1.13-2.17,2.04-3.82,2.71v.21c1.15.31,2.19.8,3.13,1.47.94.67,1.68,1.51,2.23,2.5.54.99.82,2.16.82,3.51,0,1.85-.5,3.43-1.49,4.75-1,1.32-2.33,2.32-3.99,3-1.67.69-3.49,1.03-5.48,1.03Z"/>
        <path class="cls-3" d="M380.08,146.37c-2.13,0-3.98-.61-5.57-1.83-1.58-1.22-2.81-3-3.67-5.36-.87-2.35-1.3-5.24-1.3-8.65s.43-6.32,1.3-8.63c.87-2.31,2.09-4.05,3.67-5.23,1.58-1.18,3.44-1.76,5.57-1.76s3.98.59,5.56,1.76c1.58,1.18,2.81,2.92,3.68,5.23.87,2.31,1.3,5.19,1.3,8.63s-.43,6.3-1.3,8.65c-.87,2.35-2.09,4.14-3.68,5.36-1.58,1.22-3.44,1.83-5.56,1.83ZM380.08,141.54c.92,0,1.74-.33,2.44-.99.7-.66,1.25-1.79,1.64-3.4.39-1.61.59-3.81.59-6.62s-.2-5.03-.59-6.59c-.39-1.57-.94-2.66-1.64-3.28-.7-.62-1.51-.92-2.44-.92-.87,0-1.66.31-2.37.92-.71.62-1.28,1.71-1.7,3.28-.42,1.57-.63,3.77-.63,6.59s.21,5.01.63,6.62c.42,1.61.99,2.74,1.7,3.4.71.66,1.5.99,2.37.99Z"/>
        <path class="cls-3" d="M403.88,131.48h2.67c-.04,1.19-.11,2.39-.2,3.61-.09,1.22-.26,2.42-.49,3.6-.24,1.18-.59,2.32-1.05,3.4-.46,1.08-1.09,2.1-1.87,3.04-.78.95-1.78,1.77-2.98,2.49-.18-.34-.45-.7-.8-1.08-.35-.39-.69-.7-1.03-.96,1.11-.63,2.01-1.35,2.72-2.16.71-.81,1.26-1.69,1.67-2.65.41-.95.7-1.95.88-2.99.18-1.04.3-2.1.36-3.16.06-1.06.1-2.11.13-3.15ZM398.96,129.38h18.54v2.46h-18.54v-2.46ZM405.68,135.28h8.4v2.44h-8.4v-2.44ZM413.16,135.28h2.65c-.01.27-.02.49-.02.67s0,.33-.02.44c-.08,1.62-.17,3.01-.26,4.17-.09,1.15-.19,2.12-.3,2.9-.11.78-.25,1.4-.4,1.86-.15.46-.34.81-.55,1.05-.31.36-.64.62-1,.76-.36.14-.77.24-1.25.29-.42.04-.96.06-1.63.06s-1.35-.01-2.05-.04c-.03-.36-.12-.78-.29-1.25-.17-.47-.37-.88-.61-1.23.73.06,1.42.09,2.08.1.66.01,1.14.02,1.45.02.22,0,.41-.02.57-.05.15-.03.29-.11.42-.22.22-.2.41-.63.56-1.31s.27-1.66.38-2.94c.11-1.28.2-2.9.28-4.86v-.42Z"/>
        <path class="cls-3" d="M427.46,128.43h2.9c-.03.59-.08,1.34-.15,2.27-.07.92-.2,1.95-.39,3.08s-.47,2.31-.85,3.54-.89,2.46-1.54,3.69c-.65,1.23-1.48,2.39-2.48,3.51s-2.22,2.1-3.64,2.97c-.22-.32-.53-.67-.91-1.03s-.79-.69-1.21-.99c1.4-.78,2.58-1.68,3.53-2.69.95-1.01,1.73-2.07,2.33-3.18.6-1.11,1.06-2.23,1.39-3.36.32-1.13.55-2.19.69-3.2.14-1.01.22-1.91.25-2.71.03-.8.06-1.43.08-1.89ZM430.25,129c.01.27.04.69.08,1.26.04.57.13,1.26.25,2.06.13.8.32,1.66.58,2.59.26.93.61,1.89,1.04,2.87s.97,1.94,1.62,2.88,1.42,1.81,2.34,2.6c.92.8,1.99,1.49,3.22,2.08-.41.29-.78.64-1.12,1.03-.34.39-.62.76-.83,1.11-1.29-.64-2.41-1.41-3.37-2.3-.96-.89-1.78-1.85-2.46-2.9-.68-1.04-1.24-2.1-1.69-3.18-.45-1.08-.81-2.14-1.08-3.18s-.48-2.01-.62-2.91c-.14-.9-.23-1.67-.28-2.33-.05-.66-.09-1.13-.12-1.43l2.44-.25Z"/>
      </g>
      <g>
        <path class="cls-3" d="M69.48,162.26c-1.27,0-2.48-.25-3.62-.76s-2.16-1.27-3.06-2.3c-.9-1.03-1.61-2.35-2.12-3.96-.52-1.61-.77-3.53-.77-5.76,0-2.5.28-4.63.83-6.41.55-1.78,1.32-3.24,2.3-4.39.98-1.15,2.09-2,3.33-2.56,1.24-.55,2.51-.83,3.83-.83,1.63,0,3.05.3,4.27.9,1.21.6,2.21,1.31,3.01,2.12l-2.84,3.17c-.46-.53-1.06-.97-1.8-1.33-.74-.36-1.51-.54-2.3-.54-1.06,0-2.02.31-2.9.92-.88.61-1.57,1.63-2.09,3.06-.52,1.43-.77,3.39-.77,5.89,0,2.14.2,3.85.61,5.13.41,1.28.96,2.21,1.66,2.79.7.58,1.47.86,2.34.86.67,0,1.28-.17,1.84-.52.55-.35.99-.86,1.31-1.55.32-.68.49-1.53.49-2.54s-.16-1.82-.47-2.45c-.31-.62-.76-1.08-1.33-1.37s-1.25-.43-2.02-.43c-.72,0-1.47.22-2.25.67s-1.52,1.23-2.21,2.36l-.22-3.6c.5-.67,1.08-1.25,1.73-1.73.65-.48,1.32-.85,2.02-1.1.7-.25,1.34-.38,1.95-.38,1.49,0,2.81.29,3.96.86s2.06,1.46,2.72,2.65c.66,1.19.99,2.69.99,4.52s-.38,3.27-1.15,4.55c-.77,1.28-1.78,2.28-3.04,2.99-1.26.71-2.66,1.06-4.19,1.06Z"/>
        <path class="cls-3" d="M90,162.26c-1.7,0-3.23-.3-4.57-.9s-2.41-1.44-3.19-2.52-1.17-2.32-1.17-3.71c0-1.08.22-2.03.65-2.84.43-.82.99-1.54,1.67-2.16.68-.62,1.43-1.15,2.25-1.58v-.14c-1.01-.72-1.85-1.57-2.52-2.56-.67-.98-1.01-2.15-1.01-3.49,0-1.46.35-2.72,1.04-3.76.7-1.04,1.65-1.85,2.86-2.43s2.58-.86,4.12-.86,2.95.29,4.1.88c1.15.59,2.05,1.41,2.68,2.47.64,1.06.96,2.29.96,3.71,0,.84-.16,1.63-.49,2.38s-.75,1.4-1.28,1.98-1.08,1.07-1.66,1.48v.18c.81.46,1.57.98,2.25,1.58.68.6,1.23,1.32,1.64,2.16s.61,1.85.61,3.02c0,1.34-.38,2.56-1.13,3.64-.76,1.08-1.81,1.93-3.15,2.56s-2.9.94-4.68.94ZM90.11,158.52c.77,0,1.45-.14,2.03-.41.59-.28,1.05-.68,1.39-1.22.34-.54.5-1.18.5-1.93,0-.67-.15-1.24-.45-1.69-.3-.46-.71-.86-1.24-1.22s-1.15-.7-1.87-1.03c-.72-.32-1.51-.65-2.38-.99-.72.55-1.31,1.21-1.76,1.98-.46.77-.68,1.62-.68,2.56,0,.79.2,1.48.59,2.07.4.59.93,1.05,1.6,1.39.67.34,1.43.5,2.27.5ZM91.66,146.93c.62-.67,1.1-1.36,1.42-2.05.32-.7.49-1.43.49-2.2,0-.7-.14-1.33-.41-1.89-.28-.56-.68-1-1.21-1.3-.53-.3-1.17-.45-1.91-.45-.91,0-1.68.28-2.3.85-.62.56-.94,1.39-.94,2.47,0,.79.21,1.45.65,1.98.43.53,1.01,1,1.75,1.4.73.41,1.55.8,2.47,1.19Z"/>
        <path class="cls-3" d="M109.68,149.5h2.29c-.04,1.02-.09,2.05-.17,3.1s-.22,2.07-.42,3.09c-.2,1.01-.5,1.99-.9,2.92-.4.93-.93,1.8-1.6,2.61-.67.81-1.52,1.52-2.55,2.13-.16-.29-.38-.6-.68-.93s-.59-.6-.88-.82c.95-.54,1.72-1.16,2.33-1.85.61-.7,1.08-1.45,1.43-2.27.35-.82.6-1.67.76-2.56s.26-1.8.31-2.71c.05-.91.08-1.81.11-2.7ZM105.47,147.7h15.89v2.11h-15.89v-2.11ZM111.23,152.76h7.2v2.09h-7.2v-2.09ZM117.63,152.76h2.27c-.01.23-.02.42-.02.58s0,.28-.02.38c-.07,1.39-.15,2.58-.22,3.57s-.17,1.82-.26,2.48c-.1.67-.21,1.2-.34,1.59-.13.4-.29.7-.47.9-.26.31-.55.53-.86.65-.31.12-.66.2-1.07.25-.36.04-.83.05-1.4.05s-1.15-.01-1.75-.04c-.02-.31-.11-.67-.25-1.07-.14-.4-.32-.75-.52-1.05.62.05,1.22.08,1.78.09.56.01.98.02,1.24.02.19,0,.35-.01.49-.04s.25-.09.36-.19c.19-.17.35-.54.48-1.12.13-.58.23-1.42.32-2.52s.17-2.49.24-4.17v-.36Z"/>
        <path class="cls-3" d="M129.89,146.89h2.48c-.02.5-.07,1.15-.12,1.94-.06.79-.17,1.67-.33,2.64-.16.97-.4,1.98-.73,3.03-.32,1.06-.76,2.11-1.32,3.16-.56,1.05-1.27,2.05-2.12,3.01-.86.95-1.9,1.8-3.12,2.55-.19-.28-.45-.57-.78-.88-.33-.31-.67-.59-1.04-.85,1.2-.67,2.21-1.44,3.02-2.3.82-.86,1.48-1.77,2-2.73.52-.95.91-1.91,1.19-2.88.28-.97.47-1.88.59-2.75.12-.86.19-1.64.22-2.32.02-.68.05-1.22.07-1.62ZM132.28,147.38c.01.23.04.59.07,1.08.04.49.11,1.08.22,1.76.11.68.27,1.43.49,2.22.22.8.52,1.62.89,2.46.37.84.83,1.66,1.39,2.47.55.8,1.22,1.55,2.01,2.23.79.68,1.71,1.28,2.76,1.78-.35.25-.67.55-.96.88-.29.34-.53.65-.71.95-1.1-.55-2.07-1.21-2.89-1.97s-1.52-1.59-2.11-2.48c-.58-.89-1.07-1.8-1.45-2.73-.38-.92-.69-1.83-.93-2.73-.23-.89-.41-1.72-.53-2.49-.12-.77-.2-1.43-.24-2-.04-.56-.08-.97-.1-1.22l2.09-.22Z"/>
      </g>
      <g>
        <path class="cls-3" d="M275.6,248.59h10.78v13.58h-1.63v-12.05h-7.6v12.11h-1.55v-13.65ZM276.62,259.66h8.83v1.52h-8.83v-1.52ZM276.64,254.06h8.8v1.5h-8.8v-1.5Z"/>
        <path class="cls-3" d="M297.25,251.36l1.38.45c-.46,1.14-1.03,2.23-1.7,3.26-.68,1.03-1.43,1.97-2.26,2.8-.83.83-1.7,1.53-2.63,2.1-.08-.13-.18-.27-.31-.42s-.27-.31-.4-.46c-.13-.15-.26-.27-.38-.37.66-.36,1.3-.81,1.93-1.33.62-.52,1.21-1.11,1.77-1.75.55-.65,1.05-1.33,1.5-2.06.44-.73.81-1.47,1.11-2.22ZM291.52,250.82h14.05v1.55h-14.05v-1.55ZM294.75,258.01h7.46v1.54h-7.46v-1.54ZM297.71,247.57h1.6v14.85h-1.6v-14.85ZM299.79,251.41c.42.98.95,1.93,1.59,2.86.65.92,1.38,1.76,2.2,2.5.82.75,1.68,1.35,2.59,1.81-.12.11-.25.24-.4.39-.15.15-.29.32-.42.49-.13.17-.24.33-.33.46-.94-.54-1.82-1.23-2.65-2.06-.83-.83-1.57-1.75-2.24-2.78-.67-1.02-1.23-2.1-1.7-3.23l1.36-.45Z"/>
        <path class="cls-3" d="M309.33,250.35c.31-.01.59-.02.86-.04.26-.02.47-.03.63-.04.29-.03.67-.07,1.16-.12s1.04-.1,1.66-.15c.62-.05,1.28-.11,1.98-.18s1.42-.13,2.16-.19c.57-.04,1.12-.08,1.66-.12.54-.04,1.04-.07,1.51-.1.47-.03.89-.05,1.25-.06v1.62c-.3-.01-.64-.01-1.02,0-.38.01-.75.03-1.12.06-.37.03-.7.09-.98.16-.52.16-1,.41-1.44.75-.44.34-.81.74-1.13,1.18-.31.45-.55.92-.72,1.42-.17.5-.25.99-.25,1.46,0,.59.1,1.1.3,1.53.2.43.47.8.82,1.1.35.3.76.55,1.22.75.46.2.95.34,1.46.44.52.1,1.04.15,1.56.18l-.58,1.71c-.63-.03-1.25-.13-1.87-.28-.62-.15-1.2-.37-1.74-.66-.54-.28-1.03-.64-1.45-1.06-.42-.43-.75-.92-.99-1.47-.24-.55-.36-1.18-.36-1.89,0-.81.14-1.56.41-2.24.27-.68.62-1.28,1.03-1.78.42-.51.84-.9,1.28-1.18-.32.03-.71.07-1.18.12-.47.05-.97.1-1.51.17-.54.06-1.08.13-1.62.2s-1.06.14-1.54.22c-.49.07-.91.15-1.27.22l-.16-1.74ZM319.89,252.75c.13.18.27.4.43.66.16.26.32.53.48.8s.29.52.4.74l-.99.45c-.19-.41-.39-.79-.6-1.17-.21-.37-.43-.73-.68-1.07l.96-.42ZM321.66,252.06c.13.18.28.4.45.65s.34.51.5.78c.16.27.3.52.42.75l-.98.46c-.21-.41-.43-.79-.64-1.14-.21-.36-.45-.71-.7-1.06l.96-.43Z"/>
        <path class="cls-3" d="M329.02,247.65l1.36.37c-.28.92-.61,1.83-.98,2.74-.38.91-.79,1.78-1.24,2.6-.45.82-.93,1.54-1.44,2.16-.03-.12-.09-.28-.17-.48-.08-.2-.17-.4-.26-.61-.1-.2-.19-.37-.27-.5.42-.52.81-1.12,1.18-1.8.37-.68.71-1.4,1.02-2.17.31-.77.58-1.54.8-2.32ZM327.92,251.76l1.34-1.34v12.03h-1.34v-10.69ZM329.87,260.69c.53-.03,1.14-.08,1.82-.14.68-.06,1.41-.13,2.18-.2s1.54-.14,2.32-.2l.02,1.1c-1.09.14-2.17.27-3.24.39-1.07.12-2.03.23-2.89.31l-.21-1.26ZM335.46,248.05l.78,1.09c-.54.12-1.15.23-1.82.33s-1.35.18-2.05.25-1.37.11-2.01.14c-.02-.15-.07-.33-.14-.53-.08-.2-.14-.37-.21-.51.63-.06,1.28-.13,1.94-.21s1.3-.16,1.91-.26c.61-.1,1.14-.2,1.59-.3ZM330.1,250.51h6.18v1.12h-6.18v-1.12ZM330.26,258.16h5.92v1.12h-5.92v-1.12ZM330.29,252.51h5.84v4.74h-5.84v-4.74ZM331.31,253.47v.94h3.76v-.94h-3.76ZM331.31,255.31v.96h3.76v-.96h-3.76ZM332.62,252.86h1.06v4h.13v3.95h-1.3v-3.95h.11v-4ZM332.53,248.91h1.28v4.16h-1.28v-4.16ZM337.23,247.63h1.29v5.34c0,.77-.03,1.57-.09,2.41s-.17,1.68-.34,2.52c-.17.84-.42,1.65-.75,2.43-.34.78-.79,1.5-1.35,2.16-.09-.09-.19-.18-.32-.28-.13-.1-.26-.2-.39-.3-.13-.1-.26-.17-.38-.22.52-.62.94-1.29,1.25-2.02.31-.73.54-1.47.7-2.25.15-.77.26-1.54.3-2.3.05-.76.07-1.48.07-2.16v-5.34ZM336.21,251.25h4v1.33h-4v-1.33ZM339.73,251.25h1.29c0,.17,0,.31,0,.42,0,.11,0,.19,0,.24-.03,1.71-.07,3.14-.1,4.31-.04,1.17-.08,2.12-.13,2.86-.05.74-.11,1.31-.18,1.71-.07.4-.16.69-.28.86-.14.21-.28.36-.43.45s-.34.15-.56.19c-.19.02-.43.03-.71.04-.28,0-.58,0-.89,0-.01-.2-.05-.43-.1-.68-.06-.25-.14-.47-.25-.65.29.01.55.02.78.03.23.01.41.02.54.02.11,0,.2-.02.27-.05.07-.03.14-.1.21-.21.07-.13.14-.37.2-.74s.11-.9.15-1.6.08-1.62.11-2.74c.03-1.12.06-2.5.1-4.14v-.32Z"/>
        <path class="cls-3" d="M354.8,249.39c-.2.15-.42.32-.65.5-.23.19-.42.35-.58.49-.27.22-.59.49-.98.8-.38.31-.79.63-1.21.98-.42.34-.83.67-1.22.98-.39.31-.73.6-1.01.84-.3.26-.5.47-.61.64-.11.17-.1.34,0,.5.11.17.32.39.63.66.28.22.61.49.98.8.38.31.78.64,1.22,1,.43.36.87.73,1.32,1.11.45.38.88.76,1.3,1.14s.79.73,1.12,1.06l-1.46,1.33c-.38-.44-.79-.87-1.22-1.3-.27-.28-.6-.6-1.01-.98-.4-.37-.84-.76-1.3-1.17-.46-.41-.93-.8-1.38-1.19-.46-.39-.88-.74-1.25-1.05-.51-.44-.84-.83-.99-1.17-.15-.34-.12-.68.07-1.02.2-.34.55-.72,1.05-1.14.31-.26.67-.55,1.09-.89s.84-.69,1.29-1.06c.44-.37.86-.73,1.26-1.08.4-.35.73-.65,1-.92.19-.19.39-.4.59-.62.2-.22.35-.41.45-.58l1.49,1.33Z"/>
        <path class="cls-3" d="M365.09,247.55l1.52.3c-.28,1.06-.62,2.07-1.03,3.04s-.87,1.86-1.38,2.68-1.06,1.53-1.66,2.14c-.09-.09-.21-.19-.36-.31-.15-.12-.31-.25-.48-.37s-.31-.22-.44-.3c.6-.54,1.14-1.19,1.63-1.94.49-.75.92-1.57,1.29-2.46.37-.9.67-1.82.9-2.78ZM368.34,249.97h.27l.27-.06.99.34c-.31,2.08-.79,3.9-1.46,5.47-.66,1.57-1.46,2.9-2.4,3.98-.94,1.09-1.98,1.96-3.12,2.62-.09-.12-.2-.25-.34-.4-.14-.15-.29-.29-.45-.42-.15-.13-.29-.24-.42-.31,1.14-.61,2.16-1.41,3.06-2.39.9-.99,1.66-2.18,2.27-3.59.61-1.41,1.05-3.04,1.32-4.9v-.34ZM362.99,254.3l.78-1.12c.43.23.87.5,1.34.8s.9.6,1.31.91c.41.31.74.6.98.86l-.83,1.26c-.23-.27-.55-.57-.95-.9-.4-.33-.83-.66-1.3-.98-.46-.32-.91-.6-1.34-.85ZM364.75,249.97h4v1.42h-4v-1.42ZM370.24,251.39c.33.62.73,1.22,1.21,1.82.47.59,1,1.15,1.57,1.68.57.53,1.17,1.01,1.8,1.44.63.43,1.27.79,1.92,1.08-.12.1-.25.22-.38.38-.14.15-.27.31-.39.47s-.23.31-.31.45c-.66-.34-1.31-.76-1.95-1.25-.64-.49-1.25-1.03-1.82-1.62-.58-.59-1.11-1.22-1.6-1.9-.49-.67-.92-1.36-1.29-2.06l1.26-.48ZM371.6,247.58h1.57v14.8h-1.57v-14.8Z"/>
        <path class="cls-3" d="M379.84,248.26h13.36v14.16h-1.6v-12.77h-10.22v12.77h-1.54v-14.16ZM380.67,260.21h11.66v1.41h-11.66v-1.41ZM382.24,257.73h8.59v1.25h-8.59v-1.25ZM382.45,250.78h8.08v1.34h-8.08v-1.34ZM382.88,254.06h7.28v1.3h-7.28v-1.3ZM385.73,251.22h1.42v7.18h-1.42v-7.18ZM387.94,256l.96-.53c.28.25.56.53.85.84.29.31.51.59.66.84l-1.02.59c-.15-.25-.36-.53-.64-.86s-.54-.62-.8-.88Z"/>
        <path class="cls-3" d="M403.07,248h1.71c-.02.44-.06,1-.11,1.7-.05.69-.15,1.47-.3,2.33-.14.86-.36,1.75-.65,2.68-.29.93-.68,1.85-1.18,2.78-.5.92-1.14,1.8-1.9,2.62-.77.83-1.7,1.55-2.8,2.18-.14-.2-.32-.41-.54-.62s-.46-.41-.72-.58c1.09-.58,2-1.25,2.74-2.01.74-.76,1.34-1.57,1.81-2.43.47-.86.83-1.72,1.1-2.59.26-.87.45-1.7.57-2.49s.19-1.49.22-2.11c.03-.62.05-1.1.06-1.46ZM404.72,248.37c.01.19.03.51.07.95.04.44.11.97.21,1.59.1.62.25,1.29.46,2.02.2.73.47,1.47.8,2.23.33.76.75,1.51,1.25,2.24.5.73,1.1,1.4,1.8,2.02s1.52,1.14,2.47,1.58c-.23.18-.46.39-.66.62-.21.23-.38.45-.5.66-.97-.47-1.82-1.04-2.55-1.71-.73-.67-1.35-1.4-1.87-2.19-.52-.79-.95-1.59-1.3-2.42-.35-.82-.62-1.63-.83-2.42-.21-.79-.37-1.52-.47-2.2-.11-.68-.18-1.26-.22-1.75s-.07-.85-.1-1.07l1.46-.14Z"/>
        <path class="cls-3" d="M420.38,252.82h1.65c-.04,1-.11,1.93-.21,2.78-.1.85-.28,1.63-.53,2.34s-.61,1.35-1.09,1.91c-.48.57-1.1,1.06-1.88,1.5-.78.43-1.75.79-2.93,1.08-.05-.14-.13-.29-.22-.46-.1-.17-.21-.34-.33-.5-.12-.17-.24-.3-.34-.41,1.09-.25,1.98-.54,2.69-.9.71-.35,1.26-.77,1.68-1.25s.73-1.02.94-1.62c.21-.6.35-1.28.43-2.02.08-.75.13-1.56.15-2.45ZM414.98,250.93h13.6v3.55h-1.54v-2.14h-10.61v2.14h-1.46v-3.55ZM415.85,248.46l1.3-.61c.23.25.46.52.68.82s.42.6.61.9c.19.3.33.57.42.82l-1.39.67c-.09-.23-.21-.5-.38-.81-.17-.3-.36-.61-.58-.93-.21-.31-.43-.6-.66-.86ZM415.85,255.04h10.45v1.42h-10.45v-1.42ZM420.1,248.03l1.33-.45c.28.43.54.89.78,1.39.25.5.41.94.5,1.31l-1.42.5c-.05-.25-.14-.53-.26-.85-.12-.32-.26-.65-.42-.98s-.33-.64-.5-.93ZM425.79,255.04h1.54c0,.16,0,.29,0,.4,0,.11-.01.19-.02.26-.05,1.32-.12,2.4-.21,3.22s-.19,1.47-.3,1.92c-.12.45-.27.78-.45.97-.17.21-.37.36-.58.44-.22.08-.48.14-.78.17-.28.02-.65.03-1.12.03s-.96-.02-1.47-.05c-.02-.22-.08-.48-.18-.75-.1-.28-.21-.52-.35-.74.52.04,1.02.07,1.49.09.47.02.8.02.99.02.16,0,.29-.01.4-.04s.21-.08.3-.15c.13-.12.24-.38.33-.78.09-.4.17-.99.24-1.76.07-.77.13-1.78.18-3.02v-.24ZM426.22,247.7l1.66.51c-.36.55-.75,1.11-1.17,1.66-.42.56-.79,1.02-1.14,1.41l-1.28-.5c.22-.28.46-.6.7-.96.24-.36.47-.73.68-1.1.21-.37.39-.71.54-1.02Z"/>
        <path class="cls-3" d="M434.62,247.65l1.36.37c-.28.92-.61,1.83-.98,2.74s-.79,1.78-1.24,2.6c-.45.82-.93,1.54-1.44,2.16-.03-.12-.09-.28-.17-.48-.08-.2-.17-.4-.26-.61-.1-.2-.19-.37-.27-.5.42-.52.81-1.12,1.18-1.8.37-.68.71-1.4,1.02-2.17.31-.77.58-1.54.8-2.32ZM433.52,251.76l1.34-1.34v12.03h-1.34v-10.69ZM435.47,260.69c.53-.03,1.14-.08,1.82-.14s1.41-.13,2.18-.2c.77-.07,1.54-.14,2.32-.2l.02,1.1c-1.09.14-2.17.27-3.24.39s-2.04.23-2.89.31l-.21-1.26ZM441.06,248.05l.78,1.09c-.54.12-1.15.23-1.82.33-.67.1-1.35.18-2.05.25-.7.06-1.37.11-2.01.14-.02-.15-.07-.33-.14-.53-.07-.2-.14-.37-.21-.51.63-.06,1.27-.13,1.94-.21.66-.07,1.3-.16,1.91-.26.61-.1,1.14-.2,1.59-.3ZM435.7,250.51h6.18v1.12h-6.18v-1.12ZM435.85,258.16h5.92v1.12h-5.92v-1.12ZM435.89,252.51h5.84v4.74h-5.84v-4.74ZM436.91,253.47v.94h3.76v-.94h-3.76ZM436.91,255.31v.96h3.76v-.96h-3.76ZM438.22,252.86h1.06v4h.13v3.95h-1.3v-3.95h.11v-4ZM438.13,248.91h1.28v4.16h-1.28v-4.16ZM442.83,247.63h1.3v5.34c0,.77-.03,1.57-.09,2.41s-.17,1.68-.34,2.52-.42,1.65-.75,2.43c-.34.78-.79,1.5-1.35,2.16-.08-.09-.19-.18-.32-.28-.13-.1-.26-.2-.39-.3-.13-.1-.26-.17-.38-.22.52-.62.94-1.29,1.25-2.02.31-.73.54-1.47.7-2.25.15-.77.26-1.54.3-2.3.05-.76.07-1.48.07-2.16v-5.34ZM441.81,251.25h4v1.33h-4v-1.33ZM445.33,251.25h1.3c0,.17,0,.31,0,.42,0,.11,0,.19,0,.24-.03,1.71-.07,3.14-.1,4.31s-.08,2.12-.13,2.86c-.05.74-.11,1.31-.18,1.71-.07.4-.16.69-.28.86-.14.21-.28.36-.43.45-.15.09-.34.15-.56.19-.19.02-.43.03-.71.04s-.58,0-.89,0c-.01-.2-.04-.43-.1-.68-.06-.25-.14-.47-.25-.65.29.01.55.02.78.03s.41.02.54.02c.11,0,.2-.02.27-.05.07-.03.14-.1.21-.21.07-.13.14-.37.2-.74s.11-.9.15-1.6c.04-.7.08-1.62.11-2.74.03-1.12.06-2.5.1-4.14v-.32Z"/>
        <path class="cls-3" d="M462.14,248.08l1.29.69c-1.04,1.42-2.27,2.72-3.66,3.9-1.4,1.18-2.9,2.22-4.51,3.14-1.61.91-3.27,1.69-4.98,2.34-.06-.12-.15-.25-.26-.41s-.23-.31-.35-.46-.23-.28-.33-.38c1.73-.59,3.39-1.31,4.98-2.18,1.59-.86,3.05-1.86,4.38-2.98s2.48-2.34,3.44-3.66ZM449.76,252.57h14.34v1.34h-14.34v-1.34ZM451.17,249.45h9.22v1.33h-9.22v-1.33ZM453.02,255.44h9.15v6.93h-1.57v-5.66h-6.08v5.73h-1.5v-6.99ZM453.85,258.03h7.36v1.18h-7.36v-1.18ZM453.85,260.64h7.36v1.28h-7.36v-1.28ZM455.12,247.57h1.5v5.74h-1.5v-5.74Z"/>
        <path class="cls-3" d="M470.46,250.97l.99.59c-.27.44-.6.88-1,1.32-.4.44-.83.85-1.29,1.22-.46.37-.93.69-1.38.94-.08-.17-.2-.37-.35-.59s-.3-.41-.45-.54c.45-.18.89-.43,1.34-.74.44-.31.85-.66,1.23-1.04.38-.38.68-.77.92-1.17ZM467.09,256.01h7.97v1.25h-7.97v-1.25ZM472.37,256.82l1.41.16c-.15.8-.37,1.5-.66,2.1-.29.6-.67,1.11-1.15,1.54s-1.06.79-1.75,1.08c-.69.29-1.5.54-2.44.74-.04-.21-.12-.44-.25-.67-.12-.23-.25-.43-.39-.59,1.1-.17,2-.42,2.71-.76s1.26-.8,1.66-1.38.69-1.32.86-2.21ZM467.22,250.4h7.78v1.22h-7.78v-1.22ZM470.03,254.74l1.41.3c-.26.53-.53,1.09-.83,1.68-.3.59-.59,1.15-.88,1.7-.29.54-.56,1.03-.82,1.46l-1.33-.43c.25-.41.51-.88.81-1.42s.58-1.1.86-1.67c.28-.58.54-1.11.78-1.62ZM467.73,248.35l1.12-.46c.22.32.43.67.62,1.05.19.38.32.71.39.98l-1.17.53c-.06-.29-.19-.63-.37-1.02-.18-.39-.38-.75-.59-1.08ZM468.74,259.33l.82-1.04c.63.25,1.26.52,1.89.82s1.21.62,1.75.94c.54.33.99.63,1.37.92l-1.04,1.09c-.35-.3-.78-.61-1.3-.94-.51-.33-1.07-.65-1.66-.96-.6-.31-1.21-.59-1.82-.83ZM470.42,247.55h1.41v7.39h-1.41v-7.39ZM471.68,251.49c.14.07.34.19.62.36.27.17.57.34.88.53s.6.36.86.53c.26.17.45.29.55.38l-.82,1.06c-.14-.13-.33-.29-.58-.5-.25-.2-.51-.41-.79-.63-.28-.22-.55-.43-.82-.62s-.48-.35-.65-.47l.74-.62ZM473.42,247.82l1.3.53c-.25.36-.49.73-.74,1.09s-.48.68-.7.94l-1.01-.46c.2-.29.41-.63.63-1.03.22-.4.39-.75.52-1.06ZM479.52,251.33l1.54.14c-.25,1.83-.62,3.45-1.11,4.85s-1.17,2.6-2.03,3.61c-.86,1.01-1.96,1.85-3.3,2.54-.04-.12-.12-.26-.22-.44-.11-.18-.22-.35-.34-.52-.12-.17-.22-.3-.32-.4,1.24-.58,2.25-1.31,3.03-2.2s1.39-1.97,1.82-3.22c.43-1.26.74-2.71.94-4.35ZM476.46,247.55l1.54.22c-.17,1.07-.39,2.1-.66,3.09s-.59,1.91-.96,2.75c-.37.84-.8,1.58-1.28,2.22-.07-.1-.19-.21-.34-.34s-.3-.26-.46-.39-.3-.24-.42-.31c.46-.57.85-1.23,1.18-1.99.33-.76.61-1.59.85-2.49s.42-1.82.54-2.77ZM477.01,251.66c.22,1.42.55,2.75.97,3.99s.97,2.33,1.65,3.26c.68.93,1.51,1.66,2.5,2.18-.12.1-.24.22-.38.38-.14.15-.27.31-.38.47-.12.16-.22.31-.3.45-1.06-.62-1.94-1.44-2.64-2.47-.7-1.03-1.28-2.22-1.72-3.58-.44-1.36-.8-2.85-1.06-4.46l1.38-.22ZM476.18,250.49h5.78v1.39h-5.78v-1.39Z"/>
        <path class="cls-3" d="M340.7,280.99c0-1.09.13-2.1.41-3.02s.65-1.78,1.13-2.54,1.02-1.46,1.63-2.08l1.21.58c-.59.61-1.1,1.27-1.54,1.99-.44.72-.78,1.5-1.03,2.34-.25.84-.38,1.75-.38,2.74s.12,1.89.38,2.74c.25.84.59,1.62,1.03,2.34.44.71.95,1.38,1.54,2l-1.21.58c-.61-.62-1.15-1.31-1.63-2.08-.48-.77-.86-1.62-1.13-2.55-.27-.93-.41-1.94-.41-3.02Z"/>
        <path class="cls-3" d="M348.11,287.07v-1.07c1.16-1.03,2.13-1.98,2.91-2.84.78-.86,1.36-1.66,1.75-2.39.39-.74.58-1.42.58-2.06,0-.43-.07-.8-.22-1.13-.14-.33-.36-.58-.66-.75-.29-.18-.66-.26-1.11-.26s-.88.13-1.26.38c-.38.25-.74.56-1.06.92l-1.04-1.02c.5-.55,1.03-.99,1.59-1.3.56-.31,1.23-.46,2.01-.46.71,0,1.34.15,1.87.44.53.29.95.7,1.24,1.23.29.53.44,1.15.44,1.86,0,.76-.19,1.52-.56,2.3-.37.77-.89,1.55-1.54,2.34s-1.39,1.58-2.22,2.38c.31-.03.64-.06.98-.09.35-.03.66-.04.94-.04h2.96v1.58h-7.62Z"/>
        <path class="cls-3" d="M362.7,287.3c-.77,0-1.44-.23-2.02-.69-.58-.46-1.02-1.14-1.34-2.06-.32-.91-.47-2.05-.47-3.42s.16-2.5.47-3.39c.31-.9.76-1.56,1.34-2.01.58-.44,1.25-.66,2.02-.66s1.43.22,2,.67c.56.45,1,1.12,1.32,2.01.31.89.47,2.02.47,3.38s-.16,2.5-.47,3.42c-.32.91-.75,1.6-1.32,2.06-.57.46-1.23.69-2,.69ZM362.7,285.82c.39,0,.75-.15,1.05-.46.31-.31.55-.81.72-1.5.17-.69.26-1.6.26-2.73s-.09-2.03-.26-2.7c-.17-.67-.41-1.16-.72-1.46-.31-.3-.66-.45-1.05-.45s-.75.15-1.06.45c-.31.3-.55.78-.73,1.46-.18.67-.26,1.57-.26,2.7s.09,2.04.26,2.73.42,1.19.73,1.5c.31.31.66.46,1.06.46Z"/>
        <path class="cls-3" d="M369.55,287.07v-1.07c1.16-1.03,2.13-1.98,2.91-2.84.78-.86,1.36-1.66,1.75-2.39.39-.74.58-1.42.58-2.06,0-.43-.07-.8-.22-1.13-.14-.33-.36-.58-.66-.75-.29-.18-.66-.26-1.11-.26s-.88.13-1.26.38c-.38.25-.74.56-1.06.92l-1.04-1.02c.5-.55,1.03-.99,1.59-1.3.56-.31,1.23-.46,2.01-.46.71,0,1.34.15,1.87.44.53.29.95.7,1.24,1.23.29.53.44,1.15.44,1.86,0,.76-.19,1.52-.56,2.3-.37.77-.88,1.55-1.54,2.34s-1.39,1.58-2.22,2.38c.31-.03.64-.06.98-.09.35-.03.66-.04.94-.04h2.96v1.58h-7.62Z"/>
        <path class="cls-3" d="M384.99,287.07v-7.68c0-.32.01-.7.03-1.14.02-.44.04-.82.05-1.14h-.06c-.15.3-.3.6-.46.91-.15.31-.32.61-.49.91l-2.3,3.54h6.45v1.44h-8.32v-1.23l4.69-7.39h2.14v11.79h-1.73Z"/>
        <path class="cls-3" d="M392.75,283.38h14.61v1.47h-14.61v-1.47ZM396.29,273.5l1.54.4c-.3.78-.65,1.54-1.04,2.3s-.82,1.45-1.28,2.09c-.46.64-.94,1.2-1.44,1.68-.1-.09-.22-.19-.38-.32s-.31-.25-.48-.38c-.17-.12-.31-.22-.44-.28.5-.44.97-.95,1.41-1.53s.83-1.21,1.19-1.89c.36-.68.66-1.37.92-2.07ZM395.36,279.12h10.82v1.41h-9.31v3.6h-1.5v-5.01ZM396.29,275.42h10.26v1.46h-10.99l.74-1.46ZM400.11,276.18h1.55v12.24h-1.55v-12.24Z"/>
        <path class="cls-3" d="M414.75,280.99c0,1.08-.14,2.08-.41,3.02-.27.93-.65,1.78-1.13,2.55-.48.77-1.02,1.46-1.63,2.08l-1.22-.58c.59-.62,1.1-1.29,1.54-2,.44-.71.78-1.49,1.03-2.34.25-.84.38-1.75.38-2.74s-.12-1.91-.38-2.74c-.25-.84-.6-1.62-1.03-2.34-.44-.72-.95-1.38-1.54-1.99l1.22-.58c.61.62,1.15,1.31,1.63,2.08s.86,1.62,1.13,2.54.41,1.94.41,3.02Z"/>
      </g>
      <g>
        <path class="cls-3" d="M566.16,248.59h10.78v13.58h-1.63v-12.05h-7.6v12.11h-1.55v-13.65ZM567.18,259.66h8.83v1.52h-8.83v-1.52ZM567.2,254.06h8.8v1.5h-8.8v-1.5Z"/>
        <path class="cls-3" d="M587.81,251.36l1.38.45c-.46,1.14-1.03,2.23-1.7,3.26-.68,1.03-1.43,1.97-2.26,2.8-.83.83-1.7,1.53-2.63,2.1-.08-.13-.18-.27-.31-.42s-.27-.31-.4-.46c-.13-.15-.26-.27-.38-.37.66-.36,1.3-.81,1.93-1.33.62-.52,1.21-1.11,1.77-1.75.55-.65,1.05-1.33,1.5-2.06.44-.73.81-1.47,1.11-2.22ZM582.08,250.82h14.05v1.55h-14.05v-1.55ZM585.31,258.01h7.46v1.54h-7.46v-1.54ZM588.27,247.57h1.6v14.85h-1.6v-14.85ZM590.35,251.41c.42.98.95,1.93,1.59,2.86.65.92,1.38,1.76,2.2,2.5.82.75,1.68,1.35,2.59,1.81-.12.11-.25.24-.4.39-.15.15-.29.32-.42.49-.13.17-.24.33-.33.46-.94-.54-1.82-1.23-2.65-2.06-.83-.83-1.57-1.75-2.24-2.78-.67-1.02-1.23-2.1-1.7-3.23l1.36-.45Z"/>
        <path class="cls-3" d="M599.89,250.35c.31-.01.59-.02.86-.04.26-.02.47-.03.63-.04.29-.03.67-.07,1.16-.12s1.04-.1,1.66-.15c.62-.05,1.28-.11,1.98-.18s1.42-.13,2.16-.19c.57-.04,1.12-.08,1.66-.12.54-.04,1.04-.07,1.51-.1.47-.03.89-.05,1.25-.06v1.62c-.3-.01-.64-.01-1.02,0-.38.01-.75.03-1.12.06-.37.03-.7.09-.98.16-.52.16-1,.41-1.44.75-.44.34-.81.74-1.13,1.18-.31.45-.55.92-.72,1.42-.17.5-.25.99-.25,1.46,0,.59.1,1.1.3,1.53.2.43.47.8.82,1.1.35.3.76.55,1.22.75.46.2.95.34,1.46.44.52.1,1.04.15,1.56.18l-.58,1.71c-.63-.03-1.25-.13-1.87-.28-.62-.15-1.2-.37-1.74-.66-.54-.28-1.03-.64-1.45-1.06-.42-.43-.75-.92-.99-1.47-.24-.55-.36-1.18-.36-1.89,0-.81.14-1.56.41-2.24.27-.68.62-1.28,1.03-1.78.42-.51.84-.9,1.28-1.18-.32.03-.71.07-1.18.12-.47.05-.97.1-1.51.17-.54.06-1.08.13-1.62.2s-1.06.14-1.54.22c-.49.07-.91.15-1.27.22l-.16-1.74ZM610.45,252.75c.13.18.27.4.43.66.16.26.32.53.48.8s.29.52.4.74l-.99.45c-.19-.41-.39-.79-.6-1.17-.21-.37-.43-.73-.68-1.07l.96-.42ZM612.22,252.06c.13.18.28.4.45.65s.34.51.5.78c.16.27.3.52.42.75l-.98.46c-.21-.41-.43-.79-.64-1.14-.21-.36-.45-.71-.7-1.06l.96-.43Z"/>
        <path class="cls-3" d="M619.58,247.65l1.36.37c-.28.92-.61,1.83-.98,2.74-.38.91-.79,1.78-1.24,2.6-.45.82-.93,1.54-1.44,2.16-.03-.12-.09-.28-.17-.48-.08-.2-.17-.4-.26-.61-.1-.2-.19-.37-.27-.5.42-.52.81-1.12,1.18-1.8.37-.68.71-1.4,1.02-2.17.31-.77.58-1.54.8-2.32ZM618.48,251.76l1.34-1.34v12.03h-1.34v-10.69ZM620.43,260.69c.53-.03,1.14-.08,1.82-.14.68-.06,1.41-.13,2.18-.2s1.54-.14,2.32-.2l.02,1.1c-1.09.14-2.17.27-3.24.39-1.07.12-2.03.23-2.89.31l-.21-1.26ZM626.01,248.05l.78,1.09c-.54.12-1.15.23-1.82.33s-1.35.18-2.05.25-1.37.11-2.01.14c-.02-.15-.07-.33-.14-.53-.08-.2-.14-.37-.21-.51.63-.06,1.28-.13,1.94-.21s1.3-.16,1.91-.26c.61-.1,1.14-.2,1.59-.3ZM620.65,250.51h6.18v1.12h-6.18v-1.12ZM620.81,258.16h5.92v1.12h-5.92v-1.12ZM620.85,252.51h5.84v4.74h-5.84v-4.74ZM621.87,253.47v.94h3.76v-.94h-3.76ZM621.87,255.31v.96h3.76v-.96h-3.76ZM623.18,252.86h1.06v4h.13v3.95h-1.3v-3.95h.11v-4ZM623.09,248.91h1.28v4.16h-1.28v-4.16ZM627.79,247.63h1.29v5.34c0,.77-.03,1.57-.09,2.41s-.17,1.68-.34,2.52c-.17.84-.42,1.65-.75,2.43-.34.78-.79,1.5-1.35,2.16-.09-.09-.19-.18-.32-.28-.13-.1-.26-.2-.39-.3-.13-.1-.26-.17-.38-.22.52-.62.94-1.29,1.25-2.02.31-.73.54-1.47.7-2.25.15-.77.26-1.54.3-2.3.05-.76.07-1.48.07-2.16v-5.34ZM626.77,251.25h4v1.33h-4v-1.33ZM630.29,251.25h1.29c0,.17,0,.31,0,.42,0,.11,0,.19,0,.24-.03,1.71-.07,3.14-.1,4.31-.04,1.17-.08,2.12-.13,2.86-.05.74-.11,1.31-.18,1.71-.07.4-.16.69-.28.86-.14.21-.28.36-.43.45s-.34.15-.56.19c-.19.02-.43.03-.71.04-.28,0-.58,0-.89,0-.01-.2-.05-.43-.1-.68-.06-.25-.14-.47-.25-.65.29.01.55.02.78.03.23.01.41.02.54.02.11,0,.2-.02.27-.05.07-.03.14-.1.21-.21.07-.13.14-.37.2-.74s.11-.9.15-1.6.08-1.62.11-2.74c.03-1.12.06-2.5.1-4.14v-.32Z"/>
        <path class="cls-3" d="M645.36,249.39c-.2.15-.42.32-.65.5-.23.19-.42.35-.58.49-.27.22-.59.49-.98.8-.38.31-.79.63-1.21.98-.42.34-.83.67-1.22.98-.39.31-.73.6-1.01.84-.3.26-.5.47-.61.64-.11.17-.1.34,0,.5.11.17.32.39.63.66.28.22.61.49.98.8.38.31.78.64,1.22,1,.43.36.87.73,1.32,1.11.45.38.88.76,1.3,1.14s.79.73,1.12,1.06l-1.46,1.33c-.38-.44-.79-.87-1.22-1.3-.27-.28-.6-.6-1.01-.98-.4-.37-.84-.76-1.3-1.17-.46-.41-.93-.8-1.38-1.19-.46-.39-.88-.74-1.25-1.05-.51-.44-.84-.83-.99-1.17-.15-.34-.12-.68.07-1.02.2-.34.55-.72,1.05-1.14.31-.26.67-.55,1.09-.89s.84-.69,1.29-1.06c.44-.37.86-.73,1.26-1.08.4-.35.73-.65,1-.92.19-.19.39-.4.59-.62.2-.22.35-.41.45-.58l1.49,1.33Z"/>
        <path class="cls-3" d="M655.65,247.55l1.52.3c-.28,1.06-.62,2.07-1.03,3.04s-.87,1.86-1.38,2.68-1.06,1.53-1.66,2.14c-.09-.09-.21-.19-.36-.31-.15-.12-.31-.25-.48-.37s-.31-.22-.44-.3c.6-.54,1.14-1.19,1.63-1.94.49-.75.92-1.57,1.29-2.46.37-.9.67-1.82.9-2.78ZM658.89,249.97h.27l.27-.06.99.34c-.31,2.08-.79,3.9-1.46,5.47-.66,1.57-1.46,2.9-2.4,3.98-.94,1.09-1.98,1.96-3.12,2.62-.09-.12-.2-.25-.34-.4-.14-.15-.29-.29-.45-.42-.15-.13-.29-.24-.42-.31,1.14-.61,2.16-1.41,3.06-2.39.9-.99,1.66-2.18,2.27-3.59.61-1.41,1.05-3.04,1.32-4.9v-.34ZM653.55,254.3l.78-1.12c.43.23.87.5,1.34.8s.9.6,1.31.91c.41.31.74.6.98.86l-.83,1.26c-.23-.27-.55-.57-.95-.9-.4-.33-.83-.66-1.3-.98-.46-.32-.91-.6-1.34-.85ZM655.31,249.97h4v1.42h-4v-1.42ZM660.8,251.39c.33.62.73,1.22,1.21,1.82.47.59,1,1.15,1.57,1.68.57.53,1.17,1.01,1.8,1.44.63.43,1.27.79,1.92,1.08-.12.1-.25.22-.38.38-.14.15-.27.31-.39.47s-.23.31-.31.45c-.66-.34-1.31-.76-1.95-1.25-.64-.49-1.25-1.03-1.82-1.62-.58-.59-1.11-1.22-1.6-1.9-.49-.67-.92-1.36-1.29-2.06l1.26-.48ZM662.16,247.58h1.57v14.8h-1.57v-14.8Z"/>
        <path class="cls-3" d="M670.4,248.26h13.36v14.16h-1.6v-12.77h-10.22v12.77h-1.54v-14.16ZM671.23,260.21h11.66v1.41h-11.66v-1.41ZM672.8,257.73h8.59v1.25h-8.59v-1.25ZM673.01,250.78h8.08v1.34h-8.08v-1.34ZM673.44,254.06h7.28v1.3h-7.28v-1.3ZM676.29,251.22h1.42v7.18h-1.42v-7.18ZM678.49,256l.96-.53c.28.25.56.53.85.84.29.31.51.59.66.84l-1.02.59c-.15-.25-.36-.53-.64-.86s-.54-.62-.8-.88Z"/>
        <path class="cls-3" d="M693.63,248h1.71c-.02.44-.06,1-.11,1.7-.05.69-.15,1.47-.3,2.33-.14.86-.36,1.75-.65,2.68-.29.93-.68,1.85-1.18,2.78-.5.92-1.14,1.8-1.9,2.62-.77.83-1.7,1.55-2.8,2.18-.14-.2-.32-.41-.54-.62s-.46-.41-.72-.58c1.09-.58,2-1.25,2.74-2.01.74-.76,1.34-1.57,1.81-2.43.47-.86.83-1.72,1.1-2.59.26-.87.45-1.7.57-2.49s.19-1.49.22-2.11c.03-.62.05-1.1.06-1.46ZM695.28,248.37c.01.19.03.51.07.95.04.44.11.97.21,1.59.1.62.25,1.29.46,2.02.2.73.47,1.47.8,2.23.33.76.75,1.51,1.25,2.24.5.73,1.1,1.4,1.8,2.02s1.52,1.14,2.47,1.58c-.23.18-.46.39-.66.62-.21.23-.38.45-.5.66-.97-.47-1.82-1.04-2.55-1.71-.73-.67-1.35-1.4-1.87-2.19-.52-.79-.95-1.59-1.3-2.42-.35-.82-.62-1.63-.83-2.42-.21-.79-.37-1.52-.47-2.2-.11-.68-.18-1.26-.22-1.75s-.07-.85-.1-1.07l1.46-.14Z"/>
        <path class="cls-3" d="M710.94,252.82h1.65c-.04,1-.11,1.93-.21,2.78-.1.85-.28,1.63-.53,2.34s-.61,1.35-1.09,1.91c-.48.57-1.1,1.06-1.88,1.5-.78.43-1.75.79-2.93,1.08-.05-.14-.13-.29-.22-.46-.1-.17-.21-.34-.33-.5-.12-.17-.24-.3-.34-.41,1.09-.25,1.98-.54,2.69-.9.71-.35,1.26-.77,1.68-1.25s.73-1.02.94-1.62c.21-.6.35-1.28.43-2.02.08-.75.13-1.56.15-2.45ZM705.53,250.93h13.6v3.55h-1.54v-2.14h-10.61v2.14h-1.46v-3.55ZM706.41,248.46l1.3-.61c.23.25.46.52.68.82s.42.6.61.9c.19.3.33.57.42.82l-1.39.67c-.09-.23-.21-.5-.38-.81-.17-.3-.36-.61-.58-.93-.21-.31-.43-.6-.66-.86ZM706.41,255.04h10.45v1.42h-10.45v-1.42ZM710.65,248.03l1.33-.45c.28.43.54.89.78,1.39.25.5.41.94.5,1.31l-1.42.5c-.05-.25-.14-.53-.26-.85-.12-.32-.26-.65-.42-.98s-.33-.64-.5-.93ZM716.35,255.04h1.54c0,.16,0,.29,0,.4,0,.11-.01.19-.02.26-.05,1.32-.12,2.4-.21,3.22s-.19,1.47-.3,1.92c-.12.45-.27.78-.45.97-.17.21-.37.36-.58.44-.22.08-.48.14-.78.17-.28.02-.65.03-1.12.03s-.96-.02-1.47-.05c-.02-.22-.08-.48-.18-.75-.1-.28-.21-.52-.35-.74.52.04,1.02.07,1.49.09.47.02.8.02.99.02.16,0,.29-.01.4-.04s.21-.08.3-.15c.13-.12.24-.38.33-.78.09-.4.17-.99.24-1.76.07-.77.13-1.78.18-3.02v-.24ZM716.78,247.7l1.66.51c-.36.55-.75,1.11-1.17,1.66-.42.56-.79,1.02-1.14,1.41l-1.28-.5c.22-.28.46-.6.7-.96.24-.36.47-.73.68-1.1.21-.37.39-.71.54-1.02Z"/>
        <path class="cls-3" d="M725.18,247.65l1.36.37c-.28.92-.61,1.83-.98,2.74s-.79,1.78-1.24,2.6c-.45.82-.93,1.54-1.44,2.16-.03-.12-.09-.28-.17-.48-.08-.2-.17-.4-.26-.61-.1-.2-.19-.37-.27-.5.42-.52.81-1.12,1.18-1.8.37-.68.71-1.4,1.02-2.17.31-.77.58-1.54.8-2.32ZM724.08,251.76l1.34-1.34v12.03h-1.34v-10.69ZM726.03,260.69c.53-.03,1.14-.08,1.82-.14s1.41-.13,2.18-.2c.77-.07,1.54-.14,2.32-.2l.02,1.1c-1.09.14-2.17.27-3.24.39s-2.04.23-2.89.31l-.21-1.26ZM731.61,248.05l.78,1.09c-.54.12-1.15.23-1.82.33-.67.1-1.35.18-2.05.25-.7.06-1.37.11-2.01.14-.02-.15-.07-.33-.14-.53-.07-.2-.14-.37-.21-.51.63-.06,1.27-.13,1.94-.21.66-.07,1.3-.16,1.91-.26.61-.1,1.14-.2,1.59-.3ZM726.25,250.51h6.18v1.12h-6.18v-1.12ZM726.41,258.16h5.92v1.12h-5.92v-1.12ZM726.45,252.51h5.84v4.74h-5.84v-4.74ZM727.47,253.47v.94h3.76v-.94h-3.76ZM727.47,255.31v.96h3.76v-.96h-3.76ZM728.78,252.86h1.06v4h.13v3.95h-1.3v-3.95h.11v-4ZM728.69,248.91h1.28v4.16h-1.28v-4.16ZM733.39,247.63h1.3v5.34c0,.77-.03,1.57-.09,2.41s-.17,1.68-.34,2.52-.42,1.65-.75,2.43c-.34.78-.79,1.5-1.35,2.16-.08-.09-.19-.18-.32-.28-.13-.1-.26-.2-.39-.3-.13-.1-.26-.17-.38-.22.52-.62.94-1.29,1.25-2.02.31-.73.54-1.47.7-2.25.15-.77.26-1.54.3-2.3.05-.76.07-1.48.07-2.16v-5.34ZM732.37,251.25h4v1.33h-4v-1.33ZM735.89,251.25h1.3c0,.17,0,.31,0,.42,0,.11,0,.19,0,.24-.03,1.71-.07,3.14-.1,4.31s-.08,2.12-.13,2.86c-.05.74-.11,1.31-.18,1.71-.07.4-.16.69-.28.86-.14.21-.28.36-.43.45-.15.09-.34.15-.56.19-.19.02-.43.03-.71.04s-.58,0-.89,0c-.01-.2-.04-.43-.1-.68-.06-.25-.14-.47-.25-.65.29.01.55.02.78.03s.41.02.54.02c.11,0,.2-.02.27-.05.07-.03.14-.1.21-.21.07-.13.14-.37.2-.74s.11-.9.15-1.6c.04-.7.08-1.62.11-2.74.03-1.12.06-2.5.1-4.14v-.32Z"/>
        <path class="cls-3" d="M752.7,248.08l1.29.69c-1.04,1.42-2.27,2.72-3.66,3.9-1.4,1.18-2.9,2.22-4.51,3.14-1.61.91-3.27,1.69-4.98,2.34-.06-.12-.15-.25-.26-.41s-.23-.31-.35-.46-.23-.28-.33-.38c1.73-.59,3.39-1.31,4.98-2.18,1.59-.86,3.05-1.86,4.38-2.98s2.48-2.34,3.44-3.66ZM740.32,252.57h14.34v1.34h-14.34v-1.34ZM741.73,249.45h9.22v1.33h-9.22v-1.33ZM743.58,255.44h9.15v6.93h-1.57v-5.66h-6.08v5.73h-1.5v-6.99ZM744.41,258.03h7.36v1.18h-7.36v-1.18ZM744.41,260.64h7.36v1.28h-7.36v-1.28ZM745.68,247.57h1.5v5.74h-1.5v-5.74Z"/>
        <path class="cls-3" d="M761.02,250.97l.99.59c-.27.44-.6.88-1,1.32-.4.44-.83.85-1.29,1.22-.46.37-.93.69-1.38.94-.08-.17-.2-.37-.35-.59s-.3-.41-.45-.54c.45-.18.89-.43,1.34-.74.44-.31.85-.66,1.23-1.04.38-.38.68-.77.92-1.17ZM757.65,256.01h7.97v1.25h-7.97v-1.25ZM762.93,256.82l1.41.16c-.15.8-.37,1.5-.66,2.1-.29.6-.67,1.11-1.15,1.54s-1.06.79-1.75,1.08c-.69.29-1.5.54-2.44.74-.04-.21-.12-.44-.25-.67-.12-.23-.25-.43-.39-.59,1.1-.17,2-.42,2.71-.76s1.26-.8,1.66-1.38.69-1.32.86-2.21ZM757.77,250.4h7.78v1.22h-7.78v-1.22ZM760.59,254.74l1.41.3c-.26.53-.53,1.09-.83,1.68-.3.59-.59,1.15-.88,1.7-.29.54-.56,1.03-.82,1.46l-1.33-.43c.25-.41.51-.88.81-1.42s.58-1.1.86-1.67c.28-.58.54-1.11.78-1.62ZM758.29,248.35l1.12-.46c.22.32.43.67.62,1.05.19.38.32.71.39.98l-1.17.53c-.06-.29-.19-.63-.37-1.02-.18-.39-.38-.75-.59-1.08ZM759.29,259.33l.82-1.04c.63.25,1.26.52,1.89.82s1.21.62,1.75.94c.54.33.99.63,1.37.92l-1.04,1.09c-.35-.3-.78-.61-1.3-.94-.51-.33-1.07-.65-1.66-.96-.6-.31-1.21-.59-1.82-.83ZM760.97,247.55h1.41v7.39h-1.41v-7.39ZM762.24,251.49c.14.07.34.19.62.36.27.17.57.34.88.53s.6.36.86.53c.26.17.45.29.55.38l-.82,1.06c-.14-.13-.33-.29-.58-.5-.25-.2-.51-.41-.79-.63-.28-.22-.55-.43-.82-.62s-.48-.35-.65-.47l.74-.62ZM763.98,247.82l1.3.53c-.25.36-.49.73-.74,1.09s-.48.68-.7.94l-1.01-.46c.2-.29.41-.63.63-1.03.22-.4.39-.75.52-1.06ZM770.08,251.33l1.54.14c-.25,1.83-.62,3.45-1.11,4.85s-1.17,2.6-2.03,3.61c-.86,1.01-1.96,1.85-3.3,2.54-.04-.12-.12-.26-.22-.44-.11-.18-.22-.35-.34-.52-.12-.17-.22-.3-.32-.4,1.24-.58,2.25-1.31,3.03-2.2s1.39-1.97,1.82-3.22c.43-1.26.74-2.71.94-4.35ZM767.02,247.55l1.54.22c-.17,1.07-.39,2.1-.66,3.09s-.59,1.91-.96,2.75c-.37.84-.8,1.58-1.28,2.22-.07-.1-.19-.21-.34-.34s-.3-.26-.46-.39-.3-.24-.42-.31c.46-.57.85-1.23,1.18-1.99.33-.76.61-1.59.85-2.49s.42-1.82.54-2.77ZM767.57,251.66c.22,1.42.55,2.75.97,3.99s.97,2.33,1.65,3.26c.68.93,1.51,1.66,2.5,2.18-.12.1-.24.22-.38.38-.14.15-.27.31-.38.47-.12.16-.22.31-.3.45-1.06-.62-1.94-1.44-2.64-2.47-.7-1.03-1.28-2.22-1.72-3.58-.44-1.36-.8-2.85-1.06-4.46l1.38-.22ZM766.73,250.49h5.78v1.39h-5.78v-1.39Z"/>
        <path class="cls-3" d="M632.06,280.99c0-1.09.14-2.1.41-3.02.27-.93.65-1.78,1.13-2.54s1.02-1.46,1.63-2.08l1.22.58c-.59.61-1.1,1.27-1.54,1.99-.44.72-.78,1.5-1.03,2.34-.25.84-.38,1.75-.38,2.74s.12,1.89.38,2.74c.25.84.59,1.62,1.03,2.34.44.71.95,1.38,1.54,2l-1.22.58c-.61-.62-1.15-1.31-1.63-2.08-.48-.77-.86-1.62-1.13-2.55-.27-.93-.41-1.94-.41-3.02Z"/>
        <path class="cls-3" d="M639.47,287.07v-1.07c1.16-1.03,2.13-1.98,2.91-2.84.78-.86,1.36-1.66,1.75-2.39.39-.74.58-1.42.58-2.06,0-.43-.07-.8-.22-1.13-.14-.33-.36-.58-.66-.75-.29-.18-.66-.26-1.11-.26s-.88.13-1.26.38c-.38.25-.74.56-1.06.92l-1.04-1.02c.5-.55,1.03-.99,1.59-1.3.56-.31,1.23-.46,2.01-.46.71,0,1.34.15,1.87.44.53.29.95.7,1.24,1.23.29.53.44,1.15.44,1.86,0,.76-.19,1.52-.56,2.3-.37.77-.88,1.55-1.54,2.34s-1.39,1.58-2.22,2.38c.31-.03.64-.06.98-.09.35-.03.66-.04.94-.04h2.96v1.58h-7.62Z"/>
        <path class="cls-3" d="M654.06,287.3c-.77,0-1.44-.23-2.02-.69s-1.02-1.14-1.34-2.06-.47-2.05-.47-3.42.16-2.5.47-3.39.76-1.56,1.34-2.01c.58-.44,1.25-.66,2.02-.66s1.43.22,2,.67c.57.45,1,1.12,1.32,2.01s.47,2.02.47,3.38-.16,2.5-.47,3.42-.75,1.6-1.32,2.06-1.23.69-2,.69ZM654.06,285.82c.39,0,.75-.15,1.06-.46s.55-.81.72-1.5c.17-.69.26-1.6.26-2.73s-.09-2.03-.26-2.7c-.17-.67-.41-1.16-.72-1.46-.31-.3-.66-.45-1.06-.45s-.75.15-1.06.45c-.31.3-.55.78-.73,1.46-.18.67-.26,1.57-.26,2.7s.09,2.04.26,2.73.42,1.19.73,1.5c.31.31.66.46,1.06.46Z"/>
        <path class="cls-3" d="M665.63,287.07v-7.68c0-.32,0-.7.03-1.14.02-.44.04-.82.05-1.14h-.06c-.15.3-.3.6-.46.91-.16.31-.32.61-.49.91l-2.3,3.54h6.45v1.44h-8.32v-1.23l4.69-7.39h2.14v11.79h-1.73Z"/>
        <path class="cls-3" d="M675.5,287.3c-.77,0-1.44-.23-2.02-.69s-1.02-1.14-1.34-2.06-.47-2.05-.47-3.42.16-2.5.47-3.39.76-1.56,1.34-2.01c.58-.44,1.25-.66,2.02-.66s1.43.22,2,.67c.57.45,1.01,1.12,1.32,2.01s.47,2.02.47,3.38-.16,2.5-.47,3.42-.75,1.6-1.32,2.06-1.23.69-2,.69ZM675.5,285.82c.39,0,.75-.15,1.06-.46.31-.31.55-.81.72-1.5s.26-1.6.26-2.73-.08-2.03-.26-2.7c-.17-.67-.41-1.16-.72-1.46-.31-.3-.66-.45-1.06-.45s-.75.15-1.06.45c-.31.3-.55.78-.73,1.46-.18.67-.26,1.57-.26,2.7s.09,2.04.26,2.73.42,1.19.73,1.5.66.46,1.06.46Z"/>
        <path class="cls-3" d="M682.51,283.38h14.61v1.47h-14.61v-1.47ZM686.05,273.5l1.54.4c-.3.78-.65,1.54-1.04,2.3s-.82,1.45-1.28,2.09c-.46.64-.94,1.2-1.44,1.68-.1-.09-.22-.19-.38-.32-.16-.13-.32-.25-.48-.38-.17-.12-.31-.22-.44-.28.5-.44.97-.95,1.41-1.53s.83-1.21,1.19-1.89c.36-.68.66-1.37.92-2.07ZM685.12,279.12h10.82v1.41h-9.31v3.6h-1.5v-5.01ZM686.05,275.42h10.26v1.46h-10.99l.74-1.46ZM689.87,276.18h1.55v12.24h-1.55v-12.24Z"/>
        <path class="cls-3" d="M704.51,280.99c0,1.08-.14,2.08-.41,3.02-.27.93-.65,1.78-1.13,2.55-.48.77-1.02,1.46-1.63,2.08l-1.22-.58c.59-.62,1.1-1.29,1.54-2,.44-.71.78-1.49,1.03-2.34.25-.84.38-1.75.38-2.74s-.13-1.91-.38-2.74c-.25-.84-.59-1.62-1.03-2.34-.44-.72-.95-1.38-1.54-1.99l1.22-.58c.61.62,1.15,1.31,1.63,2.08s.86,1.62,1.13,2.54.41,1.94.41,3.02Z"/>
      </g>
      <g>
        <path class="cls-3" d="M239.85,344.47l4.62-4.62.41.41-4.62,4.62,4.62,4.62-.41.41-4.62-4.62-4.63,4.63-.41-.41,4.63-4.63-4.62-4.62.41-.41,4.62,4.62ZM236.91,344.87c0,.29-.1.54-.31.74-.21.21-.45.31-.74.31s-.54-.1-.74-.31c-.21-.21-.31-.45-.31-.74s.1-.54.31-.74c.21-.21.45-.31.74-.31s.54.1.74.31c.21.21.31.45.31.74ZM239.85,341.93c-.29,0-.54-.1-.74-.31-.21-.21-.31-.45-.31-.74s.1-.54.31-.74c.21-.21.45-.31.74-.31s.54.1.74.31c.21.21.31.45.31.74s-.1.54-.31.74-.45.31-.74.31ZM239.85,347.81c.29,0,.54.1.74.31.21.21.31.45.31.74s-.1.54-.31.74-.45.31-.74.31-.54-.1-.74-.31c-.21-.21-.31-.45-.31-.74s.1-.54.31-.74c.21-.21.45-.31.74-.31ZM242.79,344.87c0-.29.1-.54.31-.74.21-.21.45-.31.74-.31s.54.1.74.31c.21.21.31.45.31.74s-.1.54-.31.74c-.21.21-.45.31-.74.31s-.54-.1-.74-.31c-.21-.21-.31-.45-.31-.74Z"/>
        <path class="cls-3" d="M251.65,350.39c-.69,0-1.28-.14-1.77-.43-.49-.29-.89-.72-1.21-1.29l1.13-.83c.22.39.48.68.76.85s.58.27.91.27c.52,0,.91-.16,1.16-.47.25-.31.38-.85.38-1.6v-7.01h1.64v7.15c0,.62-.1,1.18-.31,1.69-.21.51-.53.92-.96,1.22-.44.3-1.01.45-1.72.45Z"/>
        <path class="cls-3" d="M258.69,350.19v-10.32h1.62v10.32h-1.62Z"/>
        <path class="cls-3" d="M268.44,350.39c-.64,0-1.24-.12-1.8-.36-.55-.24-1.04-.59-1.46-1.04-.42-.46-.75-1.02-.98-1.67-.23-.66-.35-1.41-.35-2.26s.12-1.59.36-2.25c.24-.66.57-1.23.99-1.69s.92-.81,1.48-1.06c.57-.24,1.18-.36,1.83-.36s1.2.13,1.69.39c.5.26.9.56,1.22.91l-.87,1.04c-.27-.27-.57-.49-.9-.67-.33-.17-.7-.26-1.11-.26-.6,0-1.12.16-1.58.48-.45.32-.81.77-1.06,1.34-.26.58-.38,1.27-.38,2.09s.12,1.51.36,2.11c.24.59.59,1.05,1.04,1.37.45.32.98.48,1.58.48.47,0,.88-.1,1.25-.3.37-.2.71-.47,1.01-.8l.88,1.04c-.42.49-.89.86-1.42,1.11-.53.26-1.13.38-1.8.38Z"/>
        <path class="cls-3" d="M273.51,350.19l3.42-10.32h1.88l3.42,10.32h-1.72l-1.67-5.6c-.17-.56-.33-1.13-.49-1.7-.16-.57-.32-1.15-.48-1.73h-.06c-.15.59-.31,1.17-.47,1.74s-.33,1.13-.5,1.69l-1.67,5.6h-1.67ZM275.44,347.27v-1.29h4.82v1.29h-4.82Z"/>
        <path class="cls-3" d="M288.25,346.48l1.12.2c-.08.66-.21,1.32-.37,1.96s-.35,1.19-.57,1.64c-.07-.05-.17-.1-.29-.17s-.25-.13-.38-.19-.25-.1-.34-.13c.22-.43.4-.94.54-1.53.13-.59.24-1.18.3-1.78ZM287.53,344.61c.62-.02,1.37-.05,2.23-.08.86-.04,1.74-.08,2.64-.13v1.08c-.86.06-1.7.11-2.53.16-.83.05-1.57.1-2.23.15l-.11-1.18ZM287.58,341.48l.64-.88c.26.21.52.45.78.71s.5.51.72.77c.22.26.39.49.51.71l-.7,1.01c-.12-.21-.29-.46-.5-.73-.21-.28-.45-.55-.7-.83s-.5-.52-.76-.75ZM291.34,340l1.09.5c-.32.53-.67,1.09-1.06,1.68-.39.59-.79,1.15-1.18,1.7-.4.55-.77,1.02-1.13,1.44l-.8-.43c.26-.32.53-.68.82-1.08.28-.41.56-.83.84-1.27.28-.44.53-.88.78-1.32.24-.44.46-.84.64-1.22ZM289.76,338.38l1.15.45c-.18.35-.37.71-.57,1.08-.2.38-.4.74-.6,1.08-.2.34-.39.64-.57.9l-.9-.39c.18-.28.36-.6.54-.97.18-.36.36-.73.53-1.11s.31-.73.42-1.04ZM289.79,345.15h1.16v6.24h-1.16v-6.24ZM290.88,343.29l.91-.36c.19.31.37.64.54.99.17.35.32.7.46,1.03.13.33.23.63.29.9l-.97.43c-.06-.27-.15-.58-.27-.92-.13-.35-.27-.7-.43-1.06-.16-.36-.34-.7-.53-1.01ZM291.22,346.68l.95-.31c.19.4.36.84.53,1.32.16.48.29.89.37,1.23l-1.01.36c-.07-.35-.18-.78-.34-1.27-.16-.49-.33-.94-.5-1.34ZM294.46,345.38h1.26c-.04.76-.1,1.44-.19,2.06-.09.62-.24,1.18-.45,1.68-.21.5-.51.94-.9,1.32-.39.38-.9.7-1.53.97-.07-.15-.17-.32-.32-.52-.15-.2-.29-.35-.43-.46.54-.22.98-.49,1.31-.8s.58-.67.76-1.08c.17-.41.29-.88.36-1.41.06-.53.11-1.12.14-1.77ZM292.73,340.13h7.69v1.19h-7.69v-1.19ZM292.78,343.71c.55-.03,1.18-.06,1.88-.1.7-.04,1.45-.09,2.23-.15.78-.06,1.57-.11,2.35-.15v1.15c-.76.06-1.51.11-2.28.17-.76.06-1.49.11-2.18.16-.7.05-1.33.1-1.9.15l-.11-1.22ZM294.97,340.9l1.39.39c-.15.35-.31.72-.48,1.1-.17.38-.33.74-.5,1.08-.16.34-.32.64-.47.9l-1.11-.36c.14-.28.28-.6.43-.96s.28-.73.41-1.11c.13-.38.24-.73.32-1.04ZM295.77,338.38h1.36v2.28h-1.36v-2.28ZM297.04,345.36h1.26v4.31c0,.2.02.32.05.36.03.05.11.07.23.07h.76c.08,0,.15-.04.2-.13.05-.08.08-.25.1-.5s.03-.63.04-1.13c.08.08.19.15.33.21.13.07.27.12.41.18.14.05.27.09.38.12-.03.64-.09,1.14-.18,1.49-.09.35-.23.6-.41.73-.18.14-.43.21-.74.21h-1.09c-.35,0-.63-.05-.82-.15-.19-.1-.32-.26-.4-.5-.08-.23-.11-.55-.11-.95v-4.33ZM297.43,342.24l1.02-.55c.28.32.56.67.85,1.06.29.39.55.77.79,1.14.24.37.42.71.55,1.01l-1.11.62c-.12-.3-.3-.64-.52-1.02-.23-.38-.48-.77-.76-1.16-.28-.4-.55-.76-.83-1.1Z"/>
        <path class="cls-3" d="M303,340.7h5.64v1.06h-5.64v-1.06ZM303.65,346.44h1.16v4.76h-1.16v-4.76ZM303.68,342.63h4.44v1.02h-4.44v-1.02ZM303.68,344.52h4.44v1.02h-4.44v-1.02ZM303.75,338.84h4.38v1.04h-4.38v-1.04ZM304.28,346.44h3.79v4.16h-3.79v-1.06h2.62v-2.03h-2.62v-1.06ZM308.62,343.14h7.55v1.3h-7.55v-1.3ZM311.75,338.42h1.34v12.95h-1.34v-12.95Z"/>
        <path class="cls-3" d="M318.49,342.24c.51-.11,1.12-.26,1.83-.44.71-.18,1.43-.37,2.16-.55l.14,1.05c-.62.2-1.25.39-1.88.58s-1.21.37-1.73.52l-.52-1.16ZM322.7,349.1l1.22.56c-.38.22-.82.45-1.32.67-.5.22-1.01.43-1.53.61s-1.03.34-1.5.48c-.07-.09-.16-.2-.27-.33-.12-.13-.24-.25-.36-.37-.12-.12-.24-.22-.34-.29.49-.09.98-.21,1.49-.34s.99-.29,1.45-.46.85-.35,1.18-.53ZM319.16,339.54l.59-.9c.32.07.66.17,1.03.29.37.12.72.25,1.06.38.34.13.63.26.86.38l-.6,1.01c-.21-.12-.49-.25-.83-.39-.34-.14-.7-.28-1.06-.41s-.72-.25-1.04-.36ZM320.39,343.39h9.24v5.68h-9.24v-5.68ZM321.66,344.23v.78h6.64v-.78h-6.64ZM321.66,345.82v.8h6.64v-.8h-6.64ZM321.66,347.42v.81h6.64v-.81h-6.64ZM324.69,338.38l1.19.18c-.25.53-.56,1.05-.93,1.55-.37.5-.82.97-1.35,1.39-.12-.12-.28-.24-.48-.36-.2-.12-.37-.21-.53-.28.52-.35.96-.75,1.31-1.2.35-.44.61-.87.79-1.28ZM326.2,339.73h1.19c-.08.5-.19.95-.36,1.34-.16.39-.39.74-.69,1.05-.3.31-.7.57-1.19.79-.5.22-1.12.4-1.88.55-.05-.14-.13-.3-.26-.49-.13-.19-.25-.34-.36-.46.66-.1,1.21-.24,1.64-.4.43-.16.77-.36,1.03-.58.26-.22.45-.49.59-.78.13-.3.23-.64.29-1.02ZM324.59,339.36h5.52v.97h-6.27l.76-.97ZM325.92,349.8l1.09-.66c.5.17,1.02.35,1.54.54.52.19,1.02.38,1.48.57s.87.36,1.2.53l-1.51.63c-.28-.16-.62-.33-1.03-.51s-.85-.37-1.32-.56c-.48-.19-.96-.37-1.46-.54ZM327.33,340.03c.07.28.17.55.31.82.14.27.35.51.64.74.28.23.68.43,1.18.61.5.18,1.14.32,1.92.42-.11.13-.24.3-.37.52-.13.21-.24.41-.3.57-.84-.15-1.53-.35-2.07-.6-.54-.25-.97-.53-1.28-.85-.31-.32-.55-.66-.71-1.02-.16-.36-.29-.73-.38-1.1l1.08-.11ZM329.77,339.36h.21l.21-.04.87.24c-.19.37-.4.75-.64,1.12-.24.37-.49.69-.73.94l-1.04-.34c.21-.22.41-.5.62-.82.21-.32.38-.63.5-.93v-.17Z"/>
        <path class="cls-3" d="M335.9,343.71l.76.36c-.12.47-.27.96-.43,1.48-.17.52-.35,1.04-.56,1.55s-.42.98-.65,1.43c-.23.44-.46.83-.69,1.16-.05-.13-.1-.28-.17-.44-.07-.16-.15-.32-.23-.48-.08-.16-.16-.29-.24-.41.29-.35.58-.8.87-1.33.29-.53.55-1.09.79-1.67s.43-1.13.57-1.65ZM333.91,343.07h5.63v1.23h-5.63v-1.23ZM333.97,339.48l.94-.24c.14.33.26.68.36,1.06.1.38.19.75.27,1.11s.13.69.15.99l-1.02.27c0-.29-.05-.62-.12-.99-.07-.37-.16-.75-.26-1.13-.1-.39-.21-.74-.32-1.07ZM336.11,338.43h1.23v12.91h-1.23v-12.91ZM337.32,344.44c.08.07.2.2.34.38s.31.37.48.59c.18.21.35.43.53.66s.33.42.46.6c.14.18.24.31.3.39l-.85,1.04c-.08-.19-.21-.42-.36-.71-.16-.29-.33-.59-.52-.9-.19-.31-.38-.6-.55-.87-.18-.27-.32-.48-.43-.64l.62-.53ZM338.52,339.17l1.15.28c-.12.35-.25.73-.38,1.13-.13.4-.26.78-.39,1.14-.13.36-.26.68-.38.95l-.85-.25c.1-.29.21-.62.32-1.01s.22-.77.32-1.16c.1-.39.17-.75.22-1.08ZM339.52,347.22l7.2-1.3.2,1.23-7.18,1.3-.21-1.23ZM339.77,343.7l.63-.94c.27.14.56.3.86.49.3.19.59.38.85.57.27.19.48.37.65.54l-.66,1.06c-.16-.18-.37-.37-.63-.57-.26-.2-.54-.4-.84-.61-.3-.21-.59-.39-.87-.55ZM340.45,340.17l.66-.9c.27.15.55.32.83.52.28.2.55.4.8.61.25.21.45.4.6.57l-.69.99c-.15-.18-.34-.37-.59-.59-.24-.21-.51-.43-.79-.64-.29-.21-.56-.41-.83-.57ZM343.9,338.38h1.26v12.98h-1.26v-12.98Z"/>
        <path class="cls-3" d="M353.82,343.78l-.32-2.79-.04-1.65h1.67l-.04,1.65-.31,2.79h-.95ZM356.9,343.78l-.32-2.79-.06-1.65h1.68l-.04,1.65-.32,2.79h-.94Z"/>
        <path class="cls-3" d="M361.48,350.19v-.94c1.02-.91,1.87-1.73,2.55-2.48.68-.75,1.19-1.45,1.53-2.09s.51-1.25.51-1.81c0-.37-.06-.7-.19-.99s-.32-.5-.57-.66c-.26-.15-.58-.23-.97-.23s-.77.11-1.11.33c-.34.22-.64.49-.92.81l-.91-.9c.44-.49.9-.86,1.39-1.13.49-.27,1.08-.41,1.76-.41.62,0,1.17.13,1.64.38.47.26.83.62,1.08,1.08s.38,1.01.38,1.63c0,.66-.16,1.33-.49,2.01-.33.68-.77,1.36-1.34,2.04s-1.22,1.38-1.95,2.08c.27-.03.56-.05.86-.08.3-.02.58-.04.82-.04h2.59v1.39h-6.66Z"/>
        <path class="cls-3" d="M374.25,350.39c-.67,0-1.26-.2-1.76-.6s-.89-1-1.17-1.8c-.28-.8-.41-1.79-.41-2.99s.14-2.18.41-2.97c.27-.78.67-1.37,1.17-1.76s1.09-.58,1.76-.58,1.25.2,1.75.59c.49.39.88.98,1.16,1.76.27.78.41,1.77.41,2.96s-.14,2.19-.41,2.99c-.28.8-.66,1.4-1.16,1.8-.5.4-1.08.6-1.75.6ZM374.25,349.1c.35,0,.65-.14.92-.41.27-.27.48-.71.63-1.31s.22-1.4.22-2.39-.08-1.78-.22-2.37-.36-1.01-.63-1.27-.58-.39-.92-.39-.65.13-.92.39c-.27.26-.48.69-.64,1.27-.15.59-.23,1.38-.23,2.37s.08,1.78.23,2.39c.15.6.37,1.04.64,1.31.27.27.58.41.92.41Z"/>
        <path class="cls-3" d="M383.38,350.39c-.54,0-1.02-.07-1.43-.2-.42-.13-.78-.31-1.1-.52s-.59-.46-.83-.71l.78-1.04c.31.3.66.56,1.05.78.39.22.85.34,1.39.34.39,0,.73-.07,1.02-.2s.52-.33.68-.58c.16-.25.24-.56.24-.92s-.09-.7-.27-.99c-.18-.28-.5-.5-.94-.66s-1.05-.23-1.83-.23v-1.2c.68,0,1.21-.08,1.6-.23s.67-.37.84-.64c.17-.27.26-.58.26-.92,0-.45-.14-.81-.42-1.07-.28-.27-.67-.4-1.16-.4-.39,0-.76.09-1.1.26s-.66.4-.96.69l-.84-1.01c.41-.37.86-.67,1.34-.9.49-.23,1.02-.34,1.61-.34s1.16.1,1.64.31.85.51,1.12.9c.27.39.41.87.41,1.44s-.16,1.09-.48,1.5-.75.72-1.29.92v.06c.39.1.75.27,1.07.5.32.23.58.52.76.88.19.35.28.76.28,1.22,0,.62-.16,1.15-.47,1.59-.31.44-.73.78-1.25,1.02-.52.24-1.1.36-1.72.36Z"/>
        <path class="cls-3" d="M393.01,350.39c-.67,0-1.26-.2-1.76-.6s-.89-1-1.17-1.8-.41-1.79-.41-2.99.14-2.18.41-2.97c.28-.78.67-1.37,1.17-1.76s1.09-.58,1.76-.58,1.25.2,1.75.59c.49.39.88.98,1.15,1.76s.41,1.77.41,2.96-.14,2.19-.41,2.99-.66,1.4-1.15,1.8c-.5.4-1.08.6-1.75.6ZM393.01,349.1c.34,0,.65-.14.92-.41.27-.27.48-.71.63-1.31s.22-1.4.22-2.39-.07-1.78-.22-2.37-.36-1.01-.63-1.27-.58-.39-.92-.39-.65.13-.92.39c-.27.26-.48.69-.64,1.27-.15.59-.23,1.38-.23,2.37s.08,1.78.23,2.39c.15.6.37,1.04.64,1.31.27.27.58.41.92.41Z"/>
        <path class="cls-3" d="M398.55,352.71l3.89-13.71h1.11l-3.86,13.71h-1.13Z"/>
        <path class="cls-3" d="M409.99,350.19v-6.72c0-.28,0-.61.03-1,.02-.39.03-.72.04-1h-.06c-.13.26-.26.53-.4.8-.14.27-.28.54-.43.8l-2.02,3.09h5.64v1.26h-7.28v-1.08l4.1-6.47h1.88v10.32h-1.51Z"/>
        <path class="cls-3" d="M418.63,350.39c-.67,0-1.26-.2-1.76-.6s-.89-1-1.17-1.8c-.28-.8-.41-1.79-.41-2.99s.14-2.18.41-2.97c.27-.78.67-1.37,1.17-1.76s1.09-.58,1.76-.58,1.25.2,1.75.59c.49.39.88.98,1.16,1.76.27.78.41,1.77.41,2.96s-.14,2.19-.41,2.99c-.28.8-.66,1.4-1.16,1.8-.5.4-1.08.6-1.75.6ZM418.63,349.1c.35,0,.65-.14.92-.41.27-.27.48-.71.63-1.31s.22-1.4.22-2.39-.08-1.78-.22-2.37-.36-1.01-.63-1.27-.58-.39-.92-.39-.65.13-.92.39c-.27.26-.48.69-.64,1.27-.15.59-.23,1.38-.23,2.37s.08,1.78.23,2.39c.15.6.37,1.04.64,1.31.27.27.58.41.92.41Z"/>
        <path class="cls-3" d="M428.12,346.96h12.78v1.29h-12.78v-1.29ZM431.21,338.32l1.34.35c-.26.68-.56,1.35-.91,2.01-.34.66-.72,1.27-1.12,1.83-.4.56-.82,1.05-1.26,1.47-.08-.07-.19-.17-.33-.28-.13-.11-.28-.22-.42-.33-.14-.11-.27-.19-.38-.24.44-.38.85-.83,1.23-1.34.38-.51.73-1.06,1.04-1.65.31-.59.58-1.2.8-1.81ZM430.4,343.23h9.46v1.23h-8.15v3.15h-1.32v-4.38ZM431.21,340h8.97v1.27h-9.62l.64-1.27ZM434.56,340.66h1.36v10.71h-1.36v-10.71Z"/>
        <path class="cls-3" d="M450.97,340.62c-.09.72-.21,1.48-.36,2.28-.14.8-.34,1.59-.58,2.37-.28.95-.59,1.76-.94,2.42-.35.66-.73,1.16-1.14,1.51s-.84.52-1.3.52-.9-.16-1.3-.48c-.4-.32-.73-.77-.98-1.36-.25-.58-.38-1.26-.38-2.04s.16-1.53.48-2.23c.32-.7.77-1.32,1.34-1.86.57-.54,1.23-.97,1.99-1.27.76-.31,1.57-.46,2.45-.46s1.6.14,2.28.41c.68.27,1.25.65,1.74,1.13.48.48.85,1.04,1.1,1.69s.38,1.33.38,2.06c0,.98-.2,1.85-.61,2.61-.41.76-1,1.38-1.79,1.86-.78.48-1.75.8-2.88.97l-.83-1.32c.24-.03.47-.06.67-.09.21-.03.4-.07.57-.1.45-.1.88-.26,1.28-.48.41-.21.77-.49,1.08-.82.32-.33.57-.72.75-1.17.18-.45.27-.95.27-1.51s-.09-1.08-.27-1.56c-.18-.48-.44-.9-.78-1.25-.34-.35-.77-.63-1.27-.83s-1.07-.3-1.71-.3c-.77,0-1.45.14-2.04.41-.6.27-1.1.63-1.52,1.07-.42.44-.73.92-.94,1.43-.21.51-.32,1.01-.32,1.48,0,.53.07.97.2,1.32.13.35.29.61.49.78.2.17.4.25.6.25s.42-.11.63-.32.43-.54.65-1c.22-.46.44-1.04.65-1.75.21-.67.39-1.39.54-2.15s.25-1.5.32-2.23l1.5.03Z"/>
        <path class="cls-3" d="M461.94,338.36l1.33.27c-.24.92-.54,1.81-.9,2.66-.36.85-.76,1.63-1.2,2.34s-.93,1.34-1.45,1.87c-.08-.07-.18-.17-.32-.27s-.28-.21-.42-.32c-.15-.11-.27-.19-.39-.26.52-.48,1-1.04,1.43-1.69.43-.65.8-1.37,1.13-2.16.32-.78.58-1.6.79-2.44ZM464.78,340.48h.24l.24-.06.87.29c-.27,1.82-.7,3.42-1.27,4.79-.58,1.37-1.28,2.53-2.1,3.49-.82.95-1.73,1.72-2.73,2.3-.08-.1-.17-.22-.3-.35-.12-.13-.26-.25-.39-.37s-.26-.21-.37-.27c1-.53,1.89-1.23,2.68-2.09.79-.86,1.45-1.91,1.99-3.14.54-1.23.92-2.66,1.16-4.28v-.29ZM460.11,344.27l.69-.98c.37.21.76.44,1.17.7.41.26.79.53,1.15.8.36.27.65.52.86.76l-.73,1.11c-.21-.23-.48-.49-.83-.78-.35-.29-.73-.57-1.13-.85-.41-.28-.8-.53-1.17-.74ZM461.65,340.48h3.5v1.25h-3.5v-1.25ZM466.45,341.72c.29.54.64,1.07,1.06,1.59.41.52.87,1.01,1.37,1.47.5.46,1.02.88,1.58,1.26s1.11.69,1.68.94c-.1.08-.21.19-.34.33-.12.14-.24.27-.34.41-.11.14-.2.27-.27.39-.58-.3-1.15-.66-1.71-1.09-.56-.43-1.09-.9-1.6-1.42-.5-.52-.97-1.07-1.4-1.66-.43-.59-.81-1.19-1.13-1.81l1.11-.42ZM467.64,338.39h1.37v12.95h-1.37v-12.95Z"/>
        <path class="cls-3" d="M474.85,338.98h11.69v12.39h-1.4v-11.17h-8.95v11.17h-1.34v-12.39ZM475.58,349.44h10.21v1.23h-10.21v-1.23ZM476.95,347.27h7.52v1.09h-7.52v-1.09ZM477.13,341.19h7.07v1.18h-7.07v-1.18ZM477.51,344.06h6.37v1.13h-6.37v-1.13ZM480,341.57h1.25v6.29h-1.25v-6.29ZM481.93,345.75l.84-.46c.24.21.49.46.74.73s.44.52.57.73l-.9.52c-.13-.21-.32-.47-.56-.76-.24-.29-.48-.55-.7-.77Z"/>
        <path class="cls-3" d="M495.18,338.75h1.5c-.02.38-.05.88-.1,1.48-.05.61-.13,1.29-.26,2.04-.13.75-.31,1.53-.57,2.35s-.6,1.62-1.04,2.43c-.44.81-.99,1.57-1.67,2.3-.67.72-1.49,1.36-2.45,1.91-.12-.18-.28-.36-.48-.55-.2-.19-.41-.35-.63-.5.95-.5,1.75-1.09,2.39-1.76.64-.67,1.17-1.38,1.58-2.13.41-.75.73-1.51.96-2.27.23-.76.39-1.49.5-2.18.1-.69.17-1.31.2-1.85.03-.54.05-.97.06-1.27ZM496.62,339.08c0,.17.03.45.06.83.03.39.09.85.18,1.39.09.54.22,1.13.4,1.76.18.63.41,1.29.7,1.95s.65,1.32,1.09,1.96.96,1.23,1.58,1.76c.61.54,1.33,1,2.16,1.38-.21.16-.4.34-.58.55-.18.21-.33.4-.44.57-.85-.41-1.59-.91-2.23-1.5-.64-.59-1.19-1.23-1.64-1.92-.45-.69-.83-1.4-1.13-2.11s-.55-1.42-.73-2.11c-.18-.69-.32-1.33-.41-1.92-.09-.59-.16-1.1-.2-1.53s-.07-.74-.08-.94l1.27-.13Z"/>
        <path class="cls-3" d="M516.01,341.92c-.18.11-.37.22-.57.33-.2.11-.41.22-.64.33-.23.12-.51.26-.84.43-.33.16-.68.34-1.06.53-.38.19-.76.39-1.14.61s-.74.43-1.07.64c-.62.41-1.11.84-1.47,1.27s-.55.92-.55,1.44.26.97.78,1.27,1.31.46,2.35.46c.5,0,1.03-.02,1.58-.06.55-.04,1.08-.1,1.6-.17.52-.07.96-.16,1.34-.27v1.6c-.38.06-.79.11-1.26.17-.47.06-.97.1-1.51.13-.54.03-1.1.04-1.7.04-.67,0-1.29-.05-1.87-.15-.57-.1-1.07-.27-1.49-.5-.42-.23-.75-.54-.98-.93-.23-.39-.35-.86-.35-1.42s.12-1.04.36-1.5c.24-.46.57-.89.99-1.29s.91-.78,1.46-1.15c.34-.23.71-.46,1.11-.69.39-.22.78-.44,1.15-.64.38-.21.73-.39,1.06-.56s.6-.32.83-.45c.22-.13.43-.25.61-.36.18-.11.35-.24.51-.38l.77,1.27ZM508.94,339.19c.22.6.46,1.18.71,1.76.25.57.51,1.11.76,1.6s.49.93.71,1.32l-1.23.73c-.24-.4-.5-.87-.76-1.39-.26-.53-.53-1.08-.8-1.67-.27-.59-.53-1.18-.78-1.76l1.39-.57Z"/>
        <path class="cls-3" d="M527.97,340.62c-.09.72-.21,1.48-.36,2.28-.15.8-.34,1.59-.58,2.37-.28.95-.59,1.76-.94,2.42-.35.66-.73,1.16-1.14,1.51-.41.35-.84.52-1.3.52s-.9-.16-1.3-.48c-.4-.32-.73-.77-.98-1.36-.25-.58-.38-1.26-.38-2.04s.16-1.53.48-2.23c.32-.7.77-1.32,1.34-1.86.57-.54,1.23-.97,1.99-1.27.76-.31,1.57-.46,2.45-.46s1.6.14,2.27.41c.68.27,1.25.65,1.74,1.13.48.48.85,1.04,1.1,1.69s.38,1.33.38,2.06c0,.98-.2,1.85-.61,2.61-.41.76-1,1.38-1.79,1.86-.78.48-1.75.8-2.88.97l-.83-1.32c.24-.03.47-.06.67-.09.21-.03.4-.07.57-.1.45-.1.88-.26,1.28-.48.41-.21.77-.49,1.09-.82.32-.33.57-.72.75-1.17.18-.45.27-.95.27-1.51s-.09-1.08-.27-1.56c-.18-.48-.44-.9-.79-1.25-.34-.35-.77-.63-1.27-.83s-1.07-.3-1.71-.3c-.76,0-1.45.14-2.04.41-.6.27-1.1.63-1.52,1.07-.41.44-.73.92-.94,1.43-.21.51-.32,1.01-.32,1.48,0,.53.06.97.2,1.32s.29.61.49.78c.2.17.4.25.6.25s.42-.11.63-.32c.21-.21.43-.54.65-1,.22-.46.44-1.04.65-1.75.21-.67.39-1.39.54-2.15s.25-1.5.32-2.23l1.5.03Z"/>
        <path class="cls-3" d="M535.94,345.54h12.75v1.3h-12.75v-1.3ZM539.75,347.53l1.39.53c-.34.41-.73.82-1.17,1.23-.44.41-.91.79-1.39,1.15-.48.36-.95.67-1.42.94-.09-.1-.2-.21-.33-.32-.13-.11-.25-.22-.39-.34-.13-.11-.25-.21-.35-.28.45-.24.91-.52,1.37-.85.47-.32.9-.66,1.29-1.03.4-.36.73-.71.99-1.04ZM536.48,341.22h11.76v1.27h-11.76v-1.27ZM539.1,338.49h1.37v7.91h-1.37v-7.91ZM543.42,348.16l1.18-.66c.42.3.88.63,1.37,1s.96.73,1.41,1.1c.45.36.82.69,1.11.98l-1.29.78c-.26-.28-.61-.61-1.04-.98-.43-.37-.89-.76-1.37-1.15-.48-.39-.94-.75-1.37-1.08ZM544.14,338.49h1.37v7.91h-1.37v-7.91Z"/>
        <path class="cls-3" d="M553.85,338.57l1.37.31c-.21.72-.45,1.43-.74,2.12s-.59,1.34-.93,1.93-.69,1.11-1.05,1.56c-.09-.07-.21-.16-.36-.26s-.29-.2-.44-.29c-.15-.1-.28-.17-.41-.23.38-.41.73-.89,1.05-1.44s.6-1.14.86-1.77c.26-.63.47-1.28.64-1.93ZM551.44,349.65h12.57v1.29h-12.57v-1.29ZM553.01,345.12h9.8v1.27h-9.8v-1.27ZM553.61,341.02h9.72v1.29h-9.72v-1.29ZM557.04,338.38h1.37v11.91h-1.37v-11.91Z"/>
        <path class="cls-3" d="M570.99,340.99h.25l.25-.06.74.49c-.35.88-.81,1.72-1.37,2.52-.56.8-1.17,1.53-1.84,2.18s-1.34,1.19-2.02,1.62c-.04-.12-.1-.26-.18-.42-.08-.16-.16-.31-.24-.46-.08-.15-.16-.26-.24-.34.64-.36,1.27-.82,1.88-1.38.61-.56,1.15-1.17,1.64-1.85s.86-1.36,1.13-2.05v-.25ZM566.84,340.99h4.62v1.2h-4.62v-1.2ZM568.97,338.38h1.32v3.19h-1.32v-3.19ZM568.97,345.43l1.32-1.57v7.52h-1.32v-5.95ZM570.15,344.23c.13.08.31.22.54.42.23.2.48.41.74.64.27.23.51.44.73.63s.38.33.48.43l-.81,1.08c-.13-.17-.3-.37-.5-.6-.21-.23-.43-.46-.67-.71-.24-.24-.47-.47-.69-.69-.22-.22-.4-.39-.55-.52l.73-.67ZM571.8,349.67h7.94v1.3h-7.94v-1.3ZM572.36,342.84h7.07v1.29h-7.07v-1.29ZM575.21,338.49h1.36v11.82h-1.36v-11.82Z"/>
        <path class="cls-3" d="M588.46,339.66c-.37.55-.86,1.11-1.46,1.69-.6.57-1.26,1.12-2,1.64-.73.52-1.5.97-2.29,1.37-.05-.11-.11-.24-.2-.37s-.18-.27-.29-.39-.2-.24-.29-.34c.81-.36,1.59-.82,2.34-1.36.75-.54,1.42-1.12,2.02-1.72.6-.61,1.07-1.2,1.43-1.78h1.37c.37.52.79,1.02,1.26,1.48s.97.9,1.5,1.3c.53.4,1.08.76,1.63,1.08.55.32,1.11.58,1.67.8-.16.17-.31.36-.46.58-.14.22-.28.43-.4.62-.72-.35-1.45-.77-2.18-1.26s-1.42-1.03-2.06-1.6c-.63-.57-1.17-1.15-1.6-1.73ZM582.73,345.35h11.62v1.25h-11.62v-1.25ZM582.83,349.6c.83-.02,1.79-.05,2.88-.08,1.09-.04,2.24-.08,3.46-.13,1.22-.05,2.43-.09,3.63-.14l-.06,1.2c-1.16.06-2.33.13-3.51.18-1.18.06-2.3.11-3.37.15-1.07.05-2.02.08-2.85.11l-.18-1.3ZM586.39,346.16l1.5.41c-.21.45-.44.91-.68,1.38-.24.47-.48.92-.72,1.36s-.47.82-.69,1.17l-1.18-.39c.21-.36.43-.77.66-1.23.22-.45.43-.92.63-1.39.2-.48.35-.91.47-1.3ZM585.17,342.66h6.63v1.23h-6.63v-1.23ZM589.79,347.62l1.15-.6c.43.35.85.75,1.27,1.18s.8.86,1.16,1.29.63.82.85,1.18l-1.22.74c-.21-.35-.48-.75-.83-1.2-.35-.44-.73-.89-1.14-1.34s-.83-.87-1.24-1.24Z"/>
        <path class="cls-3" d="M604.97,340.62c-.09.72-.21,1.48-.36,2.28-.15.8-.34,1.59-.58,2.37-.28.95-.59,1.76-.94,2.42-.35.66-.73,1.16-1.14,1.51-.41.35-.84.52-1.3.52s-.9-.16-1.3-.48c-.4-.32-.73-.77-.98-1.36-.25-.58-.38-1.26-.38-2.04s.16-1.53.48-2.23c.32-.7.77-1.32,1.34-1.86.57-.54,1.23-.97,1.99-1.27.76-.31,1.57-.46,2.45-.46s1.6.14,2.27.41c.68.27,1.25.65,1.74,1.13.48.48.85,1.04,1.1,1.69s.38,1.33.38,2.06c0,.98-.2,1.85-.61,2.61-.41.76-1,1.38-1.79,1.86-.78.48-1.75.8-2.88.97l-.83-1.32c.24-.03.47-.06.67-.09.21-.03.4-.07.57-.1.45-.1.88-.26,1.28-.48.41-.21.77-.49,1.09-.82.32-.33.57-.72.75-1.17.18-.45.27-.95.27-1.51s-.09-1.08-.27-1.56c-.18-.48-.44-.9-.79-1.25-.34-.35-.77-.63-1.27-.83s-1.07-.3-1.71-.3c-.76,0-1.45.14-2.04.41-.6.27-1.1.63-1.52,1.07-.41.44-.73.92-.94,1.43-.21.51-.32,1.01-.32,1.48,0,.53.06.97.2,1.32s.29.61.49.78c.2.17.4.25.6.25s.42-.11.63-.32c.21-.21.43-.54.65-1,.22-.46.44-1.04.65-1.75.21-.67.39-1.39.54-2.15s.25-1.5.32-2.23l1.5.03Z"/>
        <path class="cls-3" d="M618.57,341.26h1.34v3.67c0,.48-.04.96-.13,1.44-.09.49-.25.96-.5,1.43-.24.47-.59.92-1.05,1.34-.46.43-1.05.83-1.77,1.2-.72.37-1.61.71-2.67,1.02-.05-.09-.12-.21-.21-.34s-.19-.26-.3-.39c-.11-.13-.21-.24-.3-.34,1.02-.26,1.86-.55,2.54-.88.68-.32,1.22-.66,1.62-1.02.41-.36.71-.73.92-1.13.21-.39.34-.79.41-1.19s.1-.8.1-1.19v-3.64ZM613.18,346.65h12.32v1.15h-12.32v-1.15ZM613.35,339.69h11.9v2.84h-1.37v-1.68h-9.23v1.68h-1.3v-2.84ZM614.56,342.27h9.59v1.08h-9.59v-1.08ZM614.78,344.42h9.14v1.09h-9.14v-1.09ZM618.6,338.39h1.37v2.11h-1.37v-2.11ZM620.07,346.9c.43.95,1.11,1.7,2.05,2.25.94.55,2.12.92,3.55,1.09-.13.13-.27.31-.43.55-.15.23-.28.44-.37.62-1.02-.18-1.91-.45-2.69-.8-.78-.36-1.43-.82-1.97-1.39-.54-.57-.99-1.25-1.33-2.04l1.19-.27Z"/>
        <path class="cls-3" d="M628.05,348.01c.44-.1.94-.23,1.51-.38s1.17-.31,1.81-.49c.64-.18,1.27-.35,1.9-.53l.18,1.18c-.88.26-1.76.52-2.66.78-.9.26-1.7.5-2.41.71l-.34-1.27ZM628.35,339.1h4.86v1.22h-4.86v-1.22ZM628.49,343.08h4.58v1.22h-4.58v-1.22ZM630.18,339.59h1.27v8.23l-1.27.21v-8.44ZM635,346.52h1.3c-.06.6-.17,1.15-.3,1.65-.13.5-.34.96-.62,1.37s-.65.77-1.13,1.09c-.48.32-1.08.59-1.82.83-.05-.11-.11-.24-.19-.37-.08-.14-.17-.27-.27-.4s-.19-.24-.29-.32c.65-.18,1.19-.39,1.6-.63.41-.24.73-.52.96-.85.23-.32.4-.68.51-1.08.11-.4.19-.83.24-1.29ZM633.81,338.95h6.72v7.8h-6.72v-7.8ZM635.05,340.04v1.18h4.19v-1.18h-4.19ZM635.05,342.25v1.18h4.19v-1.18h-4.19ZM635.05,344.45v1.19h4.19v-1.19h-4.19ZM637.42,346.23h1.27v3.49c0,.19.02.3.06.35.04.05.14.07.29.07h.87c.09,0,.17-.04.22-.11.05-.07.09-.23.11-.46s.04-.59.05-1.06c.09.07.21.13.34.2.13.07.27.12.41.17.14.05.27.09.38.12-.04.61-.1,1.08-.2,1.41-.09.33-.23.56-.42.69-.19.13-.43.2-.74.2h-1.23c-.38,0-.67-.05-.88-.14-.2-.09-.34-.25-.41-.48-.07-.23-.11-.54-.11-.95v-3.49Z"/>
        <path class="cls-3" d="M646.99,339.58c-.03.08-.06.19-.11.33-.04.14-.08.27-.11.41s-.06.25-.08.33c-.05.23-.1.52-.16.85-.06.33-.12.69-.18,1.08-.06.39-.12.78-.17,1.18-.05.4-.09.78-.13,1.15-.03.37-.05.71-.05,1.02,0,.24,0,.49.02.73.01.25.03.5.06.76.08-.19.17-.39.25-.6s.17-.42.25-.62c.08-.21.16-.39.24-.56l.7.56c-.12.35-.25.73-.39,1.15-.14.42-.26.82-.37,1.2s-.18.68-.23.92c-.02.09-.04.2-.05.33-.02.13-.02.23-.01.31,0,.07,0,.15,0,.25,0,.1.01.19.02.27l-1.27.08c-.14-.49-.26-1.12-.36-1.92-.1-.79-.15-1.66-.15-2.6,0-.52.02-1.05.07-1.59s.1-1.06.17-1.56c.07-.5.13-.97.2-1.39s.12-.77.16-1.05c.03-.18.05-.37.08-.57.02-.21.04-.4.05-.59l1.55.14ZM650.23,346.41c-.06.24-.1.46-.13.66-.03.2-.05.39-.05.59,0,.16.04.31.11.45s.19.26.35.36c.16.1.39.18.67.25.29.06.64.09,1.06.09.63,0,1.23-.03,1.79-.09.56-.06,1.12-.16,1.7-.29l.03,1.5c-.44.08-.95.15-1.53.2-.58.05-1.25.08-2.01.08-1.19,0-2.06-.19-2.62-.58s-.85-.92-.85-1.6c0-.25.02-.52.06-.79s.1-.59.18-.93l1.26.11ZM649.43,340.59c.41.07.88.11,1.39.14.52.03,1.05.04,1.6.03s1.08-.03,1.58-.06c.5-.03.94-.06,1.3-.11v1.43c-.4.04-.85.07-1.36.09s-1.02.04-1.56.04-1.06-.01-1.58-.04-.97-.05-1.37-.09v-1.43Z"/>
        <path class="cls-3" d="M659.8,340.76h10.61v1.3h-9.3v9.31h-1.32v-10.61ZM662.76,343.7h1.2v5.71h-1.2v-5.71ZM663.29,343.7h4.96v4.7h-4.96v-1.16h3.74v-2.37h-3.74v-1.18ZM664.51,338.35l1.67.27c-.22.52-.47,1.05-.73,1.58-.26.53-.5.98-.73,1.36l-1.27-.29c.13-.27.26-.58.4-.92.14-.34.26-.68.38-1.03.12-.35.21-.67.29-.97ZM669.94,340.76h1.32v8.97c0,.39-.05.7-.15.92-.1.22-.28.38-.55.5-.28.1-.64.17-1.08.2s-.98.04-1.62.04c-.02-.13-.05-.28-.1-.44-.05-.16-.1-.33-.17-.49-.07-.16-.13-.31-.18-.43.31,0,.61.02.91.03.3,0,.56.01.78,0,.22,0,.38,0,.48,0,.14,0,.24-.02.29-.07s.08-.14.08-.27v-8.96Z"/>
        <path class="cls-3" d="M677.62,339.4c-.04.15-.08.32-.14.51-.06.19-.1.36-.14.5-.1.46-.2.98-.3,1.55-.1.58-.18,1.18-.24,1.81-.06.62-.08,1.24-.07,1.85.01.61.08,1.17.19,1.68.09-.26.21-.57.34-.92.13-.35.26-.69.38-.99l.73.46c-.12.35-.24.72-.36,1.13-.12.41-.23.8-.34,1.17-.1.37-.18.67-.24.92-.02.11-.04.23-.05.36-.01.13-.02.23-.02.3s0,.16.01.25c0,.09.02.18.03.27l-1.22.14c-.09-.29-.2-.67-.33-1.16-.13-.48-.23-1.01-.32-1.59s-.12-1.16-.12-1.74c0-.77.03-1.5.09-2.21.06-.71.13-1.36.21-1.94.08-.58.15-1.07.2-1.45.03-.18.05-.36.05-.55,0-.19.01-.35.01-.5l1.64.15ZM679.37,342c.21.03.44.06.69.08.24.03.49.05.75.06.26,0,.51.01.76.01.59,0,1.2-.01,1.83-.04.63-.03,1.24-.07,1.83-.13.59-.06,1.12-.14,1.59-.23v1.43c-.45.07-.96.12-1.54.17-.58.05-1.19.08-1.82.1-.63.02-1.26.04-1.88.04-.21,0-.44,0-.71-.01-.27,0-.53-.02-.79-.03-.26,0-.5-.02-.71-.03v-1.41ZM684.67,339.19c-.02.13-.03.27-.04.42s-.02.3-.03.46v.54c0,.25,0,.52,0,.83s0,.62.01.94c0,.32,0,.62,0,.89v.66c0,.81-.02,1.56-.07,2.24-.05.68-.16,1.32-.35,1.9-.19.59-.48,1.13-.89,1.63-.41.5-.97.97-1.69,1.41l-1.29-1.01c.24-.1.5-.25.78-.43.28-.18.51-.37.7-.55.33-.31.58-.63.78-.97.19-.34.34-.72.43-1.13.1-.42.16-.88.2-1.39.03-.51.05-1.08.05-1.71,0-.24,0-.55,0-.91,0-.36-.01-.74-.03-1.13-.01-.39-.03-.74-.04-1.07s-.02-.57-.03-.74c0-.17-.03-.33-.06-.49s-.06-.29-.08-.39h1.62Z"/>
        <path class="cls-3" d="M692.38,341.34c.54,0,1.12-.03,1.72-.08.61-.06,1.22-.14,1.86-.24.63-.1,1.24-.23,1.83-.38v1.39c-.58.13-1.19.24-1.83.34-.64.09-1.27.17-1.89.22s-1.18.08-1.69.08c-.32,0-.61,0-.88-.01-.27,0-.53-.02-.79-.04l-.03-1.37c.35.04.65.07.92.08s.53.03.79.03ZM695.69,339.1c-.05.17-.1.38-.15.62-.05.25-.09.44-.12.58-.07.33-.14.72-.23,1.17s-.19.93-.31,1.42c-.12.49-.24.98-.36,1.44-.12.49-.27,1.03-.45,1.61-.18.58-.37,1.16-.57,1.76s-.4,1.15-.6,1.68c-.2.53-.4.99-.59,1.39l-1.53-.52c.21-.35.42-.79.64-1.29.22-.51.44-1.05.66-1.64.21-.58.42-1.16.6-1.74.19-.58.35-1.11.48-1.6.08-.33.17-.67.25-1.03s.16-.71.24-1.04c.07-.34.13-.65.18-.95.05-.29.08-.54.11-.73.04-.22.06-.45.06-.69,0-.23,0-.42,0-.57l1.68.13ZM697.28,346.82c-.05.21-.09.43-.12.64-.04.21-.06.4-.06.58,0,.16.03.31.09.45.06.15.17.27.32.39.15.11.37.2.66.27.28.07.65.1,1.1.1s.92-.03,1.4-.08c.48-.05.94-.12,1.4-.2l-.04,1.41c-.39.05-.82.09-1.28.13-.46.04-.96.06-1.49.06-1.14,0-2.01-.18-2.61-.55-.6-.36-.9-.89-.9-1.58,0-.3.02-.6.07-.89s.1-.58.17-.86l1.3.13ZM696.79,343.36c.38-.04.8-.07,1.26-.09.46-.02.91-.04,1.36-.04.41,0,.82,0,1.24.02.42.01.82.04,1.21.09l-.04,1.34c-.36-.05-.74-.09-1.14-.13-.41-.04-.82-.06-1.24-.06-.46,0-.9.01-1.34.04s-.87.06-1.31.12v-1.3Z"/>
        <path class="cls-3" d="M705.19,340.7h4.58v1.06h-4.58v-1.06ZM705.74,346.44h1.05v4.76h-1.05v-4.76ZM705.77,342.63h3.65v1.02h-3.65v-1.02ZM705.77,344.52h3.65v1.02h-3.65v-1.02ZM705.85,338.84h3.53v1.04h-3.53v-1.04ZM706.37,346.44h3.04v4.14h-3.04v-1.06h1.95v-2.02h-1.95v-1.06ZM710.41,338.92h1.2v5.12c0,.55-.02,1.15-.05,1.79s-.09,1.3-.18,1.97c-.09.67-.22,1.31-.38,1.94-.17.63-.4,1.19-.69,1.71-.07-.07-.16-.16-.29-.26-.13-.1-.26-.19-.4-.27-.14-.08-.26-.15-.35-.2.36-.63.61-1.34.77-2.11.16-.77.26-1.56.3-2.35.04-.79.06-1.53.06-2.21v-5.12ZM711.07,338.92h5.98v1.13h-5.98v-1.13ZM712.12,343.53h3.93v.99h-3.93v-.99ZM712.23,341.36h3.67v1.01h-3.67v-1.01ZM712.29,345.45h.97v4.19h-.97v-4.19ZM712.81,345.45h3.04v3.65h-3.04v-.97h2.04v-1.72h-2.04v-.97ZM713.52,340.28h1.05v3.84h-1.05v-3.84ZM716.56,338.92h1.23v10.88c0,.35-.04.63-.12.84-.08.21-.23.36-.44.48-.21.11-.5.18-.85.2s-.79.04-1.31.04c-.02-.11-.05-.25-.08-.41-.04-.16-.08-.32-.13-.48s-.1-.3-.16-.42c.34.02.66.03.97.03h.62c.1,0,.17-.03.21-.07.04-.04.06-.11.06-.21v-10.88Z"/>
        <path class="cls-3" d="M725.71,340.42l1.09.43c-.31.45-.67.89-1.08,1.32s-.85.83-1.33,1.2c-.48.37-.97.7-1.48.99-.51.29-1.03.54-1.55.75-.09-.16-.22-.34-.38-.55-.16-.21-.31-.37-.45-.49.5-.17.99-.38,1.49-.64s.98-.55,1.44-.87c.46-.32.89-.67,1.27-1.03.39-.36.71-.74.97-1.12ZM720.8,349.93h12.61v1.18h-12.61v-1.18ZM720.87,340.06h12.47v1.16h-12.47v-1.16ZM723.15,344.45h7.94v6.1h-1.37v-5h-5.26v5.05h-1.3v-6.16ZM723.78,346.36h6.62v.95h-6.62v-.95ZM723.78,348.12h6.62v.97h-6.62v-.97ZM726.4,338.38h1.32v5.67h-1.32v-5.67ZM728.35,340.45c.27.37.6.74.99,1.09.39.35.82.68,1.29.99s.96.58,1.48.83c.52.25,1.03.45,1.55.61-.09.08-.19.19-.3.31-.11.13-.21.26-.31.39-.1.14-.18.26-.25.37-.53-.2-1.06-.44-1.58-.73-.52-.29-1.02-.62-1.5-.98-.48-.36-.93-.75-1.34-1.17-.42-.42-.78-.85-1.09-1.3l1.06-.42Z"/>
        <path class="cls-3" d="M737.91,339.68l1.22.27c-.17.88-.38,1.75-.63,2.6-.25.86-.55,1.66-.89,2.41s-.74,1.4-1.2,1.96c-.02-.11-.06-.26-.12-.46-.06-.19-.13-.38-.2-.57-.07-.19-.14-.35-.22-.47.52-.7.95-1.55,1.27-2.56.33-1,.58-2.06.76-3.19ZM736.16,339.09h5.01v1.2h-5.01v-1.2ZM737.07,343.4h1.12v7.32h-1.12v-7.32ZM737.64,343.4h3.32v6.23h-3.32v-1.18h2.17v-3.88h-2.17v-1.18ZM742.98,339.68h1.25v4.83c0,.59-.02,1.19-.07,1.81-.05.62-.14,1.24-.27,1.85-.14.61-.33,1.2-.6,1.76s-.61,1.07-1.05,1.53c-.08-.08-.17-.17-.29-.27-.12-.09-.24-.19-.37-.28-.13-.09-.25-.17-.35-.22.39-.41.7-.87.94-1.38.23-.51.41-1.04.52-1.59s.19-1.1.23-1.65c.04-.55.06-1.07.06-1.56v-4.83ZM741.52,344.13h7.48v1.26h-7.48v-1.26ZM741.9,339.12h6.82v1.23h-6.82v-1.23ZM746.21,339.64h1.26v11.73h-1.26v-11.73Z"/>
        <path class="cls-3" d="M756.36,344.12h1.32v1.76c0,.38-.04.78-.11,1.19s-.21.82-.42,1.23c-.21.41-.51.8-.9,1.18-.39.38-.91.74-1.54,1.07-.63.33-1.42.62-2.35.88-.09-.17-.23-.35-.41-.56s-.34-.38-.49-.53c.87-.22,1.59-.48,2.18-.76.58-.28,1.05-.58,1.41-.89s.63-.63.82-.96c.19-.33.32-.65.38-.97.07-.32.11-.62.11-.91v-1.74ZM755.55,340.52h1.39c-.07.61-.18,1.15-.34,1.64-.16.49-.4.92-.72,1.29-.32.37-.77.7-1.33.97-.57.27-1.29.5-2.16.67-.05-.16-.15-.35-.29-.56-.13-.21-.27-.39-.4-.52.78-.14,1.4-.31,1.88-.51.48-.2.85-.44,1.12-.72.27-.28.46-.61.59-.98.12-.37.21-.8.26-1.27ZM751.95,339.64h12.04v2.55h-1.39v-1.36h-9.34v1.48h-1.32v-2.67ZM752.47,345.75h8.23v1.23h-8.23v-1.23ZM757.24,338.36h1.36v2.04h-1.36v-2.04ZM758.8,340.55h1.32v2.49c0,.18.03.29.09.33s.21.06.46.06h1.47c.12,0,.21-.02.28-.06s.11-.13.14-.28c.03-.14.05-.37.07-.67.08.07.2.13.34.19.14.06.28.12.43.17.14.05.28.09.4.12-.05.45-.12.8-.23,1.05-.11.25-.26.43-.46.52-.2.1-.47.15-.8.15h-1.81c-.45,0-.79-.05-1.04-.15-.25-.1-.41-.26-.5-.48-.09-.22-.13-.54-.13-.94v-2.51ZM759.96,345.75h1.39v3.77c0,.2.03.32.08.38.05.06.17.08.34.08h.99c.12,0,.21-.05.27-.14.06-.09.1-.29.13-.58s.04-.74.06-1.34c.09.08.21.16.37.23.15.07.3.14.46.2.16.06.3.11.42.15-.04.73-.11,1.29-.22,1.7-.11.41-.27.69-.48.85s-.5.24-.87.24h-1.37c-.39,0-.7-.05-.93-.15-.23-.1-.39-.28-.49-.54-.1-.26-.15-.61-.15-1.07v-3.77Z"/>
        <path class="cls-3" d="M771.41,343.78l-.32-2.79-.04-1.65h1.67l-.04,1.65-.31,2.79h-.95ZM774.49,343.78l-.32-2.79-.06-1.65h1.68l-.04,1.65-.32,2.79h-.94Z"/>
      </g>
      <g>
        <path class="cls-3" d="M3.87,248.59h10.78v13.58h-1.63v-12.05h-7.6v12.11h-1.55v-13.65ZM4.89,259.66h8.83v1.52H4.89v-1.52ZM4.91,254.06h8.8v1.5H4.91v-1.5Z"/>
        <path class="cls-3" d="M25.51,251.36l1.38.45c-.46,1.14-1.03,2.23-1.71,3.26-.68,1.03-1.43,1.97-2.26,2.8-.83.83-1.7,1.53-2.63,2.1-.07-.13-.18-.27-.31-.42-.13-.15-.27-.31-.4-.46-.13-.15-.26-.27-.38-.37.66-.36,1.3-.81,1.93-1.33.62-.52,1.21-1.11,1.77-1.75.55-.65,1.05-1.33,1.5-2.06.44-.73.81-1.47,1.11-2.22ZM19.79,250.82h14.05v1.55h-14.05v-1.55ZM23.02,258.01h7.46v1.54h-7.46v-1.54ZM25.98,247.57h1.6v14.85h-1.6v-14.85ZM28.06,251.41c.42.98.95,1.93,1.59,2.86.64.92,1.38,1.76,2.2,2.5.82.75,1.69,1.35,2.59,1.81-.12.11-.25.24-.4.39-.15.15-.29.32-.42.49-.13.17-.24.33-.33.46-.94-.54-1.82-1.23-2.65-2.06-.83-.83-1.57-1.75-2.24-2.78-.67-1.02-1.24-2.1-1.7-3.23l1.36-.45Z"/>
        <path class="cls-3" d="M37.59,250.35c.31-.01.59-.02.86-.04.26-.02.47-.03.63-.04.29-.03.67-.07,1.16-.12.48-.05,1.04-.1,1.66-.15.62-.05,1.28-.11,1.98-.18s1.42-.13,2.16-.19c.57-.04,1.12-.08,1.66-.12.54-.04,1.04-.07,1.51-.1.47-.03.89-.05,1.25-.06v1.62c-.3-.01-.64-.01-1.02,0-.38.01-.75.03-1.12.06-.37.03-.7.09-.98.16-.52.16-1,.41-1.44.75-.44.34-.81.74-1.13,1.18-.31.45-.55.92-.72,1.42-.17.5-.25.99-.25,1.46,0,.59.1,1.1.3,1.53.2.43.47.8.82,1.1.35.3.76.55,1.22.75.46.2.95.34,1.46.44.52.1,1.04.15,1.56.18l-.58,1.71c-.63-.03-1.25-.13-1.87-.28-.62-.15-1.2-.37-1.74-.66-.54-.28-1.03-.64-1.45-1.06-.42-.43-.75-.92-.99-1.47-.24-.55-.36-1.18-.36-1.89,0-.81.14-1.56.41-2.24s.62-1.28,1.03-1.78c.42-.51.84-.9,1.28-1.18-.32.03-.71.07-1.18.12-.47.05-.97.1-1.51.17-.54.06-1.08.13-1.62.2-.54.07-1.06.14-1.54.22-.48.07-.91.15-1.27.22l-.16-1.74ZM48.15,252.75c.13.18.27.4.43.66.16.26.32.53.48.8s.29.52.4.74l-.99.45c-.19-.41-.39-.79-.6-1.17-.21-.37-.43-.73-.68-1.07l.96-.42ZM49.93,252.06c.13.18.28.4.45.65s.34.51.5.78c.16.27.3.52.42.75l-.98.46c-.21-.41-.43-.79-.64-1.14-.21-.36-.45-.71-.7-1.06l.96-.43Z"/>
        <path class="cls-3" d="M57.29,247.65l1.36.37c-.28.92-.61,1.83-.98,2.74-.38.91-.79,1.78-1.24,2.6-.45.82-.93,1.54-1.44,2.16-.03-.12-.09-.28-.17-.48-.08-.2-.17-.4-.26-.61-.1-.2-.19-.37-.27-.5.42-.52.81-1.12,1.18-1.8.37-.68.71-1.4,1.02-2.17.31-.77.58-1.54.8-2.32ZM56.19,251.76l1.34-1.34v12.03h-1.34v-10.69ZM58.14,260.69c.53-.03,1.14-.08,1.82-.14.68-.06,1.41-.13,2.18-.2s1.54-.14,2.32-.2l.02,1.1c-1.09.14-2.17.27-3.24.39-1.07.12-2.03.23-2.89.31l-.21-1.26ZM63.72,248.05l.78,1.09c-.54.12-1.15.23-1.82.33s-1.35.18-2.05.25-1.37.11-2.01.14c-.02-.15-.07-.33-.14-.53-.08-.2-.14-.37-.21-.51.63-.06,1.28-.13,1.94-.21s1.3-.16,1.91-.26c.61-.1,1.14-.2,1.59-.3ZM58.36,250.51h6.18v1.12h-6.18v-1.12ZM58.52,258.16h5.92v1.12h-5.92v-1.12ZM58.55,252.51h5.84v4.74h-5.84v-4.74ZM59.58,253.47v.94h3.76v-.94h-3.76ZM59.58,255.31v.96h3.76v-.96h-3.76ZM60.89,252.86h1.06v4h.13v3.95h-1.3v-3.95h.11v-4ZM60.79,248.91h1.28v4.16h-1.28v-4.16ZM65.5,247.63h1.29v5.34c0,.77-.03,1.57-.09,2.41s-.17,1.68-.34,2.52c-.17.84-.42,1.65-.75,2.43-.34.78-.79,1.5-1.35,2.16-.09-.09-.19-.18-.32-.28-.13-.1-.26-.2-.39-.3-.13-.1-.26-.17-.38-.22.52-.62.94-1.29,1.25-2.02.31-.73.54-1.47.7-2.25.15-.77.26-1.54.3-2.3.05-.76.07-1.48.07-2.16v-5.34ZM64.47,251.25h4v1.33h-4v-1.33ZM67.99,251.25h1.29c0,.17,0,.31,0,.42,0,.11,0,.19,0,.24-.03,1.71-.07,3.14-.1,4.31-.04,1.17-.08,2.12-.13,2.86-.05.74-.11,1.31-.18,1.71-.07.4-.16.69-.28.86-.14.21-.28.36-.43.45s-.34.15-.56.19c-.19.02-.43.03-.71.04-.28,0-.58,0-.89,0-.01-.2-.05-.43-.1-.68-.06-.25-.14-.47-.25-.65.29.01.55.02.78.03.23.01.41.02.54.02.11,0,.2-.02.27-.05.07-.03.14-.1.21-.21.07-.13.14-.37.2-.74s.11-.9.15-1.6.08-1.62.11-2.74c.03-1.12.06-2.5.1-4.14v-.32Z"/>
        <path class="cls-3" d="M83.06,249.39c-.2.15-.42.32-.65.5-.23.19-.42.35-.58.49-.27.22-.59.49-.98.8-.38.31-.79.63-1.21.98-.42.34-.83.67-1.22.98-.39.31-.73.6-1.01.84-.3.26-.5.47-.61.64-.11.17-.1.34,0,.5.11.17.32.39.63.66.28.22.61.49.98.8.38.31.78.64,1.22,1,.43.36.87.73,1.32,1.11.45.38.88.76,1.3,1.14s.79.73,1.12,1.06l-1.46,1.33c-.38-.44-.79-.87-1.22-1.3-.27-.28-.6-.6-1.01-.98-.4-.37-.84-.76-1.3-1.17-.46-.41-.93-.8-1.38-1.19-.46-.39-.88-.74-1.25-1.05-.51-.44-.84-.83-.99-1.17-.15-.34-.12-.68.07-1.02.2-.34.55-.72,1.05-1.14.31-.26.67-.55,1.09-.89s.84-.69,1.29-1.06c.44-.37.86-.73,1.26-1.08.4-.35.73-.65,1-.92.19-.19.39-.4.59-.62.2-.22.35-.41.45-.58l1.49,1.33Z"/>
        <path class="cls-3" d="M93.35,247.55l1.52.3c-.28,1.06-.62,2.07-1.03,3.04s-.87,1.86-1.38,2.68-1.06,1.53-1.66,2.14c-.09-.09-.21-.19-.36-.31-.15-.12-.31-.25-.48-.37s-.31-.22-.44-.3c.6-.54,1.14-1.19,1.63-1.94.49-.75.92-1.57,1.29-2.46.37-.9.67-1.82.9-2.78ZM96.6,249.97h.27l.27-.06.99.34c-.31,2.08-.79,3.9-1.46,5.47-.66,1.57-1.46,2.9-2.4,3.98-.94,1.09-1.98,1.96-3.12,2.62-.09-.12-.2-.25-.34-.4-.14-.15-.29-.29-.45-.42-.15-.13-.29-.24-.42-.31,1.14-.61,2.16-1.41,3.06-2.39.9-.99,1.66-2.18,2.27-3.59.61-1.41,1.05-3.04,1.32-4.9v-.34ZM91.26,254.3l.78-1.12c.43.23.87.5,1.34.8s.9.6,1.31.91c.41.31.74.6.98.86l-.83,1.26c-.23-.27-.55-.57-.95-.9-.4-.33-.83-.66-1.3-.98-.46-.32-.91-.6-1.34-.85ZM93.02,249.97h4v1.42h-4v-1.42ZM98.51,251.39c.33.62.73,1.22,1.21,1.82.47.59,1,1.15,1.57,1.68.57.53,1.17,1.01,1.8,1.44.63.43,1.27.79,1.92,1.08-.12.1-.25.22-.38.38-.14.15-.27.31-.39.47s-.23.31-.31.45c-.66-.34-1.31-.76-1.95-1.25-.64-.49-1.25-1.03-1.82-1.62-.58-.59-1.11-1.22-1.6-1.9-.49-.67-.92-1.36-1.29-2.06l1.26-.48ZM99.86,247.58h1.57v14.8h-1.57v-14.8Z"/>
        <path class="cls-3" d="M108.1,248.26h13.36v14.16h-1.6v-12.77h-10.22v12.77h-1.54v-14.16ZM108.94,260.21h11.66v1.41h-11.66v-1.41ZM110.51,257.73h8.59v1.25h-8.59v-1.25ZM110.71,250.78h8.08v1.34h-8.08v-1.34ZM111.15,254.06h7.28v1.3h-7.28v-1.3ZM113.99,251.22h1.42v7.18h-1.42v-7.18ZM116.2,256l.96-.53c.28.25.56.53.85.84.29.31.51.59.66.84l-1.02.59c-.15-.25-.36-.53-.64-.86s-.54-.62-.8-.88Z"/>
        <path class="cls-3" d="M131.34,248h1.71c-.02.44-.06,1-.11,1.7-.05.69-.15,1.47-.3,2.33-.14.86-.36,1.75-.65,2.68-.29.93-.68,1.85-1.18,2.78-.5.92-1.14,1.8-1.9,2.62-.77.83-1.7,1.55-2.8,2.18-.14-.2-.32-.41-.54-.62s-.46-.41-.72-.58c1.09-.58,2-1.25,2.74-2.01.74-.76,1.34-1.57,1.81-2.43.47-.86.83-1.72,1.1-2.59.26-.87.45-1.7.57-2.49s.19-1.49.22-2.11c.03-.62.05-1.1.06-1.46ZM132.98,248.37c.01.19.03.51.07.95.04.44.11.97.21,1.59.1.62.25,1.29.46,2.02.2.73.47,1.47.8,2.23.33.76.75,1.51,1.25,2.24.5.73,1.1,1.4,1.8,2.02s1.52,1.14,2.47,1.58c-.23.18-.46.39-.66.62-.21.23-.38.45-.5.66-.97-.47-1.82-1.04-2.55-1.71-.73-.67-1.35-1.4-1.87-2.19-.52-.79-.95-1.59-1.3-2.42-.35-.82-.62-1.63-.83-2.42-.21-.79-.37-1.52-.47-2.2-.11-.68-.18-1.26-.22-1.75s-.07-.85-.1-1.07l1.46-.14Z"/>
        <path class="cls-3" d="M148.65,252.82h1.65c-.04,1-.11,1.93-.21,2.78-.1.85-.28,1.63-.53,2.34s-.61,1.35-1.09,1.91c-.48.57-1.1,1.06-1.88,1.5-.78.43-1.75.79-2.93,1.08-.05-.14-.13-.29-.22-.46-.1-.17-.21-.34-.33-.5-.12-.17-.24-.3-.34-.41,1.09-.25,1.98-.54,2.69-.9.71-.35,1.26-.77,1.68-1.25s.73-1.02.94-1.62c.21-.6.35-1.28.43-2.02.08-.75.13-1.56.15-2.45ZM143.24,250.93h13.6v3.55h-1.54v-2.14h-10.61v2.14h-1.46v-3.55ZM144.12,248.46l1.3-.61c.23.25.46.52.68.82s.42.6.61.9c.19.3.33.57.42.82l-1.39.67c-.09-.23-.21-.5-.38-.81-.17-.3-.36-.61-.58-.93-.21-.31-.43-.6-.66-.86ZM144.12,255.04h10.45v1.42h-10.45v-1.42ZM148.36,248.03l1.33-.45c.28.43.54.89.78,1.39.25.5.41.94.5,1.31l-1.42.5c-.05-.25-.14-.53-.26-.85-.12-.32-.26-.65-.42-.98s-.33-.64-.5-.93ZM154.06,255.04h1.54c0,.16,0,.29,0,.4,0,.11-.01.19-.02.26-.05,1.32-.12,2.4-.21,3.22s-.19,1.47-.3,1.92c-.12.45-.27.78-.45.97-.17.21-.37.36-.58.44-.22.08-.48.14-.78.17-.28.02-.65.03-1.12.03s-.96-.02-1.47-.05c-.02-.22-.08-.48-.18-.75-.1-.28-.21-.52-.35-.74.52.04,1.02.07,1.49.09.47.02.8.02.99.02.16,0,.29-.01.4-.04s.21-.08.3-.15c.13-.12.24-.38.33-.78.09-.4.17-.99.24-1.76.07-.77.13-1.78.18-3.02v-.24ZM154.49,247.7l1.66.51c-.36.55-.75,1.11-1.17,1.66-.42.56-.79,1.02-1.14,1.41l-1.28-.5c.22-.28.46-.6.7-.96.24-.36.47-.73.68-1.1.21-.37.39-.71.54-1.02Z"/>
        <path class="cls-3" d="M162.89,247.65l1.36.37c-.28.92-.61,1.83-.98,2.74s-.79,1.78-1.24,2.6c-.45.82-.93,1.54-1.44,2.16-.03-.12-.09-.28-.17-.48-.08-.2-.17-.4-.26-.61-.1-.2-.19-.37-.27-.5.42-.52.81-1.12,1.18-1.8.37-.68.71-1.4,1.02-2.17.31-.77.58-1.54.8-2.32ZM161.78,251.76l1.34-1.34v12.03h-1.34v-10.69ZM163.74,260.69c.53-.03,1.14-.08,1.82-.14s1.41-.13,2.18-.2c.77-.07,1.54-.14,2.32-.2l.02,1.1c-1.09.14-2.17.27-3.24.39s-2.04.23-2.89.31l-.21-1.26ZM169.32,248.05l.78,1.09c-.54.12-1.15.23-1.82.33-.67.1-1.35.18-2.05.25-.7.06-1.37.11-2.01.14-.02-.15-.07-.33-.14-.53-.07-.2-.14-.37-.21-.51.63-.06,1.27-.13,1.94-.21.66-.07,1.3-.16,1.91-.26.61-.1,1.14-.2,1.59-.3ZM163.96,250.51h6.18v1.12h-6.18v-1.12ZM164.12,258.16h5.92v1.12h-5.92v-1.12ZM164.15,252.51h5.84v4.74h-5.84v-4.74ZM165.18,253.47v.94h3.76v-.94h-3.76ZM165.18,255.31v.96h3.76v-.96h-3.76ZM166.49,252.86h1.06v4h.13v3.95h-1.3v-3.95h.11v-4ZM166.39,248.91h1.28v4.16h-1.28v-4.16ZM171.1,247.63h1.3v5.34c0,.77-.03,1.57-.09,2.41s-.17,1.68-.34,2.52-.42,1.65-.75,2.43c-.34.78-.79,1.5-1.35,2.16-.08-.09-.19-.18-.32-.28-.13-.1-.26-.2-.39-.3-.13-.1-.26-.17-.38-.22.52-.62.94-1.29,1.25-2.02.31-.73.54-1.47.7-2.25.15-.77.26-1.54.3-2.3.05-.76.07-1.48.07-2.16v-5.34ZM170.07,251.25h4v1.33h-4v-1.33ZM173.59,251.25h1.3c0,.17,0,.31,0,.42,0,.11,0,.19,0,.24-.03,1.71-.07,3.14-.1,4.31s-.08,2.12-.13,2.86c-.05.74-.11,1.31-.18,1.71-.07.4-.16.69-.28.86-.14.21-.28.36-.43.45-.15.09-.34.15-.56.19-.19.02-.43.03-.71.04s-.58,0-.89,0c-.01-.2-.04-.43-.1-.68-.06-.25-.14-.47-.25-.65.29.01.55.02.78.03s.41.02.54.02c.11,0,.2-.02.27-.05.07-.03.14-.1.21-.21.07-.13.14-.37.2-.74s.11-.9.15-1.6c.04-.7.08-1.62.11-2.74.03-1.12.06-2.5.1-4.14v-.32Z"/>
        <path class="cls-3" d="M190.41,248.08l1.29.69c-1.04,1.42-2.27,2.72-3.66,3.9-1.4,1.18-2.9,2.22-4.51,3.14-1.61.91-3.27,1.69-4.98,2.34-.06-.12-.15-.25-.26-.41s-.23-.31-.35-.46-.23-.28-.33-.38c1.73-.59,3.39-1.31,4.98-2.18,1.59-.86,3.05-1.86,4.38-2.98s2.48-2.34,3.44-3.66ZM178.02,252.57h14.34v1.34h-14.34v-1.34ZM179.43,249.45h9.22v1.33h-9.22v-1.33ZM181.29,255.44h9.15v6.93h-1.57v-5.66h-6.08v5.73h-1.5v-6.99ZM182.12,258.03h7.36v1.18h-7.36v-1.18ZM182.12,260.64h7.36v1.28h-7.36v-1.28ZM183.39,247.57h1.5v5.74h-1.5v-5.74Z"/>
        <path class="cls-3" d="M59.05,280.99c0-1.09.14-2.1.41-3.02.27-.93.65-1.78,1.13-2.54s1.02-1.46,1.63-2.08l1.22.58c-.59.61-1.1,1.27-1.54,1.99-.44.72-.78,1.5-1.03,2.34-.25.84-.38,1.75-.38,2.74s.12,1.89.38,2.74c.25.84.59,1.62,1.03,2.34.44.71.95,1.38,1.54,2l-1.22.58c-.61-.62-1.15-1.31-1.63-2.08-.48-.77-.86-1.62-1.13-2.55-.27-.93-.41-1.94-.41-3.02Z"/>
        <path class="cls-3" d="M66.46,287.07v-1.07c1.16-1.03,2.13-1.98,2.91-2.84.78-.86,1.36-1.66,1.75-2.39.39-.74.58-1.42.58-2.06,0-.43-.07-.8-.22-1.13-.14-.33-.36-.58-.66-.75-.29-.18-.66-.26-1.11-.26s-.88.13-1.26.38c-.38.25-.74.56-1.06.92l-1.04-1.02c.5-.55,1.03-.99,1.59-1.3.56-.31,1.23-.46,2.01-.46.71,0,1.34.15,1.87.44.53.29.95.7,1.24,1.23.29.53.44,1.15.44,1.86,0,.76-.19,1.52-.56,2.3-.37.77-.88,1.55-1.54,2.34s-1.39,1.58-2.22,2.38c.31-.03.64-.06.98-.09.35-.03.66-.04.94-.04h2.96v1.58h-7.62Z"/>
        <path class="cls-3" d="M81.05,287.3c-.77,0-1.44-.23-2.02-.69s-1.02-1.14-1.34-2.06-.47-2.05-.47-3.42.16-2.5.47-3.39.76-1.56,1.34-2.01c.58-.44,1.25-.66,2.02-.66s1.43.22,2,.67c.57.45,1,1.12,1.32,2.01s.47,2.02.47,3.38-.16,2.5-.47,3.42-.75,1.6-1.32,2.06-1.23.69-2,.69ZM81.05,285.82c.39,0,.75-.15,1.06-.46s.55-.81.72-1.5c.17-.69.26-1.6.26-2.73s-.09-2.03-.26-2.7c-.17-.67-.41-1.16-.72-1.46-.31-.3-.66-.45-1.06-.45s-.75.15-1.06.45c-.31.3-.55.78-.73,1.46-.18.67-.26,1.57-.26,2.7s.09,2.04.26,2.73.42,1.19.73,1.5c.31.31.66.46,1.06.46Z"/>
        <path class="cls-3" d="M88.55,287.07v-1.52h2.59v-8.19h-2.11v-1.17c.55-.1,1.04-.22,1.45-.37s.79-.33,1.13-.54h1.39v10.27h2.29v1.52h-6.74Z"/>
        <path class="cls-3" d="M98.62,287.07v-1.07c1.16-1.03,2.13-1.98,2.91-2.84.78-.86,1.36-1.66,1.75-2.39.39-.74.58-1.42.58-2.06,0-.43-.07-.8-.22-1.13-.14-.33-.36-.58-.66-.75-.29-.18-.66-.26-1.11-.26s-.88.13-1.26.38c-.38.25-.74.56-1.06.92l-1.04-1.02c.5-.55,1.03-.99,1.59-1.3.56-.31,1.23-.46,2.01-.46.71,0,1.34.15,1.87.44.53.29.95.7,1.24,1.23.29.53.44,1.15.44,1.86,0,.76-.19,1.52-.56,2.3-.37.77-.89,1.55-1.54,2.34s-1.39,1.58-2.22,2.38c.31-.03.64-.06.98-.09.35-.03.66-.04.94-.04h2.96v1.58h-7.62Z"/>
        <path class="cls-3" d="M113.34,283.38h14.61v1.47h-14.61v-1.47ZM116.87,273.5l1.54.4c-.3.78-.65,1.54-1.04,2.3s-.82,1.45-1.28,2.09c-.46.64-.94,1.2-1.44,1.68-.1-.09-.22-.19-.38-.32-.16-.13-.32-.25-.48-.38-.17-.12-.31-.22-.44-.28.5-.44.97-.95,1.41-1.53s.83-1.21,1.19-1.89c.36-.68.66-1.37.92-2.07ZM115.94,279.12h10.82v1.41h-9.31v3.6h-1.5v-5.01ZM116.87,275.42h10.26v1.46h-10.99l.74-1.46ZM120.7,276.18h1.55v12.24h-1.55v-12.24Z"/>
        <path class="cls-3" d="M135.34,280.99c0,1.08-.14,2.08-.41,3.02-.27.93-.65,1.78-1.13,2.55-.48.77-1.02,1.46-1.63,2.08l-1.21-.58c.59-.62,1.1-1.29,1.54-2,.44-.71.78-1.49,1.03-2.34.25-.84.38-1.75.38-2.74s-.12-1.91-.38-2.74c-.25-.84-.59-1.62-1.03-2.34-.44-.72-.95-1.38-1.54-1.99l1.21-.58c.61.62,1.15,1.31,1.63,2.08.48.77.86,1.62,1.13,2.54.27.93.41,1.94.41,3.02Z"/>
      </g>
      <circle class="cls-2" cx="97.13" cy="149.5" r="63"/>
      <circle class="cls-2" cx="376.87" cy="128.5" r="84"/>
      <circle class="cls-2" cx="662.49" cy="107.5" r="105"/>
      <line class="cls-1" y1="360.4" x2="775.05" y2="360.4"/>
      <path class="cls-4" d="M250.6,179.07l-.98,31.06-10.44-10.44c-18,17.74-43.18,2.16-43.18,2.16,19.68,3.54,31.83-8.79,34.06-11.28l-10.52-10.52,31.07-.98Z"/>
      <path class="cls-4" d="M540.82,162.9l-1.4,44.24-14.87-14.87c-25.64,25.26-61.49,3.08-61.49,3.08,28.03,5.04,45.33-12.52,48.5-16.07l-14.98-14.98,44.24-1.39Z"/>
    </g>
  </g>
</svg>