<?xml version="1.0" encoding="UTF-8"?>
<svg id="_レイヤー_2" data-name="レイヤー 2" xmlns="http://www.w3.org/2000/svg" xmlns:xlink="http://www.w3.org/1999/xlink" viewBox="0 0 610.47 506.37">
  <defs>
    <style>
      .cls-1, .cls-2, .cls-3 {
        fill: none;
      }

      .cls-4 {
        fill: #595656;
      }

      .cls-5 {
        fill: #040000;
      }

      .cls-6 {
        fill: #16a498;
      }

      .cls-2 {
        stroke: #231815;
        stroke-dasharray: 10 10 10 10 10 10;
        stroke-width: 3px;
      }

      .cls-2, .cls-3 {
        stroke-linecap: round;
        stroke-linejoin: round;
      }

      .cls-7 {
        fill: #3e3a39;
      }

      .cls-8 {
        clip-path: url(#clippath-1);
      }

      .cls-9 {
        fill: #231815;
      }

      .cls-3 {
        stroke: #fff;
        stroke-width: 5px;
      }
    </style>
    <clipPath id="clippath-1">
      <rect class="cls-1" x="265.83" y="104.09" width="78.81" height="79.24"/>
    </clipPath>
  </defs>
  <g id="_レイヤー_1-2" data-name="レイヤー 1">
    <g>
      <g>
        <line class="cls-2" x1="1.5" y1="1.5" x2="88.21" y2="88.21"/>
        <polygon class="cls-9" points="72.51 89.86 72.61 86.86 87.4 87.4 86.86 72.62 89.86 72.51 90.51 90.52 72.51 89.86"/>
      </g>
      <g>
        <line class="cls-2" x1="608.97" y1="1.5" x2="522.26" y2="88.21"/>
        <polygon class="cls-9" points="520.61 72.51 523.61 72.61 523.07 87.4 537.85 86.86 537.96 89.86 519.95 90.51 520.61 72.51"/>
      </g>
    </g>
    <g>
      <g id="Layer_2" data-name="Layer 2">
        <g id="Layer_1-2-3" data-name="Layer 1-2">
          <g id="Layer_2-2-2" data-name="Layer 2-2">
            <g id="Layer_1-2-2-2" data-name="Layer 1-2-2">
              <g>
                <g>
                  <path class="cls-5" d="M252.19,201.95v5.67h.05l4.5-5.67h2.7l-4.57,5.78,5.93,6.5h-3.01l-5.6-6.03v6.03h-2.37v-12.28h2.37Z"/>
                  <path class="cls-5" d="M266.15,201.95v7.17c-.02.58.1,1.15.33,1.69.24.46.62.84,1.08,1.08.53.29,1.14.44,1.74.42.64.02,1.28-.12,1.85-.4.48-.24.87-.62,1.11-1.09.26-.6.38-1.26.35-1.92v-6.96h2.38v7.3c.09,1.43-.45,2.82-1.48,3.82-1.19.95-2.69,1.43-4.21,1.33-1.02.03-2.03-.18-2.96-.6-.8-.38-1.47-.99-1.91-1.76-.46-.82-.69-1.75-.66-2.7v-7.39h2.37Z"/>
                  <path class="cls-5" d="M283.84,201.95c1.03-.04,2.04.3,2.82.97.72.63,1.13,1.55,1.09,2.51,0,.64-.19,1.27-.55,1.79-.41.55-.96.98-1.61,1.23.4.22.76.51,1.05.86.44.57.82,1.19,1.13,1.84.75,1.48,1.31,2.51,1.67,3.08h-2.65c-.26-.42-.5-.85-.72-1.29-.45-.91-.95-1.79-1.5-2.64-.25-.36-.56-.67-.92-.92-.3-.19-.65-.29-1.01-.28h-.86v5.17h-2.37v-12.32h4.43ZM283.3,207.18c.52.02,1.03-.14,1.43-.47.36-.32.55-.79.53-1.27.04-.48-.16-.95-.52-1.27-.44-.3-.97-.45-1.51-.42h-1.48v3.46l1.54-.04Z"/>
                  <path class="cls-5" d="M298.57,201.78c1.19-.02,2.37.25,3.44.79,3.05,1.6,4.22,5.36,2.63,8.4,0,0,0,0,0,0l-.17.31c-.58.97-1.42,1.77-2.42,2.29-2.19,1.1-4.77,1.1-6.96,0-2.05-1.05-3.32-3.17-3.3-5.47,0-1.12.3-2.23.88-3.19.58-.98,1.42-1.78,2.43-2.3,1.08-.56,2.27-.84,3.49-.82ZM294.27,208.09c-.01.77.18,1.53.55,2.2.36.64.89,1.17,1.54,1.51.69.37,1.46.55,2.24.54,1.16.04,2.28-.39,3.11-1.19.82-.8,1.26-1.92,1.21-3.06.01-.77-.18-1.53-.55-2.2-.36-.65-.89-1.19-1.55-1.54-.69-.36-1.46-.55-2.25-.54-.78-.01-1.56.18-2.25.55-.65.34-1.18.87-1.54,1.51-.37.68-.56,1.45-.55,2.22h.03Z"/>
                  <path class="cls-5" d="M316.87,201.95v1.85h-5.12v3.18h5.12v1.87h-5.12v5.38h-2.37v-12.28h7.49Z"/>
                  <path class="cls-5" d="M323.12,201.95v7.17c-.03.6.08,1.2.32,1.75.24.46.62.84,1.08,1.08.54.29,1.14.44,1.75.43.64.02,1.28-.12,1.86-.4.48-.24.86-.62,1.11-1.09.26-.6.38-1.26.35-1.92v-7.02h2.37v7.3c.09,1.43-.45,2.82-1.48,3.82-1.19.95-2.69,1.43-4.21,1.33-1.02.03-2.03-.18-2.96-.6-.8-.37-1.47-.99-1.92-1.76-.45-.83-.68-1.76-.66-2.7v-7.39h2.37Z"/>
                  <path class="cls-5" d="M338.46,201.95l7.3,8.61v-8.61h2.32v12.28h-2.07l-7.32-8.72v8.72h-2.32v-12.28h2.09Z"/>
                  <path class="cls-5" d="M360.53,201.95v1.85h-5.57v3.23h5.33v1.86h-5.34v3.49h5.7v1.86h-8.07v-12.28h7.95Z"/>
                </g>
                <g class="cls-8">
                  <g>
                    <path class="cls-7" d="M307.01,136.28c.22.02.42.12.56.28l36.69,27.4c.36.18.51.62.33.99h0c-2.08,5.87-4.13,11.8-6.15,17.8-.05.37-.39.62-.76.57,0,0-.01,0-.02,0h-29.93c-.58,0-.69-.16-.69-.69v-46.34h-.05Z"/>
                    <path class="cls-7" d="M303.47,136.19v46.38c0,.58-.12.74-.72.74-9.94.01-19.9.02-29.88.02-.4.06-.78-.2-.86-.6-2.02-5.87-4.06-11.81-6.13-17.82-.2-.29-.13-.68.16-.88.04-.03.08-.05.13-.07h0l36.73-27.38.58-.39Z"/>
                    <path class="cls-6" d="M340.73,140.3c-1.51-1.13-3.01-2.25-4.51-3.35l-28.68-21.45c-.36-.23-.56-.64-.51-1.06v-10.23c0-.09.35.14.51.25,11.99,8.94,23.96,17.88,35.94,26.82.34.14.5.53.36.87,0,0,0,.02-.01.02v.11c-.95,2.47-1.87,4.95-2.8,7.41-.12.19-.21.39-.3.6Z"/>
                    <path class="cls-6" d="M303.47,104.09v10.56c.02.36-.16.71-.46.92l-32.84,24.46c-.37.28-.49.21-.63-.19-.93-2.52-1.87-5.04-2.83-7.57-.2-.32-.11-.74.21-.95,0,0,0,0,0,0h0c7.15-5.34,14.29-10.68,21.43-16.02l14.61-10.85.51-.35Z"/>
                    <path class="cls-4" d="M336.1,152.71c-.27-.11-.51-.26-.72-.46l-27.93-20.83c-.26-.14-.43-.39-.46-.69v-10.25c-.02-.1.02-.21.09-.28.2.05.38.16.51.32,10.41,7.71,20.81,15.44,31.2,23.19.37.17.53.62.35.98,0,0,0,0,0,0v.09c-1.13,2.62-2.06,5.26-3.05,7.92Z"/>
                    <path class="cls-4" d="M303.47,120.12v10.65c0,.35-.23.46-.42.6l-13.19,9.84-14.91,11.16c-.18.11-.36.24-.53.37l-2.83-7.52q-.4-1.11.56-1.85l30.74-22.89c.15-.18.35-.31.58-.37Z"/>
                  </g>
                </g>
              </g>
            </g>
          </g>
        </g>
      </g>
      <path class="cls-9" d="M430.3,506.37v-69.34h-21.33l-11.66,3.37v-6.59h-10.67l-9.67,3.23v21.33h-2.13v-5.33h-10.67l-.52.13v-26.8h-10.67v-16h-16l-17.14,10.29v5.71h-3.68v-10.67h-21.33l-5.33,5.33v5.33h-21.33l-10.67,10.67v4.62l10.67-9.96h2.67v5.33h-2.67l-10.67,9.25v4.62l10.67-8.53h2.67v5.33h-2.67l-10.67,7.82v2.84h-5.33v-5.33h-10.67l-5.33,1.6v3.73h-5.33l-5.33,1.33v-12h-21.33l-.89.38v-5.27h-10.67l-9.78,4.89v14.36h-2.67v10.67h2.67v.53h-2.67v10.67h2.67v.53h-2.67v10.67h2.67v11.24h247.47ZM411.64,442.37h10.67v5.33h-10.67v-5.33ZM411.64,453.04h10.67v5.33h-10.67v-5.33ZM411.64,463.71h10.67v5.33h-10.67v-5.33ZM411.64,474.37h10.67v5.33h-10.67v-5.33ZM411.64,485.04h10.67v5.33h-10.67v-5.33ZM411.64,495.71h10.67v5.33h-10.67v-5.33ZM190.01,501.58l-2.49.1v-4.69l2.49-.19v4.79ZM190.01,492.01l-2.49.29v-4.69l2.49-.38v4.79ZM190.01,482.43l-2.49.48v-4.69l2.49-.57v4.79ZM190.01,472.85l-2.49.67v-4.69l2.49-.77v4.79ZM190.01,463.27l-2.49.86v-4.69l2.49-.96v4.79ZM197.56,501.29l-4.95.19v-4.89l4.95-.38v5.08ZM197.56,491.14l-4.95.57v-4.89l4.95-.76v5.08ZM197.56,480.98l-4.95.95v-4.89l4.95-1.14v5.08ZM197.56,470.82l-4.95,1.33v-4.89l4.95-1.52v5.08ZM206.83,501.04h-2.67l-5.45.21v-5.12l5.45-.42h2.67v5.33ZM206.83,490.37h-2.67l-5.45.63v-5.12l5.45-.84h2.67v5.33ZM206.83,479.71h-2.67l-5.45,1.05v-5.12l5.45-1.26h2.67v5.33ZM206.83,469.04h-2.67l-5.45,1.47v-5.12l5.45-1.68h2.67v5.33ZM206.83,458.37h-2.67l-11.56,4v-4.89l11.56-4.44h2.67v5.33ZM214.11,501.5l-4.61.13v-4.74l4.61-.26v4.87ZM214.11,491.77l-4.61.38v-4.74l4.61-.51v4.87ZM214.11,482.03l-4.61.64v-4.74l4.61-.77v4.87ZM214.11,472.29l-4.61.9v-4.74l4.61-1.02v4.87ZM219.27,501.36l-4.63.13v-4.88l4.63-.26v5.01ZM219.27,491.34l-4.63.39v-4.88l4.63-.51v5.01ZM219.27,481.31l-4.63.64v-4.88l4.63-.77v5.01ZM219.27,471.29l-4.63.9v-4.88l4.63-1.03v5.01ZM224.75,501.21l-4.94.14v-5.03l4.94-.27v5.16ZM224.75,490.88l-4.94.41v-5.03l4.94-.55v5.16ZM224.75,480.55l-4.94.69v-5.03l4.94-.82v5.16ZM224.75,470.22l-4.94.96v-5.03l4.94-1.1v5.16ZM235.9,501.04h-5.07l-5.55.15v-5.18l5.55-.31h5.07v5.33ZM235.9,490.37h-5.07l-5.55.46v-5.18l5.55-.62h5.07v5.33ZM235.9,479.71h-5.07l-5.55.77v-5.18l5.55-.93h5.07v5.33ZM235.9,469.04h-5.07l-5.55,1.08v-5.18l5.55-1.23h5.07v5.33ZM241.23,501.04h-4.8v-5.33h4.8v5.33ZM241.23,490.37h-4.8v-5.33h4.8v5.33ZM241.23,479.71h-4.8v-5.33h4.8v5.33ZM241.23,469.04h-4.8v-5.33h4.8v5.33ZM246.57,501.04h-4.8v-5.33h4.8v5.33ZM246.57,490.37h-4.8v-5.33h4.8v5.33ZM246.57,479.71h-4.8v-5.33h4.8v5.33ZM246.57,469.04h-4.8v-5.33h4.8v5.33ZM252.17,501.04h-5.07v-5.33h5.07v5.33ZM252.17,490.37h-5.07v-5.33h5.07v5.33ZM252.17,479.71h-5.07v-5.33h5.07v5.33ZM252.17,469.04h-5.07v-5.33h5.07v5.33ZM270.83,501.04h-2.67l-10.67.71v-4.62l10.67-1.42h2.67v5.33ZM270.83,490.37h-2.67l-10.67,2.13v-4.62l10.67-2.84h2.67v5.33ZM270.83,479.71h-2.67l-10.67,3.56v-4.62l10.67-4.27h2.67v5.33ZM270.83,469.04h-2.67l-10.67,4.98v-4.62l10.67-5.69h2.67v5.33ZM270.83,458.37h-2.67l-10.67,6.4v-4.62l10.67-7.11h2.67v5.33ZM284.17,431.71h2.67v5.33h-2.67v-5.33ZM284.17,442.37h2.67v5.33h-2.67v-5.33ZM284.17,453.04h2.67v5.33h-2.67v-5.33ZM284.17,463.71h2.67v5.33h-2.67v-5.33ZM284.17,474.37h2.67v5.33h-2.67v-5.33ZM284.17,485.04h2.67v5.33h-2.67v-5.33ZM278.83,431.71h2.67v5.33h-2.67v-5.33ZM278.83,442.37h2.67v5.33h-2.67v-5.33ZM278.83,453.04h2.67v5.33h-2.67v-5.33ZM278.83,463.71h2.67v5.33h-2.67v-5.33ZM278.83,474.37h2.67v5.33h-2.67v-5.33ZM278.83,485.04h2.67v5.33h-2.67v-5.33ZM292.17,504.15h-13.33v-8.44h13.33v8.44ZM292.17,490.37h-2.67v-5.33h2.67v5.33ZM292.17,479.71h-2.67v-5.33h2.67v5.33ZM292.17,469.04h-2.67v-5.33h2.67v5.33ZM292.17,458.37h-2.67v-5.33h2.67v5.33ZM292.17,447.71h-2.67v-5.33h2.67v5.33ZM292.17,437.04h-2.67v-5.33h2.67v5.33ZM300.17,431.71h2.67v5.33h-2.67v-5.33ZM300.17,442.37h2.67v5.33h-2.67v-5.33ZM300.17,453.04h2.67v5.33h-2.67v-5.33ZM300.17,463.71h2.67v5.33h-2.67v-5.33ZM300.17,474.37h2.67v5.33h-2.67v-5.33ZM300.17,485.04h2.67v5.33h-2.67v-5.33ZM294.83,431.71h2.67v5.33h-2.67v-5.33ZM294.83,442.37h2.67v5.33h-2.67v-5.33ZM294.83,453.04h2.67v5.33h-2.67v-5.33ZM294.83,463.71h2.67v5.33h-2.67v-5.33ZM294.83,474.37h2.67v5.33h-2.67v-5.33ZM294.83,485.04h2.67v5.33h-2.67v-5.33ZM308.17,504.15h-13.33v-8.44h13.33v8.44ZM308.17,490.37h-2.67v-5.33h2.67v5.33ZM308.17,479.71h-2.67v-5.33h2.67v5.33ZM308.17,469.04h-2.67v-5.33h2.67v5.33ZM308.17,458.37h-2.67v-5.33h2.67v5.33ZM308.17,447.71h-2.67v-5.33h2.67v5.33ZM308.17,437.04h-2.67v-5.33h2.67v5.33ZM321.5,495.71h-5.33v-5.33h5.33v5.33ZM321.5,485.04h-5.33v-5.33h5.33v5.33ZM321.5,474.37h-5.33v-5.33h5.33v5.33ZM321.5,463.71h-5.33v-5.33h5.33v5.33ZM321.5,453.04h-5.33v-5.33h5.33v5.33ZM321.5,442.37h-5.33v-5.33h5.33v5.33ZM328.92,501.43l-5.02.14v-4.81l5.02-.28v4.95ZM328.92,491.53l-5.02.42v-4.81l5.02-.56v4.95ZM328.92,481.64l-5.02.7v-4.81l5.02-.84v4.95ZM328.92,471.74l-5.02.98v-4.81l5.02-1.12v4.95ZM337.02,501.2l-2.78.08v-5.1l2.78-.15v5.17ZM337.02,490.86l-2.78.23v-5.1l2.78-.31v5.17ZM337.02,480.51l-2.78.39v-5.09l2.78-.46v5.17ZM337.02,470.17l-2.78.54v-5.09l2.78-.62v5.17ZM351.9,501.04h-6.4v-5.33h6.4v5.33ZM351.9,490.37h-6.4v-5.33h6.4v5.33ZM351.9,479.71h-6.4v-5.33h6.4v5.33ZM351.9,469.04h-6.4v-5.33h6.4v5.33ZM359.37,501.04h-6.4v-5.33h6.4v5.33ZM359.37,490.37h-6.4v-5.33h6.4v5.33ZM359.37,479.71h-6.4v-5.33h6.4v5.33ZM359.37,469.04h-6.4v-5.33h6.4v5.33ZM366.84,501.04h-6.4v-5.33h6.4v5.33ZM366.84,490.37h-6.4v-5.33h6.4v5.33ZM366.84,479.71h-6.4v-5.33h6.4v5.33ZM366.84,469.04h-6.4v-5.33h6.4v5.33ZM374.3,501.04h-6.4v-5.33h6.4v5.33ZM374.3,490.37h-6.4v-5.33h6.4v5.33ZM374.3,479.71h-6.4v-5.33h6.4v5.33ZM374.3,469.04h-6.4v-5.33h6.4v5.33ZM381.7,501.65l-2.39.05v-4.67l2.39-.11v4.73ZM381.7,492.19l-2.39.16v-4.67l2.39-.21v4.73ZM381.7,482.74l-2.39.27v-4.67l2.39-.32v4.73ZM381.7,473.28l-2.39.37v-4.67l2.39-.43v4.73ZM381.7,463.83l-2.39.48v-4.67l2.39-.53v4.73ZM381.7,454.37l-2.39.58v-4.67l2.39-.64v4.73ZM391.83,501.42l-2.62.06v-4.89l2.62-.12v4.95ZM391.83,491.52l-2.62.18v-4.89l2.62-.23v4.95ZM391.83,481.61l-2.62.29v-4.89l2.62-.35v4.95ZM391.83,471.71l-2.62.41v-4.89l2.62-.47v4.95ZM391.83,461.8l-2.62.52v-4.89l2.62-.58v4.95ZM391.83,451.9l-2.62.64v-4.89l2.62-.7v4.95ZM397.26,501.3l-2.75.06v-5.01l2.75-.12v5.07ZM397.26,491.15l-2.75.18v-5.01l2.75-.24v5.07ZM397.26,481.01l-2.75.31v-5.01l2.75-.37v5.07ZM397.26,470.86l-2.75.43v-5.01l2.75-.49v5.07ZM397.26,460.71l-2.75.55v-5.01l2.75-.61v5.07ZM397.26,450.57l-2.75.67v-5.01l2.75-.73v5.07Z"/>
      <g>
        <line class="cls-2" x1="305.23" y1="242.78" x2="305.23" y2="323.52"/>
        <polygon class="cls-9" points="292.96 313.58 295.16 311.54 305.23 322.37 315.3 311.54 317.5 313.58 305.23 326.78 292.96 313.58"/>
      </g>
      <g>
        <g>
          <path d="M231.5,375.73c0,1.19.04,2.95.18,3.71,0,.07.04.14.04.22,0,.47-7.24,4.32-9.61,5.36,0,.14.04.25.04.36,0,.47-.14.68-.32.68s-.36-.14-.54-.4c-.79-1.01-2.84-4.72-2.84-4.72,4.68-1.44,10.65-4.75,13.07-6.41v1.19ZM232.48,366.51l-12.85.11v-4.72h12.85v-4.07s-.04-1.08-.11-2.02c0,0,3.96.04,5.44.25.36.04.58.22.58.36,0,.22-.29.47-.97.58-.07.5-.07,1.26-.07,1.26v3.64h5.98c-1.91-1.73-4.57-2.84-4.57-2.84l2.41-3.06s3.71,1.48,5.69,3.38l-1.87,2.52h5.62v4.72l-4.57-.04c3.28,3.1,3.82,3.64,3.82,4.07,0,.18-.14.29-.43.29-.25,0-.58-.11-.94-.25-2.2,1.76-4.54,3.31-6.15,4.36,2.41,3.1,5.72,6.16,10.04,8.03,0,0-3.56,2.02-4.9,3.49-.07.07-.14.11-.18.11-.07,0-5.76-2.63-10.19-12.02.07.97.29,3.78.4,7.7v.36c0,4.82-2.41,6.33-6.8,6.33-2.09,0-2.16-.07-2.23-.32-.47-1.58-3.06-5.11-3.06-5.11,1.33.25,2.95.58,4.28.58,1.58,0,2.81-.47,2.81-2.16v-15.51ZM224.41,366.62s4,2.41,6.52,4.97l-3.17,3.67c-2.99-3.31-6.44-5.33-6.44-5.33l3.09-3.31ZM237.37,366.51c.5,1.26,1.33,2.99,2.45,4.9,1.58-1.15,3.71-2.84,5.72-4.82l-8.17-.07Z"/>
          <path d="M278.7,362.51c0-3.28-.07-5.25-.11-5.72,0,0,4.57,0,6.19.18.54.07.76.22.76.4,0,.25-.47.58-1.12.76-.04.22-.07.86-.07,1.8,0,10.47,4.18,19.08,15.23,24.4,0,0-4.14,2.2-5.54,3.56-.11.11-.22.14-.29.14-.11,0-7.7-3.92-11.91-14.43-4.25,11.63-12.06,14.94-12.06,14.94-.07,0-.14-.04-.22-.14-1.22-1.33-5.4-3.53-5.4-3.53,10.94-4.25,14.54-15.12,14.54-22.35Z"/>
          <path d="M326.58,356s3.92.86,4.97,1.26c.25.11.43.25.43.4s-.22.32-.79.4c1.91,2.38,7.2,8.1,15.23,10.8,0,0-3.31,2.66-4.43,4.07-.11.14-.14.18-.22.18-.29,0-6.55-2.77-13.21-11.19-6.16,8.46-12.71,11.7-12.89,11.7-.07,0-.11-.07-.22-.18-1.12-1.3-4.43-3.49-4.43-3.49,9.72-3.89,15.26-13.28,15.55-13.93ZM313.12,383.28h5.04v-8.24c0-.94,0-.97-.11-2.56,0,0,4.03,0,5.65.22.36.04.58.22.58.4,0,.22-.32.47-1.01.61-.04.61-.07,1.01-.07,1.55v8.03h3.24l-.04-14.72c0-.94,0-.97-.11-2.56,0,0,4.07,0,5.69.22.36.04.58.22.58.4,0,.22-.32.47-1.01.61-.04.61-.07,1.01-.07,1.55v4.39h9.18v4.54h-9.18v5.58h12.6v4.54h-30.96v-4.54Z"/>
          <path d="M360.06,376.59h12.92v-1.33h-9.86v-3.38h9.86v-1.26h-11.95v-3.67h7.27c-.32-.68-.65-1.33-.9-1.84h-7.63v-3.85h5.04c-1.04-1.73-2.16-2.95-2.16-2.95l4.03-1.66s1.83,2.16,2.92,4.61h.4v-3.13c0-.54,0-1.4-.07-2.34,0,0,4.14.11,4.82.22.4.04.65.22.65.4,0,.22-.25.4-.86.54-.07.9-.07,2.27-.07,2.27v2.05h1.69v-2.56s-.04-1.62-.11-2.92c0,0,4.14.11,4.86.22.36.04.61.22.61.4s-.29.4-.9.54c-.04.83-.07,2.16-.07,2.16v2.16h.72c1.91-2.63,2.34-4.9,2.34-4.9,0,0,3.46,1.26,4.54,1.91.29.18.43.36.43.5,0,.22-.25.36-.68.36-.18,0-.36-.04-.58-.07,0,0-.58,1.08-1.3,2.2h5.15v3.85h-7.7c-.25.47-.58,1.15-.94,1.84h7.16v3.67h-11.92v1.26h9.93v3.38h-9.93v1.33h13.03v3.92l-11.45-.18c2.77,1.73,7.27,3.85,13.43,4.54,0,0-3.71,2.63-4.57,3.74-.07.07-.11.11-.18.11-.14,0-4.57-.68-10.33-5.15.07,1.08.14,2.16.14,2.7v2.81h-4.86v-2.81c0-.54.04-1.51.11-2.56-4.86,3.85-10.22,5.15-10.55,5.15-.04,0-.11,0-.14-.07-.65-.86-4.43-3.46-4.43-3.46,6.05-.94,10.37-3.2,12.99-5l-10.91.18v-3.92ZM377.7,366.94c.29-.65.54-1.26.79-1.84h-6.23c.25.5.58,1.15.83,1.84h4.61Z"/>
        </g>
        <g>
          <path d="M231.5,375.73c0,1.19.04,2.95.18,3.71,0,.07.04.14.04.22,0,.47-7.24,4.32-9.61,5.36,0,.14.04.25.04.36,0,.47-.14.68-.32.68s-.36-.14-.54-.4c-.79-1.01-2.84-4.72-2.84-4.72,4.68-1.44,10.65-4.75,13.07-6.41v1.19ZM232.48,366.51l-12.85.11v-4.72h12.85v-4.07s-.04-1.08-.11-2.02c0,0,3.96.04,5.44.25.36.04.58.22.58.36,0,.22-.29.47-.97.58-.07.5-.07,1.26-.07,1.26v3.64h5.98c-1.91-1.73-4.57-2.84-4.57-2.84l2.41-3.06s3.71,1.48,5.69,3.38l-1.87,2.52h5.62v4.72l-4.57-.04c3.28,3.1,3.82,3.64,3.82,4.07,0,.18-.14.29-.43.29-.25,0-.58-.11-.94-.25-2.2,1.76-4.54,3.31-6.15,4.36,2.41,3.1,5.72,6.16,10.04,8.03,0,0-3.56,2.02-4.9,3.49-.07.07-.14.11-.18.11-.07,0-5.76-2.63-10.19-12.02.07.97.29,3.78.4,7.7v.36c0,4.82-2.41,6.33-6.8,6.33-2.09,0-2.16-.07-2.23-.32-.47-1.58-3.06-5.11-3.06-5.11,1.33.25,2.95.58,4.28.58,1.58,0,2.81-.47,2.81-2.16v-15.51ZM224.41,366.62s4,2.41,6.52,4.97l-3.17,3.67c-2.99-3.31-6.44-5.33-6.44-5.33l3.09-3.31ZM237.37,366.51c.5,1.26,1.33,2.99,2.45,4.9,1.58-1.15,3.71-2.84,5.72-4.82l-8.17-.07Z"/>
          <path d="M278.7,362.51c0-3.28-.07-5.25-.11-5.72,0,0,4.57,0,6.19.18.54.07.76.22.76.4,0,.25-.47.58-1.12.76-.04.22-.07.86-.07,1.8,0,10.47,4.18,19.08,15.23,24.4,0,0-4.14,2.2-5.54,3.56-.11.11-.22.14-.29.14-.11,0-7.7-3.92-11.91-14.43-4.25,11.63-12.06,14.94-12.06,14.94-.07,0-.14-.04-.22-.14-1.22-1.33-5.4-3.53-5.4-3.53,10.94-4.25,14.54-15.12,14.54-22.35Z"/>
          <path d="M326.58,356s3.92.86,4.97,1.26c.25.11.43.25.43.4s-.22.32-.79.4c1.91,2.38,7.2,8.1,15.23,10.8,0,0-3.31,2.66-4.43,4.07-.11.14-.14.18-.22.18-.29,0-6.55-2.77-13.21-11.19-6.16,8.46-12.71,11.7-12.89,11.7-.07,0-.11-.07-.22-.18-1.12-1.3-4.43-3.49-4.43-3.49,9.72-3.89,15.26-13.28,15.55-13.93ZM313.12,383.28h5.04v-8.24c0-.94,0-.97-.11-2.56,0,0,4.03,0,5.65.22.36.04.58.22.58.4,0,.22-.32.47-1.01.61-.04.61-.07,1.01-.07,1.55v8.03h3.24l-.04-14.72c0-.94,0-.97-.11-2.56,0,0,4.07,0,5.69.22.36.04.58.22.58.4,0,.22-.32.47-1.01.61-.04.61-.07,1.01-.07,1.55v4.39h9.18v4.54h-9.18v5.58h12.6v4.54h-30.96v-4.54Z"/>
          <path d="M360.06,376.59h12.92v-1.33h-9.86v-3.38h9.86v-1.26h-11.95v-3.67h7.27c-.32-.68-.65-1.33-.9-1.84h-7.63v-3.85h5.04c-1.04-1.73-2.16-2.95-2.16-2.95l4.03-1.66s1.83,2.16,2.92,4.61h.4v-3.13c0-.54,0-1.4-.07-2.34,0,0,4.14.11,4.82.22.4.04.65.22.65.4,0,.22-.25.4-.86.54-.07.9-.07,2.27-.07,2.27v2.05h1.69v-2.56s-.04-1.62-.11-2.92c0,0,4.14.11,4.86.22.36.04.61.22.61.4s-.29.4-.9.54c-.04.83-.07,2.16-.07,2.16v2.16h.72c1.91-2.63,2.34-4.9,2.34-4.9,0,0,3.46,1.26,4.54,1.91.29.18.43.36.43.5,0,.22-.25.36-.68.36-.18,0-.36-.04-.58-.07,0,0-.58,1.08-1.3,2.2h5.15v3.85h-7.7c-.25.47-.58,1.15-.94,1.84h7.16v3.67h-11.92v1.26h9.93v3.38h-9.93v1.33h13.03v3.92l-11.45-.18c2.77,1.73,7.27,3.85,13.43,4.54,0,0-3.71,2.63-4.57,3.74-.07.07-.11.11-.18.11-.14,0-4.57-.68-10.33-5.15.07,1.08.14,2.16.14,2.7v2.81h-4.86v-2.81c0-.54.04-1.51.11-2.56-4.86,3.85-10.22,5.15-10.55,5.15-.04,0-.11,0-.14-.07-.65-.86-4.43-3.46-4.43-3.46,6.05-.94,10.37-3.2,12.99-5l-10.91.18v-3.92ZM377.7,366.94c.29-.65.54-1.26.79-1.84h-6.23c.25.5.58,1.15.83,1.84h4.61Z"/>
        </g>
      </g>
      <g>
        <g>
          <path class="cls-3" d="M291.14,284.44c-1.85.34-4.3.48-6.45.48-1.72,0-3.23-.1-4.05-.27-2.54-.57-3.63-2.16-3.63-4.01,0-1.57.88-3.21,2.14-4.47l1.22.63c-1.18,1.2-1.85,2.56-1.85,3.72,0,1.24.82,2.33,2.62,2.75.71.15,1.93.23,3.36.23,2.04,0,4.51-.17,6.53-.57l.11,1.51ZM281.71,273.86c1.09-.86,2.58-1.87,3.72-2.44v-.02c-1.6.19-5.25.25-7.58.25,0-.4,0-1.09-.02-1.47h1.13c2.69,0,8.19-.04,10.83-.67l.17,1.53c-.69.1-1.2.21-2.21.63-1.18.48-3.21,1.62-4.85,2.94l-1.2-.76ZM291.12,276.84c-.61-.92-1.91-2.18-2.81-2.86l.69-.65c1.01.73,2.23,1.95,2.88,2.83l-.76.67ZM293.32,274.85c-.59-.84-1.83-2.1-2.81-2.83l.69-.67c1.03.78,2.25,1.97,2.88,2.86l-.76.65Z"/>
          <path class="cls-3" d="M302.06,276.38c-.4-.71-.86-1.45-1.32-2.08l1.07-.5c.99,1.32,2.04,3.11,2.44,4.26l-1.13.55c-.11-.34-.27-.73-.48-1.15l-2.29.13v8.99h-1.28v-8.92c-1.2.04-2.29.1-3.15.13-.02.17-.15.23-.29.27l-.38-1.57h1.55c.46-.55.97-1.18,1.45-1.85-.65-.94-1.79-2.16-2.79-3.04l.71-.92c.21.17.42.36.63.57.74-1.24,1.6-2.94,2.08-4.16l1.53.65c-.08.13-.21.17-.44.17-.59,1.22-1.55,2.94-2.35,4.12.55.55,1.03,1.09,1.36,1.57.95-1.41,1.85-2.9,2.5-4.12l1.49.71c-.08.1-.25.17-.48.17-1.09,1.78-2.81,4.28-4.33,6.11l3.91-.06ZM298.16,279.55c-.04.13-.17.21-.4.21-.29,1.78-.78,3.8-1.43,5.04-.27-.19-.73-.4-1.05-.55.61-1.18,1.07-3.19,1.34-5.1l1.53.4ZM302.67,283.62c-.19-1.13-.78-2.88-1.39-4.18l1.09-.36c.63,1.32,1.24,3,1.47,4.14l-1.18.4ZM313.76,268.13l.67.06c0,.13-.02.29-.02.46-.17,4.87-.36,6.57-.84,7.16-.34.42-.69.59-2.14.59-.44,0-.95-.02-1.45-.04-.04-.4-.19-.92-.4-1.28.94.08,1.85.1,2.18.1.31,0,.52-.04.67-.21.31-.36.48-1.78.61-5.52h-4.24c-.4,2.92-1.2,5.82-4.24,7.43-.17-.31-.57-.78-.88-1.01,2.58-1.32,3.38-3.76,3.72-6.42h-3.32v-1.32h9.68ZM304.64,286.58v-8.44h9.28v8.36h-1.36v-.84h-6.59v.92h-1.32ZM312.56,279.42h-6.59v4.96h6.59v-4.96Z"/>
          <path class="cls-3" d="M317.31,276.69c-.19-.31-.59-.82-.88-1.11,3.76-1.99,7.33-5.52,8.96-8.61.25.02.5.04,2.08.13-.06.19-.23.27-.44.31,2.02,3.15,5.75,6.28,9.09,7.87-.34.36-.69.84-.95,1.26-3.4-1.85-7.1-5-9.03-8.04-1.68,2.86-5.17,6.13-8.84,8.19ZM321.63,274.57c1.05.08,1.47.1,1.87.13-.02.15-.15.25-.42.29v2.62c0,3.02-.46,6.47-4.77,8.97-.23-.31-.76-.78-1.11-1.01,4.05-2.29,4.43-5.33,4.43-7.98v-3.02ZM329.28,274.49l1.87.13c-.02.15-.13.25-.42.29v11.63h-1.45v-12.05Z"/>
        </g>
        <g>
          <path class="cls-9" d="M291.14,284.44c-1.85.34-4.3.48-6.45.48-1.72,0-3.23-.1-4.05-.27-2.54-.57-3.63-2.16-3.63-4.01,0-1.57.88-3.21,2.14-4.47l1.22.63c-1.18,1.2-1.85,2.56-1.85,3.72,0,1.24.82,2.33,2.62,2.75.71.15,1.93.23,3.36.23,2.04,0,4.51-.17,6.53-.57l.11,1.51ZM281.71,273.86c1.09-.86,2.58-1.87,3.72-2.44v-.02c-1.6.19-5.25.25-7.58.25,0-.4,0-1.09-.02-1.47h1.13c2.69,0,8.19-.04,10.83-.67l.17,1.53c-.69.1-1.2.21-2.21.63-1.18.48-3.21,1.62-4.85,2.94l-1.2-.76ZM291.12,276.84c-.61-.92-1.91-2.18-2.81-2.86l.69-.65c1.01.73,2.23,1.95,2.88,2.83l-.76.67ZM293.32,274.85c-.59-.84-1.83-2.1-2.81-2.83l.69-.67c1.03.78,2.25,1.97,2.88,2.86l-.76.65Z"/>
          <path class="cls-9" d="M302.06,276.38c-.4-.71-.86-1.45-1.32-2.08l1.07-.5c.99,1.32,2.04,3.11,2.44,4.26l-1.13.55c-.11-.34-.27-.73-.48-1.15l-2.29.13v8.99h-1.28v-8.92c-1.2.04-2.29.1-3.15.13-.02.17-.15.23-.29.27l-.38-1.57h1.55c.46-.55.97-1.18,1.45-1.85-.65-.94-1.79-2.16-2.79-3.04l.71-.92c.21.17.42.36.63.57.74-1.24,1.6-2.94,2.08-4.16l1.53.65c-.08.13-.21.17-.44.17-.59,1.22-1.55,2.94-2.35,4.12.55.55,1.03,1.09,1.36,1.57.95-1.41,1.85-2.9,2.5-4.12l1.49.71c-.08.1-.25.17-.48.17-1.09,1.78-2.81,4.28-4.33,6.11l3.91-.06ZM298.16,279.55c-.04.13-.17.21-.4.21-.29,1.78-.78,3.8-1.43,5.04-.27-.19-.73-.4-1.05-.55.61-1.18,1.07-3.19,1.34-5.1l1.53.4ZM302.67,283.62c-.19-1.13-.78-2.88-1.39-4.18l1.09-.36c.63,1.32,1.24,3,1.47,4.14l-1.18.4ZM313.76,268.13l.67.06c0,.13-.02.29-.02.46-.17,4.87-.36,6.57-.84,7.16-.34.42-.69.59-2.14.59-.44,0-.95-.02-1.45-.04-.04-.4-.19-.92-.4-1.28.94.08,1.85.1,2.18.1.31,0,.52-.04.67-.21.31-.36.48-1.78.61-5.52h-4.24c-.4,2.92-1.2,5.82-4.24,7.43-.17-.31-.57-.78-.88-1.01,2.58-1.32,3.38-3.76,3.72-6.42h-3.32v-1.32h9.68ZM304.64,286.58v-8.44h9.28v8.36h-1.36v-.84h-6.59v.92h-1.32ZM312.56,279.42h-6.59v4.96h6.59v-4.96Z"/>
          <path class="cls-9" d="M317.31,276.69c-.19-.31-.59-.82-.88-1.11,3.76-1.99,7.33-5.52,8.96-8.61.25.02.5.04,2.08.13-.06.19-.23.27-.44.31,2.02,3.15,5.75,6.28,9.09,7.87-.34.36-.69.84-.95,1.26-3.4-1.85-7.1-5-9.03-8.04-1.68,2.86-5.17,6.13-8.84,8.19ZM321.63,274.57c1.05.08,1.47.1,1.87.13-.02.15-.15.25-.42.29v2.62c0,3.02-.46,6.47-4.77,8.97-.23-.31-.76-.78-1.11-1.01,4.05-2.29,4.43-5.33,4.43-7.98v-3.02ZM329.28,274.49l1.87.13c-.02.15-.13.25-.42.29v11.63h-1.45v-12.05Z"/>
        </g>
      </g>
      <g>
        <g>
          <path class="cls-3" d="M225.03,22.57h13.63v17.68h-1.47v-1.26h-10.71v1.39h-1.45v-17.8ZM237.19,24h-10.71v6.03h10.71v-6.03ZM226.48,37.56h10.71v-6.15h-10.71v6.15Z"/>
          <path class="cls-3" d="M262.01,27.19h-7.66c1.81,3.74,4.96,7.2,8.38,8.84-.36.29-.82.84-1.07,1.24-3.3-1.78-6.28-5.14-8.21-8.94v6.89h4.2v1.43h-4.2v4.07h-1.47v-4.07h-4.26v-1.43h4.26v-6.84c-1.99,3.8-5,7.1-8.17,8.94-.25-.36-.69-.88-1.01-1.15,3.3-1.7,6.45-5.23,8.27-8.97h-7.58v-1.43h8.48v-4.54l1.89.1c-.02.15-.13.25-.42.29v4.14h8.57v1.43Z"/>
          <path class="cls-3" d="M264.96,24.04c1.57-.06,14.51-.99,17.24-1.01l.02,1.57c-.27-.02-.52-.02-.78-.02-1.22,0-2.25.21-3.59,1.07-3.15,1.89-6.19,5.27-6.19,7.98,0,2.94,2.06,4.68,7.26,5.35l-.69,1.47c-5.96-.86-8.19-3.09-8.19-6.82,0-2.96,2.92-6.55,6.76-8.97-2.31.17-8.5.63-11.21.88-.06.17-.29.31-.46.34l-.17-1.85ZM278.56,28.18c1.01.76,2.2,1.99,2.86,2.9l-.8.65c-.59-.92-1.87-2.23-2.77-2.92l.71-.63ZM280.83,26.33c1.03.76,2.25,1.97,2.86,2.9l-.8.63c-.57-.84-1.78-2.14-2.77-2.9l.71-.63Z"/>
          <path class="cls-3" d="M288.08,28.66c-.84,1.36-1.76,2.58-2.71,3.59-.17-.34-.53-1.01-.76-1.32,2.12-2.18,4.2-5.86,5.44-9.57l1.72.57c-.08.15-.23.21-.48.21-.57,1.51-1.24,3-1.99,4.43l.59.17c-.02.15-.15.23-.4.27v13.71h-1.41v-12.05ZM304.69,29.39h-6.34v9.05h5.98v1.36h-13.02v-1.36h5.58v-9.05h-6.09v-1.39h6.09v-6.49l1.85.13c-.02.15-.13.25-.4.27v6.09h6.34v1.39Z"/>
          <path class="cls-3" d="M325.37,33.59v1.15h-2.23v3.8h-1.43v-.97h-5.33v1.43c0,.94-.27,1.32-.9,1.53-.65.21-1.76.21-3.55.21-.06-.34-.32-.88-.5-1.22.78.02,1.55.04,2.12.04,1.28,0,1.41,0,1.41-.55v-1.45h-6.99v-1.11h6.99v-1.72h-8.8v-1.15h8.8v-1.6h-6.8v-1.07h6.8v-1.41h-6.17v-4.05h6.17v-1.32h-8.42v-1.2h8.42v-1.76l1.83.1c-.02.17-.13.27-.4.29v1.36h8.59v1.2h-8.59v1.32h6.47v4.05h-6.47v1.41h6.76v2.67h2.23ZM310.15,28.49h4.81v-1.99h-4.81v1.99ZM321.4,26.5h-5.02v1.99h5.02v-1.99ZM316.38,32v1.6h5.33v-1.6h-5.33ZM321.72,36.47v-1.72h-5.33v1.72h5.33Z"/>
          <path class="cls-3" d="M333.86,22.11c-.04.25-.23.4-.65.46-.17,2.44-.38,8-.38,11.11s1.55,4.64,4.2,4.64,5.16-1.28,7.56-3.99c.21.34.69,1.01.94,1.24-2.46,2.79-5.44,4.26-8.52,4.26-3.82,0-5.77-2.2-5.77-6.17,0-2.65.19-9.15.34-11.74l2.29.19Z"/>
          <path class="cls-3" d="M360.94,25.8c-1.79.63-4.16,1.03-6.45,1.2-.88,4.81-2.16,9.6-3.84,13.12l-1.51-.57c1.72-3.38,2.98-7.73,3.8-12.49-.42.02-3.23.04-3.86.02l-.02-1.43c.34.02.78.02,1.26.02.19,0,2.29,0,2.83-.02.21-1.34.42-2.81.54-4.09l2.16.21c-.02.23-.32.4-.61.42-.13.92-.34,2.06-.53,3.34,2.06-.19,4.14-.55,5.88-1.18l.34,1.45ZM366.53,39.79c-.63.02-1.28.04-1.93.04-1.97,0-3.84-.15-4.98-.46-1.49-.42-2.35-1.51-2.33-2.9.02-.92.42-1.97,1.3-3.04l1.26.55c-.73.86-1.09,1.68-1.09,2.33,0,1.66,1.6,2.08,5.42,2.08.78,0,1.58-.02,2.35-.08v1.49ZM358.34,29.67c2.16-.69,5.14-1.13,7.62-1.07v1.43c-2.37-.06-5.12.27-7.26.94l-.36-1.3Z"/>
          <path class="cls-3" d="M372.56,24.04c-.04.19-.27.31-.57.34-.25,1.57-.4,3.46-.4,5.23,0,.78.04,1.53.08,2.2.25,3.57,1.7,5.73,3.32,5.71.84,0,1.93-2.14,2.69-4.49.29.29.86.69,1.22.9-.96,2.83-2.18,5.14-3.93,5.19-2.67.04-4.51-3.19-4.81-7.22-.06-.8-.08-1.68-.08-2.62,0-1.85.11-3.86.32-5.65l2.16.42ZM386.48,33.8c-.59-3.67-2.46-6.32-5.29-7.89l.92-1.13c3.07,1.64,5.31,4.66,5.92,8.55l-1.55.48Z"/>
          <path class="cls-3" d="M258.04,52.37c-.02.15-.15.25-.42.29v9.32c1.53,1.41,3.25,2.6,4.93,3.36-.34.27-.78.82-1.01,1.2-1.32-.67-2.67-1.62-3.93-2.73v7.87h-1.45v-9.26c-1.3-1.34-2.48-2.83-3.38-4.39-1.3,6.74-4.2,11.21-7.96,13.61-.23-.31-.78-.82-1.13-1.03,2.22-1.34,4.14-3.38,5.54-6.15-.88-.86-2.33-1.93-3.57-2.65l.78-.99c1.15.63,2.5,1.53,3.42,2.33.76-1.83,1.34-3.93,1.72-6.3h-4.39c-.84,2.33-1.93,4.41-3.23,5.88-.21-.27-.69-.71-.99-.94,1.89-2.1,3.3-5.77,4.09-9.62l1.74.42c-.04.15-.19.23-.44.23-.21.9-.44,1.81-.71,2.69h4.47l.27-.06.9.38c-.04.08-.12.19-.21.25l-.19,1.2.69-.27c.67,1.2,1.55,2.39,2.56,3.51v-8.27l1.87.13Z"/>
          <path class="cls-3" d="M264.94,53.21h17.66v18.54h-1.45v-1.03h-14.82v1.03h-1.39v-18.54ZM266.32,69.4h14.82v-14.84h-14.82v14.84ZM274.3,66.08h5.44v1.24h-11.82v-1.24h5.06v-3.86h-4.12v-1.2h4.12v-3.3h-4.72v-1.22h11.02v1.22h-4.98v3.3h4.45v1.2h-4.45v3.86ZM277.93,65.71c-.44-.67-1.36-1.72-2.16-2.46l.92-.5c.82.71,1.76,1.7,2.23,2.37l-.99.59Z"/>
          <path class="cls-3" d="M295.76,53.03c0,.17-.17.27-.44.31l-.04.61c.23,2.96,1.49,12.77,9.49,16.4-.4.29-.84.8-1.07,1.18-5.67-2.69-8.02-8.4-9.01-12.74h-.02c-.88,4.26-3.04,9.72-8.73,12.72-.25-.34-.69-.78-1.13-1.07,8.75-4.39,8.82-14.72,8.97-17.55l1.99.15Z"/>
          <path class="cls-3" d="M324.49,61.19s-.08.04-.13.04c-.13,0-.23-.06-.32-.13-1.6.52-3.93,1.39-5.67,2.14.04.48.06,1.03.06,1.64,0,.67-.02,1.43-.06,2.25l-1.53.08c.06-.76.11-1.72.11-2.54,0-.31,0-.61-.02-.84-2.37,1.15-4.3,2.56-4.3,3.82s1.45,1.81,4.35,1.81c2.04,0,3.93-.04,5.27-.21l.02,1.41c-1.24.13-3.13.17-5.29.17-4.03,0-5.82-.97-5.82-3.11,0-1.85,2.44-3.63,5.58-5.21-.12-1.32-.71-1.97-1.55-1.97-1.53,0-3.13.86-5.02,2.96-.59.65-1.41,1.47-2.31,2.29l-1.03-1.03c2.1-1.85,4.07-3.61,5.29-7.75l-1.18.02h-3.51v-1.36c1.28.02,2.77.02,3.63.02l1.43-.02c.23-.97.42-1.87.57-3l2.06.25c-.04.21-.21.34-.52.38-.15.84-.34,1.57-.53,2.33,1.43-.02,4.49-.36,7.22-1.22l.25,1.41c-2.62.82-5.79,1.11-7.87,1.18-.5,1.57-1.03,2.83-1.51,3.55h.02c.92-.82,2.31-1.36,3.38-1.36,1.43,0,2.33,1.03,2.6,2.73,1.76-.8,3.99-1.66,5.67-2.31l.65,1.6Z"/>
          <path class="cls-3" d="M346.24,66.4h-7.58c2.06,1.64,5.23,3.04,8,3.72-.31.27-.71.8-.92,1.15-2.83-.82-6.17-2.5-8.36-4.39v4.81h-1.41v-4.75c-2.16,1.91-5.46,3.63-8.21,4.51-.21-.38-.63-.9-.95-1.2,2.71-.73,5.88-2.2,7.92-3.86h-7.5v-1.18h8.73v-1.47h-6.13v-6.24c-.65.76-1.38,1.51-2.18,2.2-.23-.34-.67-.8-.99-.99,2.39-1.95,4.14-4.56,5.08-6.57l1.76.29c-.04.15-.17.25-.44.27-.34.63-.74,1.32-1.2,2.04h4.26c.44-.8.92-1.83,1.2-2.58l1.81.36c-.04.15-.19.21-.46.23-.27.57-.69,1.32-1.09,1.99h7.1v1.18h-6.97v1.49h6.19v1.05h-6.19v1.51h6.24v1.05h-6.24v1.55h7.92v1.15h-7.94c-.06.04-.17.08-.32.1v1.36h8.86v1.18ZM336.36,57.43v-1.49h-5.14v1.49h5.14ZM336.36,60v-1.51h-5.14v1.51h5.14ZM331.21,61.05v1.55h5.14v-1.55h-5.14Z"/>
          <path class="cls-3" d="M362.56,57.46l1.05.63c-.06.08-.17.15-.27.17-1.03,1.51-2.5,2.83-4.2,3.97,2.44,1.18,5.35,1.99,8.42,2.39-.31.31-.69.92-.9,1.32-1.03-.17-2.02-.38-3-.63v6.36h-1.45v-.71h-8.92v.73h-1.36v-6.11c-1.11.34-2.25.65-3.34.88-.12-.36-.44-.94-.69-1.24,2.88-.55,5.98-1.55,8.63-2.94-1.18-.78-2.23-1.66-3.09-2.67-.99.8-2.14,1.55-3.46,2.2-.21-.31-.63-.78-.97-.99,2.94-1.34,5.04-3.25,6.13-4.91l1.76.29c-.02.17-.17.25-.42.27-.25.34-.52.69-.84,1.05h6.66l.27-.08ZM350.32,55.67v2.46h-1.36v-3.78h8v-2.16l1.87.13c-.02.15-.15.25-.42.27v1.76h8.13v3.78h-1.43v-2.46h-14.78ZM363.07,65.16c-1.89-.52-3.67-1.24-5.27-2.1-1.45.82-3.04,1.51-4.66,2.1h9.93ZM353.28,69.74h8.92v-3.36h-8.92v3.36ZM354.5,58.69l-.06.06c.86,1.05,2.04,1.97,3.38,2.77,1.37-.84,2.54-1.78,3.44-2.83h-6.76Z"/>
        </g>
        <g>
          <path class="cls-9" d="M225.03,22.57h13.63v17.68h-1.47v-1.26h-10.71v1.39h-1.45v-17.8ZM237.19,24h-10.71v6.03h10.71v-6.03ZM226.48,37.56h10.71v-6.15h-10.71v6.15Z"/>
          <path class="cls-9" d="M262.01,27.19h-7.66c1.81,3.74,4.96,7.2,8.38,8.84-.36.29-.82.84-1.07,1.24-3.3-1.78-6.28-5.14-8.21-8.94v6.89h4.2v1.43h-4.2v4.07h-1.47v-4.07h-4.26v-1.43h4.26v-6.84c-1.99,3.8-5,7.1-8.17,8.94-.25-.36-.69-.88-1.01-1.15,3.3-1.7,6.45-5.23,8.27-8.97h-7.58v-1.43h8.48v-4.54l1.89.1c-.02.15-.13.25-.42.29v4.14h8.57v1.43Z"/>
          <path class="cls-9" d="M264.96,24.04c1.57-.06,14.51-.99,17.24-1.01l.02,1.57c-.27-.02-.52-.02-.78-.02-1.22,0-2.25.21-3.59,1.07-3.15,1.89-6.19,5.27-6.19,7.98,0,2.94,2.06,4.68,7.26,5.35l-.69,1.47c-5.96-.86-8.19-3.09-8.19-6.82,0-2.96,2.92-6.55,6.76-8.97-2.31.17-8.5.63-11.21.88-.06.17-.29.31-.46.34l-.17-1.85ZM278.56,28.18c1.01.76,2.2,1.99,2.86,2.9l-.8.65c-.59-.92-1.87-2.23-2.77-2.92l.71-.63ZM280.83,26.33c1.03.76,2.25,1.97,2.86,2.9l-.8.63c-.57-.84-1.78-2.14-2.77-2.9l.71-.63Z"/>
          <path class="cls-9" d="M288.08,28.66c-.84,1.36-1.76,2.58-2.71,3.59-.17-.34-.53-1.01-.76-1.32,2.12-2.18,4.2-5.86,5.44-9.57l1.72.57c-.08.15-.23.21-.48.21-.57,1.51-1.24,3-1.99,4.43l.59.17c-.02.15-.15.23-.4.27v13.71h-1.41v-12.05ZM304.69,29.39h-6.34v9.05h5.98v1.36h-13.02v-1.36h5.58v-9.05h-6.09v-1.39h6.09v-6.49l1.85.13c-.02.15-.13.25-.4.27v6.09h6.34v1.39Z"/>
          <path class="cls-9" d="M325.37,33.59v1.15h-2.23v3.8h-1.43v-.97h-5.33v1.43c0,.94-.27,1.32-.9,1.53-.65.21-1.76.21-3.55.21-.06-.34-.32-.88-.5-1.22.78.02,1.55.04,2.12.04,1.28,0,1.41,0,1.41-.55v-1.45h-6.99v-1.11h6.99v-1.72h-8.8v-1.15h8.8v-1.6h-6.8v-1.07h6.8v-1.41h-6.17v-4.05h6.17v-1.32h-8.42v-1.2h8.42v-1.76l1.83.1c-.02.17-.13.27-.4.29v1.36h8.59v1.2h-8.59v1.32h6.47v4.05h-6.47v1.41h6.76v2.67h2.23ZM310.15,28.49h4.81v-1.99h-4.81v1.99ZM321.4,26.5h-5.02v1.99h5.02v-1.99ZM316.38,32v1.6h5.33v-1.6h-5.33ZM321.72,36.47v-1.72h-5.33v1.72h5.33Z"/>
          <path class="cls-9" d="M333.86,22.11c-.04.25-.23.4-.65.46-.17,2.44-.38,8-.38,11.11s1.55,4.64,4.2,4.64,5.16-1.28,7.56-3.99c.21.34.69,1.01.94,1.24-2.46,2.79-5.44,4.26-8.52,4.26-3.82,0-5.77-2.2-5.77-6.17,0-2.65.19-9.15.34-11.74l2.29.19Z"/>
          <path class="cls-9" d="M360.94,25.8c-1.79.63-4.16,1.03-6.45,1.2-.88,4.81-2.16,9.6-3.84,13.12l-1.51-.57c1.72-3.38,2.98-7.73,3.8-12.49-.42.02-3.23.04-3.86.02l-.02-1.43c.34.02.78.02,1.26.02.19,0,2.29,0,2.83-.02.21-1.34.42-2.81.54-4.09l2.16.21c-.02.23-.32.4-.61.42-.13.92-.34,2.06-.53,3.34,2.06-.19,4.14-.55,5.88-1.18l.34,1.45ZM366.53,39.79c-.63.02-1.28.04-1.93.04-1.97,0-3.84-.15-4.98-.46-1.49-.42-2.35-1.51-2.33-2.9.02-.92.42-1.97,1.3-3.04l1.26.55c-.73.86-1.09,1.68-1.09,2.33,0,1.66,1.6,2.08,5.42,2.08.78,0,1.58-.02,2.35-.08v1.49ZM358.34,29.67c2.16-.69,5.14-1.13,7.62-1.07v1.43c-2.37-.06-5.12.27-7.26.94l-.36-1.3Z"/>
          <path class="cls-9" d="M372.56,24.04c-.04.19-.27.31-.57.34-.25,1.57-.4,3.46-.4,5.23,0,.78.04,1.53.08,2.2.25,3.57,1.7,5.73,3.32,5.71.84,0,1.93-2.14,2.69-4.49.29.29.86.69,1.22.9-.96,2.83-2.18,5.14-3.93,5.19-2.67.04-4.51-3.19-4.81-7.22-.06-.8-.08-1.68-.08-2.62,0-1.85.11-3.86.32-5.65l2.16.42ZM386.48,33.8c-.59-3.67-2.46-6.32-5.29-7.89l.92-1.13c3.07,1.64,5.31,4.66,5.92,8.55l-1.55.48Z"/>
          <path class="cls-9" d="M258.04,52.37c-.02.15-.15.25-.42.29v9.32c1.53,1.41,3.25,2.6,4.93,3.36-.34.27-.78.82-1.01,1.2-1.32-.67-2.67-1.62-3.93-2.73v7.87h-1.45v-9.26c-1.3-1.34-2.48-2.83-3.38-4.39-1.3,6.74-4.2,11.21-7.96,13.61-.23-.31-.78-.82-1.13-1.03,2.22-1.34,4.14-3.38,5.54-6.15-.88-.86-2.33-1.93-3.57-2.65l.78-.99c1.15.63,2.5,1.53,3.42,2.33.76-1.83,1.34-3.93,1.72-6.3h-4.39c-.84,2.33-1.93,4.41-3.23,5.88-.21-.27-.69-.71-.99-.94,1.89-2.1,3.3-5.77,4.09-9.62l1.74.42c-.04.15-.19.23-.44.23-.21.9-.44,1.81-.71,2.69h4.47l.27-.06.9.38c-.04.08-.12.19-.21.25l-.19,1.2.69-.27c.67,1.2,1.55,2.39,2.56,3.51v-8.27l1.87.13Z"/>
          <path class="cls-9" d="M264.94,53.21h17.66v18.54h-1.45v-1.03h-14.82v1.03h-1.39v-18.54ZM266.32,69.4h14.82v-14.84h-14.82v14.84ZM274.3,66.08h5.44v1.24h-11.82v-1.24h5.06v-3.86h-4.12v-1.2h4.12v-3.3h-4.72v-1.22h11.02v1.22h-4.98v3.3h4.45v1.2h-4.45v3.86ZM277.93,65.71c-.44-.67-1.36-1.72-2.16-2.46l.92-.5c.82.71,1.76,1.7,2.23,2.37l-.99.59Z"/>
          <path class="cls-9" d="M295.76,53.03c0,.17-.17.27-.44.31l-.04.61c.23,2.96,1.49,12.77,9.49,16.4-.4.29-.84.8-1.07,1.18-5.67-2.69-8.02-8.4-9.01-12.74h-.02c-.88,4.26-3.04,9.72-8.73,12.72-.25-.34-.69-.78-1.13-1.07,8.75-4.39,8.82-14.72,8.97-17.55l1.99.15Z"/>
          <path class="cls-9" d="M324.49,61.19s-.08.04-.13.04c-.13,0-.23-.06-.32-.13-1.6.52-3.93,1.39-5.67,2.14.04.48.06,1.03.06,1.64,0,.67-.02,1.43-.06,2.25l-1.53.08c.06-.76.11-1.72.11-2.54,0-.31,0-.61-.02-.84-2.37,1.15-4.3,2.56-4.3,3.82s1.45,1.81,4.35,1.81c2.04,0,3.93-.04,5.27-.21l.02,1.41c-1.24.13-3.13.17-5.29.17-4.03,0-5.82-.97-5.82-3.11,0-1.85,2.44-3.63,5.58-5.21-.12-1.32-.71-1.97-1.55-1.97-1.53,0-3.13.86-5.02,2.96-.59.65-1.41,1.47-2.31,2.29l-1.03-1.03c2.1-1.85,4.07-3.61,5.29-7.75l-1.18.02h-3.51v-1.36c1.28.02,2.77.02,3.63.02l1.43-.02c.23-.97.42-1.87.57-3l2.06.25c-.04.21-.21.34-.52.38-.15.84-.34,1.57-.53,2.33,1.43-.02,4.49-.36,7.22-1.22l.25,1.41c-2.62.82-5.79,1.11-7.87,1.18-.5,1.57-1.03,2.83-1.51,3.55h.02c.92-.82,2.31-1.36,3.38-1.36,1.43,0,2.33,1.03,2.6,2.73,1.76-.8,3.99-1.66,5.67-2.31l.65,1.6Z"/>
          <path class="cls-9" d="M346.24,66.4h-7.58c2.06,1.64,5.23,3.04,8,3.72-.31.27-.71.8-.92,1.15-2.83-.82-6.17-2.5-8.36-4.39v4.81h-1.41v-4.75c-2.16,1.91-5.46,3.63-8.21,4.51-.21-.38-.63-.9-.95-1.2,2.71-.73,5.88-2.2,7.92-3.86h-7.5v-1.18h8.73v-1.47h-6.13v-6.24c-.65.76-1.38,1.51-2.18,2.2-.23-.34-.67-.8-.99-.99,2.39-1.95,4.14-4.56,5.08-6.57l1.76.29c-.04.15-.17.25-.44.27-.34.63-.74,1.32-1.2,2.04h4.26c.44-.8.92-1.83,1.2-2.58l1.81.36c-.04.15-.19.21-.46.23-.27.57-.69,1.32-1.09,1.99h7.1v1.18h-6.97v1.49h6.19v1.05h-6.19v1.51h6.24v1.05h-6.24v1.55h7.92v1.15h-7.94c-.06.04-.17.08-.32.1v1.36h8.86v1.18ZM336.36,57.43v-1.49h-5.14v1.49h5.14ZM336.36,60v-1.51h-5.14v1.51h5.14ZM331.21,61.05v1.55h5.14v-1.55h-5.14Z"/>
          <path class="cls-9" d="M362.56,57.46l1.05.63c-.06.08-.17.15-.27.17-1.03,1.51-2.5,2.83-4.2,3.97,2.44,1.18,5.35,1.99,8.42,2.39-.31.31-.69.92-.9,1.32-1.03-.17-2.02-.38-3-.63v6.36h-1.45v-.71h-8.92v.73h-1.36v-6.11c-1.11.34-2.25.65-3.34.88-.12-.36-.44-.94-.69-1.24,2.88-.55,5.98-1.55,8.63-2.94-1.18-.78-2.23-1.66-3.09-2.67-.99.8-2.14,1.55-3.46,2.2-.21-.31-.63-.78-.97-.99,2.94-1.34,5.04-3.25,6.13-4.91l1.76.29c-.02.17-.17.25-.42.27-.25.34-.52.69-.84,1.05h6.66l.27-.08ZM350.32,55.67v2.46h-1.36v-3.78h8v-2.16l1.87.13c-.02.15-.15.25-.42.27v1.76h8.13v3.78h-1.43v-2.46h-14.78ZM363.07,65.16c-1.89-.52-3.67-1.24-5.27-2.1-1.45.82-3.04,1.51-4.66,2.1h9.93ZM353.28,69.74h8.92v-3.36h-8.92v3.36ZM354.5,58.69l-.06.06c.86,1.05,2.04,1.97,3.38,2.77,1.37-.84,2.54-1.78,3.44-2.83h-6.76Z"/>
        </g>
      </g>
    </g>
  </g>
</svg>