<?xml version="1.0" encoding="UTF-8"?>
<svg id="_レイヤー_2" data-name="レイヤー 2" xmlns="http://www.w3.org/2000/svg" viewBox="0 0 195.9 11.14">
  <defs>
    <style>
      .cls-1 {
        fill: #fff;
      }
    </style>
  </defs>
  <g id="_レイヤー_1-2" data-name="レイヤー 1">
    <g>
      <path class="cls-1" d="M0,.18h1.39v5.2h.05c.29-.42.58-.8.85-1.15L5.59.18h1.73l-3.91,4.58,4.21,6.21h-1.65l-3.55-5.3-1.02,1.18v4.11H0V.18Z"/>
      <path class="cls-1" d="M18.06.18v6.39c0,2.42,1.07,3.44,2.51,3.44,1.6,0,2.62-1.06,2.62-3.44V.18h1.41v6.29c0,3.31-1.74,4.67-4.08,4.67-2.21,0-3.87-1.26-3.87-4.61V.18h1.41Z"/>
      <path class="cls-1" d="M35.02.32c.7-.14,1.71-.22,2.67-.22,1.49,0,2.45.27,3.12.88.54.48.85,1.22.85,2.05,0,1.42-.9,2.37-2.03,2.75v.05c.83.29,1.33,1.06,1.58,2.18.35,1.5.61,2.55.83,2.96h-1.44c-.18-.3-.42-1.23-.72-2.58-.32-1.49-.9-2.05-2.16-2.1h-1.31v4.67h-1.39V.32ZM36.42,5.23h1.42c1.49,0,2.43-.82,2.43-2.05,0-1.39-1.01-2-2.48-2.02-.67,0-1.15.06-1.38.13v3.94Z"/>
      <path class="cls-1" d="M60.85,5.46c0,3.71-2.26,5.68-5.01,5.68s-4.85-2.21-4.85-5.47c0-3.43,2.13-5.67,5.01-5.67s4.85,2.26,4.85,5.46ZM52.48,5.63c0,2.3,1.25,4.37,3.44,4.37s3.46-2.03,3.46-4.48c0-2.14-1.12-4.39-3.44-4.39s-3.46,2.13-3.46,4.5Z"/>
      <path class="cls-1" d="M70.65.18h5.81v1.17h-4.42v3.59h4.08v1.15h-4.08v4.88h-1.39V.18Z"/>
      <path class="cls-1" d="M87.84.18v6.39c0,2.42,1.07,3.44,2.51,3.44,1.6,0,2.62-1.06,2.62-3.44V.18h1.41v6.29c0,3.31-1.74,4.67-4.08,4.67-2.21,0-3.87-1.26-3.87-4.61V.18h1.41Z"/>
      <path class="cls-1" d="M104.8,10.96V.18h1.52l3.46,5.46c.8,1.26,1.42,2.4,1.94,3.51l.03-.02c-.13-1.44-.16-2.75-.16-4.43V.18h1.31v10.79h-1.41l-3.43-5.47c-.75-1.2-1.47-2.43-2.02-3.6l-.05.02c.08,1.36.11,2.66.11,4.45v4.61h-1.31Z"/>
      <path class="cls-1" d="M128.91,5.91h-4.19v3.89h4.67v1.17h-6.07V.18h5.83v1.17h-4.43v3.41h4.19v1.15Z"/>
      <path class="cls-1" d="M152.11,1.04c.02.48-.34.86-.9.86-.5,0-.85-.38-.85-.86s.37-.88.88-.88.86.38.86.88ZM150.54,10.96V3.22h1.41v7.75h-1.41Z"/>
      <path class="cls-1" d="M162.29,5.31c0-.8-.02-1.46-.06-2.1h1.25l.08,1.28h.03c.38-.74,1.28-1.46,2.56-1.46,1.07,0,2.74.64,2.74,3.3v4.63h-1.41v-4.47c0-1.25-.46-2.29-1.79-2.29-.93,0-1.65.66-1.89,1.44-.06.18-.1.42-.1.66v4.66h-1.41v-5.65Z"/>
      <path class="cls-1" d="M184.69,10.68c-.37.19-1.18.45-2.22.45-2.34,0-3.86-1.58-3.86-3.95s1.63-4.11,4.16-4.11c.83,0,1.57.21,1.95.4l-.32,1.09c-.34-.19-.86-.37-1.63-.37-1.78,0-2.74,1.31-2.74,2.93,0,1.79,1.15,2.9,2.69,2.9.8,0,1.33-.21,1.73-.38l.24,1.06Z"/>
      <path class="cls-1" d="M194,10.13c0-.59.4-1.01.96-1.01s.94.42.94,1.01-.37,1.01-.96,1.01c-.56,0-.94-.43-.94-1.01Z"/>
    </g>
  </g>
</svg>