<?xml version="1.0" encoding="UTF-8"?>
<svg id="_レイヤー_2" data-name="レイヤー 2" xmlns="http://www.w3.org/2000/svg" viewBox="0 0 243.21 38.87">
  <defs>
    <style>
      .cls-1 {
        fill: #fff;
      }
    </style>
  </defs>
  <g id="_レイヤー_1-2" data-name="レイヤー 1">
    <g>
      <g>
        <path class="cls-1" d="M57.77,8.94v9.69h.09l7.7-9.69h4.61l-7.81,9.88,10.13,11.11h-5.15l-9.57-10.31v10.31h-4.06V8.94h4.06Z"/>
        <path class="cls-1" d="M81.64,8.94v12.26c-.03.99.17,1.97.56,2.88.42.79,1.06,1.44,1.85,1.85.91.5,1.94.75,2.98.72,1.09.03,2.18-.2,3.16-.69.82-.4,1.48-1.06,1.9-1.86.44-1.03.65-2.15.6-3.27v-11.9h4.07v12.47c.15,2.44-.77,4.83-2.54,6.52-2.03,1.63-4.6,2.44-7.2,2.28-1.74.05-3.48-.3-5.07-1.03-1.37-.64-2.51-1.69-3.26-3-.79-1.41-1.18-3-1.13-4.61v-12.63h4.06Z"/>
        <path class="cls-1" d="M111.88,8.94c1.76-.08,3.48.52,4.82,1.66,1.24,1.08,1.92,2.65,1.86,4.29,0,1.09-.32,2.17-.94,3.07-.7.95-1.65,1.68-2.75,2.1.68.37,1.29.87,1.79,1.47.75.98,1.4,2.03,1.94,3.14,1.29,2.54,2.23,4.29,2.86,5.26h-4.53c-.45-.71-.86-1.45-1.23-2.21-.78-1.55-1.63-3.05-2.56-4.51-.43-.61-.96-1.14-1.57-1.57-.52-.33-1.12-.49-1.73-.48h-1.47v8.84h-4.06V8.94h7.57ZM110.96,17.89c.89.04,1.76-.24,2.45-.8.61-.55.94-1.35.91-2.17.06-.82-.27-1.63-.9-2.17-.76-.52-1.66-.77-2.58-.71h-2.53v5.91l2.64-.06Z"/>
        <path class="cls-1" d="M137.07,8.66c2.04-.03,4.05.43,5.87,1.35,5.21,2.73,7.22,9.16,4.49,14.37,0,0,0,0,0,0l-.29.53c-.99,1.66-2.43,3.02-4.15,3.91-3.74,1.88-8.15,1.88-11.9,0-3.5-1.8-5.68-5.42-5.64-9.36,0-1.92.51-3.81,1.5-5.46.99-1.68,2.43-3.04,4.16-3.94,1.84-.96,3.89-1.44,5.96-1.41ZM129.71,19.44c-.02,1.32.3,2.62.94,3.77.62,1.1,1.53,1.99,2.64,2.59,1.18.63,2.49.94,3.83.92,1.98.06,3.89-.67,5.32-2.04,1.4-1.38,2.15-3.28,2.07-5.24.02-1.32-.3-2.61-.94-3.77-.61-1.12-1.53-2.03-2.65-2.62-1.18-.62-2.5-.94-3.84-.92-1.34-.02-2.67.3-3.85.93-1.11.59-2.02,1.48-2.62,2.58-.64,1.17-.96,2.47-.94,3.8h.05Z"/>
        <path class="cls-1" d="M168.35,8.94v3.16h-8.76v5.43h8.76v3.2h-8.76v9.2h-4.05V8.94h12.8Z"/>
        <path class="cls-1" d="M179.04,8.94v12.26c-.05,1.03.14,2.05.55,2.99.42.79,1.06,1.43,1.85,1.84.92.5,1.95.76,2.99.74,1.1.03,2.19-.2,3.18-.69.81-.41,1.48-1.06,1.9-1.86.45-1.03.65-2.15.6-3.27v-12.01h4.06v12.47c.15,2.44-.77,4.83-2.54,6.52-2.03,1.63-4.6,2.44-7.2,2.28-1.74.05-3.47-.3-5.05-1.03-1.38-.64-2.52-1.69-3.27-3-.78-1.41-1.16-3-1.13-4.61v-12.63h4.06Z"/>
        <path class="cls-1" d="M205.27,8.94l12.47,14.72v-14.72h3.97v21h-3.53l-12.51-14.9v14.9h-3.97V8.94h3.57Z"/>
        <path class="cls-1" d="M243,8.94v3.16h-9.52v5.52h9.11v3.18h-9.12v5.96h9.74v3.18h-13.8V8.94h13.59Z"/>
      </g>
      <g>
        <path class="cls-1" d="M20.23,15.79c.11,0,.2.06.28.14l18,13.44c.18.09.25.3.16.48h0c-1.02,2.88-2.02,5.79-3.01,8.73-.03.18-.19.3-.37.28,0,0,0,0,0,0h-14.68c-.29,0-.34-.08-.34-.34V15.79h-.03Z"/>
        <path class="cls-1" d="M18.5,15.75v22.75c0,.29-.06.36-.35.36-4.88,0-9.76,0-14.66,0-.2.03-.38-.1-.42-.29-.99-2.88-1.99-5.79-3.01-8.74-.1-.14-.06-.33.08-.43.02-.01.04-.02.06-.03H.19l18.02-13.43.29-.19Z"/>
        <path class="cls-1" d="M36.78,17.76c-.74-.55-1.48-1.11-2.21-1.64l-14.07-10.52c-.18-.11-.27-.31-.25-.52V.06s.17.07.25.12c5.88,4.39,11.76,8.77,17.63,13.16.17.07.25.26.18.43,0,0,0,0,0,.01v.05c-.47,1.21-.92,2.43-1.37,3.64-.06.1-.1.19-.15.29Z"/>
        <path class="cls-1" d="M18.5,0v5.18c0,.18-.08.35-.22.45L2.16,17.63c-.18.14-.24.1-.31-.1-.46-1.24-.92-2.47-1.39-3.71-.1-.16-.05-.37.1-.47,0,0,0,0,0,0h0c3.51-2.62,7.01-5.24,10.51-7.86L18.25.17l.25-.17Z"/>
        <path class="cls-1" d="M34.5,23.85c-.13-.05-.25-.13-.35-.22l-13.7-10.22c-.13-.07-.21-.19-.22-.34v-5.03c0-.05,0-.1.04-.14.1.03.18.08.25.16,5.11,3.78,10.21,7.58,15.31,11.38.18.09.26.3.17.48,0,0,0,0,0,0v.04c-.55,1.29-1.01,2.58-1.49,3.89Z"/>
        <path class="cls-1" d="M18.5,7.86v5.23c0,.17-.11.22-.21.29l-6.47,4.83-7.32,5.48c-.09.06-.18.12-.26.18l-1.39-3.69q-.2-.54.28-.91l15.08-11.23c.07-.09.17-.15.29-.18Z"/>
      </g>
    </g>
  </g>
</svg>