<?xml version="1.0" encoding="UTF-8"?>
<svg id="_レイヤー_2" data-name="レイヤー 2" xmlns="http://www.w3.org/2000/svg" viewBox="0 0 83.18 56">
  <defs>
    <style>
      .cls-1 {
        fill: none;
      }

      .cls-2 {
        fill: #003893;
      }

      .cls-3 {
        fill: #fff;
      }

      .cls-4 {
        fill: #dc143c;
      }
    </style>
  </defs>
  <g id="_レイヤー_1-2" data-name="レイヤー 1">
    <g>
      <rect class="cls-1" width="83.18" height="56"/>
      <g>
        <path class="cls-3" d="M22.32,18.16c.11.24.23.49.37.74.62,1.11,1.27,1.83,1.42,1.99.37.4.91.91,1.64,1.4.22-.17.45-.34.67-.52-.42-.34-.85-.69-1.27-1.03.52-.1,1.05-.2,1.57-.29-.32-.49-.65-.98-.97-1.47.57.12,1.15.25,1.72.37-.07-.54-.15-1.08-.22-1.62.45.27.9.54,1.35.81.15-.54.3-1.08.45-1.62l.9,1.33c.35-.39.7-.79,1.05-1.18.1.49.2.98.3,1.47.47-.27.95-.54,1.42-.81l-.22,1.55,1.57-.22c-.25.47-.5.93-.75,1.4.5.12,1,.25,1.49.37-.42.32-.85.64-1.27.96.2.15.4.29.6.44.24-.13.55-.32.9-.59.65-.5,1.05-.98,1.27-1.25.61-.75,1.05-1.58,1.34-2.23,0,.02,0,.04,0,.06,0,4.21-3.43,7.63-7.66,7.63s-7.66-3.41-7.66-7.63c0-.01,0-.03,0-.04Z"/>
        <polygon class="cls-3" points="22.92 44.47 25.01 41.74 21.84 40.47 24.94 39.16 22.92 36.44 26.28 36.88 25.91 33.49 28.63 35.44 29.98 32.42 31.37 35.55 34.13 33.49 33.68 36.81 37.12 36.44 35.03 39.09 38.17 40.49 35.03 41.74 37.12 44.54 33.68 44.1 34.13 47.49 31.29 45.43 30.02 48.52 28.63 45.4 25.84 47.49 26.28 44.1 22.92 44.47"/>
        <path class="cls-4" d="M22.32,18.16c.02-4.19,3.44-7.58,7.66-7.58.83,0,1.62.13,2.37.37l3.1,1.91c1.34,1.36,2.18,3.23,2.19,5.28-.29.66-.73,1.48-1.34,2.23-.22.27-.62.75-1.27,1.25-.35.27-.66.46-.9.59-.2-.15-.4-.29-.6-.44.42-.32.85-.64,1.27-.96-.5-.12-1-.25-1.49-.37.25-.47.5-.93.75-1.4l-1.57.22.22-1.55c-.47.27-.95.54-1.42.81-.1-.49-.2-.98-.3-1.47-.35.39-.7.79-1.05,1.18l-.9-1.33c-.15.54-.3,1.08-.45,1.62-.45-.27-.9-.54-1.35-.81.07.54.15,1.08.22,1.62-.57-.12-1.15-.25-1.72-.37.32.49.65.98.97,1.47-.52.1-1.05.2-1.57.29.42.34.85.69,1.27,1.03-.22.17-.45.34-.67.52-.73-.49-1.27-1-1.64-1.4-.15-.16-.81-.88-1.42-1.99-.14-.25-.26-.5-.37-.74Z"/>
        <path class="cls-2" d="M35.45,12.86l-3.1-1.91c1.19.38,2.25,1.05,3.1,1.91Z"/>
        <path class="cls-2" d="M18.77,55.41V.59l45.63,28.09h-28.97l27.12,26.74H18.77ZM20.53,3.64v50.06h38.08l-26.93-26.55h26.93l-23.15-14.29c-.85-.87-1.91-1.53-3.1-1.91l-11.82-7.3Z"/>
        <path class="cls-4" d="M29.98,10.57c-4.22,0-7.64,3.39-7.66,7.58,0,.01,0,.03,0,.04,0,4.21,3.43,7.63,7.66,7.63s7.66-3.41,7.66-7.63c0-.02,0-.04,0-.06-.01-2.06-.85-3.92-2.19-5.28l23.15,14.29h-26.93l26.93,26.55H20.53V3.64l11.82,7.3c-.75-.24-1.54-.37-2.37-.37ZM22.92,36.44l2.02,2.73-3.1,1.31,3.17,1.27-2.09,2.73,3.36-.37-.45,3.39,2.79-2.09,1.4,3.12,1.27-3.1,2.84,2.06-.45-3.39,3.44.44-2.09-2.8,3.14-1.25-3.14-1.4,2.09-2.65-3.44.37.45-3.32-2.77,2.06-1.38-3.13-1.36,3.02-2.72-1.95.37,3.39-3.36-.44Z"/>
      </g>
    </g>
  </g>
</svg>