<?xml version="1.0" encoding="UTF-8"?>
<svg xmlns="http://www.w3.org/2000/svg" viewBox="0 0 271.46 324.46">
  <defs>
    <style>
      .cls-1 {
        fill: #f8f3d3;
      }

      .cls-2 {
        fill: #edf6f2;
      }

      .cls-3 {
        isolation: isolate;
      }

      .cls-4 {
        fill: #fff;
      }

      .cls-5, .cls-6 {
        fill: #12a497;
      }

      .cls-7 {
        fill: #e7885d;
      }

      .cls-8 {
        fill: #e3e7e8;
      }

      .cls-6 {
        mix-blend-mode: multiply;
      }
    </style>
  </defs>
  <g class="cls-3">
    <g id="_レイヤー_2" data-name="レイヤー 2">
      <g id="_レイヤー_1-2" data-name="レイヤー 1">
        <g>
          <path class="cls-1" d="M0,0c60,62.42,111.13,128.5,152.75,195.47,0,0,12.63,31.82,40.31,68.79,27.68,36.97,49.08,41.37,49.08,41.37l-27.1-47.29,9.5-2.37s-11.45-32.85-21.1-47.06c-9.65-14.2-25.08-31.38-25.08-31.38-14.12-17.71-35.92-31.49-50.28-48.58-2.54-3.02-4.06-9.99-6.6-12.99-9.92-11.7-20.9-19.28-30.91-30.67"/>
          <path class="cls-6" d="M206.53,267.94c21.26,17.43,64.93,48.95,64.93,48.95,0,0-20.04-51.83-30.9-75.22-10.86-23.39-21.21-47.69-40.7-71.32-19.49-23.64-28.04-34.06-46.48-49.07-18.44-15.01-32.67-26.6-32.67-26.6l-13.55,10.17-12.46,9.9s6.76,16.82,17.45,38.34c10.68,21.52,12.56,24.71,35.69,57.4,23.13,32.69,37.42,40.01,58.68,57.44Z"/>
          <path class="cls-2" d="M193.57,271.19c20.56,18.25,62.96,51.46,62.96,51.46,0,0-18-52.57-27.93-76.37-9.93-23.8-19.33-48.48-37.87-72.86-18.55-24.38-26.68-35.13-44.52-50.86-17.84-15.73-31.6-27.86-31.6-27.86l-13.94,9.63-12.84,9.4s6.1,17.07,15.93,38.99c9.83,21.93,11.58,25.18,33.42,58.75,21.84,33.57,35.82,41.45,56.38,59.7Z"/>
          <path class="cls-5" d="M202.36,263.73q4.73-.55,9.5-3.9c4.77-3.35,5.73-4.51,6.81-7.7,1.08-3.18-23.74-57.13-33.13-71.53-9.39-14.4-31.98-38.17-31.98-38.17l-16.72,11.89h0l-16.72,11.89s10.66,21.42,25.56,42.74c14.9,21.32,51.95,55.34,56.68,54.79Z"/>
          <path class="cls-2" d="M204.16,259.55l5.46-2.73.02.02.06-.06.08-.04v-.02s4.36-4.26,4.36-4.26c0,0-22.86-52.43-34.47-66.89-11.62-14.46-31.53-39.27-31.53-39.27l-9.69,6.89-3.18,2.26-9.69,6.89s12.95,22.27,26.95,42.74c14,20.47,51.64,54.47,51.64,54.47Z"/>
          <rect class="cls-5" x="119.11" y="154.39" width="35.83" height="1.78" transform="translate(338.68 202.42) rotate(144.59)"/>
          <path class="cls-4" d="M172.94,205.79l-67.16,32.79s31.19,43.45,50.19,60.99c19,17.54,30.21,21.45,45.05,24.34,14.83,2.9,48.73-6.8,48.73-6.8,0,0-42.6-17.55-59.33-34.42-16.73-16.87-22.19-33.28-23.42-43.76-1.23-10.48,5.94-33.15,5.94-33.15Z"/>
          <path class="cls-2" d="M172.94,205.79l-67.16,32.79s31.19,43.45,50.19,60.99c19,17.54,30.21,21.45,45.05,24.34,14.83,2.9,48.73-6.8,48.73-6.8,0,0-42.6-17.55-59.33-34.42-16.73-16.87-22.19-33.28-23.42-43.76-1.23-10.48,5.94-33.15,5.94-33.15Z"/>
          <polygon class="cls-5" points="172.94 205.79 105.78 238.58 93.21 243.96 92.81 240.42 174.05 203.03 174.98 204.34 172.94 205.79"/>
          <rect class="cls-5" x="148.89" y="169.85" width="5.01" height="9.62" transform="translate(375.99 229.28) rotate(144.59)"/>
          <rect class="cls-5" x="192.18" y="231.91" width="5.64" height="8.15" transform="translate(490.67 315.32) rotate(144.59)"/>
          <rect class="cls-5" x="178.7" y="212.67" width="5.01" height="7.83" transform="translate(454.39 288.1) rotate(144.59)"/>
          <path class="cls-8" d="M190.42,282.69c-16.73-16.87-22.19-33.28-23.42-43.76-1.23-10.48,5.94-33.15,5.94-33.15l-34.67,16.93c1.31,11.7,8.35,53.79,42.93,71.14,40.36,20.24,68.55,23.26,68.55,23.26,0,0-42.6-17.55-59.33-34.42Z"/>
          <path class="cls-7" d="M120.12,166.21l33.44-23.78-24.43-22.98s-8.48,1.64-13.45,5.11c-4.97,3.47-9.24,11.03-9.24,11.03l13.68,30.62Z"/>
        </g>
      </g>
    </g>
  </g>
</svg>