<?xml version="1.0" encoding="UTF-8"?>
<svg id="_レイヤー_2" data-name="レイヤー 2" xmlns="http://www.w3.org/2000/svg" viewBox="0 0 9.75 121.02">
  <defs>
    <style>
      .cls-1 {
        fill: #fff;
      }
    </style>
  </defs>
  <g id="_レイヤー_1-2" data-name="レイヤー 1">
    <g>
      <path class="cls-1" d="M.15,121.02v-1.22h4.55v-.04c-.37-.25-.7-.5-1.01-.74l-3.54-2.89v-1.51l4.01,3.42,5.44-3.68v1.44l-4.64,3.11,1.04.9h3.6v1.22H.15Z"/>
      <path class="cls-1" d="M.15,109.41h5.59c2.12,0,3.01-.94,3.01-2.2,0-1.4-.92-2.3-3.01-2.3H.15v-1.23h5.5c2.9,0,4.09,1.53,4.09,3.57,0,1.93-1.11,3.39-4.04,3.39H.15v-1.23Z"/>
      <path class="cls-1" d="M.28,98.77c-.13-.62-.2-1.5-.2-2.34,0-1.3.24-2.14.77-2.73.42-.48,1.06-.74,1.79-.74,1.25,0,2.07.78,2.41,1.78h.04c.25-.73.92-1.16,1.91-1.39,1.32-.31,2.23-.53,2.59-.73v1.26c-.27.15-1.08.36-2.26.63-1.3.28-1.79.78-1.83,1.89v1.15h4.09v1.22H.28ZM4.58,97.55v-1.25c0-1.3-.71-2.13-1.79-2.13-1.22,0-1.75.88-1.76,2.17,0,.59.06,1.01.11,1.2h3.45Z"/>
      <path class="cls-1" d="M4.78,80.37c3.25,0,4.97,1.98,4.97,4.38s-1.93,4.24-4.79,4.24c-3,0-4.96-1.86-4.96-4.38s1.97-4.24,4.78-4.24ZM4.93,87.7c2.02,0,3.82-1.09,3.82-3.01s-1.78-3.03-3.92-3.03c-1.88,0-3.84.98-3.84,3.01s1.86,3.03,3.94,3.03Z"/>
      <path class="cls-1" d="M.15,75.99v-5.08h1.02v3.87h3.14v-3.57h1.01v3.57h4.27v1.22H.15Z"/>
      <path class="cls-1" d="M.15,65.16h5.59c2.12,0,3.01-.94,3.01-2.2,0-1.4-.92-2.3-3.01-2.3H.15v-1.23h5.5c2.9,0,4.09,1.53,4.09,3.57,0,1.93-1.11,3.39-4.04,3.39H.15v-1.23Z"/>
      <path class="cls-1" d="M9.6,54.52H.15v-1.33l4.78-3.03c1.11-.7,2.1-1.25,3.07-1.69v-.03c-1.27.11-2.42.14-3.89.14H.15v-1.15h9.44v1.23l-4.79,3c-1.05.66-2.13,1.29-3.15,1.76v.04c1.21-.07,2.34-.1,3.91-.1h4.04v1.15Z"/>
      <path class="cls-1" d="M5.17,37.62v3.67h3.4v-4.09h1.02v5.31H.15v-5.1h1.02v3.88h2.98v-3.67h1.01Z"/>
      <path class="cls-1" d="M.91,25.72c.42-.01.76.29.76.78,0,.43-.34.74-.76.74s-.77-.32-.77-.77.34-.76.77-.76ZM9.6,27.09H2.82v-1.23h6.78v1.23Z"/>
      <path class="cls-1" d="M4.65,21.02c-.7,0-1.27.01-1.83.06v-1.09l1.12-.07v-.03c-.64-.34-1.27-1.12-1.27-2.24,0-.94.56-2.4,2.88-2.4h4.05v1.23h-3.91c-1.09,0-2,.41-2,1.57,0,.81.57,1.44,1.26,1.65.15.06.36.08.57.08h4.08v1.23h-4.95Z"/>
      <path class="cls-1" d="M9.34,5.61c.17.32.39,1.04.39,1.95,0,2.05-1.39,3.38-3.46,3.38s-3.6-1.43-3.6-3.64c0-.73.18-1.37.35-1.71l.95.28c-.17.29-.32.76-.32,1.43,0,1.55,1.15,2.4,2.56,2.4,1.57,0,2.54-1.01,2.54-2.35,0-.7-.18-1.16-.34-1.51l.93-.21Z"/>
      <path class="cls-1" d="M8.87,1.67c-.52,0-.88-.35-.88-.84s.36-.83.88-.83.88.32.88.84c0,.49-.38.83-.88.83Z"/>
    </g>
  </g>
</svg>