<?xml version="1.0" encoding="UTF-8"?>
<svg id="_レイヤー_2" data-name="レイヤー 2" xmlns="http://www.w3.org/2000/svg" viewBox="0 0 231.71 211.03">
  <defs>
    <style>
      .cls-1 {
        fill: #5f3a3d;
      }

      .cls-2 {
        fill: #eaa815;
      }

      .cls-3 {
        fill: #161723;
      }

      .cls-4 {
        fill: #e8aaa3;
      }

      .cls-5, .cls-6, .cls-7, .cls-8, .cls-9, .cls-10, .cls-11, .cls-12 {
        fill: #1d1f38;
      }

      .cls-13 {
        fill: #fff;
      }

      .cls-14 {
        fill: #12a497;
      }

      .cls-6 {
        opacity: .18;
      }

      .cls-7 {
        opacity: .27;
      }

      .cls-8 {
        opacity: .12;
      }

      .cls-9 {
        opacity: .14;
      }

      .cls-10 {
        opacity: .8;
      }

      .cls-11 {
        opacity: .46;
      }

      .cls-12 {
        opacity: .55;
      }

      .cls-15 {
        fill: #3b3b4c;
      }

      .cls-16 {
        fill: #f6bf53;
      }

      .cls-17 {
        fill: #09639b;
      }
    </style>
  </defs>
  <g id="_レイヤー_1-2" data-name="レイヤー 1">
    <g>
      <path class="cls-16" d="M212.86,90.49c.49-4.62,22.03-29.23,16.25-28.75-17.98,1.51-92.91,47.45-119.33,63.45C83.37,141.19-13.56,190.74,1.6,203.63c15.16,12.89,122.52-35.97,125.85-37.14,3.33-1.17,85.41-76,85.41-76Z"/>
      <path class="cls-16" d="M90.52,141.02c-3.75,5.46,9.38,8.56,25.23-.48,15.85-9.04,19.29-14.81,18.44-16.29s-5.27-2.61-5.27-2.61l32.1-14.05,5.79,19.64-71.35,40.38-26.53-4.25,21.6-22.33Z"/>
      <path class="cls-3" d="M114.41,141.78c-4.75,2.39-8.83,4.12-12.25,5.29-7.89,2.68-12.33,2.31-13.57-.14-1.77-3.52,3.74-10,19.41-17.89,15.03-7.56,28.65-11.13,31.3-8.31.11.12.21.25.28.4,1.77,3.52-9.5,12.76-25.18,20.65Z"/>
      <g>
        <path class="cls-15" d="M139.77,121.87c-.54,4.32-7.5,9.51-13.99,13.54-1.03.64-2.05,1.25-3.02,1.82-.9.53-1.77,1.02-2.58,1.48-.54.3-1.09.61-1.64.91-1.33.73-2.72,1.44-4.12,2.16-2.65,1.36-7.06,3.38-8.48,3.91-2.26.85-7.05-.92-9.45-2.15-4.03-2.06-7.91-8.68-8.87-10.45-.3-.56.7-1.49.48-1.9-.13-.24,2.61-2.25-.27-1.8-.75.12,1.53-1.7,7.1-4.81,2.17-1.21,4.53-2.49,6.88-3.74,4.66-2.48,9.27-4.84,12.22-6.34,1.99-1.01,3.22-1.63,3.22-1.63.15.12.29.25.45.37,2.35,1.96,5.37,4.22,8.76,6.65.53.38,3.44.42,4.1.56,4.78,1,6.25-.62,9.22,1.41Z"/>
        <path class="cls-11" d="M113.39,137.37s0,0,.02.01c.03-.07.05-.1.05-.11-.01.01-.06.1-.06.1Z"/>
        <path class="cls-12" d="M97.9,144.21c-6.14-2.62-9.26-9.63-10.86-12.54,4.53-2.03,15.41-6.48,15.41-6.48,4.49,11.66-.89,17.39-4.55,19.02Z"/>
      </g>
      <path class="cls-4" d="M162.37,49.79c1.86-.84,3.11-1.18,5.4-2.64,2.21-1.41,3.64-.8,5.82-1,1.93-.18,3.44-3.3,3.6-4.02.53-2.48-1.71-5.67-2.88-4.74-4.82,3.8-1.34-1.97-2.95-1.52-1.88.53-2.94,3.53-5.64,5.06-2.36,1.33-5.26,1.9-6.09,2.73-.83.82,2.75,6.14,2.75,6.14Z"/>
      <path class="cls-4" d="M95.06,49.97c-.06,3.08-2.53,10.63-1.95,13.97l7.58.95s6.01.88,4.56-.67c-1.94-2.06-2.42-4.17-2.41-6.02,0-.22,0-.45,0-.7-.06-2.03-.38-4.81-.57-6.32-.08-.67-.14-1.09-.14-1.09l.06-.6-2.44-4.2s-4.61,1.31-4.69,4.68Z"/>
      <path class="cls-9" d="M102.84,57.5c-.06-2.03-.38-4.81-.57-6.32l-2.48-.65s-2.31,2.26-2.9,3.17c-.91,1.4,2,5.88,5.94,3.8Z"/>
      <path class="cls-13" d="M91.95,57.93c3.09-1.71,5.65,4.8,8.39,4.39,1.67-.25,1.13-.91,1.72-1.87.36-.59.68-1.24,1.62-.61,19.1,12.73,11.95,53.09,14.57,55.5,2.14,1.98-9.58,10.13-18.18,9.97-11.79-.22-13.17-8.45-13.41-10.93-.24-2.48-2.66-45.03-2.66-45.03,0,0,4.08-5.67,7.96-11.43Z"/>
      <path class="cls-17" d="M164.96,39.84c-1.4.39-14.44,9.69-24.84,14.43-6.11,2.78-23.62,7.92-36.44,5.57,0,0,.26,2.82,2.82,9.73,3.38,9.14-.14,17.03,3.56,28.17,4.79,14.42-.3,25.07,3.96,27.57,2.48,1.46,9.62,1.86,12.15-2.61,1.9-3.35-1.06-2.46-2.6-8.17-1.69-6.26-2.45-13.83-3.26-16.13-.6-1.71-1.59-21.39.52-23.63,4.25-4.51,18.15-8.98,22.27-10.94,9.42-4.49,24.21-13.38,24.58-16.36.36-2.89-1.33-8.04-2.73-7.65Z"/>
      <path class="cls-10" d="M114.41,141.78c-4.75,2.39-8.83,4.12-12.25,5.29-7.19-.3-14.43-.83-4.36-1.62,16.51-1.31,39.91-22.86,40.27-24.94l1.25.24c.11.12.21.25.28.4,1.77,3.52-9.5,12.76-25.18,20.65Z"/>
      <path class="cls-9" d="M164.96,39.84c-1.4.39-14.44,9.69-24.84,14.43-6.11,2.78-23.62,7.92-36.44,5.57,0,0,.26,2.82,2.82,9.73,3.38,9.14-.14,17.03,3.56,28.17,4.79,14.42-.3,25.07,3.96,27.57,2.48,1.46,9.62,1.86,12.15-2.61,1.9-3.35-1.06-2.46-2.6-8.17-1.69-6.26-2.45-13.83-3.26-16.13-.6-1.71-1.59-21.39.52-23.63,4.25-4.51,18.15-8.98,22.27-10.94,9.42-4.49,24.21-13.38,24.58-16.36.36-2.89-1.33-8.04-2.73-7.65Z"/>
      <path class="cls-17" d="M103.68,128.04c-3.18,5.7-8.55,12.86-14.16,10.83-2.39-.86-4.09-10.83-4.18-18.58-.07-6.42-.5-11.71-1.32-14.93-.66-2.58-1.15-4.3-1.6-5.89-.53-1.89-1-3.61-1.61-6.41-.29-1.37-.62-3-1-5.03-1.16-6.19-1.44-14.95.55-18.47,4.73-8.38,12.25-11.88,12.25-11.88.79,2.49,3.21,11.27,5.35,20.89.41,1.86.82,3.75,1.2,5.63.32,1.61.63,3.22.91,4.8.22,1.24.43,2.46.61,3.65.08.52.15,1.05.22,1.61,0,0,0,0,0,0,.14,1.21.25,2.51.33,3.85.21,3.38.25,7.02.2,10.25,0,0,0,0,0,0-.03,2.11-.03,4.05-.18,5.62-.97,10.02,5.06,9.33,2.42,14.06Z"/>
      <g>
        <path class="cls-4" d="M107.68,43.01c.06,2.71,2.65,8.04.83,7.92-1.82-.12.12,5.72-1.82,5.66-4.7-.14-9.91-3.45-10.38-5.75-.47-2.3.26-8.61.26-8.61l11.11.77Z"/>
        <path class="cls-5" d="M102.69,45.3c1.47.27,1.49.62,2.56.18,1.07-.44-.64-1.98,1.32-2.18,1.95-.2,4.08-.18,4.42-2.38.49-3.18-2.38-2.86-4.15-2.6-1.14.17-1.27-2.3-3.53-2.34-1.77-.03-1.63,1.02-3.21,1.06-.96.03-2.72-1.66-4.27-.61-2.88,1.95-.75,4.7-3.18,6.83-2.83,2.47,3,8.51,3.76,7.87.89-.74-.18-3.56.71-4.15,1.34-.89,1.43.21,2.44,1.29,1.08,1.15,3.18,1.35,1.96-.82-1.23-2.17-.14-2.4,1.18-2.16Z"/>
      </g>
      <path class="cls-7" d="M101.44,108.36c-5.47-8.46-14.56-29.59-15.82-31.94l11.83,3.25.51-1.09.04-.08c.22,1.24.97,4.49,1.16,5.68,0,0,0,.02,0,.02.12.75.88,5.07,1.74,10.05,0,0,0,0,0,0,.14,1.21.25,2.51.33,3.85.21,3.38.25,7.02.2,10.25Z"/>
      <g>
        <path class="cls-2" d="M231.4,70.2c0,.12,0,.24-.01.37-.02.61-.06,1.24-.11,1.89-.63,8.03-3.45,19.5-10.17,30.56-2.35,3.87-5.17,7.68-8.54,11.28-13.52,14.43-60.79,47.32-104.06,70.74-27.71,15-53.78,26.11-68.28,26-37.13-.28-56.04-7.18-19.27-20.77,12.73-4.71,24.89-9.6,36.48-14.61,4.11-1.78,8.14-3.57,12.11-5.37,99.25-45.17,153-97.61,158.24-107.02,2.09-3.75,3.82-.23,3.61,6.94Z"/>
        <path class="cls-8" d="M231.4,70.2c.05-.11.1-.22.14-.33-.06.19-.11.43-.16.7-.07.51-.11,1.14-.11,1.89-.63,8.03-3.45,19.5-10.17,30.56-2.35,3.87-5.17,7.68-8.54,11.28-13.52,14.43-60.79,47.32-104.06,70.74-27.77-1.52-54.21-4.3-51.07-9.38.97-1.56,4.73-3.34,12.11-5.37,3.09-.85,10.78,7,15.2,6.07,65.27-13.86,121.44-48.03,146.65-106.15Z"/>
        <path class="cls-8" d="M231.71,69.49c-.05.13-.11.25-.16.37.05-.15.1-.27.16-.37Z"/>
      </g>
      <path class="cls-1" d="M184.04,10.37c-28.12,95.7-47.11,168.13-49.9,170.46-2.78,2.33-6.01,3.47-.33-13.76.7-2.12,1.96-6.24,3.63-11.82C149.35,115.47,182.15,1.13,182.15,1.13c0,0,6.34-5.9,1.89,9.23Z"/>
      <path class="cls-4" d="M176.25,38.41c-1.95-1.01-3.59-.26-4.2,2.98-.61,3.24-1.14,5.86,1.53,4.77,2.67-1.09,2.67-7.75,2.67-7.75Z"/>
      <g>
        <path class="cls-4" d="M140.03,105.62c2.04,0,4.35.3,7.03-.09,2.59-.38,4.93.82,7,1.52,1.84.62,4.79.65,5.83-3.13,1.25-4.54-1.56-5.52-3.05-5.46-4.38.2-1.25-1.43-1.81-3.23-.58-1.86-3.45,2.88-6.55,3.17-2.7.26-6.6-1.48-7.69-1.07-1.1.41-.75,8.28-.75,8.28Z"/>
        <path class="cls-17" d="M93.54,63.67c8.24,12.57,17.26,27.36,21.83,29.17,4.57,1.81,33.11,3.95,33.11,3.95,0,0,.77,9.48-.69,9.88-1.46.4-33.09-1.39-35.88-2.21-6.67-1.94-26.73-25.34-28.66-28.23-1.94-2.89,1.02-11.44,5.6-12.85,3.85-1.18,4.69.29,4.69.29Z"/>
      </g>
      <g>
        <path class="cls-6" d="M99.83,64.29c-.32-.25-4.2,6.24-8.98,8.14-1.32.53-6.55,3.09-11.77,2.07.93-6.27,1.28-3.86,2.99-7.35,3.74,1.46,2.25,1.96,4.45,1.87,1.63-.07,3.2-.42,4.66-.94,2.75-.98,5.14-2.54,6.96-3.92.93-.7,1.14-1.86,2.19-1.83,1.4.04-.09,2.29-.51,1.97Z"/>
        <path class="cls-2" d="M102.05,63.06c0-.66-.39-1.77-1.79-1.81-1.06-.03-1.17.39-2.1,1.1-2.79,2.12-6.92,4.67-11.62,4.87-4.7.2-14.95-6.65-21.96-5.61-7.01,1.04-9.53,7.09-19.61,8.02-10.08.92-20.53-4.01-23.5-3.7-2.98.31-4.8.83-4.81,2,0,1.17,1.33,3.2,3.34,4.16,2.01.96,20.14,3.42,24.99,3.09,7.92-.53,15.14-7.16,20.23-7.27,5.09-.11,15.54,3.5,21.49,3.56,6.64.07,12.53-7.27,12.95-6.95.42.32.8.63,1.66.47.59-.11.72-1.28.73-1.94Z"/>
      </g>
      <path class="cls-1" d="M139.33,148.93c-4.91,16.18-9.78,19.79-10.86,23.91-1.08,4.11,6.4,6.17,9.71,5.46,3.31-.71,4.51-23.69,4.86-25.47.36-1.78-3.71-3.89-3.71-3.89Z"/>
      <path class="cls-14" d="M27.1,153.61c13.54-.31,14.55-7.41,23.39,1.24,8.89,8.71,11.49-2.8,23.86,1.55,12.38,4.35-11.6,13.04,28.43,11.18,40.04-1.86,39.16-15.36,54.81-3.91,17.24,12.61,50.07-.12,32.42,16.21-12.02,11.12-61.45,11.92-72.99,5.4-11.55-6.52-22.05-8.63-37.73-5.4-15.68,3.23-17.61-2.36-26.35-2.67-17.48-.62-19.56-13.72-31.94-13.54-12.38.18-19.45-6.19-15.38-9.44,5.05-4.04,21.46-.62,21.46-.62Z"/>
    </g>
  </g>
</svg>