<?xml version="1.0" encoding="UTF-8"?>
<svg id="_レイヤー_2" data-name="レイヤー 2" xmlns="http://www.w3.org/2000/svg" viewBox="0 0 9.75 121.02">
  <defs>
    <style>
      .cls-1 {
        fill: #fff;
      }
    </style>
  </defs>
  <g id="_レイヤー_1-2" data-name="レイヤー 1">
    <g>
      <path class="cls-1" d="M9.59,0v1.22h-4.55v.04c.36.25.7.5,1.01.74l3.54,2.89v1.51l-4.01-3.42L.15,6.67v-1.44l4.64-3.11-1.04-.9H.15V0h9.44Z"/>
      <path class="cls-1" d="M9.59,11.61h-5.59c-2.12,0-3.01.94-3.01,2.2,0,1.4.92,2.3,3.01,2.3h5.59v1.23h-5.5c-2.9,0-4.09-1.53-4.09-3.57,0-1.93,1.11-3.39,4.03-3.39h5.56v1.23Z"/>
      <path class="cls-1" d="M9.47,22.25c.12.62.2,1.5.2,2.34,0,1.3-.24,2.14-.77,2.73-.42.48-1.06.74-1.79.74-1.25,0-2.07-.78-2.41-1.78h-.04c-.25.73-.93,1.16-1.91,1.39-1.32.31-2.23.53-2.59.73v-1.26c.27-.15,1.08-.36,2.25-.63,1.3-.28,1.79-.78,1.84-1.89v-1.15H.15v-1.22h9.32ZM5.17,23.46v1.25c0,1.3.71,2.13,1.79,2.13,1.22,0,1.75-.88,1.77-2.17,0-.59-.06-1.01-.11-1.2h-3.45Z"/>
      <path class="cls-1" d="M4.97,40.65c-3.25,0-4.97-1.98-4.97-4.38s1.93-4.24,4.79-4.24,4.96,1.86,4.96,4.38-1.97,4.24-4.78,4.24ZM4.82,33.32c-2.02,0-3.82,1.09-3.82,3.01s1.78,3.03,3.92,3.03c1.88,0,3.84-.98,3.84-3.01s-1.86-3.03-3.94-3.03Z"/>
      <path class="cls-1" d="M9.59,45.02v5.08h-1.02v-3.87h-3.14v3.57h-1.01v-3.57H.15v-1.22h9.44Z"/>
      <path class="cls-1" d="M9.59,55.86h-5.59c-2.12,0-3.01.94-3.01,2.2,0,1.4.92,2.3,3.01,2.3h5.59v1.23h-5.5c-2.9,0-4.09-1.53-4.09-3.57,0-1.93,1.11-3.39,4.03-3.39h5.56v1.23Z"/>
      <path class="cls-1" d="M.15,66.5h9.44v1.33l-4.78,3.03c-1.11.7-2.1,1.25-3.07,1.69v.03c1.28-.11,2.42-.14,3.89-.14h3.95v1.15H.15v-1.23l4.79-3c1.05-.66,2.13-1.29,3.15-1.76v-.04c-1.21.07-2.34.1-3.91.1H.15v-1.15Z"/>
      <path class="cls-1" d="M4.58,83.4v-3.67H1.18v4.09H.15v-5.31h9.44v5.1h-1.02v-3.88h-2.98v3.67h-1.01Z"/>
      <path class="cls-1" d="M.15,93.92h6.78v1.23H.15v-1.23ZM8.84,95.3c-.42.01-.76-.29-.76-.78,0-.43.34-.74.76-.74s.77.32.77.77-.34.76-.77.76Z"/>
      <path class="cls-1" d="M5.1,100c.7,0,1.28-.01,1.84-.06v1.09l-1.12.07v.03c.64.34,1.27,1.12,1.27,2.24,0,.94-.56,2.4-2.89,2.4H.15v-1.23h3.91c1.09,0,2-.41,2-1.57,0-.81-.57-1.44-1.26-1.65-.15-.06-.36-.08-.57-.08H.15v-1.23h4.94Z"/>
      <path class="cls-1" d="M.41,115.4c-.17-.32-.39-1.04-.39-1.95,0-2.05,1.39-3.38,3.46-3.38s3.6,1.43,3.6,3.64c0,.73-.18,1.37-.35,1.71l-.95-.28c.17-.29.32-.76.32-1.43,0-1.55-1.15-2.4-2.56-2.4-1.57,0-2.54,1.01-2.54,2.35,0,.7.18,1.16.34,1.51l-.92.21Z"/>
      <path class="cls-1" d="M.88,119.35c.52,0,.88.35.88.84s-.36.83-.88.83-.88-.32-.88-.84c0-.49.38-.83.88-.83Z"/>
    </g>
  </g>
</svg>