<?xml version="1.0" encoding="UTF-8"?>
<svg xmlns="http://www.w3.org/2000/svg" viewBox="0 0 164.49 90.97">
  <defs>
    <style>
      .cls-1 {
        fill: #071f38;
      }

      .cls-2 {
        fill: #efe4dd;
      }

      .cls-3 {
        isolation: isolate;
      }

      .cls-4 {
        fill: #fff;
      }

      .cls-5 {
        fill: #387ba8;
      }

      .cls-6 {
        fill: #12a497;
        mix-blend-mode: multiply;
      }

      .cls-7 {
        fill: #4c7f95;
        opacity: .7;
      }

      .cls-8 {
        fill: #d74b35;
      }

      .cls-9 {
        fill: #06061d;
      }
    </style>
  </defs>
  <g class="cls-3">
    <g id="_レイヤー_2" data-name="レイヤー 2">
      <g id="_レイヤー_1-2" data-name="レイヤー 1">
        <g>
          <path class="cls-6" d="M163.07,57.89c-.9-1.56-2.4-2.9-3.73-4.08-3.76-3.33-6.88-7.31-11.05-10.19-1.75-1.21-3.63-2.32-5.04-3.94-.52-.6-1.04-1.21-1.56-1.82.62.06,1.24.03,1.85-.08,1.89-.34,6.37-2.13,5.57-4.69-.42-1.34-2.12-1.96-2.51-3.31-.43-1.5.82-2.85,1.3-4.18.53-1.46-.21-2.89-1.32-3.89-.46-.42-.98-.79-1.31-1.31-.06-.1-.12-.2-.16-.31-.03-.07-.06-.15-.09-.23-.01-.03-.02-.06-.03-.08-.02-.05-.03-.1-.05-.15-.01-.04-.02-.07-.03-.11-.01-.04-.02-.09-.04-.13-.01-.04-.02-.08-.03-.12,0-.04-.02-.08-.02-.11,0-.05-.02-.09-.02-.14,0-.03-.01-.07-.02-.1,0-.05-.01-.1-.02-.16,0-.03,0-.06,0-.08,0-.06-.01-.12-.01-.18,0-.02,0-.04,0-.06,0-.07,0-.13,0-.2,0-.01,0-.03,0-.04,0-.08,0-.15,0-.23,0,0,0,0,0,0,0-.57.08-1.14.18-1.68.01-.07.02-.14.04-.2.13-.64.37-1.51.39-2.32.24-1.6.12-3.26-.43-4.79-.32-.89-.77-1.73-1.42-2.42-.51-.54-1.12-.96-1.73-1.37-.91-.6-1.86-1.18-2.91-1.47-2.5-.7-5.49.08-7.59,1.55-.26.18-.48.42-.19.56-.18.12-.36.25-.53.39-.9.72-1.67,1.6-2.54,2.43-1.39,1.32-2.31,2.22-2.97,3.79-.28.25-.57.48-.92.62-.68.27-1.44.14-2.17.18-.96.04-1.91.37-2.7.93-.77.55-1.44,1.34-2.37,1.5-1.17.19-2.24-.69-3.42-.86-.96-.14-2.02.3-2.47,1.16-.24.46-.24.91-.1,1.33-.7-.03-1.39-.03-2.09-.03-3.29,0-6.41.28-9.66.45-.98.05-1.97.12-2.94-.03-1.83-.28-3.65-1.05-5.48-1.46-2.14-.48-4.29-.86-6.46-1.16-2.9-.4-5.83-.64-8.76-.71-2.07-.05-4.28-.24-6.31.26-1.9.46-3.6,1.48-5.25,2.5-.79.49-1.46,1.13-2.01,1.88-.34.47-.99,1.26-1.02,1.86-.08,1.25,1.81-.35,2.2-.68,1.17-1.02,2.49-1.58,4.02-1.82.13-.02.3,0,.32.12.01.07-.04.13-.08.19-.43.47-1.06.69-1.54,1.1-.08.07-.15.14-.16.24-.01.12.09.23.2.28.8.3,2.39-.68,3.14-.99,1.55-.63,2.76-1.78,4.53-1.37,2.19.51,4.35,1.23,6.56,1.72,2.63.58,5.25,1.17,7.88,1.75,3.17.7,6.34,1.41,9.54,1.93,1.49.24,3,.27,4.51.33.37.02,1.54-.1,2.07.05-.5.62-.91,1.31-1.38,1.96-2.19,3.08-5.34,5.15-8.83,6.5-1.28.49-2.67.63-4.02.86-.66.11-1.33.24-1.97.44-.26.08-1.75.58-1.74.82,0,0,0,0,0,0-2.98.73-5.97,2.15-8.01,3.07-5.04,2.25-10.06,4.49-14.97,7-2.89,1.48-5.53,3.31-8.54,4.67-6.18,2.79-12.68,4.97-18.44,8.61-.74.47-1.47.96-2.19,1.48-2.11,1.54-4.05,3.31-6.21,4.79-2.06,1.42-4.3,2.56-6.54,3.68-3.25,1.62-6.52,3.21-9.89,4.57-3.1,1.25-6.12,2.93-9.42,3.55-.83.16-1.91.54-1.83,1.39.05.5.53.84.98,1.08,1.78.93,3.83,1.34,5.84,1.17,1.86-.16,3.67-.8,5.53-.8,1.26,0,2.6.29,3.74-.27,1.73-.84,2.32-3.02,3.89-4.09,2.05-1.41,4.31-2.4,6.65-3.25,3.52-1.28,7.05-2.57,10.57-3.85,4.13-1.51,7.6-3.23,11.26-5.65,3.65-2.42,7.49-3.7,11.69-4.86,2.75-.75,5.53-1.41,8.32-1.97-1.8,1.22-3.58,2.47-5.54,3.52-5.97,3.2-11.03,5.13-16.53,9.14-.71.52-1.41,1.06-2.08,1.62-2,1.68-3.82,3.58-5.87,5.2-1.96,1.56-4.12,2.85-6.28,4.12-3.13,1.84-6.28,3.65-9.56,5.23-3.01,1.45-5.9,3.33-9.16,4.18-.82.21-1.87.67-1.73,1.51.08.5.58.8,1.05,1.01,1.84.81,3.91,1.08,5.9.77,1.84-.28,3.61-1.05,5.47-1.17.59-.04,1.2-.02,1.79-.05-.02,0-.04,0-.05,0,.02,0,.04,0,.05,0,.06,0,.13,0,.19-.01.03,0,.06,0,.09,0,.06,0,.13-.01.19-.02.03,0,.06,0,.08,0,.18-.02.35-.05.53-.1.03,0,.05-.01.08-.02.06-.02.12-.03.18-.05.03,0,.06-.02.09-.03.06-.02.12-.04.18-.07.02-.01.05-.02.07-.03.08-.04.16-.08.24-.12,1.67-.95,2.11-3.17,3.6-4.35,1.95-1.54,4.14-2.68,6.41-3.69,3.43-1.52,6.86-3.04,10.29-4.56,4.02-1.78,7.37-3.73,10.85-6.4,3.48-2.66,5.94-3.51,10.05-4.94,3.52-1.23,7.1-2.29,10.71-3.19,1.23-.31,2.43-.67,3.62-1.04,0,0,0,0,0,0,.38-.12.77-.24,1.15-.37.8-.26,1.6-.51,2.42-.76-.81.24-1.61.5-2.41.76,1.59-.51,3.18-1.02,4.84-1.43,1.02-.25,2.04-.51,3.06-.8.76-.22,1.51-.45,2.24-.72.04-.02.09-.03.13-.05.18-.07.37-.14.55-.21,0,0,0,0,0,0,.18-.07.36-.15.54-.22.05-.02.09-.04.14-.06.98-.43,1.93-.93,2.81-1.54,1.25-.87,2.45-2.27,3.32-3.9,0,.02,0,.04.01.07.77-1.44,1.54-2.89,2.31-4.33,1.1-2.06,2.41-3.67,4.4-4.97,2.25-1.46,4.79-2.47,7.44-2.9,1.16-.19,2.52-.4,3.06-1.44,0,0,0-.01,0-.02,1.19-.51,2.33-1.13,3.39-1.87,1.38-.95,2.11-1.76,3.89-1.7,1.61.05,3.03.89,4.23,1.92.82.7,1.63,1.4,2.45,2.1,1.85,1.59,3.71,3.19,5.56,4.78,1.46,1.25,2.92,2.51,4.32,3.82,2.48,2.31,4.79,4.43,7.76,6.09,1.81,1.02,3.44,2.31,5.03,3.63,1.01.84,1.35,1.17,1.68,2.45.29,1.13.59,2.26.88,3.38.04.17.1.36.26.44.19.1.44-.03.54-.22s.1-.41.1-.63c-.01-.48-.02-.95-.03-1.43,0-.22,0-.47.18-.59.3-.22.67.15.83.48.86,1.82.67,3.99,1.49,5.83.18.41.43.81.82,1.02.39.22.95.18,1.21-.19.15-.21.17-.49.19-.75.2-3.07.43-5.99-1.18-8.78ZM26.2,89.62s.06,0,.09,0c-.03,0-.06,0-.09,0ZM26.48,89.59s.06,0,.08,0c-.03,0-.05,0-.08,0ZM27.09,89.48s.05-.01.07-.02c-.02,0-.05.01-.07.02ZM27.35,89.41s.06-.02.08-.03c-.03,0-.06.02-.08.03ZM27.61,89.31s.05-.02.07-.03c-.02.01-.05.02-.07.03ZM137.15,11.32c0,.19,0,.39.02.6,0,0,0,0,0,0-.02-.21-.02-.41-.02-.6ZM94.76,57.68s.09-.03.13-.05c-.04.02-.09.03-.13.05ZM95.98,57.2s.09-.04.13-.06c-.04.02-.09.04-.13.06Z"/>
          <g>
            <path class="cls-9" d="M126.01,8c-.2.19-.39.38-.56.54-.42.4-.83.83-1.37,1.04-.68.27-1.44.14-2.17.18-.96.04-1.91.37-2.7.93-.77.55-1.44,1.34-2.37,1.5-1.17.19-2.24-.69-3.42-.86-.96-.14-2.02.3-2.47,1.16-.81,1.56,1.11,2.92,2.16,3.77,1.46,1.17,3.35,1.64,5.19,1.91,1.9.27,3.82.35,5.74.24.88-.05,1.78-.15,2.57-.54.81-.4,1.45-1.08,2.04-1.77.58-.67,1.14-1.37,1.69-2.07.25-.31.5-.62.67-.98.19-.41.27-.86.3-1.3.1-1.41-.04-4.02-1.1-5.1-1.28-1.31-2.93.13-4.2,1.36Z"/>
            <path class="cls-1" d="M149.12,29.65c-.42-1.34-2.12-1.96-2.51-3.31-.43-1.5.82-2.85,1.3-4.18.53-1.46-.21-2.89-1.32-3.89-.46-.42-.98-.79-1.31-1.31-.06-.1-.12-.2-.16-.31-.55-1.23-.43-2.72-.18-4.01.13-.64.37-1.51.39-2.32.24-1.6.12-3.26-.43-4.79-.32-.89-.77-1.73-1.42-2.42-.51-.54-1.12-.96-1.73-1.37-.91-.6-1.86-1.18-2.91-1.47-2.5-.7-5.49.08-7.59,1.55-.26.18-.48.42-.19.56.02,0,.03.02.06.03.25.09.84-.19,1.08-.28.65-.22,1.3-.5,1.51-.56.61-.19,1.25-.34,1.89-.33.27,0,.63,0,.87.13.21.12.31.41.52.51.11.05.23.03.35.02.6-.03,1.11.51,1.22,1.1.31,1.58-1.32,3.26-1.39,4.9,0,.19,0,.39.02.6-.09.01-.18.01-.26.03-3.08.68-5.52,3.03-7.46,5.51-.65.83-1.29,1.74-1.48,2.78-.38,2.13,1.18,4.07,2.63,5.68,1.16,1.28,2.33,2.57,3.49,3.85.93,1.03,1.81,1.69,2.23,3.01.42,1.33.95,2.66,1.99,3.63,1.36,1.28,3.39,1.69,5.23,1.36,1.89-.34,6.37-2.13,5.57-4.69Z"/>
            <g>
              <path class="cls-1" d="M131.18,16.61c1.07.59,2.34.69,3.57.72,3.81.11,8.28-.74,10.15-4.49.01-.07.02-.14.04-.2.13-.64.37-1.51.39-2.32.24-1.6.12-3.26-.43-4.79-.32-.89-.77-1.73-1.42-2.42-.51-.54-1.12-.96-1.73-1.37-.91-.6-1.86-1.18-2.91-1.47-2.5-.7-5.49.08-7.59,1.55-.26.18-.48.42-.19.56.02,0,.03.02.06.03.25.09.84-.19,1.08-.28.65-.22,1.3-.5,1.51-.56.61-.19,1.25-.34,1.89-.33.27,0,.63,0,.87.13.21.12.31.41.52.51.11.05.23.03.35.02.6-.03,1.11.51,1.22,1.1.31,1.58-1.32,3.26-1.39,4.9,0,.19,0,.39.02.6-.09.01-.18.01-.26.03-3.08.68-5.52,3.03-7.46,5.51-.12.15-.24.31-.36.47.48.84,1.12,1.58,2.08,2.11Z"/>
              <path class="cls-1" d="M130.6,22.48c1.16,1.28,2.33,2.57,3.49,3.85.93,1.03,1.81,1.69,2.23,3.01.42,1.33.95,2.66,1.99,3.63,1.36,1.28,3.39,1.69,5.23,1.36,1.89-.34,6.37-2.13,5.57-4.69-.42-1.34-2.12-1.96-2.51-3.31-.43-1.5.82-2.85,1.3-4.18.53-1.46-.21-2.89-1.32-3.89-.46-.42-.98-.79-1.31-1.31-.06-.1-.12-.2-.16-.31-.52-1.17-.44-2.57-.21-3.81-1.86,3.75-6.33,4.6-10.15,4.49-1.23-.03-2.49-.13-3.57-.72-.96-.53-1.6-1.27-2.08-2.11-.52.7-.97,1.46-1.12,2.31-.38,2.13,1.18,4.07,2.63,5.68Z"/>
              <path class="cls-9" d="M130.6,22.48c1.16,1.28,2.33,2.57,3.49,3.85.93,1.03,1.81,1.69,2.23,3.01.42,1.33.95,2.66,1.99,3.63,1.36,1.28,3.39,1.69,5.23,1.36,1.89-.34,6.37-2.13,5.57-4.69-.42-1.34-2.12-1.96-2.51-3.31-.43-1.5.82-2.85,1.3-4.18.53-1.46-.21-2.89-1.32-3.89-.46-.42-.98-.79-1.31-1.31-.06-.1-.12-.2-.16-.31-.52-1.17-.44-2.57-.21-3.81-1.86,3.75-6.33,4.6-10.15,4.49-1.23-.03-2.49-.13-3.57-.72-.96-.53-1.6-1.27-2.08-2.11-.52.7-.97,1.46-1.12,2.31-.38,2.13,1.18,4.07,2.63,5.68Z"/>
            </g>
            <path class="cls-4" d="M84.03,47.85c2.31-.49,4.57-1.16,6.59-2.37,4.04-2.41,7.86-9.99,3.28-13.8-4.07-3.4-11.77.37-15.78,2.17-5.04,2.25-10.06,4.49-14.97,7-2.89,1.48-5.53,3.31-8.54,4.67-6.18,2.79-12.68,4.97-18.44,8.61-.74.47-1.47.96-2.19,1.48-2.11,1.54-4.05,3.31-6.21,4.79-2.06,1.42-4.3,2.56-6.54,3.68-3.25,1.62-6.52,3.21-9.89,4.57-3.1,1.25-6.12,2.93-9.42,3.55-.83.16-1.91.54-1.83,1.39.05.5.53.84.98,1.08,1.78.93,3.83,1.34,5.84,1.17,1.86-.16,3.67-.8,5.53-.8,1.26,0,2.6.29,3.74-.27,1.73-.84,2.32-3.02,3.89-4.09,2.05-1.41,4.31-2.4,6.65-3.25,3.52-1.28,7.05-2.57,10.57-3.85,4.13-1.51,7.6-3.23,11.26-5.65,3.65-2.42,7.49-3.7,11.69-4.86,3.59-.99,7.23-1.81,10.9-2.45,3.34-.59,6.44-1.59,9.79-2.19,1.03-.18,2.07-.37,3.11-.59Z"/>
            <path class="cls-4" d="M86.2,35.9c.58,1.3,2.06,1.59,3.46,2.73.93.76,1.01,2.27,1.02,3.41,0,1.31-.26,2.38-.64,3.56-.38,1.18.47,1.94,1.52,2.37,1.98.82,4.28.85,6.29.1,2.01-.75,3.72-2.26,4.74-4.15.3-.56.54-1.16.89-1.69.5-.77,1.2-1.39,1.89-1.98.8-.68,1.61-1.34,2.43-1.99.99-.78,2.03-1.55,3.25-1.86.76-.19,1.55-.2,2.33-.25,3.39-.23,6.71-1.42,9.51-3.35,1.38-.95,2.11-1.76,3.89-1.7,1.61.05,3.03.89,4.23,1.92.82.7,1.63,1.4,2.45,2.1,1.85,1.59,3.71,3.19,5.56,4.78,1.46,1.25,2.92,2.51,4.32,3.82,2.48,2.31,4.79,4.43,7.76,6.09,1.81,1.02,3.44,2.31,5.03,3.63,1.01.84,1.35,1.17,1.68,2.45.29,1.13.59,2.26.88,3.38.04.17.1.36.26.44.19.1.44-.03.54-.22s.1-.41.1-.63c-.01-.48-.02-.95-.03-1.43,0-.22,0-.47.18-.59.3-.22.67.15.83.48.86,1.82.67,3.99,1.49,5.83.18.41.43.81.82,1.02.39.22.95.18,1.21-.19.15-.21.17-.49.19-.75.2-3.07.43-5.99-1.18-8.78-.9-1.56-2.4-2.9-3.73-4.08-3.76-3.33-6.88-7.31-11.05-10.19-1.75-1.21-3.63-2.32-5.04-3.94-1.38-1.59-2.75-3.21-4.06-4.87-2.71-3.45-5.2-7.14-8.56-10.02-1.2-1.03-1.48-2.38-.11-3.6.54-.48,1.12-.93,1.71-1.34.4-.28,1.45-.65,1.68-1.06.54-.94-.55-1.9-1.31-2.27-1.48-.72-4.53-1.47-5.9-.07-.5.51-.62,1.39-1.05,1.99-.59.81-1.37,1.52-2.38,1.74-1.94.41-4.62-1.09-6.45-1.68-1.28-.41-2.56-.83-3.88-1.04-1.38-.22-2.79-.23-4.19-.23-3.29,0-6.41.28-9.66.45-.98.05-1.97.12-2.94-.03-1.83-.28-3.65-1.05-5.48-1.46-2.14-.48-4.29-.86-6.46-1.16-2.9-.4-5.83-.64-8.76-.71-2.07-.05-4.28-.24-6.31.26-1.9.46-3.6,1.48-5.25,2.5-.79.49-1.46,1.13-2.01,1.88-.34.47-.99,1.26-1.02,1.86-.08,1.25,1.81-.35,2.2-.68,1.17-1.02,2.49-1.58,4.02-1.82.13-.02.3,0,.32.12.01.07-.04.13-.08.19-.43.47-1.06.69-1.54,1.1-.08.07-.15.14-.16.24-.01.12.09.23.2.28.8.3,2.39-.68,3.14-.99,1.55-.63,2.76-1.78,4.53-1.37,2.19.51,4.35,1.23,6.56,1.72,2.63.58,5.25,1.17,7.88,1.75,3.17.7,6.34,1.41,9.54,1.93,1.49.24,3,.27,4.51.33.44.02,1.96-.14,2.28.15.46.42-.32,1.45-.61,1.86-1.4,1.92-2.94,3.78-4.9,5.12-2.24,1.54-4.89,2.3-7.55,2.72-2.63.42-4.86.51-5.23,3.79-.11.93-.02,1.59.21,2.1Z"/>
            <path class="cls-7" d="M85.12,42.32c-.15-.26-.51-.52-1.4-.3-2.55.64-4.96,1.88-7.29,3.07l-.22.11c-3.52,1.8-7.69,3.78-12.01,4.81l-.21.05c-4.21,1-8.57,2.04-12.48,4.1-2.22,1.17-4.47,1.83-6.86,2.53-2.24.66-4.18.96-6.36.28-1.65-.51-2.29-1.45-1.97-2.87,0-.03,0-.07-.03-.09s-.07-.02-.1,0l-.07.04c-.76.48-1.5.98-2.19,1.48-.94.68-1.86,1.43-2.75,2.14-1.11.9-2.26,1.82-3.46,2.65-2.02,1.39-4.15,2.49-6.53,3.68-1.34.67-3.11,1.55-4.9,2.38-.87.41-1.68.77-2.48,1.13-.86.38-1.7.73-2.51,1.06-.36.14-.74.3-1.16.49-.48.21-.97.42-1.45.64-.29.13-.57.26-.86.38-1.1.49-2.29.99-3.51,1.4-.86.28-1.65.49-2.42.64-.37.07-.71.17-.98.29-.23.1-.42.22-.56.35-.26.24-.38.52-.35.84,0,.07.02.13.04.2.06.17.17.34.32.49.14.13.32.26.55.39.04.02.07.04.11.06.22.12.45.23.69.33,1.17.51,2.4.8,3.68.87.21.01.42.02.63.02.3,0,.6-.01.89-.04.24-.02.5-.05.81-.1.34-.05.7-.11,1.14-.2l.38-.07c.34-.07.68-.13,1.02-.2l.22-.04c.78-.13,1.38-.19,1.94-.19h.01c.32,0,.64.02.96.04.15,0,.3.02.45.02.17,0,.34.01.51.01.18,0,.33,0,.48-.01.54-.04.99-.15,1.38-.34.21-.1.42-.23.61-.38.18-.14.36-.3.53-.48.38-.4.72-.87,1.04-1.33.5-.7,1.01-1.43,1.72-1.91.49-.34,1.02-.67,1.57-.98,1.41-.8,3.02-1.52,5.06-2.26l10.57-3.85c1.05-.38,2.03-.77,2.99-1.18,2.22-.95,4.32-2.03,6.41-3.29.72-.43,1.31-.81,1.88-1.19,1.05-.69,2.17-1.33,3.44-1.94,1.18-.56,2.37-1.06,3.65-1.51.48-.17.99-.34,1.49-.5.92-.29,1.89-.58,3.08-.9.89-.25,1.8-.48,2.7-.71.91-.23,1.82-.44,2.72-.64,1.81-.41,3.66-.78,5.48-1.1.65-.12,1.31-.26,1.92-.4.01,0,.02,0,.03,0,1.34-.49,2.46-.92,3.51-1.34,3.24-1.32,5.82-2.61,7.87-4.65.56-.55.95-1.45.65-2Z"/>
            <path class="cls-4" d="M92.51,54.96c2.27-.65,4.48-1.47,6.41-2.8,3.87-2.68,7.17-10.49,2.34-13.99-2.91-2.11-6.91-1.12-9.87.18-3.52,1.56-6.81,3.56-10.2,5.37-3.38,1.8-6.71,3.7-9.99,5.67-2.78,1.68-5.29,3.68-8.2,5.24-5.97,3.2-11.03,5.13-16.53,9.14-.71.52-1.41,1.06-2.08,1.62-2,1.68-3.82,3.58-5.87,5.2-1.96,1.56-4.12,2.85-6.28,4.12-3.13,1.84-6.28,3.65-9.56,5.23-3.01,1.45-5.9,3.33-9.16,4.18-.82.21-1.87.67-1.73,1.51.08.5.58.8,1.05,1.01,1.84.81,3.91,1.08,5.9.77,1.84-.28,3.61-1.05,5.47-1.17,1.26-.08,2.61.11,3.71-.52,1.67-.95,2.11-3.17,3.6-4.35,1.95-1.54,4.14-2.68,6.41-3.69,3.43-1.52,6.86-3.04,10.29-4.56,4.02-1.78,7.37-3.73,10.85-6.4,3.48-2.66,5.94-3.51,10.05-4.94,3.52-1.23,7.1-2.29,10.71-3.19,3.29-.81,6.32-2.03,9.62-2.84,1.02-.25,2.04-.51,3.06-.8Z"/>
            <path class="cls-8" d="M119.83,15.7s-.05-.03-.08-.04c-1.62-.87-3.63-.43-5.35-.11-1.8.34-3.68,1.02-5.41,1.63-1.75.62-3.57,1.44-4.81,2.88-.56.65-1,1.4-1.5,2.1-2.19,3.08-5.34,5.15-8.83,6.5-1.28.49-2.67.63-4.02.86-.66.11-1.33.24-1.97.44-.26.08-1.75.58-1.74.82.03,1.79.07,2.76-.24,4.51-.3,1.72-.69,3.48-1.31,5.12-.26.66-.55,1.35-.81,1.87,1.6-.24,2.64-.27,4.26-.34,1.8-.08,3.42.05,5.07.26,2.7.35,5.31,1.21,7.34,3.08.88.82,1.6,1.86,1.82,3.04.77-1.44,1.54-2.89,2.31-4.33,1.1-2.06,2.41-3.67,4.4-4.97,2.25-1.46,4.79-2.47,7.44-2.9,1.16-.19,2.52-.4,3.06-1.44.23-.46.25-.99.32-1.49.37-2.91,2.35-5.44,4.81-7.03.67-.43,1.37-.82,2.08-1.17,1.15-.57,2.38-1.05,3.65-1.26.58-.1,1.18-.13,1.76-.05.27.04.54.1.79.2.12.05.25.1.36.17.11.06.24.12.32.22,0,.01.02.03.04.02.01,0,.01-.02.01-.03,0-.28-.09-.43-.25-.66-.11-.16-.24-.31-.38-.44-.28-.27-.63-.46-.99-.6-.85-.31-1.79-.3-2.68-.2-1.05.12-2.09.38-3.1.68-.99.3-1.96.66-2.93,1.03-.72.28-1.44.58-2.17.83-3.21,1.1-6.91,1.83-9.87.18-1.33-.74-2.46-2.1-2.37-3.62.22-3.64,5.6-4.43,8.28-4.98.6-.12,1.19-.28,1.8-.31.6-.04,1.13.2,1.7.33.02-.03,0-.08-.02-.1-.08-.11-.15-.21-.26-.3-.18-.14-.37-.26-.57-.38Z"/>
            <g>
              <path class="cls-4" d="M129.21,12.78c1.14.06,2.27.15,3.4.29-1.39-.68-4.17-1.38-5.63-.29.76-.08,1.55-.03,2.23,0Z"/>
              <path class="cls-2" d="M131.67,16.82c.19-.14.37-.28.57-.42.4-.28,1.45-.65,1.68-1.06.54-.94-.55-1.9-1.31-2.27,0,0,0,0,0,0-1.13-.14-2.26-.24-3.4-.29-.67-.03-1.47-.08-2.23,0-.09.07-.18.14-.26.23-.5.51-.62,1.39-1.05,1.99-.36.5-.8.97-1.32,1.3,2,.7,3.47,1.2,7.33.52Z"/>
            </g>
            <path class="cls-4" d="M132.74,16.26c.53-.24,1.05-.48,1.56-.76.8-.43,1.65-.86,2.58-.88.5-.01,1.01-.03,1.49-.18.48-.15.94-.43,1.2-.86.26-.43.28-1.02-.04-1.42-.25-.31-.65-.46-.98-.68-1.01-.69-1.44-2.44-1.4-3.6.06-1.64,1.7-3.32,1.39-4.9-.12-.59-.63-1.13-1.22-1.1-.12,0-.24.03-.35-.02-.21-.1-.31-.39-.52-.51-.24-.14-.6-.13-.87-.13-.64,0-1.28.14-1.89.33-.2.06-.86.34-1.51.56-.24.08-.83.36-1.08.28-.02,0-.04-.02-.06-.03-.18.12-.36.25-.53.39-.9.72-1.67,1.6-2.54,2.43-1.65,1.57-2.64,2.53-3.32,4.75-.45,1.48-.47,3.2.45,4.44.77,1.04,2.06,1.55,3.31,1.89,1.07.29,2.17.49,3.27.57.29-.27.71-.41,1.06-.57Z"/>
            <path class="cls-7" d="M105.53,19.12h-.57c-1.87,0-3.81.02-5.67-.28-2.39-.38-4.8-.81-7.19-1.27-3.61-.69-7.25-1.47-10.82-2.33-.41-.1-.83-.17-1.28-.25-1.14-.2-2.33-.41-3.24-1.02-.61-.41-1.05-1.12-1.11-1.81-.03-.34.01-.83.41-1.22.02-.02.03-.06.02-.09-.01-.03-.04-.05-.08-.06-.08,0-.15,0-.23,0-.1,0-.2,0-.3-.01-.32,0-.65-.02-.98-.03-1.78-.06-3.63-.13-5.35.29-1.85.45-3.48,1.41-5.27,2.51-.79.49-1.47,1.13-2.04,1.9-.04.06-.09.12-.14.19-.37.49-.87,1.17-.9,1.72-.02.27.05.45.21.52.46.23,1.53-.61,2.13-1.13,1.11-.96,2.41-1.55,3.97-1.8.1-.02.21,0,.22.05,0,.04-.04.09-.06.11-.23.26-.53.43-.84.62-.24.14-.48.29-.69.47-.09.08-.18.17-.19.3-.02.17.12.31.26.37.65.25,1.76-.3,2.58-.7.25-.12.46-.22.63-.29.43-.17.84-.39,1.23-.6,1.03-.55,2-1.06,3.25-.77,1.03.24,2.08.53,3.09.82,1.13.32,2.3.64,3.47.9l7.88,1.75c3.1.69,6.3,1.4,9.55,1.93,1.28.21,2.59.26,3.85.31.22,0,.44.02.67.03.12,0,.3,0,.51,0,.44-.02,1.03-.04,1.41.03-.06.08-.11.15-.17.23-.03.05-.07.1-.1.15-.02.03-.02.08,0,.11.02.02.04.03.06.03.02,0,.03,0,.05-.02.06-.04.12-.08.18-.12.1-.07.2-.13.3-.21.47-.35.92-.75,1.35-1.17.03-.03.03-.06.02-.1-.01-.03-.05-.05-.08-.05Z"/>
            <path class="cls-5" d="M27.92,85.72c-.68.39-1.47.46-2.27.48.8-.02,1.59-.09,2.27-.48Z"/>
            <path class="cls-5" d="M101.16,49.94c.4-.52.76-1.09,1.08-1.69h0c-.32.6-.69,1.17-1.08,1.69Z"/>
            <path class="cls-5" d="M96.65,53.46c-.79.37-1.61.69-2.45.98.84-.28,1.65-.6,2.45-.98Z"/>
            <path class="cls-5" d="M68.01,62.17c-1.07.38-2.04.73-2.95,1.1.91-.37,1.88-.72,2.95-1.1Z"/>
            <path class="cls-5" d="M87.02,56.43c-1.6.48-3.16,1.01-4.76,1.5,1.6-.48,3.16-1.01,4.76-1.5Z"/>
            <path class="cls-7" d="M163.15,54.4c-.93-1.61-2.49-2.99-3.75-4.11-.82-.73-1.58-1.47-2.22-2.1-.03-.03-.07-.03-.1-.01-.03.02-.05.06-.04.1.14.67.1,1.12-.12,1.43-.22.31-.65.5-1.31.58-2.93.35-5.55-1.8-7.76-3.84l-14.14-13.02c-1.34-1.23-2.86-2.63-4.75-3.19-1.73-.51-3.81-.28-5.85.65-1.83.83-3.42,2.09-4.96,3.3-.83.65-1.76.8-2.75.95-.51.08-1.03.16-1.57.32-.51.15-1.04.32-1.55.48-1.61.52-3.26,1.06-4.91,1.06-.04,0-.09,0-.13,0-.16,0-.31,0-.47-.02-.64-.03-1.3-.06-1.9.19-1,.42-1.64,1.52-1.83,3.2-.02.18-.04.36-.05.52-.23,3.9-1.57,6.78-4.1,8.79-1.58,1.26-3.84,2.25-5.84,3.06-1.67.67-3.44,1.17-5.14,1.66l-3.98,1.13c-4.39,1.24-8.93,2.53-13.35,3.93-4.08,1.3-8.31,2.64-12.27,5.12-2.71,1.69-5.01,2.57-7.26,2.77-1.29.12-3.72.02-4.6-1.08-.36-.46-.43-1.05-.21-1.76.05-.15.11-.29.17-.43.03-.06.05-.13.08-.19.01-.04,0-.08-.03-.1-.03-.02-.07-.03-.11,0-.74.54-1.39,1.05-2,1.56-.89.75-1.76,1.55-2.6,2.32-1.05.97-2.13,1.97-3.27,2.87-1.92,1.52-3.97,2.76-6.27,4.11-3.5,2.06-6.46,3.73-9.55,5.22-.86.41-1.72.87-2.55,1.31-2.1,1.11-4.27,2.26-6.59,2.86-.74.19-1.95.66-1.8,1.61.09.57.67.89,1.1,1.07,1.36.6,2.84.9,4.33.9.28,0,.56-.01.84-.03.27-.02.53-.05.78-.09.72-.11,1.41-.29,2.06-.46l.25-.07c.32-.09.64-.17.97-.25.33-.08.58-.14.82-.19.5-.1.94-.17,1.37-.19.16-.01.32-.02.48-.02.16,0,.32,0,.48,0,.16,0,.32,0,.48,0,.91-.02,1.65-.11,2.31-.49.7-.4,1.17-1.02,1.51-1.51.18-.27.35-.55.52-.82.21-.33.42-.68.64-1,.31-.44.61-.77.94-1.03.91-.72,1.92-1.39,3.07-2.04.51-.29,1.05-.57,1.64-.86.53-.26,1.08-.51,1.68-.78l10.29-4.56c2.59-1.15,4.8-2.32,6.96-3.68.87-.55,1.75-1.14,2.61-1.76.44-.32.88-.64,1.3-.97,1.82-1.39,3.42-2.34,5.36-3.19.2-.09.4-.17.6-.25,1.2-.49,2.51-.95,4.02-1.47l.05-.02c.86-.3,1.75-.6,2.65-.89,1.76-.57,3.56-1.1,5.35-1.59.88-.24,1.79-.48,2.7-.7.74-.18,1.54-.4,2.43-.67.8-.24,1.6-.5,2.38-.75.78-.25,1.58-.51,2.38-.75.89-.27,1.68-.49,2.43-.67.89-.22,2-.5,3.06-.8.62-.18,1.17-.35,1.69-.53.91-.31,1.71-.63,2.46-.98.27-.13.53-.26.78-.39.53-.28,1.04-.59,1.51-.92.13-.09.27-.2.42-.32.03-.02.06-.05.09-.07l.03-.03c.1-.09.21-.18.31-.27l.03-.03s.06-.05.09-.08c.13-.12.25-.24.39-.38l.02-.02c.14-.15.28-.31.42-.47l.02-.03c.13-.15.26-.31.38-.47l.04-.06c.38-.5.72-1.03,1.03-1.59.03,0,.06-.02.08-.05l2.31-4.33c1.19-2.22,2.54-3.75,4.37-4.94,2.26-1.47,4.83-2.47,7.41-2.89h.05c1.17-.2,2.5-.41,3.07-1.47,1.19-.51,2.33-1.14,3.38-1.87.23-.16.44-.31.64-.46,1.01-.74,1.75-1.27,3.19-1.22,1.38.05,2.74.67,4.17,1.9l8.02,6.89c1.43,1.23,2.91,2.5,4.31,3.81,2.31,2.15,4.7,4.38,7.77,6.11,1.7.95,3.24,2.14,5.02,3.62.99.82,1.32,1.14,1.65,2.4l.88,3.38c.05.19.12.4.31.5.24.12.53-.04.65-.26.11-.21.11-.46.11-.67l-.03-1.43c0-.21.01-.42.15-.52.06-.05.13-.06.21-.04.19.05.39.28.49.49.43.91.6,1.94.76,2.94.16.97.32,1.98.73,2.89.24.54.51.87.86,1.07.4.22,1.02.21,1.32-.21.17-.24.19-.55.21-.79v-.18c.21-3.03.4-5.89-1.19-8.65ZM25.65,86.2c.8-.02,1.59-.09,2.27-.48-.68.39-1.47.46-2.27.48ZM82.26,57.93c1.6-.48,3.16-1.01,4.76-1.5-1.6.48-3.16,1.01-4.76,1.5ZM94.2,54.44c.84-.28,1.65-.6,2.45-.98-.79.37-1.61.69-2.45.98ZM101.16,49.94c.4-.52.76-1.09,1.08-1.69h0c-.32.6-.69,1.17-1.08,1.69Z"/>
          </g>
        </g>
      </g>
    </g>
  </g>
</svg>