<?xml version="1.0" encoding="UTF-8"?>
<svg id="_レイヤー_2" data-name="レイヤー 2" xmlns="http://www.w3.org/2000/svg" viewBox="0 0 42.8 179.94">
  <defs>
    <style>
      .cls-1 {
        fill: none;
        stroke: #fff;
        stroke-miterlimit: 10;
      }

      .cls-2 {
        fill: #fff;
      }
    </style>
  </defs>
  <g id="_レイヤー_1-2" data-name="レイヤー 1">
    <circle class="cls-2" cx="6.65" cy="6.65" r="6.65"/>
    <line class="cls-1" x1="6.65" y1="9.34" x2="6.65" y2="179.94"/>
    <g>
      <path class="cls-2" d="M42.8,175.56c0,.69-.13,1.37-.39,2.03-.26.66-.63,1.25-1.12,1.75l-1.43-1.19c.35-.36.62-.78.83-1.25s.32-.93.32-1.38c0-.54-.11-.95-.32-1.23-.21-.28-.5-.42-.87-.42-.26,0-.47.07-.62.2-.15.14-.29.32-.41.55-.12.23-.24.5-.36.81l-.6,1.37c-.14.35-.33.68-.57,1-.24.32-.54.59-.9.8-.36.21-.8.32-1.3.32-.57,0-1.08-.15-1.53-.46-.45-.31-.8-.73-1.07-1.27-.27-.54-.4-1.16-.4-1.85,0-.62.12-1.21.35-1.78.23-.57.57-1.06.99-1.48l1.29,1.05c-.27.33-.48.67-.63,1.02-.15.35-.22.75-.22,1.19s.1.8.29,1.07c.19.27.46.4.81.4.24,0,.44-.07.6-.22.16-.15.3-.35.41-.59.12-.24.24-.51.36-.8l.55-1.36c.17-.42.38-.79.63-1.1.25-.31.56-.56.91-.73.35-.17.78-.26,1.29-.26.56,0,1.08.15,1.55.45.48.3.86.74,1.15,1.3.29.56.43,1.25.43,2.05Z"/>
      <path class="cls-2" d="M42.8,158.71c0,.65-.11,1.26-.34,1.83s-.57,1.07-1.03,1.5-1.02.77-1.68,1.02c-.66.25-1.42.37-2.28.37s-1.62-.13-2.29-.38c-.67-.25-1.23-.6-1.7-1.04s-.82-.96-1.06-1.54c-.24-.58-.36-1.2-.36-1.85s.13-1.25.4-1.77c.27-.52.58-.94.93-1.27l1.32,1.08c-.26.26-.47.55-.63.86-.16.31-.24.67-.24,1.06,0,.52.14.99.43,1.41.28.42.69.74,1.22.97s1.17.35,1.92.35,1.4-.11,1.94-.33c.54-.22.95-.53,1.24-.94.29-.41.43-.88.43-1.42,0-.45-.1-.85-.29-1.2s-.44-.66-.74-.93l1.29-1.11c.5.43.88.92,1.14,1.47.26.55.38,1.17.38,1.85Z"/>
      <path class="cls-2" d="M42.61,146.74h-10.37v-3.6c0-.74.1-1.4.29-1.99.19-.59.52-1.05.98-1.4s1.09-.52,1.88-.52,1.39.17,1.88.52.85.81,1.08,1.4c.23.59.34,1.25.34,1.99v1.53h3.92v2.07ZM37.05,144.66v-1.34c0-.67-.14-1.18-.42-1.53-.28-.35-.7-.52-1.25-.52s-.95.17-1.17.52c-.22.35-.33.86-.33,1.53v1.34h3.16ZM42.61,141.11l-4.45,2.41-1.29-1.46,5.74-3.28v2.32Z"/>
      <path class="cls-2" d="M42.8,126.07c0,.92-.22,1.72-.65,2.42-.43.7-1.06,1.24-1.87,1.63-.81.39-1.78.59-2.91.59s-2.08-.2-2.87-.59c-.79-.39-1.4-.94-1.82-1.63s-.63-1.5-.63-2.42.21-1.73.64-2.42c.42-.69,1.03-1.23,1.82-1.62s1.74-.59,2.86-.59,2.1.2,2.91.59c.81.39,1.44.93,1.87,1.62.43.69.65,1.5.65,2.42ZM41.01,126.07c0-.51-.15-.96-.45-1.34s-.72-.67-1.27-.88c-.55-.21-1.19-.31-1.92-.31s-1.37.1-1.9.31c-.53.21-.93.5-1.22.88-.29.38-.43.82-.43,1.34s.14.96.43,1.34c.28.38.69.67,1.22.87s1.16.3,1.9.3,1.38-.1,1.92-.3.97-.49,1.27-.87c.3-.38.45-.82.45-1.34Z"/>
      <path class="cls-2" d="M42.61,112.41h-10.37v-2.07h8.64v-4.21h1.74v6.29Z"/>
      <path class="cls-2" d="M42.61,97.32h-10.37v-2.07h8.64v-4.21h1.74v6.29Z"/>
    </g>
  </g>
</svg>