<?xml version="1.0" encoding="UTF-8"?>
<svg id="_レイヤー_2" data-name="レイヤー 2" xmlns="http://www.w3.org/2000/svg" viewBox="0 0 82 56">
  <defs>
    <style>
      .cls-1 {
        fill: none;
      }

      .cls-2 {
        fill: #f5e727;
      }

      .cls-3 {
        fill: #04512c;
      }

      .cls-4 {
        fill: #570c19;
      }

      .cls-5 {
        fill: #ee8a17;
      }
    </style>
  </defs>
  <g id="_レイヤー_1-2" data-name="レイヤー 1">
    <g>
      <rect class="cls-1" width="82" height="56"/>
      <g>
        <rect class="cls-2" x=".72" y="1.04" width="80.55" height="53.92"/>
        <g>
          <path class="cls-4" d="M27.25,50.85V5.15h50.59v45.7H27.25"/>
          <path class="cls-3" d="M4.16,50.85V5.15h9.33v45.7H4.16"/>
          <path class="cls-5" d="M13.49,50.85V5.15h9.58v45.7h-9.58"/>
        </g>
        <g>
          <path class="cls-2" d="M27.83,5.78s.33-.26.43-.21l.92,1.17s.07.04.26-.09c0,0,.66-.47,1.55-.1,0,0,.76.4,1.15,1.79,0,0,.8,2.43,1.24,3.12,0,0-.89-.28-1.33-.38,0,0-2.02-.16-2.94-.91,0,0-.92-.6-.59-2.28,0,0,.09-.53.26-.85,0,0-.74-.91-.94-1.28Z"/>
          <path class="cls-2" d="M77.08,5.78s-.33-.26-.43-.21l-.92,1.17s-.07.04-.26-.09c0,0-.67-.47-1.55-.1,0,0-.76.4-1.15,1.79,0,0-.79,2.43-1.24,3.12,0,0,.89-.28,1.33-.38,0,0,2.02-.16,2.94-.91,0,0,.92-.6.59-2.28,0,0-.09-.53-.26-.85,0,0,.74-.91.94-1.28Z"/>
          <path class="cls-2" d="M27.83,50.16s.33.26.43.21l.92-1.17s.07-.03.26.09c0,0,.66.47,1.55.1,0,0,.76-.4,1.15-1.79,0,0,.8-2.43,1.24-3.12,0,0-.89.28-1.33.38,0,0-2.02.16-2.94.92,0,0-.92.6-.59,2.28,0,0,.09.53.26.84,0,0-.74.91-.94,1.28Z"/>
          <path class="cls-2" d="M77.08,50.16s-.33.26-.43.21l-.92-1.17s-.07-.03-.26.09c0,0-.67.47-1.55.1,0,0-.76-.4-1.15-1.79,0,0-.79-2.43-1.24-3.12,0,0,.89.28,1.33.38,0,0,2.02.16,2.94.92,0,0,.92.6.59,2.28,0,0-.09.53-.26.84,0,0,.74.91.94,1.28Z"/>
          <path class="cls-2" d="M42.62,18.7s1.85-.74,3.51-.74c0,0-.5-.64-.81-.76,0,0,0-.1-.41-.03,0,0,0-.57,1.16-.6,0,0,.98.09,1.24.93,0,0,.11.22.46-.07,0,0,.57-.28.56-.9,0,0,.07-.28-.2-.52,0,0,1.28-.24,1.94,1.05,0,0,.46.1.59-1.43,0,0,.94.31,1.5,1.55,0,0,1.66.09,2.31-.64,0,0-.32,1.67-1.07,1.98,0,0,.85,1.05.5,2.28l-.2-.09-.04,1.85h-.46v.72h.39s.15,1.31.13,1.62l3.2-.48s5.68-.98,7.93-1.09c0,0,1.33-.07,2.68.55,0,0,.68.19.94-.07v-.86s.07-1.19-.98-1.78c0,0-1.07-.72-2.44-.09,0,0-1.43.72-3.63.67,0,0-3.98.12-5.31-1.41,0,0-1.18.67-1.29,1.79,0,0-.78-.55-.5-1.97,0,0,.15-.43.55-.59,0,0-.31-1.38.31-2.55,0,0,1.13-1.9,3.79-1.78,0,0,2.55-.12,5.6,1.31,0,0,3.53,1.67,4.25,2.22,0,0,.15.17-.17.19,0,0-1.09.1-1.96-.47l-1.59-.95s.28.71.59,1.07c0,0-2.24-.15-2.96-1.62,0,0-.05,1.4-1.59,1.1,0,0,.78-.62.13-1.55,0,0-.13,1.19-.57,1.38,0,0-.57-1.19-.96-1.48,0,0,0,1.26-.13,1.41,0,0-1.15-.69-1.54-.79,0,0-.63-.22-1.15.28,0,0-.41.55-.48,1.19,0,0,.54-.74,1.31-.69,0,0,.76,0,.89.28,0,0-.87.91.11,1.67,0,0-.06-.84.39-1.09,0,0,.7,1.16,1.79,1.4,0,0,2.09.17,2.9-.36,0,0,2-.71,4.44.29,0,0,2.53.66,2.57,2.85,0,0-.09,1.38-.98,2.24,0,0,1.55.48,1.55,2.21,0,0,.06,1.64-.81,2.93,0,0-1.2,2.42-1.27,2.93,0,0-.48,1.45.46,2.31,0,0,.72.59,2.02.52,0,0,.13,1.1-2.33,1.14,0,0,.67.72.79.72,0,0-.54.38-.46,1.07,0,0,.11.78.35,1.07,0,0,.37.91-.48,1.05,0,0-1.2.1-1.72-.1,0,0-.46-.17-.54-.31,0,0-.07.6-.31.62,0,0-1.2.09-1.5-.02,0,0-.41-.04-.37-.45,0,0-.67.47-1.04.43,0,0-.65.16-.52-.48,0,0-.35.31-.65.29h-.33s-.31.05-.06-.62c0,0,.33-1.54,1.76-1.62,0,0,1.09.03,1.39.36,0,0,.61.21.65-.4v-2.95s-.11-.98-1.02-1.66c0,0-1.41-.98-1.79-1.66,0,0-.98-1.03-2.27-1,0,0-1.11-.02-2.07.83,0,0-5.29,3.54-9.74,3.95,0,0-.06,1-.39,1.4,0,0,1.39-.84,2.57-.74,0,0,.13,1.07-1.57,1.73,0,0-.65.16-.35.97,0,0,.57.69.28,1.14,0,0-.13.4-.68.41h-3.64s-.3.02-.2-.47c0,0-.37.48-1.07.48,0,0-.44.07-.43-.29l.07-.4s-.81.79-1.54.71c0,0-.02-1.76,1.79-2.02h1.03s.91-.35.83-1.38l-.17-2.19s-1.39-.78-2.05-1.33v.67s-.06,1.07-.92,1.07c0,0-2.09-.05-2.88-1.95,0,0-.22.69-.76.69,0,0-.92-.09-1.05-.72,0,0-.7.09-.98.09,0,0,.19.72-.07,1.16,0,0-.26.19,0,.4l.35.21s.28.22.17-.19v-.45s-.04-.47.63-.4c0,0,.72.23.72.98,0,0,0,.67-.87.71,0,0-.87.1-1.17-.1,0,0-.41-.1-.41.09v.28s.05.21.22.19c0,0,.74.14.78.48,0,0,.04.33-.31.33h-.44s.04.57-.45.66c0,0-.33.02-.37-.67h-.74s-.32-.21.09-.55l.5-.31s.15-.33.04-.41c0,0-1.07.16-1.55-.02,0,0-.59-.09-.67-.76,0,0,.09-.79.94-.9,0,0,.48-.07.63.57,0,0-.07.53-.28.57,0,0,.65-.14.68-.43,0,0,.17-.1-.09-.38,0,0-.18-.48-.02-1.14,0,0-1.13.12-1.59-.41,0,0-.43-.69.2-1.12,0,0-.35-.57.22-.81,0,0-.46-.36-.07-.83,0,0-.35-.19-.35-.57,0,0,0-.35.26-.48,0,0-.43-.16-.31-.62,0,0-.07-.33.37-.47,0,0-1.11-.31-1.22-1,0,0-.11-.9.74-1.05,0,0,.67-.16,1.07.26,0,0,.26.05.24-.17,0,0,.07-3.71.44-6.14,0,0,.48-6.02,2.81-7.5,0,0-.59,1.67-.63,3.07,0,0-.26,9.78-.05,10.6,0,0-.02.29.3.1,0,0,1.15-.22,1.35.64,0,0,.02,1.26-1.18,1.4v.16h1.18s.91-.07,1.42,1c0,0,.54,1.17.68,1.35,0,0-.37-2.69,1.44-4.05,0,0,1.31-1.28,3.4-1.74v-1.24s-.17-.45-.44-.05c0,0-.76.83-1.28.74l.41-.95s-.06-.26-.22-.03c0,0-.65.64-.35,1.35,0,0-.94-.19-.94-1.5,0,0-.17-.09-.17.14,0,0-.13,1.34-1.11,1.52,0,0,.44-.71.48-1.59,0,0-.13-.05-.18.16,0,0-1.07,1.15-2.11.65,0,0,1-.41.94-1.29,0,0,.06-.64-.48-1.28,0,0-.28-.36.11-.26l.11-.09s-.31-.09-.5-.76c0,0,.04-.16.35.02,0,0,1.26.5,2.66.43,0,0,2-.02,2.18-.12,0,0-.65-.45-.74-.88,0,0-.2-.16-.2.05v.57s-1.35-.29-1.77-1.07c0,0-.3-.19-.44-.02,0,0-.44.33-1.05-.21,0,0-.81-.71-.94-1.38,0,0-.09-.76,1-.85,0,0,.65-.09.83.48,0,0,.06.28-.02.47ZM49.81,36.46c.07-.51.34-.77.34-.77h0c1.65-1.33,2.82-4.14,2.87-4.26.03-.06,0-.14-.08-.16-.07-.02-.15,0-.17.07-.01.03-1.19,2.87-2.8,4.16-.01.01-.35.31-.43.92,0,.07.04.13.12.14,0,0,.01,0,.02,0,.07,0,.12-.05.13-.11ZM46.02,35.82c.07-.02.11-.09.09-.15-.14-.49-.62-4.2-.62-4.24,0-.07-.07-.12-.15-.11-.07,0-.12.07-.12.14.02.15.48,3.77.63,4.28.02.06.07.09.13.09.01,0,.02,0,.03,0ZM44.27,34.63c.05-.05.05-.13,0-.18-2.53-2.21-2.62-3.38-2.62-3.4,0-.07-.05-.12-.14-.12-.07,0-.13.06-.13.13,0,.05.07,1.27,2.71,3.57.02.02.06.03.09.03s.07-.01.1-.04ZM46.5,20.07c.18-.18.15-.49.15-.52-.06-.8-.56-.84-.66-.84,0,0-.03,0-.03,0-.15.02-.27.08-.34.18-.14.19-.09.46-.07.53.02.75.51.78.58.78h0s.03,0,.05,0c.13,0,.25-.04.33-.13ZM46.43,19.56c0,.07,0,.27-.09.37-.04.04-.09.06-.16.06,0,0-.02,0-.05,0-.06,0-.35-.03-.36-.59,0,0,0-.02,0-.02-.02-.07-.05-.26.04-.37.04-.05.1-.08.19-.09.07,0,.4.03.44.65ZM48.97,19.85c.12-.13,0-.33-.09-.48l-.36-.4c-.03-.07-.05-.15-.06-.19.03,0,.09.03.2.1.04.03.88.79,1.8.63.08,0,.34-.01.4-.17.06-.15-.12-.28-.18-.33l-.27-.22c-.06-.06-.11-.14-.11-.16,0,0,.04-.03.23-.01.17.03,1.68.26,2.14-.2.04-.04.04-.11,0-.15-.04-.04-.12-.03-.16,0-.32.32-1.5.21-1.94.14-.16-.02-.38-.02-.46.12-.08.16.09.34.15.4l.28.23c.06.05.09.08.1.1-.04.02-.12.03-.2.03-.82.14-1.61-.57-1.63-.59-.16-.1-.36-.21-.49-.11-.14.11-.04.36.01.46,0,0,.01.02.02.02l.36.4c.11.18.1.23.1.23h0s-.14.01-.24-.02c0,0-.02,0-.03,0-.86-.03-2.14-1.42-2.16-1.43-.04-.04-.11-.05-.16,0-.05.04-.05.1-.01.15.05.06,1.34,1.45,2.3,1.5.04.01.14.04.24.04.09,0,.18-.02.24-.09ZM47.11,23.34s.13-.07.15-.2c0-.03.07-.75-.36-1.25-.02-.02-.4-.42-1.22-.62-.06-.01-.12.02-.14.07-.01.06.02.11.08.13.75.18,1.11.55,1.11.55.37.43.31,1.09.31,1.09,0,.01,0,.03-.01.03-.06.02-.3-.09-.46-.2-.34-.24-.9-.23-.91-.23-.36-.04-.82.16-.82.16-.1.02-.17.02-.2,0-.03-.03-.03-.09-.03-.12v-.28c-.01-.13-.08-.2-.13-.23-.13-.09-.31-.04-.33-.03-.02,0-.03.01-.04.02-.35.28-1.06.22-1.08.22-1.04.01-1.85-.54-1.85-.55-.05-.04-.12-.03-.16.02-.04.05-.03.11.02.15.04.02.87.6,1.98.59.03,0,.78.07,1.21-.25.04,0,.09-.01.12,0,.02.01.03.04.03.07v.26s-.03.18.1.29c.09.08.23.09.43.05,0,0,.42-.18.74-.15,0,0,.5-.01.78.19.09.06.36.25.57.25.04,0,.07,0,.1-.02ZM48.94,21.94c.07-.04.27-.2-.08-.86,0-.02-.09-.18-.21-.38.38.33.8.66.96.68.03,0,.06,0,.08-.02.05-.04.28-.24.18-1.01.35.35.81.72,1.03.65.01,0,.03-.01.04-.02,0,0,.19-.17.16-.54.19.21.42.43.58.45.04,0,.07,0,.1-.03.03-.03.29-.34.09-1.48.42.31,1.32,1,1.77,1.49.04.04.11.05.16.01.05-.04.05-.1.01-.15-.61-.67-1.98-1.65-2.03-1.69-.04-.03-.09-.03-.13,0-.04.02-.06.07-.05.11.2.95.1,1.36.04,1.5-.16-.1-.45-.41-.67-.7-.03-.04-.09-.06-.14-.03-.05.02-.07.08-.05.13.18.46.08.69.03.76-.15-.03-.61-.41-1.02-.85-.03-.04-.09-.05-.13-.02-.04.02-.07.07-.06.11.15.72.05,1.02,0,1.12-.22-.12-.88-.67-1.42-1.17-.04-.04-.11-.04-.15,0-.04.04-.05.1-.01.14.25.28.65,1.04.65,1.05.19.36.19.52.18.57-.33-.07-1.04-.74-1.44-1.16-.04-.04-.11-.05-.16-.01-.05.04-.05.1-.01.15.12.13,1.16,1.24,1.66,1.24.02,0,.04,0,.05-.01ZM53.21,23.96c.15-.05.24-.27.28-.69,0-.06-.04-.11-.1-.11-.06,0-.12.04-.12.09-.03.37-.1.48-.13.51-.01,0-.02-.01-.04-.01-.22-.07-.89-1.49-1.39-2.78-.02-.05-.07-.08-.12-.07-.05,0-.09.05-.09.1l-.04,1.73c0,.1,0,.18-.04.2-.02.01-.04.01-.05.01-.02,0-.03,0-.03,0-.11-.08-.64-.9-1.09-1.65-.03-.04-.08-.06-.13-.05-.05.01-.08.06-.08.11l.13,1.45c0,.09-.02.12-.02.13,0,0-.02,0-.02-.01,0,0-.01,0-.02-.01-.14-.06-.52-.39-.65-.51-.08-.09-.19-.2-.32-.16-.09.03-.13.12-.14.2l.02,1.11c-.01.11-.04.15-.05.15-.02,0-.1-.02-.14-.06l-.85-.97s-.11-.05-.16-.01c-.05.04-.05.1-.02.15l.86.98s.21.17.38.1c.11-.04.17-.15.19-.34l-.02-1.08s.04.04.07.07c.05.05.5.45.7.55.06.04.15.07.24.04.14-.06.15-.25.16-.32l-.09-1c.33.54.79,1.25.94,1.33.02,0,.18.06.32-.03.1-.07.15-.2.13-.37l.02-1.18c.38.93.98,2.26,1.33,2.39.03.02.07.03.11.03.02,0,.05,0,.07-.01ZM48.77,26.34s.04-.06.04-.09c-.07-.61-.18-1.84-.15-2.1,0-.06-.04-.11-.1-.11-.06,0-.12.04-.12.09-.03.28.08,1.45.12,1.93-.34-.31-.78-1.2-1.02-1.78-.02-.05-.07-.07-.12-.07-.05,0-.09.05-.09.1l-.02,1.24c0,.06.05.1.11.11.06,0,.11-.05.11-.1v-.74c.28.57.74,1.44,1.13,1.54.01,0,.02,0,.03,0,.03,0,.05,0,.07-.02ZM51,26.61s.1-.06.12-.17c.02-.11-.02-.23-.11-.34,0,0-.28-.55-.52-1.07.55.72,1.1,1.36,1.36,1.36h0s.11,0,.18-.08c.14-.15.15-.46.01-.97l-.32-.82c.5.68,1.12,1.47,1.38,1.57.05.03.12.05.21.02.25-.08.45-.52.6-1.36,0-.06-.03-.11-.09-.12s-.12.03-.13.08c-.19,1.04-.41,1.18-.46,1.2-.02-.01-.03-.02-.06-.03-.19-.06-1.05-1.16-1.78-2.2-.03-.04-.09-.06-.14-.04-.05.02-.07.08-.06.13l.63,1.61c.14.54.07.71.04.76-.01.02-.02.02-.02.02,0,0,0,0-.02,0-.19-.03-1.01-1.03-1.65-1.94-.03-.04-.09-.06-.14-.04-.05.02-.08.07-.06.12.15.56.79,1.81.83,1.88.09.11.09.17.09.19,0,0,0,0,0,.01-.36-.11-1.24-1.25-1.77-2.06-.03-.05-.1-.06-.15-.04-.05.03-.07.09-.04.14.23.36,1.43,2.15,1.99,2.17h0s.04,0,.06-.01ZM37.94,28.13c.11-.1.17-.23.16-.4v-.91c0-.06-.05-.1-.11-.1s-.11.05-.11.1v.92c0,.11-.03.18-.09.24-.13.11-.4.11-.5.1h-1.53c-.15,0-.26-.04-.32-.11-.12-.13-.1-.34-.1-.36v-.76c0-.06-.05-.1-.11-.1s-.11.05-.11.1v.75s-.04.3.15.5c.11.12.28.18.49.18h1.51s.05,0,.12,0c.14,0,.38-.02.55-.16ZM38.48,29.07c.06-.01.1-.06.09-.12-.01-.06-.07-.09-.13-.08-1.86.3-4.02-.2-4.04-.2-.06-.02-.12.02-.13.07-.02.06.02.11.08.13.02,0,1.32.31,2.79.31.44,0,.9-.03,1.34-.1ZM38.04,30.02c.15-.04.42-.18.42-.47.04-.17.03-.51-.29-.63-.06-.02-.12,0-.14.06-.02.06,0,.11.06.14.24.08.16.38.16.4,0,.01,0,.02,0,.03.01.2-.24.27-.25.27-1.83.47-3.63-.08-3.65-.09-.06-.02-.12.01-.14.07-.02.05.01.11.07.13.05.02.94.29,2.12.29.51,0,1.08-.05,1.66-.2ZM38.07,30.9s.22-.16.29-.46c.02-.15-.05-.48-.48-.58-.06-.02-.12.02-.14.07-.02.06.02.11.08.13.34.09.33.33.32.35-.04.2-.19.32-.19.31h0c-1.07.5-3.49.1-3.51.1-.06-.01-.12.03-.13.08-.01.06.03.11.09.12.06.01.95.16,1.91.16.64,0,1.3-.07,1.76-.28ZM38.02,31.62s.25-.15.28-.39c.03-.13.01-.4-.25-.51-.05-.02-.12,0-.15.05-.03.05,0,.11.06.14.17.07.12.27.12.29-.01.15-.17.25-.19.26-.56.46-3.09.18-3.43.12-.06-.01-.12.03-.13.08-.01.06.03.11.09.12.02,0,1.01.14,1.98.14.68,0,1.34-.07,1.63-.3ZM37.7,32.52s.58-.26.6-.67c0-.01.05-.28-.05-.51-.02-.05-.09-.08-.15-.05-.06.02-.08.08-.06.14.08.17.04.39.04.4-.02.3-.47.5-.48.51-.7.41-3.27.03-3.3.02-.06,0-.12.03-.13.09,0,.06.03.11.09.12.07.01,1.14.17,2.1.17.55,0,1.07-.05,1.34-.21ZM38.08,34.29c1.19-.28,1.01-1.05,1.01-1.06-.15-.74-.74-.69-.74-.69-.44.03-.81.29-.98.43-.28-.34-.77-.41-.8-.41-.02,0-.03,0-.04,0-.4.11-.69.37-.85.54-.2-.41-.69-.63-.72-.64-.06-.02-.12,0-.15.05-.03.05,0,.11.05.14,0,0,.58.26.66.69,0,.04.04.07.09.08.04,0,.09,0,.12-.04,0,0,.32-.46.83-.61.1.02.51.11.68.41.02.03.05.05.08.05.04,0,.07,0,.1-.03,0,0,.44-.41.95-.45,0,0,.39-.04.5.53,0,0,.13.58-.85.81-.06.01-.09.07-.08.13.01.05.06.08.11.08,0,0,.02,0,.03,0Z"/>
          <path class="cls-2" d="M58.08,35.01s-.38-.42-.34-.97c0,0-.08-.56.35-.78,0,0,1.36-.72,1.54-.89,0,0,1.11-.73,2.02-.59,0,0,.86.03,1.66.75,0,0,.31.23.44.75,0,0,.12,1.9-.72,2.99,0,0-.02.23.2.07,0,0,.77-.58,1.46-.53.02-.02.61-.05.4.42,0,0-.84,1.04-1.93,1.2,0,0-.04,2.4-1.18,3.7,0,0-.56.1-1.41.09,0,0-1.28.03-1.54-.11,0,0-.16-.14-.12-.34,0,0-.44.36-.89.33,0,0-.43.09-.42-.2l.1-.36s-.74.6-1.48.55c0,0-.3-.28.45-1.09,0,0,.58-.66,1.42-.68,0,0,.83,0,1.17.4,0,0,.21.08.25-.16,0,0,.28-.75.34-1.75,0,0,.08-.98-.54-1.59,0,0-1.05-.97-1.24-1.21Z"/>
        </g>
      </g>
    </g>
  </g>
</svg>